<svg width="63" height="71" viewBox="0 0 63 71" fill="none" xmlns="http://www.w3.org/2000/svg">
<path fill-rule="evenodd" clip-rule="evenodd" d="M52.4156 5.94356C52.7607 6.05466 52.942 6.4278 52.8204 6.77699C52.3585 8.10352 51.584 9.25146 50.745 10.2978C50.3251 10.8214 49.8822 11.3277 49.4494 11.8193L49.3395 11.9441C48.9421 12.3952 48.5558 12.8339 48.1904 13.2778C47.9541 13.5647 47.5361 13.6126 47.2566 13.3848C46.9771 13.1569 46.9421 12.7396 47.1783 12.4526C47.5593 11.9898 47.9608 11.5339 48.3553 11.0861L48.3553 11.0861L48.3553 11.0861L48.4671 10.9591C48.9005 10.4668 49.324 9.98225 49.7217 9.48638C50.5177 8.4937 51.1827 7.48828 51.5705 6.37467C51.6921 6.02548 52.0704 5.83247 52.4156 5.94356ZM41.8261 4.87448C42.1892 4.81769 42.5205 5.06511 42.5661 5.42712C42.6953 6.45287 42.6304 7.4706 42.543 8.4353C42.5259 8.62442 42.508 8.81077 42.4903 8.99489L42.4903 8.9952L42.4902 8.99554C42.4159 9.77028 42.3453 10.5056 42.3504 11.2426C42.3529 11.6088 42.0583 11.9168 41.6924 11.9305C41.3264 11.9443 41.0277 11.6586 41.0252 11.2924C41.0197 10.4802 41.0986 9.66026 41.1737 8.88085C41.1907 8.70352 41.2076 8.52828 41.2233 8.35571C41.3094 7.40418 41.3615 6.50784 41.2512 5.63279C41.2056 5.27078 41.463 4.93128 41.8261 4.87448ZM57.0288 14.8189C57.2858 14.5503 57.2829 14.1305 57.0224 13.8813C56.7619 13.6321 56.3423 13.6478 56.0854 13.9165C54.6964 15.3686 53.7852 16.3036 52.0902 17.0965C51.7548 17.2534 51.6017 17.649 51.7482 17.9802C51.8946 18.3114 52.2852 18.4526 52.6206 18.2958C54.5714 17.3831 55.6379 16.2731 57.0288 14.8189Z" fill="black"/>
<path fill-rule="evenodd" clip-rule="evenodd" d="M31.637 16.0212C38.407 15.7768 44.7548 17.6153 49.329 22.918C53.0662 27.2504 54.5451 33.2734 52.8774 38.8223C51.2971 44.0802 46.9128 48.7881 42.1967 51.3689C35.5707 54.9949 28.4662 54.9014 21.5376 52.7477C15.0737 50.7385 8.39256 45.7975 7.42561 38.568C7.4189 38.5676 7.41217 38.5671 7.40543 38.5666C6.85496 38.5218 6.44496 38.0394 6.48966 37.4889C7.53395 24.6307 19.3482 16.4649 31.637 16.0212ZM8.7129 35.8484C9.06254 36.0042 9.30627 36.3547 9.30627 36.7622C9.30627 43.6635 15.4696 48.7672 22.1312 50.8379C28.6989 52.8793 35.213 52.9108 41.2366 49.6144C45.5886 47.2329 49.562 42.9048 50.962 38.2467C52.4197 33.3965 51.1363 28.075 47.8146 24.2244C43.75 19.5125 38.07 17.7903 31.7091 18.0199C20.7256 18.4164 10.5563 25.3046 8.7129 35.8484Z" fill="black"/>
<path fill-rule="evenodd" clip-rule="evenodd" d="M38.7898 31.4363C38.6656 31.7262 38.5579 31.9774 38.4878 32.122C38.2494 32.6137 37.6575 32.8191 37.1659 32.5807C36.6742 32.3423 36.4688 31.7504 36.7072 31.2588C36.7597 31.1505 36.8339 30.9769 36.9357 30.7388L36.9357 30.7388C37.0126 30.559 37.1052 30.3424 37.2161 30.0894C37.4581 29.5369 37.7633 28.8689 38.1017 28.2418C38.4308 27.6317 38.8294 26.9875 39.2739 26.5317C39.4953 26.3047 39.786 26.0633 40.145 25.9273C40.5412 25.7773 41.0096 25.7641 41.4554 26.0042C42.4459 26.5376 43.2756 27.4558 43.9397 28.3482C44.5604 29.1824 45.1004 30.0844 45.5274 30.7977L45.5275 30.7977L45.6343 30.976C45.9154 31.4445 45.7635 32.0523 45.2949 32.3334C44.8263 32.6145 44.2186 32.4626 43.9375 31.9941L43.8361 31.8249C43.402 31.1002 42.9107 30.2801 42.3522 29.5295C41.8121 28.8037 41.2661 28.2233 40.7305 27.8736C40.7181 27.8854 40.7048 27.8986 40.6906 27.9132C40.4454 28.1646 40.1523 28.6083 39.8431 29.1814C39.5431 29.7376 39.2631 30.3479 39.0285 30.8835C38.946 31.0719 38.8649 31.2611 38.7898 31.4363ZM23.1332 32.8272L23.1108 32.8827C22.9058 33.3892 22.329 33.6336 21.8225 33.4286C21.316 33.2235 21.0716 32.6467 21.2766 32.1402L21.302 32.0774L21.302 32.0774C21.47 31.6604 21.9629 30.437 22.5563 29.4399C22.8545 28.9388 23.2563 28.3565 23.7432 28.0091C23.9973 27.8279 24.3782 27.6362 24.8439 27.6721C25.3416 27.7104 25.7148 27.9892 25.9642 28.3098C26.7791 29.3576 27.7166 30.1529 28.8642 30.8415C29.3328 31.1227 29.4847 31.7304 29.2036 32.1989C28.9225 32.6675 28.3147 32.8194 27.8462 32.5383C26.632 31.8098 25.5852 30.9541 24.6653 29.8513C24.5511 29.9918 24.4124 30.1902 24.2566 30.452C23.7453 31.3111 23.303 32.4067 23.1332 32.8272ZM24.9085 29.6095C24.9085 29.6096 24.907 29.6105 24.9042 29.612C24.9071 29.6102 24.9085 29.6094 24.9085 29.6095ZM38.8566 39.3872C39.1377 38.9187 38.9858 38.3109 38.5172 38.0298C38.0487 37.7487 37.441 37.9006 37.1598 38.3692C36.8923 38.8151 36.6523 39.3358 36.4298 39.8277L36.3489 40.0069C36.1474 40.4533 35.9526 40.8852 35.7369 41.2974C35.2302 42.2655 34.7335 42.8661 34.157 43.0911C33.5087 43.3441 32.7883 43.1302 31.8857 42.4258C31.2539 41.9328 30.7133 41.3511 30.1892 40.7871L30.1891 40.7871C29.9469 40.5265 29.7082 40.2697 29.4656 40.0271C29.0792 39.6407 28.4528 39.6407 28.0664 40.0271C27.68 40.4134 27.68 41.0399 28.0664 41.4263C28.2182 41.5781 28.4014 41.7748 28.6084 41.9972L28.6085 41.9972C29.1697 42.6 29.9062 43.3911 30.6683 43.9858C31.7327 44.8164 33.2222 45.5801 34.8764 44.9345C36.1712 44.4292 36.9526 43.2419 37.4901 42.215C37.7346 41.7477 37.9546 41.2597 38.1534 40.8188L38.1535 40.8187L38.2327 40.6432C38.4602 40.1403 38.6565 39.7207 38.8566 39.3872Z" fill="black"/>
<path fill-rule="evenodd" clip-rule="evenodd" d="M59.147 57.901C59.0973 57.8359 59.0123 57.7414 58.8681 57.6142C58.1315 56.9641 56.9134 56.5197 55.8269 56.3418C55.8292 56.3422 55.8254 56.3418 55.8162 56.3408L55.8161 56.3408C55.7861 56.3377 55.6981 56.3285 55.5671 56.3193C55.4405 56.3104 55.2966 56.3031 55.1614 56.3017C54.8818 56.615 54.4019 56.6515 54.0778 56.3799C54.0143 56.3267 53.9304 56.2468 53.8596 56.137C53.788 56.026 53.7026 55.8404 53.7195 55.603C53.7247 55.5296 53.738 55.4627 53.7572 55.4019C53.7679 55.2741 53.8103 55.1471 53.8868 55.033C54.2549 54.4843 54.4079 53.6378 54.2444 52.8882C54.0858 52.1605 53.6736 51.6677 53.0309 51.534C52.4135 51.4056 51.8612 51.7376 51.5323 52.4104C51.1936 53.1035 51.2315 53.9057 51.6142 54.3948C51.7978 54.6295 51.8259 54.9363 51.7137 55.1912C51.7048 55.2284 51.693 55.2655 51.6782 55.3022C51.619 55.4491 51.5073 55.6631 51.2825 55.8143C51.027 55.9862 50.7641 55.9871 50.5942 55.959C50.4733 55.939 50.3507 55.8934 50.3212 55.8824L50.3155 55.8803L50.2963 55.8737C49.9114 55.8295 49.5296 55.799 49.1328 55.7672L49.1328 55.7672C49.0051 55.757 48.8759 55.7466 48.7445 55.7357C48.2066 55.6908 47.6458 55.6364 47.0791 55.5376C46.3247 55.4061 45.5173 55.2325 44.7236 55.0617C44.1345 54.935 43.553 54.8099 43.0062 54.7049C41.661 54.4465 40.356 54.2697 39.0799 54.3242C38.6491 54.3426 38.2849 54.0082 38.2665 53.5774C38.2481 53.1466 38.5825 52.7825 39.0133 52.7641C40.4691 52.7019 41.9129 52.9048 43.3008 53.1714C43.9383 53.2938 44.5357 53.423 45.1202 53.5495C45.8647 53.7105 46.5883 53.867 47.3472 53.9992C47.8424 54.0856 48.3463 54.1354 48.8743 54.1795C48.9937 54.1895 49.1151 54.1992 49.238 54.209L49.2385 54.209C49.4379 54.225 49.6413 54.2413 49.8463 54.2594C49.6235 53.3993 49.7659 52.4683 50.1294 51.7246C50.667 50.6249 51.8235 49.6879 53.3489 50.0052C54.7622 50.2992 55.521 51.4126 55.7701 52.5556C55.9255 53.2682 55.9004 54.0485 55.7001 54.7632C55.8831 54.7765 56.027 54.7922 56.0793 54.8008C57.3151 55.0032 58.8577 55.5224 59.9013 56.4433C60.4473 56.9251 60.9501 57.5878 60.717 58.3516C60.6081 58.7085 60.3671 58.9552 60.1409 59.1183C59.9144 59.2816 59.6534 59.3976 59.4059 59.4835C59.1321 59.5785 58.8255 59.6523 58.5166 59.71C58.6874 59.9242 58.8439 60.1532 58.9792 60.3915C59.4044 61.1409 59.6891 62.1137 59.3675 63.0695C59.1833 63.617 58.8095 64.0313 58.2525 64.1613C57.7702 64.2738 57.3025 64.1327 56.966 63.9839C56.8751 63.9437 56.785 63.8989 56.6964 63.8508C56.6849 64.1517 56.6257 64.4722 56.4775 64.7663C56.2521 65.2134 55.8423 65.5486 55.268 65.6353C54.5532 65.7432 53.8834 65.4666 53.3867 65.1223C52.8837 64.7735 52.4521 64.2846 52.2021 63.7812C52.0104 63.395 52.168 62.9264 52.5542 62.7347C52.9404 62.5429 53.409 62.7005 53.6007 63.0867C53.7235 63.3339 53.9707 63.627 54.2764 63.839C54.5885 64.0553 54.8574 64.118 55.0348 64.0912C55.0735 64.0854 55.074 64.0842 55.0792 64.072C55.0802 64.0696 55.0814 64.0667 55.0831 64.0634C55.1139 64.0022 55.1491 63.8594 55.133 63.6231C55.1176 63.3979 55.0596 63.1519 54.9774 62.9377C54.8891 62.7077 54.8024 62.5902 54.7771 62.5654C54.4691 62.2636 54.464 61.7693 54.7658 61.4613C55.0676 61.1533 55.5619 61.1482 55.8699 61.45C55.8857 61.4654 55.9012 61.4813 55.9164 61.4974C56.113 61.5003 56.3088 61.5771 56.4585 61.7276C56.6884 61.9588 57.1703 62.3667 57.5976 62.5557C57.7326 62.6154 57.8175 62.6332 57.8614 62.6383C57.8686 62.623 57.8774 62.6014 57.8875 62.5716C58.0112 62.2037 57.9324 61.7109 57.6211 61.1622C57.3224 60.6359 56.8733 60.1779 56.4721 59.9183C56.1197 59.8671 55.8366 59.5782 55.8068 59.2082C55.7722 58.7784 56.0926 58.4019 56.5224 58.3673C56.5722 58.3633 56.6263 58.3591 56.6839 58.3547L56.6846 58.3546C57.2764 58.3089 58.2431 58.2342 58.8938 58.0083C59.0029 57.9704 59.086 57.9337 59.147 57.901ZM59.214 58.0133C59.2137 58.0133 59.2128 58.0108 59.2118 58.0059C59.2137 58.0109 59.2142 58.0133 59.214 58.0133ZM59.2572 57.8276L59.2585 57.8262C59.2586 57.8262 59.2581 57.8267 59.2572 57.8276ZM57.842 62.6713C57.842 62.671 57.8434 62.6689 57.8464 62.666C57.8436 62.67 57.8421 62.6715 57.842 62.6713Z" fill="black"/>
<path fill-rule="evenodd" clip-rule="evenodd" d="M3.22548 59.3884C3.26722 59.3241 3.33992 59.2296 3.46552 59.1004C4.10733 58.4403 5.21384 57.9378 6.21642 57.6938C6.21435 57.6943 6.21781 57.6937 6.22641 57.6921C6.25422 57.687 6.3358 57.6721 6.45764 57.6541C6.57526 57.6368 6.70921 57.6197 6.83542 57.6087C7.11916 57.8814 7.57025 57.8812 7.85372 57.6042C7.90923 57.5499 7.98188 57.4692 8.04017 57.3616C8.09912 57.2527 8.1657 57.0732 8.13294 56.8526C8.12281 56.7844 8.10563 56.7229 8.08335 56.6674C8.06417 56.5488 8.01543 56.4332 7.93577 56.3321C7.55259 55.8456 7.34904 55.0656 7.4481 54.3534C7.54427 53.662 7.89419 53.172 8.4852 53.0011C9.05295 52.8369 9.59288 53.1076 9.94833 53.7128C10.3145 54.3362 10.3365 55.0886 10.0139 55.573C9.85905 55.8055 9.85475 56.0943 9.97791 56.3245C9.98891 56.3586 10.0026 56.3923 10.0189 56.4254C10.0848 56.5585 10.2045 56.7505 10.4254 56.8757C10.6765 57.018 10.9222 57.0001 11.079 56.9617C11.1905 56.9344 11.3018 56.8829 11.3286 56.8705L11.3338 56.8681L11.3513 56.8606C11.7078 56.7918 12.0624 56.7359 12.4309 56.6778L12.4309 56.6778L12.4311 56.6778C12.5496 56.6591 12.6696 56.6402 12.7915 56.6206C13.2909 56.5401 13.8112 56.4492 14.3336 56.3163C15.0292 56.1395 15.7713 55.9194 16.5008 55.703L16.5008 55.703C17.0422 55.5425 17.5767 55.384 18.0801 55.2467C19.3187 54.9089 20.5256 54.6504 21.722 54.61C22.1259 54.5963 22.4423 54.2578 22.4286 53.8539C22.415 53.45 22.0765 53.1336 21.6725 53.1473C20.3077 53.1934 18.973 53.4863 17.6951 53.8347C17.1081 53.9948 16.5591 54.1583 16.0219 54.3182L16.0219 54.3182L16.0219 54.3182C15.3377 54.522 14.6727 54.72 13.973 54.8979C13.5164 55.014 13.0491 55.0967 12.5588 55.1757C12.448 55.1935 12.3353 55.2113 12.2211 55.2293L12.2206 55.2293C12.0354 55.2585 11.8465 55.2883 11.6563 55.3199C11.8029 54.5002 11.6032 53.6405 11.2103 52.9715C10.6292 51.9823 9.48141 51.1895 8.07861 51.5952C6.77895 51.9711 6.14959 53.0658 5.99854 54.1518C5.90438 54.8287 5.98367 55.556 6.22196 56.2096C6.05191 56.2351 5.91856 56.26 5.87031 56.2718C4.72988 56.5494 3.32553 57.1449 2.4162 58.0802C1.94049 58.5695 1.51808 59.2248 1.79051 59.9219C1.9178 60.2476 2.16071 60.4609 2.38373 60.5971C2.60708 60.7335 2.85933 60.8232 3.09671 60.8858C3.35953 60.955 3.65154 61.002 3.94445 61.0338C3.80005 61.2464 3.6701 61.4716 3.5607 61.7042C3.217 62.4348 3.02057 63.3643 3.38948 64.2345C3.60077 64.733 3.97977 65.0933 4.50953 65.1749C4.96828 65.2456 5.39533 65.0802 5.69906 64.9171C5.78118 64.873 5.86225 64.8247 5.94168 64.7733C5.97391 65.0537 6.05219 65.3491 6.21176 65.6133C6.4544 66.015 6.86135 66.2989 7.40418 66.3388C8.07993 66.3885 8.68606 66.0821 9.1255 65.7248C9.57067 65.3629 9.93898 64.8751 10.1365 64.3868C10.2881 64.0122 10.1073 63.5856 9.73263 63.434C9.35799 63.2824 8.93141 63.4633 8.77984 63.8379C8.68282 64.0777 8.47274 64.3693 8.20227 64.5892C7.92609 64.8138 7.67935 64.8916 7.51158 64.8792C7.47503 64.8765 7.47446 64.8754 7.46878 64.8644C7.46766 64.8622 7.46635 64.8597 7.46452 64.8567C7.43132 64.8017 7.38825 64.6708 7.3864 64.4488C7.38463 64.2373 7.4212 64.0032 7.48269 63.7972C7.54874 63.5759 7.62136 63.4599 7.64323 63.4349C7.90947 63.1309 7.87881 62.6686 7.57476 62.4023C7.27071 62.1361 6.8084 62.1668 6.54217 62.4708C6.52857 62.4863 6.51524 62.5022 6.50218 62.5184C6.31854 62.5352 6.14103 62.6209 6.01191 62.7723C5.81355 63.0049 5.39247 63.4205 5.00663 63.6277C4.88481 63.6932 4.80669 63.7158 4.76604 63.7238C4.75825 63.71 4.74843 63.6905 4.73692 63.6633C4.59492 63.3283 4.63331 62.8622 4.885 62.3272C5.1266 61.8136 5.51391 61.3531 5.87051 61.0819C6.19562 61.0084 6.43898 60.7185 6.44035 60.371C6.44194 59.9668 6.11562 59.6379 5.71148 59.6363C5.66442 59.6362 5.6134 59.6361 5.55901 59.6361C5.00265 59.6357 4.09397 59.6351 3.46972 59.4706C3.36508 59.443 3.28476 59.4146 3.22548 59.3884ZM3.1709 59.4982C3.17111 59.4981 3.17182 59.4957 3.17236 59.4911C3.17095 59.4959 3.17068 59.4982 3.1709 59.4982ZM3.11718 59.3278L3.11585 59.3265C3.11583 59.3265 3.11625 59.327 3.11718 59.3278ZM4.78558 63.7519C4.78622 63.7526 4.78652 63.7531 4.7865 63.7532C4.78645 63.7534 4.78491 63.7522 4.78204 63.7485C4.78368 63.7499 4.78485 63.7511 4.78558 63.7519Z" fill="black"/>
</svg>
