<svg width="61" height="68" viewBox="0 0 61 68" fill="none" xmlns="http://www.w3.org/2000/svg">
<path fill-rule="evenodd" clip-rule="evenodd" d="M49.9054 1.42644C49.9534 0.748873 49.5736 0.190993 49.0571 0.180382C48.5407 0.169772 48.0831 0.710448 48.0351 1.38802C47.8702 3.71551 47.3621 5.88254 46.8105 8.23531C46.6833 8.77802 46.5538 9.3306 46.4256 9.89732C46.2758 10.5593 46.557 11.2135 47.0537 11.3586C47.5503 11.5037 48.0743 11.0848 48.224 10.4228C48.3394 9.91294 48.4603 9.39838 48.5825 8.87878L48.5825 8.87877C49.1391 6.51091 49.7204 4.03846 49.9054 1.42644ZM47.2154 15.4882C46.8012 15.1232 46.2123 15.2902 45.9001 15.8611C45.5879 16.4321 45.6707 17.1908 46.0849 17.5558L46.4634 17.8893C46.8776 18.2543 47.4665 18.0873 47.7787 17.5164C48.0909 16.9454 48.0081 16.1867 47.5939 15.8217L47.2154 15.4882Z" fill="black"/>
<path fill-rule="evenodd" clip-rule="evenodd" d="M59.464 11.9717C59.7494 11.3553 59.5924 10.6989 59.1134 10.5056C58.6343 10.3124 58.0145 10.6554 57.7291 11.2717C56.7487 13.3891 55.5044 15.2346 54.1534 17.2383C53.8418 17.7005 53.5245 18.1711 53.2035 18.6553C52.8285 19.221 52.8592 19.9325 53.2719 20.2444C53.6847 20.5564 54.3233 20.3508 54.6982 19.7851C54.9871 19.3494 55.2828 18.9113 55.5815 18.4689L55.5815 18.4689C56.9426 16.4529 58.3637 14.3479 59.464 11.9717ZM51.9571 24.1625C51.6994 23.6742 51.0896 23.6212 50.595 24.0441C50.1005 24.467 49.9085 25.2057 50.1661 25.694L50.4016 26.1401C50.6592 26.6284 51.269 26.6814 51.7636 26.2585C52.2581 25.8356 52.4502 25.0969 52.1925 24.6086L51.9571 24.1625Z" fill="black"/>
<path fill-rule="evenodd" clip-rule="evenodd" d="M43.9064 25.2703C48.6923 29.8583 51.6153 36.2863 50.4899 43.3648C49.4792 49.7228 45.162 55.4927 39.7171 58.6788C33.5001 62.3166 26.2686 63.8637 19.0944 62.5567C14.0018 61.629 8.41499 59.1681 4.97236 54.927C3.07191 52.5858 1.18324 49.8417 0.45565 46.692C0.17213 46.5077 -0.0109798 46.184 0.000511361 45.8213C0.113669 42.2498 0.313013 38.8867 1.80844 35.3805C3.30789 31.8649 5.42609 28.6391 7.96036 25.8046C12.4876 20.741 19.1913 18.1383 25.8097 18.0046C32.4287 17.8708 39.1297 20.6913 43.9064 25.2703ZM2.09324 43.6827C2.2486 41.0338 2.5963 38.6312 3.6481 36.1651C5.0545 32.8677 7.0491 29.8245 9.45133 27.1376C13.5526 22.5505 19.6968 20.1284 25.8501 20.0041C31.8991 19.882 38.098 22.4727 42.5223 26.7141C46.9375 30.9466 49.5167 36.7482 48.5148 43.0508C47.6078 48.7558 43.6913 54.0361 38.707 56.9526C32.8582 60.375 26.1083 61.8016 19.4528 60.5891C14.6445 59.7131 9.56618 57.4128 6.52517 53.6665C4.1405 50.7288 2.14271 47.5577 2.14271 43.9942C2.14271 43.8854 2.12535 43.7808 2.09324 43.6827Z" fill="black"/>
<path fill-rule="evenodd" clip-rule="evenodd" d="M18.3587 48.2002C17.3707 47.9519 16.5044 48.1554 15.9411 48.8723C15.3964 49.5656 15.4753 50.4592 16.1004 51.2726C16.7432 52.1089 17.7536 52.5573 18.5987 52.3833C19.1396 52.2719 19.6684 52.6202 19.7798 53.1611C19.8912 53.7021 19.5429 54.2309 19.002 54.3422C17.217 54.7097 15.493 53.7643 14.5146 52.4913C13.5186 51.1953 13.0898 49.264 14.3685 47.6367C15.5546 46.127 17.3303 45.8795 18.8462 46.2605C20.3343 46.6345 21.7569 47.6436 22.504 48.951C22.778 49.4305 22.6114 50.0414 22.1319 50.3154C21.6524 50.5894 21.0415 50.4228 20.7675 49.9433C20.3177 49.156 19.3745 48.4555 18.3587 48.2002Z" fill="black"/>
<path fill-rule="evenodd" clip-rule="evenodd" d="M27.3896 45.2751C27.28 45.2905 27.0956 45.3348 26.8064 45.4527C25.5668 45.9577 24.2925 47.1711 23.423 48.3807C23.4243 48.379 23.422 48.3826 23.4164 48.3913C23.3957 48.4239 23.3299 48.5274 23.2373 48.6851C23.1465 48.8397 23.0463 49.0187 22.9603 49.189C23.1762 49.6933 22.9452 50.2782 22.4417 50.4985C22.3422 50.5421 22.2008 50.5933 22.0329 50.6122C21.8631 50.6313 21.6003 50.6234 21.3366 50.4682C20.7622 50.1303 20.7898 49.5169 20.7993 49.3885C20.8146 49.1814 20.8752 48.9894 20.922 48.8593C20.9742 48.7146 21.0389 48.5677 21.1036 48.4324C21.3524 47.9125 21.714 47.3317 21.799 47.2134C22.7816 45.8463 24.3265 44.3034 26.0518 43.6005C26.959 43.2309 28.0317 43.0333 28.7894 43.7492C29.144 44.0841 29.2939 44.5109 29.3541 44.875C29.4143 45.2395 29.3984 45.6188 29.3541 45.9664C29.1997 47.1779 28.5983 48.6557 28.3132 49.3561C28.2835 49.4291 28.2572 49.4937 28.2352 49.5487C28.0301 50.0615 27.4481 50.3109 26.9353 50.1058C26.4225 49.9007 26.1731 49.3187 26.3782 48.8059C26.4034 48.7431 26.4309 48.675 26.4602 48.6023C26.7595 47.8612 27.2518 46.6423 27.3701 45.7136C27.3944 45.5229 27.3976 45.3781 27.3896 45.2751ZM27.5253 45.2714C27.5252 45.2716 27.5224 45.2712 27.5174 45.2696C27.5229 45.2705 27.5254 45.2712 27.5253 45.2714ZM27.3665 45.1399C27.3659 45.1385 27.3656 45.1378 27.3656 45.1378C27.3656 45.1378 27.3659 45.1384 27.3665 45.1399ZM21.6412 48.6657C21.6408 48.6659 21.6406 48.666 21.6404 48.6661L21.6401 48.6662C21.6404 48.666 21.6408 48.6659 21.6412 48.6657Z" fill="black"/>
<path fill-rule="evenodd" clip-rule="evenodd" d="M30.3603 49.0828C29.5154 49.1295 28.6622 49.413 28.1004 49.7587C27.6301 50.0481 27.0141 49.9015 26.7247 49.4311C26.4352 48.9608 26.5819 48.3448 27.0522 48.0554C27.9078 47.5289 29.0854 47.1502 30.2499 47.0858C31.402 47.0221 32.73 47.2607 33.6767 48.2074C34.2176 48.7483 34.4845 49.4303 34.3126 50.1592C34.1632 50.7926 33.7226 51.2638 33.3445 51.5781C32.5725 52.2198 31.5111 52.6551 30.998 52.8262C30.4741 53.0008 29.9078 52.7177 29.7331 52.1937C29.5585 51.6698 29.8416 51.1034 30.3656 50.9288C30.7852 50.7889 31.574 50.4491 32.066 50.0401C32.1811 49.9444 32.2604 49.8606 32.3106 49.7933C32.3317 49.765 32.345 49.7432 32.3533 49.7277C32.3388 49.7054 32.3116 49.6707 32.2625 49.6216C31.8776 49.2367 31.2175 49.0354 30.3603 49.0828ZM32.3683 49.759C32.3674 49.7588 32.3648 49.7538 32.3633 49.7445C32.3685 49.7545 32.3692 49.7592 32.3683 49.759Z" fill="black"/>
<path fill-rule="evenodd" clip-rule="evenodd" d="M30.9277 53.3406C30.5934 53.309 30.3909 53.3427 30.3356 53.362C29.814 53.5434 29.244 53.2676 29.0626 52.746C28.8812 52.2244 29.157 51.6544 29.6786 51.473C30.1203 51.3194 30.6492 51.3053 31.1163 51.3496C31.605 51.3958 32.1393 51.5168 32.6296 51.7199C33.1067 51.9176 33.6283 52.2291 33.9884 52.7098C34.3836 53.2372 34.5388 53.9154 34.3047 54.6438C34.012 55.5544 33.2887 56.1885 32.5817 56.5782C31.8659 56.9727 31.0253 57.1981 30.2771 57.1981C29.7249 57.1981 29.2771 56.7503 29.2771 56.1981C29.2771 55.6458 29.7249 55.1981 30.2771 55.1981C30.659 55.1981 31.17 55.0726 31.6163 54.8266C32.0715 54.5757 32.3209 54.2797 32.4006 54.0318C32.4244 53.9576 32.4168 53.9474 32.3911 53.9134C32.3901 53.9119 32.389 53.9105 32.3879 53.909C32.3246 53.8246 32.1638 53.6918 31.864 53.5676C31.5775 53.4489 31.2404 53.3702 30.9277 53.3406Z" fill="black"/>
<path fill-rule="evenodd" clip-rule="evenodd" d="M18.2707 52.7506C18.6835 52.3837 19.3155 52.4209 19.6825 52.8337C19.8213 52.9899 20.005 53.2435 20.0508 53.5906C20.1028 53.9847 19.9531 54.2895 19.8223 54.4709C19.7294 54.5998 19.6056 54.7161 19.573 54.7467C19.5698 54.7497 19.5675 54.7519 19.5662 54.7532C19.5548 54.7642 19.547 54.772 19.542 54.7772C19.2562 55.2179 18.9889 55.6631 18.7115 56.1251C18.6227 56.273 18.5328 56.4227 18.441 56.5744C18.0644 57.1968 17.6633 57.8399 17.2057 58.4631C16.5944 59.2955 15.9024 60.164 15.2212 61.019C14.7149 61.6543 14.2147 62.2822 13.7581 62.882C12.6384 64.3529 11.6395 65.8268 10.9375 67.4063C10.7132 67.911 10.1222 68.1382 9.61755 67.9139C9.11286 67.6896 8.88557 67.0987 9.10988 66.594C9.90538 64.8041 11.0133 63.1858 12.1667 61.6706C12.695 60.9766 13.209 60.3329 13.7123 59.7026C14.3543 58.8986 14.9789 58.1164 15.5937 57.2793C15.9963 56.731 16.3598 56.1507 16.7298 55.5391C16.8137 55.4004 16.8985 55.2592 16.9843 55.1163C17.27 54.6405 17.5667 54.1462 17.8791 53.6657C17.8985 53.6358 17.9184 53.6074 17.9384 53.5805C17.9136 53.278 18.0263 52.9679 18.2707 52.7506ZM18.1876 54.1624C18.1914 54.1666 18.1903 54.166 18.186 54.1605C18.1865 54.1612 18.1871 54.1618 18.1876 54.1624Z" fill="black"/>
<path fill-rule="evenodd" clip-rule="evenodd" d="M15.3799 35.2551C15.9183 35.132 16.4546 35.4687 16.5776 36.0071C16.793 36.9493 16.7687 37.9682 16.7485 38.8186C16.743 39.05 16.7378 39.269 16.7378 39.4705C16.7378 40.0227 16.2901 40.4705 15.7378 40.4705C15.1855 40.4705 14.7378 40.0227 14.7378 39.4705C14.7378 39.1634 14.7441 38.876 14.75 38.6031C14.7675 37.8031 14.7823 37.1282 14.6279 36.4528C14.5048 35.9144 14.8415 35.3782 15.3799 35.2551Z" fill="black"/>
<path fill-rule="evenodd" clip-rule="evenodd" d="M32.2079 35.5607C32.2191 35.6326 32.2312 35.7234 32.2431 35.8311C32.2874 36.2296 32.3112 36.6768 32.3128 36.7825C32.3192 37.1975 32.3534 37.6049 32.3843 37.9735C32.3862 37.9963 32.3881 38.019 32.3899 38.0415C32.4232 38.44 32.451 38.7965 32.451 39.1487C32.451 39.701 32.8987 40.1487 33.451 40.1487C34.0033 40.1487 34.451 39.701 34.451 39.1487C34.451 38.7021 34.4158 38.2676 34.383 37.875C34.3816 37.8588 34.3803 37.8425 34.3789 37.8264C34.3467 37.4412 34.3179 37.0964 34.3126 36.7518C34.3098 36.5728 34.281 36.0615 34.2309 35.6103C34.2066 35.3913 34.1722 35.1376 34.1219 34.9337C34.103 34.8568 34.0556 34.6694 33.9465 34.4938C33.9013 34.4209 33.7432 34.1772 33.4175 34.0555C32.9757 33.8903 32.5872 34.0642 32.3776 34.2476C31.9935 34.5837 31.9284 35.1488 32.2079 35.5607ZM32.1745 35.3924C32.1745 35.3921 32.176 35.3965 32.1786 35.4065C32.1756 35.3977 32.1744 35.3927 32.1745 35.3924Z" fill="black"/>
</svg>
