<svg width="97" height="68" viewBox="0 0 97 68" fill="none" xmlns="http://www.w3.org/2000/svg">
<path fill-rule="evenodd" clip-rule="evenodd" d="M53.3801 10.8963C53.7678 10.5517 54.3613 10.5866 54.7059 10.9743C55.1922 11.5214 55.4143 12.2194 55.5371 12.8062C55.6366 13.2817 55.6881 13.7838 55.7289 14.1806L55.7289 14.1806C55.7386 14.2748 55.7476 14.363 55.7566 14.4436C55.8139 14.9591 55.4424 15.4234 54.9269 15.4806C54.4115 15.5379 53.9472 15.1665 53.8899 14.651C53.8777 14.5414 53.8665 14.433 53.8554 14.3256L53.8554 14.3255L53.8554 14.3255C53.8151 13.9366 53.7762 13.5609 53.6987 13.1908C53.5995 12.7168 53.4634 12.4035 53.3022 12.222C52.9576 11.8344 52.9925 11.2408 53.3801 10.8963ZM42.9344 12.7242C43.3982 12.4923 43.9623 12.6803 44.1943 13.1442C44.4408 13.6372 44.601 14.1449 44.7365 14.5741L44.7437 14.5968C44.8879 15.0536 45.0069 15.4247 45.1773 15.7657C45.4093 16.2295 45.2212 16.7936 44.7573 17.0256C44.2935 17.2575 43.7294 17.0695 43.4974 16.6056C43.2554 16.1216 43.097 15.6196 42.9627 15.1939L42.9527 15.1623C42.809 14.7071 42.6882 14.3318 42.5144 13.9841C42.2824 13.5202 42.4705 12.9562 42.9344 12.7242ZM58.226 23.4238C58.5137 22.9923 58.3971 22.4093 57.9656 22.1216C57.5341 21.8339 56.951 21.9505 56.6633 22.382C55.0572 24.7911 52.306 25.8113 49.6225 24.6612C49.1458 24.4569 48.5938 24.6778 48.3895 25.1545C48.1852 25.6312 48.406 26.1832 48.8827 26.3875C52.5077 27.9411 56.1868 26.4827 58.226 23.4238Z" fill="black"/>
<path fill-rule="evenodd" clip-rule="evenodd" d="M27.1351 62.0109C27.0712 61.936 26.9816 61.812 26.8686 61.6102C26.2914 60.5793 26.0781 59.0344 26.1447 57.7119C26.1446 57.7126 26.1446 57.7128 26.1447 57.7125L26.145 57.7098L26.1462 57.699L26.1462 57.699C26.1501 57.6629 26.1617 57.5571 26.1841 57.4006C26.2058 57.2496 26.2338 57.0786 26.2664 56.9193C26.7057 56.6701 26.8704 56.1151 26.6333 55.6651C26.5869 55.5769 26.5143 55.4581 26.4032 55.347C26.2908 55.2347 26.0944 55.0871 25.811 55.0467C25.7234 55.0342 25.6414 55.0328 25.5651 55.04C25.412 55.0201 25.2519 55.0378 25.0983 55.0988C24.3598 55.3922 23.3258 55.3572 22.486 54.9749C21.6707 54.6037 21.196 53.994 21.2019 53.2045C21.2077 52.4461 21.7382 51.8809 22.6126 51.665C23.5134 51.4427 24.4469 51.6908 24.9248 52.2649C25.1543 52.5405 25.5082 52.6514 25.8365 52.5839C25.8823 52.5829 25.9287 52.5784 25.9752 52.5704C26.163 52.538 26.4429 52.461 26.6777 52.2351C26.9446 51.9784 27.0125 51.6695 27.0226 51.4626C27.0298 51.3154 27.0072 51.1597 27.0018 51.1222L27.0007 51.115L26.9978 51.0907C27.0437 50.627 27.1046 50.1704 27.168 49.6958L27.168 49.6953C27.1884 49.5427 27.209 49.3884 27.2295 49.2313C27.3132 48.5875 27.3916 47.9144 27.4193 47.2231C27.4562 46.3028 27.457 45.3095 27.4577 44.333L27.4577 44.3328C27.4582 43.6082 27.4588 42.8928 27.4741 42.2234C27.5117 40.5762 27.6352 38.9971 28.0231 37.5107C28.154 37.0088 27.8534 36.4958 27.3516 36.3649C26.8497 36.2339 26.3367 36.5346 26.2058 37.0364C25.7633 38.7321 25.6352 40.4811 25.5964 42.1804C25.5786 42.961 25.5788 43.6961 25.5791 44.4154L25.5791 44.4155L25.5791 44.4155C25.5795 45.3316 25.5798 46.2221 25.5427 47.1478C25.5185 47.7519 25.4492 48.357 25.367 48.989C25.3484 49.1319 25.329 49.2771 25.3094 49.4242L25.3093 49.4246C25.2774 49.6632 25.2449 49.9064 25.2143 50.152C24.2596 49.6718 23.129 49.603 22.1624 49.8416C20.7331 50.1945 19.338 51.3164 19.3238 53.1903C19.3108 54.9265 20.4272 56.1012 21.7077 56.6842C22.5061 57.0477 23.4299 57.2162 24.321 57.1621C24.2902 57.3806 24.2721 57.5538 24.2689 57.6174C24.1931 59.1218 24.412 61.0671 25.2298 62.5278C25.6577 63.2919 26.3092 64.0512 27.2663 63.9711C27.7135 63.9337 28.0648 63.7129 28.3139 63.4884C28.5634 63.2635 28.766 62.9861 28.9298 62.717C29.1111 62.4191 29.2757 62.0771 29.422 61.7286C29.6305 61.9838 29.86 62.226 30.106 62.4455C30.879 63.1356 31.9504 63.7172 33.1558 63.5817C33.8462 63.5042 34.4282 63.1698 34.7223 62.548C34.9771 62.0095 34.9298 61.4237 34.8403 60.9905C34.8161 60.8733 34.7863 60.756 34.7522 60.6395C35.109 60.7024 35.5009 60.7142 35.8843 60.6145C36.4672 60.463 36.9652 60.0663 37.2129 59.4132C37.5212 58.6001 37.366 57.7424 37.0873 57.0712C36.8049 56.3912 36.3397 55.7597 35.8113 55.3381C35.4059 55.0146 34.815 55.081 34.4915 55.4864C34.168 55.8918 34.2344 56.4827 34.6398 56.8062C34.8993 57.0132 35.1811 57.3783 35.3527 57.7914C35.5279 58.2133 35.5333 58.5453 35.4568 58.7471C35.4401 58.7911 35.4385 58.7914 35.4229 58.7944C35.4209 58.7948 35.4186 58.7952 35.416 58.7958C35.4147 58.7961 35.4133 58.7964 35.4118 58.7968C35.332 58.8175 35.1553 58.8226 34.8816 58.7437C34.6207 58.6685 34.3462 58.5379 34.1152 58.3869C33.8672 58.2247 33.7511 58.0929 33.7284 58.0569C33.4517 57.6182 32.8719 57.4868 32.4331 57.7634C31.9944 58.04 31.863 58.6199 32.1396 59.0586C32.1538 59.081 32.1684 59.1032 32.1836 59.1251C32.137 59.3572 32.1775 59.6069 32.3165 59.8211C32.53 60.1501 32.8873 60.8202 33.001 61.3706C33.0369 61.5443 33.0362 61.6487 33.0312 61.7016C33.0113 61.7062 32.9837 61.7111 32.9461 61.7153C32.4821 61.7675 31.9228 61.5498 31.3567 61.0444C30.8136 60.5596 30.389 59.9151 30.1857 59.3774C30.2146 58.9504 29.9469 58.5446 29.5197 58.4157C29.0232 58.2659 28.4992 58.547 28.3494 59.0436C28.332 59.1014 28.3133 59.1641 28.2933 59.231C28.0894 59.9153 27.7562 61.0328 27.3255 61.7405C27.2533 61.8591 27.1889 61.9475 27.1351 62.0109ZM27.2501 62.1181C27.2501 62.1179 27.2474 62.1161 27.2419 62.1137C27.2473 62.1172 27.2501 62.1184 27.2501 62.1181ZM27.0208 62.1219L27.0188 62.1231C27.0188 62.1231 27.0195 62.1227 27.0208 62.1219ZM33.0748 61.6872C33.0745 61.6871 33.0717 61.6882 33.0674 61.691C33.0729 61.6888 33.0751 61.6874 33.0748 61.6872Z" fill="black"/>
<path fill-rule="evenodd" clip-rule="evenodd" d="M72.722 61.7971C72.7747 61.7139 72.8458 61.5785 72.9292 61.3628C73.3549 60.2606 73.3477 58.7011 73.0949 57.4013C73.0954 57.4039 73.0943 57.3997 73.0916 57.389L73.0915 57.3888L73.0915 57.3887C73.0825 57.3536 73.0562 57.2505 73.0119 57.0988C72.9691 56.9523 72.9172 56.787 72.8624 56.6339C72.3922 56.4492 72.1507 55.9231 72.3218 55.4441C72.3554 55.3503 72.4105 55.2224 72.5048 55.0967C72.6001 54.9696 72.7737 54.7958 73.0486 54.7157C73.1336 54.6909 73.2147 54.678 73.2914 54.6743C73.44 54.633 73.6009 54.6279 73.7615 54.6666C74.5341 54.8527 75.5527 54.672 76.3301 54.1748C77.0847 53.6921 77.4685 53.0214 77.351 52.2407C77.2382 51.4907 76.6331 51.0062 75.737 50.916C74.8138 50.8232 73.9247 51.2008 73.5327 51.8367C73.3444 52.1422 73.0094 52.302 72.6746 52.2813C72.6293 52.2867 72.583 52.2888 72.536 52.2874C72.3455 52.2819 72.0575 52.2452 71.7932 52.0548C71.4926 51.8383 71.3818 51.5422 71.3426 51.3388C71.3147 51.1941 71.315 51.0367 71.3151 50.9989L71.3151 50.9916L71.3145 50.9671C71.2036 50.5145 71.0787 50.0711 70.949 49.6103L70.9488 49.6097C70.9071 49.4616 70.8649 49.3117 70.8224 49.1591C70.6485 48.5337 70.4758 47.8783 70.3507 47.1979C70.1841 46.2921 70.0429 45.3089 69.9042 44.3422L69.9042 44.3422L69.9042 44.3421C69.8012 43.6248 69.6996 42.9167 69.5898 42.2561C69.3198 40.6308 68.9744 39.085 68.3803 37.6683C68.1797 37.19 68.4049 36.6397 68.8832 36.4391C69.3614 36.2386 69.9118 36.4637 70.1123 36.942C70.7901 38.5581 71.164 40.2715 71.4426 41.9482C71.5706 42.7185 71.6742 43.4463 71.7756 44.1584L71.7756 44.1584C71.9047 45.0654 72.0302 45.9469 72.1978 46.8582C72.3072 47.4528 72.4613 48.042 72.632 48.656C72.6706 48.795 72.7104 48.9361 72.7506 49.0791L72.7506 49.0791C72.8159 49.3108 72.8825 49.5471 72.9476 49.7859C73.8248 49.1756 74.9343 48.9477 75.9249 49.0473C77.3898 49.1946 78.9294 50.1081 79.2082 51.9612C79.4666 53.6781 78.5274 54.9988 77.3421 55.7569C76.6031 56.2296 75.7124 56.527 74.8226 56.5993C74.884 56.8113 74.9263 56.9801 74.9385 57.0427C75.2261 58.5213 75.2844 60.478 74.6812 62.0396C74.3656 62.8565 73.8279 63.7003 72.8691 63.7562C72.4211 63.7823 72.0421 63.6134 71.7638 63.4264C71.4851 63.2391 71.2453 62.993 71.0451 62.7497C70.8235 62.4805 70.6122 62.1652 70.4181 61.8408C70.2478 62.1229 70.0549 62.3951 69.8424 62.6472C69.1747 63.4395 68.1962 64.1667 66.9837 64.203C66.2893 64.2238 65.666 63.975 65.2869 63.401C64.9586 62.904 64.9226 62.3174 64.95 61.8758C64.9574 61.7565 64.9703 61.6361 64.9875 61.5161C64.6433 61.6288 64.2569 61.6958 63.8633 61.6513C63.2648 61.5837 62.7157 61.2613 62.3782 60.6498C61.9581 59.8885 61.9905 59.0175 62.1716 58.3136C62.355 57.6005 62.7264 56.9096 63.1898 56.4176C63.5454 56.04 64.1398 56.0223 64.5173 56.3779C64.8948 56.7335 64.9126 57.3278 64.557 57.7053C64.3294 57.947 64.102 58.3482 63.9905 58.7815C63.8767 59.2238 63.9183 59.5533 64.0226 59.7423C64.0453 59.7834 64.0469 59.7835 64.0628 59.7842C64.0659 59.7844 64.0696 59.7845 64.0741 59.785C64.156 59.7943 64.3317 59.7744 64.5915 59.6576C64.8391 59.5462 65.0924 59.3782 65.2997 59.196C65.5224 59.0004 65.6187 58.8535 65.6361 58.8147C65.8479 58.3413 66.4034 58.1292 66.8768 58.3411C67.3502 58.5529 67.5623 59.1084 67.3504 59.5818C67.3396 59.6059 67.3283 59.6299 67.3164 59.6538C67.3953 59.8769 67.3905 60.1298 67.2832 60.3615C67.1183 60.7174 66.8593 61.4312 66.8245 61.9921C66.8135 62.1692 66.829 62.2725 66.8415 62.3242C66.8617 62.3258 66.8898 62.3268 66.9276 62.3257C67.3943 62.3117 67.9172 62.0171 68.4062 61.4369C68.8753 60.8802 69.2046 60.1822 69.3298 59.6212C69.2409 59.2025 69.4485 58.763 69.8532 58.5751C70.3236 58.3566 70.882 58.5608 71.1005 59.0312C71.1259 59.086 71.1533 59.1455 71.1825 59.2089C71.4811 59.8574 71.9689 60.9166 72.4953 61.5563C72.5836 61.6635 72.6597 61.742 72.722 61.7971ZM72.6233 61.9195C72.6232 61.9193 72.6257 61.9171 72.6308 61.914C72.6259 61.9183 72.6233 61.9198 72.6233 61.9195ZM72.8508 61.8908L72.8529 61.8917C72.8529 61.8918 72.8522 61.8915 72.8508 61.8908ZM66.7962 62.316C66.7965 62.3158 66.7994 62.3166 66.804 62.3188C66.7983 62.3173 66.7959 62.3162 66.7962 62.316Z" fill="black"/>
<path fill-rule="evenodd" clip-rule="evenodd" d="M51.7362 0.0203432C58.1274 -0.21389 64.1254 1.54913 68.4457 6.63358C71.9738 10.7856 73.3678 16.5541 71.7947 21.8676C70.3039 26.9034 66.1676 31.4134 61.7149 33.8872C55.4559 37.3644 48.7452 37.2731 42.2084 35.2104C36.1159 33.2879 29.8191 28.5643 28.8894 21.6556C28.3545 21.5963 27.96 21.1221 28.0032 20.5819C28.988 8.27278 40.1327 0.445601 51.7362 0.0203432ZM30.2176 18.9942C30.5462 19.1581 30.772 19.4975 30.772 19.8897C30.772 26.4665 36.5562 31.3296 42.8102 33.3031C48.9807 35.2502 55.0925 35.2784 60.7436 32.1389C64.8288 29.8693 68.5618 25.7423 69.877 21.2999C71.2467 16.6735 70.0398 11.5983 66.9216 7.92862C63.1081 3.44057 57.7815 1.80013 51.8094 2.019C41.5086 2.39652 31.9624 8.94932 30.2176 18.9942Z" fill="black"/>
<path fill-rule="evenodd" clip-rule="evenodd" d="M53.6912 53.3194C53.4668 53.3424 53.2493 53.4435 53.0831 53.6212C52.153 54.6153 50.9869 55.7206 49.7258 56.4394C48.468 57.1565 47.2495 57.4178 46.1013 56.9806C43.1029 55.8389 40.6448 52.7125 40.615 49.4724C40.5907 46.8127 42.2656 44.596 44.7118 44.3509C45.3903 44.283 46.0483 44.6383 46.8037 45.3573C47.937 46.436 48.7149 46.8763 49.9184 47.5428C50.4806 47.8541 51.0375 48.0348 51.5927 48.0422C52.1632 48.0498 52.6535 47.8733 53.0662 47.599C53.7561 47.1404 54.2704 46.3603 54.6697 45.7546C54.7017 45.7061 54.733 45.6587 54.7636 45.6126C55.1789 44.9868 55.6423 44.6096 55.9841 44.5123C56.1239 44.4725 56.2327 44.4806 56.3428 44.5295C56.4672 44.5847 56.6711 44.7282 56.9143 45.096C57.1622 45.4708 57.3313 46.0663 57.3524 46.8315C57.3731 47.5833 57.2479 48.4202 56.9898 49.2074C56.4429 50.8759 55.4725 51.8973 54.494 51.9953C53.9617 52.0487 53.5735 52.5234 53.6268 53.0557C53.6361 53.1485 53.6582 53.2369 53.6912 53.3194ZM58.8306 49.8109C58.2167 51.6835 56.8577 53.7039 54.6898 53.9226C54.8249 54.2607 54.7629 54.6612 54.4977 54.9447C53.5293 55.9798 52.2037 57.2568 50.6852 58.1224C49.1634 58.9899 47.3143 59.5154 45.4119 58.791C41.7705 57.4045 38.7159 53.6317 38.6779 49.4902C38.6466 46.0746 40.8483 42.791 44.5187 42.4234C46.0741 42.2676 47.2807 43.1369 48.1392 43.954C49.0897 44.8587 49.6927 45.2034 50.8569 45.8481C51.23 46.0547 51.4724 46.1032 51.6185 46.1052C51.7495 46.1069 51.8627 46.0729 51.9938 45.9857C52.3364 45.758 52.6452 45.3013 53.1495 44.5414C53.6673 43.7611 54.4596 42.9321 55.4537 42.6491C55.9819 42.4987 56.5611 42.5068 57.1288 42.7589C57.6824 43.0046 58.1461 43.4467 58.5302 44.0274C59.0468 44.8086 59.262 45.8013 59.2889 46.7781C59.3162 47.7683 59.1531 48.8272 58.8306 49.8109Z" fill="black"/>
</svg>
