<svg width="62" height="65" viewBox="0 0 62 65" fill="none" xmlns="http://www.w3.org/2000/svg">
<path fill-rule="evenodd" clip-rule="evenodd" d="M10.743 39.5809C10.9745 39.0794 11.5686 38.8605 12.07 39.092C14.6684 40.2912 17.0876 42.0273 19.343 43.6459C19.6723 43.8822 19.9981 44.116 20.3204 44.3453C23.9449 46.9231 27.666 49.36 31.4051 51.8086C31.9812 52.1859 32.5577 52.5634 33.1343 52.9418C33.5961 53.2448 33.7248 53.8647 33.4218 54.3265C33.1188 54.7882 32.4989 54.9169 32.0371 54.6139C31.4631 54.2373 30.8881 53.8607 30.3127 53.4839C26.5759 51.0368 22.8195 48.5769 19.1613 45.9751C18.8283 45.7383 18.4963 45.5002 18.1647 45.2625C15.8937 43.6343 13.6435 42.0209 11.2319 40.9079C10.7305 40.6765 10.5116 40.0823 10.743 39.5809Z" fill="black"/>
<path fill-rule="evenodd" clip-rule="evenodd" d="M36.4567 52.6472C36.2076 53.4035 35.9231 54.1434 35.5855 54.8283C35.3413 55.3237 35.5449 55.9232 36.0402 56.1674C36.5356 56.4116 37.1351 56.208 37.3793 55.7127C37.8415 54.7752 38.2025 53.7804 38.5002 52.8229C38.5817 52.5609 38.6474 52.2651 38.6362 51.9665C38.6241 51.6445 38.5178 51.2703 38.2087 50.9745C37.9222 50.7002 37.5787 50.6082 37.3307 50.5741C37.0789 50.5395 36.8179 50.5502 36.5837 50.5721C35.9746 50.6288 35.2937 50.9451 34.7375 51.2503C34.1428 51.5766 33.5358 51.9793 33.0334 52.3406C32.5358 52.6983 32.107 53.0398 31.8741 53.2529C31.8198 53.3026 31.7464 53.3721 31.6833 53.4462C31.6827 53.4469 31.6821 53.4476 31.6814 53.4485C31.6606 53.4728 31.5753 53.5725 31.5118 53.7142L31.5114 53.7152C31.4878 53.7679 31.3798 54.0086 31.4411 54.3229C31.478 54.512 31.5742 54.7118 31.7487 54.8715C31.9137 55.0226 32.0924 55.0864 32.2179 55.1132C32.4397 55.1605 32.618 55.1191 32.6656 55.108C32.7385 55.0908 32.796 55.069 32.8284 55.0559C32.8948 55.0291 32.9518 54.999 32.9881 54.979C33.0657 54.9362 33.1526 54.8816 33.2417 54.8229C33.3987 54.7195 33.517 54.5794 33.5928 54.4215C33.7599 54.2896 33.9667 54.1328 34.2009 53.9644C34.6635 53.6318 35.1993 53.2782 35.6997 53.0036C36.0118 52.8324 36.266 52.717 36.4567 52.6472ZM37.0637 52.5564C37.0636 52.5564 37.0622 52.5562 37.0596 52.5557L37.0637 52.5564Z" fill="black"/>
<path fill-rule="evenodd" clip-rule="evenodd" d="M36.776 56.5626C36.5538 56.6925 36.2818 56.7372 36.0135 56.6656C35.4798 56.5233 35.1626 55.9753 35.305 55.4417C35.4691 54.826 36.0007 54.6195 36.2874 54.5648C36.5757 54.5098 36.8647 54.5416 37.0875 54.5843C37.5545 54.6738 38.0862 54.8827 38.5685 55.152C39.0492 55.4204 39.5613 55.7935 39.9356 56.2604C40.3076 56.7245 40.6414 57.417 40.428 58.2169C40.2399 58.9224 39.8238 59.457 39.2143 59.743C38.6523 60.0067 38.0495 60.0003 37.5578 59.9206C36.5818 59.7624 35.6103 59.2434 35.0785 58.8797C34.6227 58.5679 34.5059 57.9456 34.8177 57.4897C35.1295 57.0339 35.7519 56.9171 36.2077 57.2289C36.6064 57.5016 37.2995 57.8526 37.8779 57.9464C38.1635 57.9927 38.3102 57.958 38.3647 57.9324C38.3651 57.9322 38.3656 57.932 38.3663 57.9317C38.3785 57.927 38.4397 57.9033 38.4926 57.7124C38.4881 57.6883 38.466 57.6247 38.3751 57.5114C38.2157 57.3125 37.9382 57.0907 37.5935 56.8982C37.2839 56.7254 36.9854 56.6125 36.776 56.5626ZM38.4933 57.7237C38.4929 57.7236 38.4924 57.7205 38.493 57.7146C38.494 57.7208 38.4937 57.7238 38.4933 57.7237Z" fill="black"/>
<path fill-rule="evenodd" clip-rule="evenodd" d="M35.0493 57.2893C35.1531 57.2844 35.2421 57.295 35.2885 57.3014C35.5725 57.3403 35.8122 57.4949 35.9666 57.7111C36.0798 57.7816 36.2227 57.8724 36.3556 57.9689C36.4813 58.0601 36.7335 58.2492 36.898 58.5125C36.9158 58.5409 36.9345 58.5706 36.954 58.6016C37.1654 58.9368 37.4677 59.4163 37.5845 59.9285C37.6563 60.2433 37.6675 60.5916 37.566 60.9574C37.4661 61.3174 37.273 61.6365 37.0204 61.9221C36.1235 62.9359 34.852 63.0577 33.8212 62.7637C32.8123 62.476 31.8526 61.7524 31.3787 60.7755C31.1376 60.2786 31.345 59.6804 31.8418 59.4393C32.3387 59.1982 32.937 59.4056 33.1781 59.9025C33.3725 60.3032 33.8359 60.6882 34.3697 60.8404C34.8815 60.9864 35.2723 60.8796 35.5224 60.5969C35.6206 60.4859 35.6372 60.4287 35.6389 60.4225C35.6389 60.4225 35.6389 60.4225 35.6389 60.4224C35.6395 60.4212 35.6434 60.4122 35.6345 60.373C35.6223 60.3193 35.5902 60.2312 35.5121 60.0866C35.4401 59.9531 35.3531 59.814 35.2396 59.6327C35.2395 59.6325 35.2395 59.6324 35.2394 59.6322C35.2267 59.6218 35.2077 59.607 35.1809 59.5875C35.0911 59.5223 34.9797 59.4523 34.8524 59.3735C34.844 59.3683 34.8344 59.3624 34.8238 59.3559C34.7323 59.2996 34.5656 59.1972 34.4565 59.1052L34.4563 59.1051C34.4271 59.0804 34.3284 58.9973 34.2422 58.8679C34.1994 58.8036 34.1114 58.6578 34.0806 58.4493C34.0439 58.2009 34.0974 57.9017 34.3051 57.6537C34.4816 57.4428 34.6924 57.363 34.7935 57.3327C34.904 57.2995 34.9977 57.2918 35.0493 57.2893Z" fill="black"/>
<path fill-rule="evenodd" clip-rule="evenodd" d="M28.2808 58.8163C28.8279 58.8913 29.2107 59.3957 29.1356 59.9429C29.0735 60.3963 29.1721 60.7443 29.3068 60.9318C29.4047 61.068 29.569 61.1983 29.9563 61.161C29.9621 61.1594 29.9838 61.1532 30.0227 61.1358C30.0834 61.1088 30.1601 61.0663 30.2472 61.0081C30.4144 60.8962 30.5665 60.7625 30.6581 60.6659C30.6634 60.6579 30.6725 60.6442 30.6859 60.6231C30.6901 60.6164 30.6952 60.6083 30.701 60.5991C30.7336 60.5474 30.7883 60.4605 30.8449 60.3815C30.911 60.2891 31.023 60.1439 31.1823 60.0165C31.3476 59.8845 31.6241 59.725 31.9929 59.7294C32.5451 59.736 32.9874 60.189 32.9809 60.7412C32.9762 61.1335 32.7462 61.4704 32.4154 61.6302C32.4118 61.6359 32.408 61.6419 32.404 61.6483C32.3952 61.6622 32.3852 61.6779 32.3737 61.696C32.352 61.7301 32.3229 61.7755 32.2907 61.8215C32.2596 61.866 32.2136 61.9286 32.1551 61.9928C31.9536 62.2141 31.668 62.4639 31.3591 62.6705C31.0748 62.8607 30.6443 63.1009 30.1705 63.1495C29.1085 63.2586 28.2255 62.8541 27.6829 62.0992C27.1763 61.3944 27.0414 60.4939 27.1542 59.6711C27.2292 59.124 27.7336 58.7412 28.2808 58.8163Z" fill="black"/>
<path fill-rule="evenodd" clip-rule="evenodd" d="M49.799 37.469C49.7613 38.02 49.2841 38.4362 48.7331 38.3985C47.0894 38.2862 45.4554 38.2016 43.8115 38.1164C42.8135 38.0647 41.8118 38.0128 40.8022 37.9544C39.7051 37.891 38.6102 37.8786 37.4845 37.8658C36.8615 37.8588 36.229 37.8516 35.5815 37.8356C33.8009 37.7917 31.9721 37.6802 30.1894 37.2949C29.6495 37.1783 29.3065 36.6461 29.4231 36.1063C29.5398 35.5664 30.072 35.2234 30.6118 35.34C32.2081 35.685 33.8872 35.7932 35.6308 35.8362C36.2201 35.8508 36.8255 35.8578 37.4372 35.8649C38.5968 35.8783 39.7792 35.8919 40.9177 35.9578C41.9008 36.0146 42.892 36.066 43.8866 36.1176C45.5455 36.2036 47.2138 36.29 48.8695 36.4032C49.4205 36.4408 49.8366 36.918 49.799 37.469Z" fill="black"/>
<path fill-rule="evenodd" clip-rule="evenodd" d="M52.634 35.9778C52.2825 35.2961 51.5533 35.0291 50.9559 35.2747C50.7881 35.3437 50.5169 35.5478 50.2127 35.8912C49.9228 36.2186 49.6841 36.5802 49.5553 36.8408C49.4887 36.9754 49.4567 37.0878 49.4264 37.2382C49.4203 37.2686 49.4128 37.31 49.4039 37.3592C49.3766 37.5099 49.3361 37.7338 49.2809 37.9399C49.1379 38.4733 48.5896 38.7899 48.0561 38.647C47.5227 38.504 47.2061 37.9557 47.349 37.4222C47.3823 37.2983 47.3974 37.213 47.4179 37.0983C47.4302 37.029 47.4445 36.9491 47.4658 36.8433C47.517 36.5889 47.5937 36.2956 47.7625 35.9543C47.9786 35.5172 48.3217 35.0098 48.7156 34.5651C49.0953 34.1365 49.6099 33.6656 50.1954 33.4249C51.8778 32.7332 53.649 33.5821 54.4116 35.0613C55.0631 36.3249 54.5812 37.5791 54.2154 38.3528C53.9793 38.8521 53.3832 39.0655 52.8839 38.8294C52.3846 38.5934 52.1712 37.9972 52.4073 37.498C52.7504 36.7723 52.8139 36.3267 52.634 35.9778Z" fill="black"/>
<path fill-rule="evenodd" clip-rule="evenodd" d="M57.9259 40.3708C57.0399 39.6943 56.018 39.3862 54.7792 39.237C54.752 39.2337 54.719 39.2295 54.6811 39.2246C54.4735 39.1979 54.1211 39.1527 53.8005 39.1467C53.7122 39.2594 53.5983 39.3549 53.4618 39.4233C52.9681 39.6709 52.3672 39.4714 52.1196 38.9777C51.9969 38.7331 51.8944 38.338 52.0879 37.9208C52.2627 37.544 52.58 37.3731 52.7545 37.3006C53.0932 37.1598 53.4875 37.146 53.7315 37.146C54.218 37.1461 54.767 37.2184 54.9616 37.244C54.9868 37.2473 55.006 37.2498 55.0184 37.2513C56.4724 37.4265 57.9034 37.8187 59.1905 38.8204C59.7512 39.2567 60.2471 39.9235 60.0512 40.7614C59.8869 41.4642 59.3018 41.8873 58.909 42.1126C58.4637 42.3681 57.9454 42.5502 57.4911 42.6678C57.0459 42.7831 56.574 42.859 56.2103 42.8529C55.6581 42.8436 55.218 42.3884 55.2273 41.8362C55.2366 41.284 55.6918 40.8439 56.244 40.8532C56.3561 40.8551 56.6334 40.8239 56.9899 40.7316C57.3372 40.6417 57.673 40.516 57.9137 40.3779C57.9178 40.3755 57.9219 40.3731 57.9259 40.3708ZM58.1266 40.5541C58.1261 40.5541 58.1229 40.55 58.1186 40.5419C58.125 40.5501 58.1271 40.5541 58.1266 40.5541Z" fill="black"/>
<path fill-rule="evenodd" clip-rule="evenodd" d="M54.6722 42.2577C54.8151 41.7243 55.3634 41.4077 55.8969 41.5506C56.3891 41.6825 57.2028 42.0579 57.7863 42.6022C58.0784 42.8747 58.4158 43.2847 58.5246 43.8271C58.6479 44.442 58.4399 45.0245 58.0031 45.488C57.2158 46.3235 56.2102 46.463 55.3489 46.3256C54.5205 46.1935 53.7457 45.8015 53.1804 45.4468C52.7125 45.1533 52.5712 44.5361 52.8647 44.0683C53.1582 43.6005 53.7754 43.4591 54.2433 43.7526C54.7056 44.0427 55.2158 44.2791 55.6639 44.3505C56.0538 44.4127 56.3089 44.3445 56.5093 44.1548C56.4882 44.1301 56.4598 44.1 56.422 44.0646C56.2835 43.9355 56.0878 43.8035 55.8735 43.6903C55.6576 43.5763 55.4723 43.5074 55.3793 43.4825C54.8458 43.3395 54.5292 42.7912 54.6722 42.2577Z" fill="black"/>
<path fill-rule="evenodd" clip-rule="evenodd" d="M53.4861 44.6798C53.4859 44.6813 53.4857 44.6827 53.4855 44.684C53.4377 45.0298 53.2183 45.3098 52.9252 45.4498C52.8319 45.5981 52.7623 45.74 52.6716 45.9252C52.6264 46.0173 52.576 46.1202 52.5147 46.24C52.3458 46.5704 52.1122 46.9829 51.7318 47.3449C50.8733 48.1615 49.7786 48.2264 48.8971 47.8954C48.0507 47.5776 47.3117 46.8709 47.0093 45.9771C46.8323 45.4539 47.113 44.8864 47.6361 44.7094C48.1593 44.5324 48.7269 44.813 48.9038 45.3362C48.9987 45.6165 49.2694 45.8989 49.6001 46.0231C49.8956 46.134 50.1453 46.0937 50.3533 45.8958C50.4843 45.7712 50.5944 45.6025 50.7341 45.3294C50.7614 45.2759 50.7925 45.2124 50.827 45.142C50.9407 44.91 51.0907 44.6039 51.2607 44.3403C51.2614 44.3391 51.2626 44.3374 51.2641 44.335C51.2899 44.2946 51.4259 44.082 51.5615 43.9173C51.5995 43.8712 51.6544 43.8076 51.7208 43.7456C51.7217 43.7447 51.7228 43.7437 51.724 43.7425C51.7628 43.706 51.9282 43.5504 52.1813 43.4767C52.3377 43.4312 52.624 43.3905 52.9294 43.5437C53.2377 43.6983 53.3779 43.9562 53.4357 44.1174C53.5284 44.3764 53.4951 44.6149 53.4861 44.6798Z" fill="black"/>
<path fill-rule="evenodd" clip-rule="evenodd" d="M15.0515 0.952593C21.4026 -0.276171 28.4434 0.870755 34.1038 3.83572C39.1596 6.48399 43.2288 11.2862 43.9045 17.2178C44.6929 24.1381 40.5354 29.7155 35.2408 33.2894C30.0981 36.7607 23.3438 38.4261 17.143 37.6416C10.9162 36.8538 5.17242 33.5755 2.28175 27.1029C0.352744 22.7836 -0.00519061 18.0668 1.21198 13.8635C1.0158 13.9062 0.804928 13.8903 0.606337 13.8052C0.0987073 13.5877 -0.136444 12.9998 0.0811114 12.4922C2.9353 5.8324 8.67833 2.18562 15.0515 0.952593ZM11.4983 4.05996C11.6395 4.52449 11.4245 5.03515 10.9732 5.25141C2.9658 9.08827 0.531941 18.2803 4.1079 26.2874C6.65712 31.9954 11.7106 34.9384 17.394 35.6574C23.1035 36.3797 29.3725 34.8375 34.1218 31.6317C39.0847 28.2817 42.5884 23.334 41.9174 17.4442C41.3331 12.3156 37.7856 8.02201 33.1758 5.60738C27.898 2.84282 21.3167 1.77753 15.4314 2.91618C14.0723 3.17914 12.7537 3.55847 11.4983 4.05996Z" fill="black"/>
<path fill-rule="evenodd" clip-rule="evenodd" d="M22.3154 22.8947C22.2539 23.0461 22.1834 23.2102 22.1068 23.3447C22.0544 23.4367 22.0017 23.5289 21.9488 23.6214C20.994 25.2929 19.9937 27.0441 19.8502 28.6841C19.8982 28.6785 19.9475 28.6756 19.9978 28.6756C21.8894 28.6756 24.2092 28.2845 26.1146 27.8012C26.019 27.5743 25.8136 27.2608 25.531 26.899C25.2332 26.5178 24.8856 26.1277 24.5842 25.8001C24.4855 25.6928 24.3861 25.5863 24.2942 25.4879C24.1263 25.308 23.9836 25.1552 23.9165 25.0737C23.5426 24.6192 23.2108 24.1567 22.8943 23.7089C22.8535 23.6512 22.813 23.5939 22.7728 23.5368C22.6192 23.319 22.4685 23.1054 22.3154 22.8947ZM19.2302 29.6996C19.3938 29.8805 19.6765 30 19.9978 30C22.3151 30 25.0478 29.5017 27.1252 28.9456C27.604 28.8175 27.8767 28.5364 27.965 28.2348C28.04 27.9783 27.9817 27.7222 27.9106 27.5249C27.7646 27.1196 27.4479 26.6588 27.1268 26.2479C26.7964 25.8249 26.4201 25.4035 26.1104 25.0669C25.9686 24.9127 25.8484 24.7842 25.7515 24.6806C25.6217 24.5419 25.5337 24.4478 25.4918 24.3968C25.1506 23.9822 24.8419 23.5529 24.5263 23.1064C24.4866 23.0503 24.4468 22.9937 24.4067 22.937C24.132 22.5475 23.8478 22.1446 23.541 21.7486C23.4099 21.5794 23.2605 21.4192 23.0827 21.2919C22.91 21.1684 22.6269 21.0171 22.2371 21.0013C21.82 20.9845 21.512 21.1301 21.3316 21.2592C21.1615 21.3808 21.0496 21.5236 20.9764 21.6324C20.8289 21.8515 20.718 22.1213 20.6353 22.3264C20.6239 22.3548 20.6129 22.3821 20.6023 22.4085C20.5246 22.602 20.4685 22.7415 20.4122 22.8404C20.3477 22.9536 20.2817 23.0688 20.2147 23.1858C19.2199 24.9221 18 27.0515 18 29.0773C18 29.443 18.4103 29.7395 18.9163 29.7395C19.0266 29.7395 19.1323 29.7254 19.2302 29.6996Z" fill="black"/>
<path fill-rule="evenodd" clip-rule="evenodd" d="M12.6712 15.5103C12.8732 15.2861 13.0164 15.1954 13.1094 15.1576C13.1848 15.1269 13.2853 15.1056 13.463 15.1478C13.6479 15.1918 13.841 15.3023 14.2447 15.5673L14.3034 15.6059C14.6415 15.8289 15.1913 16.1916 15.8411 16.3358C16.6036 16.505 17.3453 15.9564 17.4978 15.1104C17.6503 14.2644 17.1558 13.4415 16.3934 13.2723C16.2582 13.2423 16.099 13.1544 15.6783 12.8783L15.6364 12.8508C15.2852 12.6198 14.7284 12.2535 14.053 12.0929C13.391 11.9355 12.7474 11.9772 12.1401 12.2243C11.5503 12.4643 11.0722 12.8661 10.6801 13.3011C9.65504 14.4385 8.77366 15.1396 8.11541 15.3013C7.85208 15.366 7.67526 15.3317 7.51139 15.2311C7.31838 15.1126 7.00595 14.8141 6.65241 14.0732C6.2886 13.3107 5.43661 13.0198 4.74943 13.4235C4.06224 13.8271 3.80009 14.7725 4.16389 15.5349C4.67812 16.6127 5.32537 17.4596 6.14818 17.9648C7.00012 18.4878 7.89525 18.5553 8.72422 18.3516C8.894 18.3099 9.06203 18.2565 9.22802 18.193C9.27987 18.3903 9.32831 18.5997 9.37586 18.8231C9.41535 19.0086 9.459 19.2303 9.50561 19.4671C9.58707 19.8809 9.67756 20.3405 9.77067 20.7331C10.0165 21.7697 10.3245 22.8442 10.6185 23.87L10.6185 23.8701C10.7794 24.4315 10.9361 24.9784 11.0762 25.4964C11.2996 26.3227 12.0845 26.7917 12.8292 26.5438C13.574 26.2959 13.9966 25.425 13.7732 24.5987C13.6034 23.9707 13.4329 23.3772 13.2665 22.7981L13.2665 22.7981C12.9899 21.8351 12.7247 20.9122 12.4937 19.938C12.4097 19.5838 12.349 19.2718 12.2819 18.9275L12.2819 18.9275C12.2337 18.6794 12.1821 18.4146 12.1162 18.105C12.0105 17.6084 11.8799 17.0674 11.6905 16.5221C12.0432 16.1887 12.3717 15.8425 12.6712 15.5103Z" fill="black"/>
<path fill-rule="evenodd" clip-rule="evenodd" d="M33.0393 12.9452C33.2499 12.6932 33.3992 12.5913 33.4962 12.5488C33.5747 12.5143 33.6795 12.4903 33.8647 12.5378C34.0575 12.5872 34.2588 12.7115 34.6797 13.0092L34.7408 13.0527C35.0933 13.3033 35.6664 13.7109 36.3439 13.873C37.1387 14.0632 37.9119 13.4465 38.0708 12.4958C38.2298 11.545 37.7143 10.6201 36.9195 10.4299C36.7786 10.3962 36.6126 10.2974 36.1741 9.98711L36.1305 9.95621C35.7643 9.69655 35.1838 9.28494 34.4798 9.10445C33.7897 8.92756 33.1188 8.97441 32.4857 9.25212C31.8709 9.52177 31.3725 9.97338 30.9637 10.4623C29.8951 11.7406 28.9763 12.5285 28.2901 12.7103C28.0156 12.783 27.8313 12.7445 27.6605 12.6314C27.4593 12.4982 27.1336 12.1628 26.765 11.33C26.3858 10.4731 25.4976 10.1462 24.7812 10.5998C24.0649 11.0535 23.7916 12.116 24.1709 12.9729C24.7069 14.1841 25.3816 15.136 26.2394 15.7037C27.1275 16.2916 28.0606 16.3675 28.9248 16.1385C29.1019 16.0916 29.2771 16.0316 29.4502 15.9602C29.5043 16.1819 29.5548 16.4173 29.6044 16.6684C29.6455 16.8769 29.691 17.126 29.7396 17.392L29.7396 17.3922C29.8245 17.8572 29.9189 18.3739 30.0159 18.8151C30.2722 19.9801 30.5933 21.1877 30.8997 22.3406L30.8997 22.3407C31.0675 22.9717 31.2308 23.5862 31.3769 24.1685C31.6098 25.0972 32.428 25.6242 33.2043 25.3456C33.9807 25.067 34.4213 24.0882 34.1884 23.1595C34.0114 22.4538 33.8336 21.7867 33.6602 21.1359L33.6602 21.1359C33.3718 20.0535 33.0954 19.0163 32.8546 17.9215C32.767 17.5233 32.7037 17.1727 32.6338 16.7857L32.6338 16.7857C32.5835 16.5069 32.5298 16.2093 32.4611 15.8614C32.3509 15.3031 32.2147 14.695 32.0173 14.0821C32.3848 13.7075 32.7272 13.3185 33.0393 12.9452Z" fill="black"/>
</svg>
