<svg width="50" height="69" viewBox="0 0 50 69" fill="none" xmlns="http://www.w3.org/2000/svg">
<path fill-rule="evenodd" clip-rule="evenodd" d="M18.6774 1.86573C25.59 -0.754206 32.6356 -0.835004 39.2105 3.04108C44.4165 6.11014 47.4143 11.4487 49.131 17.1567C50.7482 22.5337 50.1341 29.4564 47.071 34.2288C44.2661 38.5991 39.3203 41.225 34.651 42.2256C29.3698 43.3574 23.5666 43.3605 18.3537 41.4826C16.1816 40.7001 14.1535 39.4264 12.4443 37.829C8.95222 34.5654 7.5053 30.9136 6.27901 26.6409C6.5833 28.0259 7.00567 29.3905 7.51476 30.7062C7.69717 31.1776 7.48358 31.7161 7.03769 31.909C6.5918 32.1018 6.08246 31.876 5.90006 31.4046C3.82272 26.036 2.98314 19.5512 5.81194 13.9598C8.6146 8.42013 13.0125 4.01283 18.6774 1.86573ZM5.91266 24.5332C6.01454 24.2955 6.21072 24.1047 6.46659 24.027C6.92963 23.8864 7.41281 24.1692 7.54581 24.6588C8.86773 29.5245 10.1119 33.1874 13.5998 36.4471C15.1446 37.8909 16.9733 39.0367 18.9164 39.7367C23.767 41.4841 29.2447 41.5023 34.3044 40.4179C38.6926 39.4775 43.1601 37.0373 45.6274 33.1932C48.3524 28.9476 48.9451 22.6254 47.4685 17.7156C45.8261 12.2547 43.0349 7.40744 38.3609 4.65202C32.3204 1.09103 25.8171 1.11912 19.2662 3.602C14.061 5.57484 9.97692 9.63801 7.35029 14.8298C5.82834 17.8381 5.49047 21.202 5.91266 24.5332Z" fill="black"/>
<path fill-rule="evenodd" clip-rule="evenodd" d="M18.346 20.9055C18.5405 20.656 18.6783 20.5552 18.7678 20.5131C18.8403 20.479 18.9371 20.4552 19.1081 20.5022C19.286 20.5511 19.4719 20.6741 19.8605 20.9689L19.917 21.0119C20.2424 21.26 20.7716 21.6636 21.3971 21.824C22.1309 22.0122 22.8448 21.4018 22.9916 20.4606C23.1383 19.5194 22.6624 18.6038 21.9286 18.4155C21.7985 18.3822 21.6452 18.2844 21.2403 17.9772L21.2 17.9466C20.862 17.6895 20.326 17.2821 19.6759 17.1034C19.0388 16.9283 18.4194 16.9747 17.8348 17.2496C17.2672 17.5165 16.807 17.9636 16.4296 18.4476C15.443 19.7131 14.5946 20.4931 13.9611 20.673C13.7076 20.745 13.5374 20.7068 13.3797 20.5949C13.1939 20.463 12.8932 20.131 12.5529 19.3066C12.2028 18.4583 11.3827 18.1346 10.7213 18.5838C10.0599 19.0329 9.80759 20.0846 10.1577 20.9329C10.6527 22.132 11.2757 23.0743 12.0676 23.6363C12.8876 24.2182 13.7492 24.2934 14.547 24.0668C14.7104 24.0204 14.8721 23.961 15.0318 23.8904C15.0817 24.1099 15.1283 24.3428 15.1741 24.5913C15.2121 24.7977 15.2541 25.0444 15.2989 25.3078L15.2989 25.3079C15.3773 25.7682 15.4644 26.2796 15.5541 26.7164C15.7907 27.8697 16.0871 29.0652 16.37 30.2065L16.37 30.2065L16.3701 30.2066C16.5249 30.8313 16.6758 31.4396 16.8106 32.016C17.0256 32.9354 17.7811 33.4571 18.4979 33.1813C19.2147 32.9054 19.6215 31.9365 19.4064 31.0172C19.243 30.3185 19.0789 29.6581 18.9188 29.0139L18.9188 29.0139C18.6525 27.9424 18.3973 26.9156 18.175 25.8318C18.0941 25.4377 18.0356 25.0906 17.9711 24.7075C17.9247 24.4315 17.8751 24.1368 17.8116 23.7924C17.7099 23.2399 17.5842 22.638 17.402 22.0314C17.7415 21.6604 18.0577 21.2752 18.346 20.9055Z" fill="black"/>
<path fill-rule="evenodd" clip-rule="evenodd" d="M36.4607 15.7294C36.5044 15.7114 36.5609 15.6946 36.7064 15.7797C36.8769 15.8793 37.0731 16.0727 37.2588 16.3235C37.5323 16.6931 37.6554 16.9903 37.7222 17.2895C37.7959 17.6191 37.8132 17.9973 37.8132 18.5853C37.8132 18.8033 37.8725 19.0066 37.975 19.1782C37.9763 19.2143 37.9792 19.2513 37.984 19.2893C38.0609 19.9005 38.528 20.1286 38.6069 20.1655C38.7414 20.2283 38.8581 20.247 38.899 20.2532C38.9974 20.2681 39.0854 20.2674 39.1283 20.2666C39.2304 20.2648 39.3542 20.2544 39.4882 20.2402C39.6975 20.2181 39.8862 20.1326 40.0392 20.0035C40.1538 19.9781 40.2514 19.9581 40.301 19.9496C40.5738 19.9029 40.8639 19.8427 41.142 19.7849L41.1421 19.7849L41.3433 19.7433C41.6913 19.6718 42.0264 19.6067 42.354 19.5623C43.0258 19.471 43.5563 19.4842 43.9622 19.6347C44.3413 19.7754 44.4913 19.9836 44.5509 20.148C44.6152 20.3257 44.629 20.6084 44.4624 20.9793C44.04 21.9194 43.3216 22.3491 42.0767 22.7251C41.5181 22.8938 41.1947 23.5093 41.3543 24.0998C41.5139 24.6903 42.096 25.0322 42.6545 24.8635C44.0847 24.4314 45.5451 23.7528 46.3624 21.9335C46.7295 21.1165 46.821 20.197 46.5153 19.3528C46.2048 18.4953 45.5369 17.8621 44.6586 17.5362C43.788 17.2133 42.8658 17.2506 42.086 17.3565C41.6877 17.4105 41.2973 17.4873 40.9422 17.5602L40.7195 17.6062C40.4453 17.6631 40.1993 17.7141 39.9643 17.7544C39.9451 17.7577 39.9231 17.7617 39.8987 17.7663C39.8801 17.4382 39.843 17.1077 39.7694 16.7781C39.6272 16.1418 39.3612 15.5553 38.9153 14.9529C38.641 14.5823 38.2399 14.1349 37.7243 13.8335C37.1837 13.5175 36.4655 13.3393 35.6942 13.6584C34.9078 13.9838 34.3832 14.6879 34.0452 15.2627C33.7086 15.835 33.455 16.4613 33.2819 16.889L33.2819 16.889L33.2819 16.889L33.2596 16.9441C33.1647 17.1781 33.0608 17.4467 32.9611 17.7375C32.6826 17.4035 32.3789 17.0733 32.0624 16.782C31.5678 16.3267 30.9088 15.8395 30.1691 15.7123C29.7722 15.6441 29.3373 15.6777 28.916 15.8895C28.4995 16.099 28.1771 16.4419 27.9338 16.8508C27.1398 18.1854 27.0076 19.7273 27.2133 21.1345C27.419 22.5409 27.9715 23.8967 28.6602 24.9676C28.7583 25.1201 28.886 25.2387 29.0295 25.3206C29.1305 25.4618 29.2279 25.5787 29.3044 25.6705L29.3045 25.6707C29.3272 25.6979 29.3481 25.7229 29.3666 25.7457C30.5366 27.1833 31.6581 28.6574 32.7928 30.1489C33.0688 30.5117 33.3456 30.8755 33.6241 31.2401C34.4009 32.2572 35.1737 33.3191 35.957 34.3956L35.9571 34.3956C38.0323 37.2475 40.1822 40.2019 42.6806 42.6966C43.1029 43.1183 43.7686 43.0982 44.1674 42.6517C44.5663 42.2053 44.5473 41.5015 44.125 41.0798C41.7563 38.7147 39.7636 35.9762 37.7256 33.1754L37.7255 33.1753C36.9197 32.0679 36.1067 30.9506 35.2606 29.8429C34.9883 29.4864 34.7157 29.128 34.4424 28.7688L34.4415 28.7676L34.4415 28.7676C33.3049 27.2736 32.1561 25.7635 30.9611 24.2952L30.93 24.257C30.7765 24.0686 30.6951 23.9686 30.6335 23.8652C30.583 23.7806 30.5809 23.7481 30.5801 23.7327C30.5557 23.268 30.2648 22.8859 29.8728 22.7429C29.5972 22.1312 29.3898 21.4625 29.2921 20.7947C29.1393 19.7495 29.2647 18.7908 29.7144 18.035C29.7606 17.9573 29.7949 17.9203 29.8121 17.9048C29.817 17.9052 29.8234 17.906 29.8315 17.9074C29.9767 17.9324 30.2676 18.0785 30.6812 18.4593C31.475 19.19 32.2353 20.3248 32.5277 20.8194C32.8355 21.3402 33.4844 21.4985 33.977 21.173C34.0734 21.1093 34.1567 21.0318 34.226 20.9443C34.4553 20.7403 34.601 20.4347 34.601 20.0931C34.601 19.4678 34.8699 18.6172 35.193 17.8201L35.1966 17.8112C35.3814 17.3554 35.5809 16.8632 35.8316 16.4369C36.0973 15.9851 36.3187 15.7882 36.4607 15.7294ZM29.8243 17.8951L29.8222 17.8964C29.8236 17.8955 29.8243 17.8951 29.8243 17.8951ZM29.7992 17.9044L29.8007 17.9043L29.7995 17.9043C29.7993 17.9043 29.7992 17.9044 29.7992 17.9044Z" fill="black"/>
<path fill-rule="evenodd" clip-rule="evenodd" d="M25.2444 33.0521C24.771 33.1106 24.2489 33.3656 23.829 33.7652C23.4289 34.1459 22.7959 34.1301 22.4152 33.73C22.0345 33.3299 22.0502 32.697 22.4503 32.3163C23.1348 31.6649 24.0413 31.1856 24.9992 31.0672C25.9841 30.9455 27.0323 31.2116 27.8385 32.0639C28.218 32.4651 28.2004 33.0981 27.7991 33.4776C27.3979 33.8571 26.765 33.8395 26.3855 33.4382C26.0765 33.1116 25.6908 32.997 25.2444 33.0521Z" fill="black"/>
<path fill-rule="evenodd" clip-rule="evenodd" d="M2.81952 40.0801C3.32758 40.2966 3.5639 40.884 3.34735 41.3921C0.833691 47.2896 1.6981 54.9879 7.05062 58.5594C12.7434 62.3578 19.2385 61.0915 25.6934 59.0089C26.219 58.8393 26.7826 59.1279 26.9522 59.6535C27.1218 60.1791 26.8331 60.7427 26.3075 60.9123C19.8348 63.0007 12.4856 64.5902 5.94055 60.223C-0.507037 55.9209 -1.22495 47.0187 1.5075 40.6079C1.72405 40.0999 2.31146 39.8635 2.81952 40.0801Z" fill="black"/>
<path fill-rule="evenodd" clip-rule="evenodd" d="M26.9931 54.0686C26.7049 53.9603 26.3541 53.9469 25.8476 54.28C25.5527 54.474 25.2961 54.8678 25.141 55.4823C24.9892 56.084 24.9688 56.7739 25.0378 57.3583C25.1802 58.5644 25.6188 59.4983 26.3671 60.3321C26.7359 60.7431 26.7017 61.3754 26.2907 61.7442C25.8796 62.1131 25.2474 62.0789 24.8785 61.6678C23.8556 60.5279 23.2425 59.2097 23.0516 57.5928C22.9596 56.8133 22.9797 55.8731 23.2018 54.993C23.4206 54.1258 23.8712 53.1861 24.7486 52.609C25.7326 51.9619 26.7494 51.8403 27.6969 52.1965C28.5764 52.5272 29.27 53.2226 29.802 53.9471C30.8696 55.401 31.5888 57.3948 31.958 58.6291C32.1163 59.1582 31.8157 59.7155 31.2866 59.8738C30.7574 60.032 30.2002 59.7314 30.0419 59.2023C29.6885 58.0207 29.0474 56.2986 28.1899 55.1308C27.7594 54.5445 27.3493 54.2025 26.9931 54.0686Z" fill="black"/>
<path fill-rule="evenodd" clip-rule="evenodd" d="M37.5621 58.2687C36.7452 58.054 35.8486 57.9907 35.0587 58.0011C34.6347 58.0066 34.1306 58.0539 33.6741 58.1712C33.1995 58.2931 32.8863 58.4626 32.7244 58.6327C32.3437 59.0328 31.7107 59.0484 31.3106 58.6677C30.9105 58.287 30.8949 57.654 31.2756 57.2539C31.8097 56.6927 32.5413 56.3973 33.1765 56.2341C33.8296 56.0663 34.5003 56.0082 35.0324 56.0012C35.9297 55.9895 37.0203 56.0584 38.0703 56.3343C39.1138 56.6084 40.2022 57.1097 40.9859 58.0262C41.7496 58.9192 42.1176 59.8925 41.9671 60.9267C41.8244 61.9071 41.2397 62.7533 40.5315 63.4844C39.1397 64.9213 37.2542 65 35.8426 65C35.2903 65 34.8426 64.5523 34.8426 64C34.8426 63.4477 35.2903 63 35.8426 63C37.2753 63 38.3444 62.8677 39.0949 62.0929C39.6826 61.4862 39.9336 61.0121 39.9879 60.6386C40.0345 60.3191 39.9609 59.9049 39.4659 59.326C39.0437 58.8323 38.3855 58.485 37.5621 58.2687Z" fill="black"/>
<path fill-rule="evenodd" clip-rule="evenodd" d="M34.0953 63.9479C34.124 63.3964 34.5945 62.9726 35.146 63.0014C35.6012 63.0251 36.1011 63.2304 36.5047 63.4428C36.9411 63.6725 37.4055 63.9858 37.8099 64.349C38.2025 64.7016 38.6049 65.1603 38.8265 65.6962C39.0647 66.272 39.1075 66.9999 38.6298 67.6556C38.1704 68.286 37.4113 68.5965 36.8347 68.7584C36.2166 68.932 35.5681 69 35.0864 69C33.8826 69 32.5791 68.7812 31.4488 68.0343C30.988 67.7298 30.8613 67.1095 31.1658 66.6487C31.4703 66.1879 32.0907 66.0612 32.5514 66.3657C33.2356 66.8178 34.1024 67 35.0864 67C35.4085 67 35.8729 66.9511 36.294 66.8329C36.7098 66.7161 36.9187 66.5781 36.9932 66.5013C36.9899 66.4907 36.9852 66.4772 36.9784 66.4606C36.9179 66.3145 36.7576 66.0921 36.4735 65.837C36.2012 65.5924 35.8749 65.3715 35.5732 65.2127C35.4235 65.1339 35.2915 65.0765 35.1863 65.0399C35.0857 65.0048 35.0392 64.999 35.0392 64.9986C35.0392 64.9985 35.0401 64.9986 35.0418 64.9987C34.4903 64.9699 34.0665 64.4995 34.0953 63.9479Z" fill="black"/>
</svg>
