<svg width="64" height="57" viewBox="0 0 64 57" fill="none" xmlns="http://www.w3.org/2000/svg">
<path fill-rule="evenodd" clip-rule="evenodd" d="M33.5357 20.0201C39.8714 19.7886 45.8192 21.5306 50.104 26.5571C53.6034 30.6622 54.9869 36.3666 53.426 41.6218C51.947 46.6014 47.8447 51.0594 43.4299 53.5041C37.2239 56.9408 30.5706 56.8504 24.0903 54.812C18.0545 52.9135 11.8097 48.2481 10.8829 41.4192C10.3512 41.3568 9.96007 40.8841 10.0033 40.346C10.9801 28.1746 22.034 20.4403 33.5357 20.0201ZM12.2172 38.7711C12.5424 38.9361 12.7652 39.2737 12.7652 39.6633C12.7652 46.1516 18.4912 50.9543 24.6904 52.9042C30.8055 54.8277 36.8617 54.8552 42.461 51.7545C46.5089 49.5129 50.2065 45.4373 51.5088 41.0523C52.8648 36.4867 51.6703 31.4774 48.582 27.8545C44.8046 23.4233 39.5275 21.8025 33.6087 22.0188C23.4026 22.3916 13.95 28.8607 12.2172 38.7711Z" fill="black"/>
<path fill-rule="evenodd" clip-rule="evenodd" d="M45.5766 30.8028L45.5764 30.8034C45.5647 30.8398 45.5554 30.8688 45.5489 30.8896C45.1792 32.0809 44.6924 33.2196 44.2034 34.3135C44.0995 34.5459 43.9958 34.7755 43.8931 35.0032L43.893 35.0033C43.5053 35.8623 43.1298 36.6944 42.7988 37.5456C42.7494 37.6725 42.6814 37.839 42.5947 38.0009C42.5143 38.151 42.3798 38.3711 42.1687 38.5492C41.9309 38.7499 41.5524 38.9255 41.0945 38.8231C40.6984 38.7346 40.4225 38.4734 40.245 38.2564C39.3426 37.1534 38.6588 35.798 38.0799 34.481C37.8174 33.8838 37.5703 33.2795 37.3337 32.701L37.3337 32.7009L37.2569 32.5133C36.9947 31.8728 36.7452 31.2693 36.4903 30.7151C36.2721 30.2406 36.4798 29.679 36.9543 29.4608C37.2245 29.3365 37.5229 29.3504 37.7701 29.4729C37.682 29.3774 37.6122 29.2621 37.5685 29.1308C37.4033 28.6353 37.6711 28.0998 38.1666 27.9346C38.7142 27.7521 39.2294 27.5581 39.7673 27.3556L39.7674 27.3556L39.7674 27.3556C40.185 27.1984 40.6163 27.036 41.087 26.8698C42.1027 26.5113 43.1852 26.1817 44.2907 26.0435C44.6451 25.9992 45.0299 26.0458 45.3738 26.265C45.7125 26.4809 45.9013 26.7943 46.0034 27.0756C46.1916 27.594 46.158 28.2003 46.0978 28.6611C45.9839 29.5342 45.683 30.4715 45.5766 30.8028ZM38.045 29.6788C38.1105 29.7499 38.1661 29.8323 38.2087 29.9248C38.4825 30.5203 38.7461 31.1587 39.0073 31.7968L39.0837 31.9834C39.3216 32.5651 39.5594 33.1465 39.8114 33.7199C40.2431 34.7022 40.6986 35.6176 41.2207 36.3969C41.5246 35.6526 41.8562 34.9179 42.1796 34.2016L42.1798 34.2012C42.2799 33.9795 42.3792 33.7595 42.4767 33.5416C42.9608 32.4587 43.4082 31.4062 43.7425 30.329C43.7521 30.298 43.7642 30.2601 43.7782 30.2161L43.7784 30.2155C43.8922 29.8577 44.1331 29.1006 44.2223 28.4164C44.2476 28.2229 44.2551 28.0717 44.2534 27.959C43.4356 28.0891 42.5937 28.3438 41.7166 28.6534C41.3362 28.7877 40.9238 28.9423 40.5041 29.0996L40.5039 29.0997L40.5038 29.0997C39.9163 29.32 39.3143 29.5457 38.7647 29.729C38.5178 29.8112 38.261 29.7861 38.045 29.6788ZM41.7256 37.078C41.7302 37.0821 41.7324 37.0845 41.7324 37.0847C41.7324 37.0849 41.7301 37.0829 41.7256 37.078ZM29.4425 29.9327C29.6933 29.9719 30.2247 30.0953 30.5078 30.605C30.6885 30.9302 30.7285 31.2729 30.7286 31.5378C30.7287 31.8094 30.6864 32.0757 30.6385 32.3014C30.59 32.53 30.5283 32.7499 30.4773 32.9272L30.4516 33.0162L30.4516 33.0163C30.41 33.1602 30.3826 33.2548 30.3661 33.3284C30.1694 34.2025 29.9205 35.0976 29.6796 35.964C29.5452 36.4476 29.4132 36.9222 29.2942 37.3793C29.274 37.4567 29.25 37.6133 29.2119 37.8613C29.1883 38.0153 29.1593 38.2046 29.1224 38.432C29.0363 38.963 28.917 39.6226 28.7442 40.2217C28.6576 40.5217 28.5517 40.8278 28.4196 41.1055C28.292 41.3735 28.1127 41.6741 27.8531 41.9104C27.574 42.1643 27.1711 42.3664 26.6772 42.3149C26.2215 42.2673 25.8531 42.0191 25.573 41.7489C24.3848 40.6032 23.5416 39.2678 22.784 38.0047C22.6888 37.8458 22.595 37.6885 22.5022 37.5327L22.5021 37.5325C21.8399 36.421 21.2255 35.3896 20.4435 34.4655C20.1061 34.0667 20.1559 33.47 20.5546 33.1326C20.9533 32.7953 21.55 32.845 21.8874 33.2437C22.7781 34.2964 23.4778 35.4727 24.1318 36.5721L24.1318 36.5721L24.1318 36.5721L24.1321 36.5725C24.2242 36.7273 24.3154 36.8806 24.4061 37.0319C25.12 38.2222 25.8182 39.3133 26.7361 40.2396C26.8006 40.0945 26.8649 39.9124 26.9269 39.6974C27.0668 39.2123 27.1717 38.6452 27.2554 38.1292C27.2756 38.0044 27.2958 37.8736 27.3157 37.7444C27.368 37.4044 27.4186 37.0764 27.4638 36.9027C27.6003 36.3786 27.7404 35.8758 27.878 35.3818L27.878 35.3817L27.878 35.3817C28.1087 34.5535 28.3325 33.7501 28.5208 32.9132C28.5511 32.7786 28.5981 32.6164 28.6388 32.4762L28.6596 32.4041C28.7092 32.2317 28.7548 32.0669 28.7883 31.9087C28.7968 31.869 28.804 31.8317 28.8101 31.7966C28.7623 31.7994 28.7098 31.8034 28.6525 31.8088C28.1434 31.8567 27.4593 31.9955 26.7182 32.176C25.9859 32.3545 25.2386 32.5635 24.6104 32.7401L24.4774 32.7776L24.4773 32.7776C23.9394 32.929 23.4363 33.0707 23.1811 33.1132C22.666 33.1991 22.1787 32.851 22.0928 32.3359C22.007 31.8207 22.355 31.3334 22.8702 31.2475C23.0136 31.2237 23.431 31.107 24.0984 30.9193C24.7245 30.7433 25.5017 30.5257 26.2705 30.3384C27.0306 30.1532 27.824 29.987 28.4751 29.9257C28.7953 29.8956 29.1361 29.8849 29.4425 29.9327ZM29.1874 31.8095C29.1868 31.8099 29.1787 31.8084 29.1652 31.8039C29.1813 31.8069 29.188 31.8091 29.1874 31.8095ZM26.9735 40.4596C26.9735 40.4596 26.9732 40.4595 26.9727 40.4592L26.9715 40.4585L26.9735 40.4596ZM31.5271 40.9213C31.6061 40.7292 31.6789 40.4949 31.7424 40.2787C31.9003 40.5796 32.0558 40.8846 32.2143 41.1956L32.2144 41.1957L32.3398 41.4414C32.6665 42.081 33.0089 42.7415 33.3948 43.3905C33.464 43.5069 33.6113 43.7251 33.7847 43.982L33.7848 43.9822C33.8795 44.1226 33.9821 44.2746 34.084 44.4278C34.395 44.8957 34.7537 45.4528 35.061 45.9972C35.3527 46.5138 35.5647 46.9615 35.6633 47.2855C33.6969 47.9757 31.3027 48.5342 29.3504 48.5342C29.2986 48.5342 29.2477 48.5384 29.1981 48.5465C29.3462 46.2043 30.3786 43.7036 31.364 41.3165L31.5271 40.9213ZM29.3504 50.4256C29.0188 50.4256 28.7271 50.255 28.5582 49.9967C28.4572 50.0335 28.3481 50.0536 28.2343 50.0536C27.712 50.0536 27.2886 49.6302 27.2886 49.1079C27.2886 46.2149 28.5476 43.174 29.5743 40.6944C29.6434 40.5273 29.7115 40.3628 29.7781 40.2011C29.8362 40.06 29.8941 39.8607 29.9743 39.5843L29.9744 39.5843L30.0084 39.4671C30.0938 39.1742 30.2082 38.789 30.3604 38.476C30.436 38.3206 30.5515 38.1168 30.727 37.943C30.9132 37.7587 31.2311 37.5507 31.6615 37.5748C32.0638 37.5974 32.356 37.8133 32.5343 37.9898C32.7178 38.1715 32.872 38.4004 33.0072 38.6419C33.3239 39.2075 33.6172 39.7828 33.9007 40.339L33.9007 40.339L34.0241 40.581C34.3499 41.2187 34.6685 41.8317 35.0206 42.4238C35.0639 42.4967 35.1547 42.631 35.2886 42.8291L35.2888 42.8293C35.3888 42.9772 35.5128 43.1607 35.659 43.3807C35.9786 43.8614 36.367 44.4632 36.7081 45.0673C37.0394 45.6541 37.3663 46.3122 37.5169 46.8909C37.5903 47.1728 37.6505 47.5385 37.573 47.9047C37.482 48.3355 37.2005 48.7369 36.7064 48.9199C34.5623 49.714 31.7421 50.4256 29.3504 50.4256Z" fill="black"/>
<path fill-rule="evenodd" clip-rule="evenodd" d="M19.7532 17.3897C19.8192 17.938 19.4282 18.436 18.8798 18.502C12.9693 19.2131 7.75236 22.4085 6.30722 28.1398C6.10477 28.9427 5.99129 30.5621 6.26137 31.9187C6.39645 32.5971 6.60739 33.1036 6.85796 33.4101C7.07086 33.6705 7.30623 33.7913 7.67062 33.7645C8.22142 33.7241 8.70074 34.1378 8.7412 34.6886C8.78166 35.2394 8.36794 35.7187 7.81714 35.7592C6.7387 35.8384 5.89254 35.3891 5.30956 34.676C4.76426 34.009 4.46499 33.1386 4.29987 32.3092C3.96956 30.6501 4.09576 28.7302 4.36792 27.6508C6.08723 20.8322 12.2445 17.2859 18.6409 16.5163C19.1893 16.4504 19.6872 16.8414 19.7532 17.3897Z" fill="black"/>
<path fill-rule="evenodd" clip-rule="evenodd" d="M23.0056 21.2437C22.5396 21.3558 22.0425 21.3115 21.5464 21.1796C20.3358 20.8578 19.6888 20.0452 19.2361 19.391C19.1468 19.2619 19.0664 19.1431 18.9923 19.0335C18.6537 18.5328 18.4448 18.2239 18.1025 18.0054C17.637 17.7083 17.5005 17.09 17.7976 16.6245C18.0948 16.1589 18.7131 16.0224 19.1786 16.3196C19.9065 16.7842 20.3834 17.5048 20.7185 18.0112C20.7766 18.099 20.8305 18.1804 20.8807 18.2529C21.2646 18.8077 21.5633 19.1146 22.0602 19.2467C22.3274 19.3178 22.4681 19.3109 22.5217 19.3023C22.5588 19.2184 22.6212 18.9533 22.5443 18.4113C22.4667 17.8647 22.2759 17.2354 22.0455 16.6713C21.8073 16.088 21.5693 15.6782 21.4447 15.5267C21.0939 15.1002 21.1554 14.47 21.5819 14.1192C22.0085 13.7684 22.6387 13.8298 22.9895 14.2564C23.3045 14.6395 23.6328 15.268 23.897 15.9151C24.1691 16.5813 24.4172 17.3743 24.5244 18.1303C24.6231 18.8257 24.6424 19.749 24.1609 20.4535C23.8931 20.8453 23.4987 21.125 23.0056 21.2437Z" fill="black"/>
<path fill-rule="evenodd" clip-rule="evenodd" d="M27.3687 9.25241C27.0344 10.3217 26.3404 11.3894 25.983 11.8968C25.8352 12.1067 25.1657 12.9383 24.548 13.5984C24.2522 13.9144 23.8965 14.2701 23.5867 14.4803C23.5038 14.5365 23.3909 14.6057 23.2581 14.6589C23.147 14.7034 22.8898 14.7917 22.5764 14.7251C22.1714 14.6389 21.903 14.3492 21.7886 14.0403C21.698 13.7959 21.7111 13.5702 21.7241 13.4507C21.7817 12.9215 22.2423 12.534 22.7671 12.5601C22.8595 12.4704 22.9671 12.3607 23.0878 12.2317C23.3679 11.9325 23.6627 11.5904 23.9033 11.3008C24.023 11.1567 24.1273 11.028 24.2073 10.9272C24.2473 10.8767 24.2804 10.8343 24.3057 10.8013C24.3184 10.7848 24.3284 10.7715 24.3361 10.7612L24.3449 10.7492C24.346 10.7477 24.3468 10.7466 24.3473 10.746C24.3478 10.7453 24.3479 10.745 24.3479 10.7451C24.6813 10.2718 25.2226 9.41421 25.4597 8.6557C25.581 8.2677 25.5784 8.041 25.5524 7.94427C25.5523 7.94378 25.5523 7.94298 25.5523 7.94191C25.5528 7.93068 25.5544 7.88872 25.383 7.83717C25.244 7.79537 25.034 7.78814 24.7188 7.87127C24.4037 7.95436 24.0451 8.11143 23.6484 8.32508C23.2534 8.53777 22.8603 8.78431 22.4631 9.03346L22.4435 9.04574C22.0702 9.27998 21.6707 9.53067 21.3131 9.7097C21.2414 9.74559 21.1878 9.77504 21.1497 9.79719C21.1373 9.8079 21.1249 9.81828 21.1127 9.8283C21.0851 9.8508 21.0528 9.87567 21.0168 9.90027L21.0161 9.90077C20.9949 9.91528 20.9192 9.96711 20.8162 10.0096C20.7858 10.0221 20.731 10.0431 20.66 10.0597C20.6082 10.0718 20.4471 10.107 20.244 10.0683C19.9906 10.02 19.6234 9.83352 19.4803 9.39712C19.3731 9.07032 19.4678 8.80356 19.4943 8.73305C19.556 8.5686 19.6486 8.45937 19.6656 8.43924C19.6663 8.43845 19.6669 8.4378 19.6673 8.43728C19.6998 8.39857 19.7292 8.36923 19.7471 8.35205C19.793 8.30789 19.8409 8.26937 19.883 8.23804C19.9053 8.21086 19.9343 8.17212 19.9672 8.12046C20.2958 7.60443 20.388 7.17508 20.4384 6.3981C20.4695 5.9184 20.3292 5.51732 20.1534 5.31895C20.0769 5.23253 19.9978 5.18639 19.9079 5.16529C19.8143 5.14333 19.6426 5.13349 19.3645 5.22952C19.1656 5.29822 18.926 5.45456 18.656 5.70897C18.4011 5.94914 18.1629 6.23459 17.9464 6.51576C17.9422 6.52275 17.9367 6.53228 17.9296 6.54474C17.9034 6.59074 17.8679 6.65496 17.8245 6.73492C17.7513 6.86965 17.6638 7.03388 17.573 7.2043C17.5562 7.23576 17.5394 7.26743 17.5224 7.29917C17.4159 7.499 17.3069 7.70268 17.2219 7.85617C17.1805 7.93102 17.1382 8.00575 17.1019 8.06536C17.086 8.09143 17.0582 8.13633 17.0251 8.18166C17.0128 8.1986 16.9725 8.25373 16.9129 8.313C16.8877 8.33813 16.8142 8.4098 16.7018 8.47427C16.6357 8.51213 16.2573 8.7241 15.7992 8.52228C15.4145 8.35286 15.2866 8.02306 15.2551 7.93352C15.2127 7.81267 15.203 7.71077 15.1998 7.66867C15.1926 7.5759 15.1991 7.49781 15.2019 7.46663C15.2086 7.39109 15.2215 7.31331 15.2313 7.25781C15.2482 7.16241 15.2725 7.04233 15.2949 6.93151C15.3 6.90606 15.305 6.8811 15.3099 6.85704C15.3226 6.79392 15.3343 6.73438 15.3448 6.67946C15.3421 6.67792 15.3394 6.67636 15.3366 6.67479C15.1853 6.58936 14.9961 6.53078 14.8668 6.51269C14.6634 6.48426 14.5709 6.50551 14.5382 6.51883C14.5261 6.5374 14.4777 6.62241 14.4665 6.84396C14.4537 7.09921 14.4988 7.41912 14.5905 7.73827C14.6836 8.06213 14.8026 8.30896 14.8835 8.42821C15.1935 8.88528 15.0743 9.50712 14.6172 9.81713C14.1602 10.1271 13.5383 10.0079 13.2283 9.55086C12.9958 9.20808 12.8009 8.75192 12.6684 8.29083C12.5344 7.82503 12.4422 7.27803 12.4691 6.74341C12.4952 6.22416 12.6429 5.57823 13.1349 5.09237C13.6623 4.57165 14.3855 4.42595 15.1437 4.53196C15.5124 4.5835 15.9424 4.72007 16.3199 4.93322C16.3881 4.97174 16.4624 5.0172 16.5391 5.07016C16.7508 4.80738 17.0017 4.51982 17.2844 4.25341C17.6585 3.90084 18.1385 3.53704 18.7117 3.33908C19.2767 3.14394 19.8372 3.09437 20.3648 3.2182C20.8961 3.34289 21.3274 3.62808 21.6504 3.99261C22.2737 4.69615 22.4894 5.67548 22.4342 6.52748C22.43 6.59197 22.4255 6.65591 22.4205 6.71937C22.5129 6.66667 22.6062 6.61474 22.7001 6.56416C23.1618 6.31557 23.6773 6.07755 24.2088 5.93738C24.7401 5.79725 25.3493 5.73859 25.9589 5.92188C26.7537 6.16085 27.2881 6.6962 27.4839 7.42547C27.6554 8.06366 27.533 8.72651 27.3687 9.25241ZM15.3896 7.03166C15.3896 7.03168 15.3901 7.03088 15.3911 7.02937C15.3901 7.03091 15.3897 7.03164 15.3896 7.03166ZM14.5237 6.52737C14.5232 6.52686 14.5266 6.52393 14.5352 6.52012C14.5284 6.52598 14.5241 6.52788 14.5237 6.52737ZM21.074 9.84473C21.0739 9.84477 21.0751 9.84387 21.0778 9.842C21.0754 9.84378 21.0741 9.8447 21.074 9.84473ZM22.4557 12.8305C22.4557 12.8305 22.4567 12.8299 22.4585 12.8288C22.4566 12.83 22.4557 12.8305 22.4557 12.8305ZM23.7134 13.6572C23.7129 13.6628 23.7125 13.6661 23.7124 13.667L23.7123 13.6672C23.7127 13.6639 23.7131 13.6606 23.7134 13.6572Z" fill="black"/>
<path fill-rule="evenodd" clip-rule="evenodd" d="M45.6333 15.8301C45.7071 15.2828 46.2107 14.8989 46.758 14.9728C51.2486 15.5785 54.782 19.0094 56.974 22.4494C58.5839 24.9759 59.6072 28.9532 58.4107 32.1706C58.2182 32.6883 57.6425 32.9519 57.1249 32.7594C56.6072 32.5669 56.3437 31.9912 56.5362 31.4735C57.4453 29.0289 56.6831 25.7148 55.2873 23.5242C53.234 20.3018 50.1346 17.4464 46.4907 16.9548C45.9433 16.881 45.5595 16.3774 45.6333 15.8301Z" fill="black"/>
<path fill-rule="evenodd" clip-rule="evenodd" d="M43.5636 15.3637C44.0788 15.5627 44.3351 16.1417 44.1361 16.6569C44.0779 16.8075 44.0234 16.9905 43.9935 17.174C43.963 17.3621 43.9649 17.5104 43.9854 17.6115C44.0037 17.7014 44.029 17.7236 44.0369 17.7304L44.0369 17.7305C44.0468 17.7391 44.1277 17.8072 44.3918 17.8303C44.3916 17.8302 44.3916 17.8302 44.3918 17.8303C44.3941 17.8303 44.419 17.831 44.4692 17.8192C44.523 17.8065 44.5927 17.7824 44.6738 17.7426C44.8395 17.6614 45.0099 17.5361 45.1447 17.3921C45.2756 17.2523 45.3339 17.1375 45.3531 17.0762C45.0709 16.6272 45.1885 16.0312 45.628 15.7245C46.0809 15.4085 46.7043 15.5195 47.0203 15.9725C47.781 17.0627 47.1237 18.2048 46.6046 18.7591C46.3067 19.0772 45.9407 19.349 45.5539 19.5386C45.1782 19.7227 44.7076 19.8654 44.2179 19.8227C43.6406 19.7723 43.1238 19.5888 42.7204 19.2361C42.315 18.8815 42.1114 18.4324 42.0255 18.0098C41.8647 17.2189 42.0886 16.407 42.2704 15.9362C42.4694 15.421 43.0484 15.1647 43.5636 15.3637Z" fill="black"/>
<path fill-rule="evenodd" clip-rule="evenodd" d="M40.4886 12.9687C40.489 12.9771 40.4896 12.9868 40.4906 12.998C40.548 13.6132 40.8985 13.9848 41.6607 14.3515C42.0111 14.52 42.3922 14.6597 42.8199 14.8164C42.8723 14.8356 42.9255 14.8551 42.9794 14.8749C43.4434 15.0455 43.9754 15.2464 44.4395 15.5153C44.9173 15.7922 45.0803 16.404 44.8034 16.8819C44.5265 17.3597 43.9146 17.5227 43.4368 17.2458C43.1432 17.0757 42.7673 16.9279 42.289 16.752C42.2379 16.7331 42.1855 16.714 42.132 16.6944C41.7165 16.5425 41.2383 16.3676 40.7937 16.1537C39.7657 15.6592 38.6522 14.8249 38.4993 13.1836C38.4583 12.7436 38.5313 12.3034 38.7699 11.9146C39.0052 11.5314 39.3458 11.2889 39.6813 11.1387C40.3109 10.8569 41.0779 10.8307 41.7111 10.8609C42.3773 10.8926 43.0649 10.9986 43.6163 11.092C43.7802 11.1198 43.9247 11.1449 44.0514 11.1669C44.4007 11.2275 44.6139 11.2646 44.7242 11.2694C45.2759 11.2937 45.7035 11.7607 45.6792 12.3124C45.6549 12.8642 45.1879 13.2918 44.6362 13.2675C44.3847 13.2564 43.9745 13.1846 43.578 13.1152C43.4775 13.0976 43.378 13.0801 43.2821 13.0639C42.7427 12.9725 42.1547 12.8843 41.6159 12.8586C41.0442 12.8313 40.6769 12.8843 40.4985 12.9642C40.495 12.9657 40.4917 12.9673 40.4886 12.9687ZM40.4508 12.9902C40.4508 12.9902 40.4512 12.9899 40.4521 12.9892L40.4508 12.9902ZM40.4904 12.9248C40.4905 12.9248 40.4903 12.9257 40.4899 12.9274C40.4902 12.9256 40.4904 12.9248 40.4904 12.9248Z" fill="black"/>
<path fill-rule="evenodd" clip-rule="evenodd" d="M44.7371 11.8598C44.7619 11.8891 44.7769 11.9007 44.778 11.9016C44.778 11.9016 44.778 11.9016 44.778 11.9016C45.2262 12.2244 45.3278 12.8493 45.0051 13.2975C44.6823 13.7456 44.0573 13.8473 43.6092 13.5245C43.0415 13.1157 42.6795 12.4 42.5349 11.7342C42.3858 11.0476 42.4132 10.1609 42.946 9.42112C43.2559 8.99076 43.6787 8.73734 44.1558 8.66752C44.5811 8.60527 44.9691 8.70166 45.233 8.78631C45.4079 8.84242 45.6221 8.92828 45.7711 8.98797C45.8261 9.01003 45.8722 9.02851 45.9041 9.0406C45.9987 9.07643 46.0482 9.08986 46.0651 9.09454C46.592 9.08651 47.0394 9.49184 47.077 10.0239C47.1159 10.5748 46.7009 11.053 46.15 11.092C45.7542 11.12 45.3833 10.982 45.1958 10.911C45.084 10.8686 44.9992 10.8342 44.9254 10.8043C44.8174 10.7605 44.733 10.7263 44.6221 10.6907C44.5833 10.6783 44.5515 10.6695 44.526 10.6632C44.4585 10.8047 44.4275 11.025 44.4893 11.3096C44.5239 11.469 44.5821 11.6153 44.6479 11.7299C44.6802 11.7863 44.7112 11.8294 44.7371 11.8598Z" fill="black"/>
<path fill-rule="evenodd" clip-rule="evenodd" d="M47.5215 9.95661C47.663 10.3032 47.6032 10.7154 47.3338 11.0101C47.2797 11.0693 47.1025 11.2614 46.8123 11.3498C46.6372 11.4031 46.3939 11.4258 46.1357 11.3262C45.883 11.2288 45.726 11.0565 45.6387 10.9221C45.4897 10.693 45.4684 10.4625 45.4624 10.3968C45.4532 10.2952 45.4562 10.2023 45.4604 10.1365C45.4756 9.8945 45.5349 9.61949 45.5643 9.51673C45.733 8.92687 46.0266 8.35688 46.4967 7.86929C46.931 7.41884 47.5261 7.16497 48.1778 7.33609C48.7214 7.47883 49.0971 7.87124 49.323 8.16793C49.5673 8.48887 49.7552 8.85559 49.8867 9.17537C50.0147 9.48632 50.1186 9.82413 50.1546 10.1035C50.2251 10.6513 49.8383 11.1525 49.2905 11.2231C48.7428 11.2936 48.2415 10.9068 48.171 10.359C48.1655 10.3168 48.1283 10.1578 48.0372 9.93639C47.9625 9.75489 47.872 9.58164 47.7794 9.4458C47.6712 9.59626 47.586 9.766 47.5215 9.95661ZM47.4562 10.2665C47.4562 10.2665 47.4562 10.2657 47.4563 10.2639C47.4563 10.2656 47.4562 10.2665 47.4562 10.2665Z" fill="black"/>
</svg>
