<svg width="60" height="68" viewBox="0 0 60 68" fill="none" xmlns="http://www.w3.org/2000/svg">
<path fill-rule="evenodd" clip-rule="evenodd" d="M48.1704 9.93682C48.7132 9.83505 49.0707 9.3125 48.969 8.76967C48.7788 7.75546 48.6188 6.70119 48.627 5.70225C48.6326 5.00973 48.7193 4.38116 48.9104 3.83224C48.9547 3.97329 48.9951 4.11192 49.0334 4.24359C49.0432 4.27713 49.0528 4.31021 49.0623 4.34276C49.2174 4.87281 49.7729 5.17676 50.3029 5.02164C50.833 4.86652 51.1369 4.31108 50.9818 3.78102C50.9727 3.74988 50.9626 3.71501 50.9517 3.6769C50.8332 3.26533 50.6062 2.4769 50.2689 1.94858C50.1124 1.70352 49.6957 1.13041 48.9572 1.13239C48.2109 1.13439 47.758 1.7189 47.5197 2.1111C46.8466 3.21889 46.6368 4.48637 46.627 5.6859C46.6172 6.88645 46.808 8.09707 47.0032 9.13822C47.105 9.68105 47.6275 10.0386 48.1704 9.93682Z" fill="black"/>
<path fill-rule="evenodd" clip-rule="evenodd" d="M47.2168 12.8296C48.0761 12.9821 49.0768 12.8542 49.8473 12.181C50.2632 11.8176 50.3057 11.1859 49.9423 10.77C49.5789 10.3541 48.9472 10.3116 48.5313 10.675C48.3409 10.8413 48.0121 10.9395 47.5664 10.8604C47.1216 10.7814 46.692 10.5428 46.4218 10.2323C46.31 10.1038 46.2635 10.0126 46.2448 9.96268C46.2357 9.93818 46.2328 9.92268 46.2318 9.91532C46.2309 9.90831 46.2313 9.90528 46.2313 9.90473L46.2313 9.9047C46.2314 9.9041 46.2317 9.90167 46.2336 9.89637C46.2357 9.89076 46.2402 9.88026 46.2497 9.86495C46.2696 9.83306 46.3089 9.78461 46.3793 9.72684C46.5251 9.60717 46.7494 9.49313 47.0117 9.42244C47.2766 9.35103 47.5075 9.34333 47.6507 9.36795C48.195 9.46149 48.7121 9.09608 48.8057 8.55177C48.8992 8.00747 48.5338 7.49039 47.9895 7.39685C47.0606 7.23722 45.8826 7.54715 45.1105 8.18085C44.7043 8.51417 44.3198 9.01412 44.2442 9.67862C44.1666 10.3607 44.4383 10.9997 44.9131 11.5452C45.5056 12.226 46.3565 12.6768 47.2168 12.8296Z" fill="black"/>
<path fill-rule="evenodd" clip-rule="evenodd" d="M53.1719 24.6294C53.2051 24.6104 53.2408 24.5891 53.2786 24.5657C53.5695 24.3858 53.8672 24.1572 53.9491 24.0943C53.9543 24.0902 53.9587 24.0869 53.9621 24.0843C55.2721 23.0826 55.8741 21.4685 56.1448 19.5363C56.3121 18.3418 55.822 17.0942 55.0999 15.8115C54.0546 13.9545 52.4455 13.4214 50.1585 12.6637C49.9862 12.6066 49.8101 12.5483 49.6301 12.488C49.1064 12.3126 48.8241 11.7459 48.9994 11.2222C49.1748 10.6985 49.7415 10.4162 50.2652 10.5915C50.4653 10.6585 50.6678 10.7246 50.8717 10.7912C53.0505 11.5021 55.4009 12.2691 56.8428 14.8304C57.5996 16.1749 58.39 17.9247 58.1254 19.8138C57.8289 21.9312 57.113 24.1926 55.177 25.673C55.1745 25.6749 55.1708 25.6778 55.1659 25.6815C55.0882 25.7414 54.7149 26.029 54.3307 26.2666C54.1393 26.385 53.8741 26.5364 53.6109 26.6217C53.4925 26.66 53.2537 26.7268 52.9767 26.686C52.8226 26.6634 52.6266 26.6029 52.4427 26.458C52.2523 26.3079 52.1337 26.1134 52.0727 25.9206C51.9061 25.394 52.198 24.8321 52.7245 24.6656C52.8741 24.6183 53.0265 24.6079 53.1719 24.6294Z" fill="black"/>
<path fill-rule="evenodd" clip-rule="evenodd" d="M21.7452 12.3556C15.284 13.3932 9.35614 16.7778 6.66376 23.1955C4.43891 28.4988 4.33832 34.3363 7.01409 39.5317C9.50986 44.3775 14.291 47.4327 19.3583 48.9487C28.7148 51.7481 39.6268 48.9346 45.3924 40.7972C45.6822 40.3882 45.5753 39.8287 45.1536 39.5476C44.7319 39.2664 44.1551 39.3701 43.8653 39.7792C38.6223 47.179 28.5993 49.8326 19.9045 47.2312C15.1585 45.8113 10.8752 43.0067 8.67169 38.7284C6.26629 34.058 6.32719 28.7662 8.38004 23.873C10.7648 18.1885 16.0317 15.0949 22.0478 14.1288C28.0799 13.1601 34.7398 14.3609 39.6508 17.1497C44.6528 19.9901 47.2071 24.8993 47.9469 30.5264C48.2404 32.7582 48.2643 34.8997 47.654 36.9741C46.8565 39.6851 45.581 41.3684 43.4245 43.2884C43.0476 43.624 43.0225 44.1925 43.3685 44.5581C43.7145 44.9238 44.3006 44.9481 44.6775 44.6125C47.0143 42.532 48.5209 40.5773 49.4359 37.4673C50.1428 35.0644 50.0941 32.6506 49.785 30.299C48.9954 24.2933 46.2228 18.799 40.5869 15.5986C35.2905 12.5909 28.1904 11.3206 21.7452 12.3556Z" fill="black"/>
<path fill-rule="evenodd" clip-rule="evenodd" d="M36.2441 24.9558C35.9083 24.3052 35.239 23.9316 34.5467 24.0344C34.2018 24.0857 33.9436 24.2748 33.4214 24.6746C33.4146 24.6826 33.3969 24.7037 33.3678 24.7444C33.3217 24.8089 33.2772 24.8784 33.2176 24.9714L33.165 25.0534C33.0895 25.1706 32.9839 25.3324 32.8646 25.476C32.761 25.6006 32.5496 25.8348 32.2333 25.9483C31.7425 26.1245 31.2119 25.8389 31.0483 25.3105C30.9026 24.8401 31.097 24.3357 31.4878 24.1065C31.5194 24.0651 31.562 24.0024 31.6252 23.9043L31.662 23.847C31.7238 23.7503 31.8036 23.6255 31.8826 23.5149C31.9741 23.3868 32.1204 23.1957 32.3161 23.0459C32.3467 23.0224 32.3782 22.998 32.4107 22.9729C32.8509 22.6328 33.4637 22.1592 34.2907 22.0364C35.7716 21.8165 37.1818 22.6196 37.8819 23.9763C38.1332 24.4632 37.9703 25.0772 37.518 25.3476C37.0657 25.6181 36.4954 25.4427 36.2441 24.9558ZM31.4518 24.1491C31.4518 24.1488 31.4551 24.145 31.4617 24.1388C31.4551 24.1464 31.4518 24.1495 31.4518 24.1491ZM21.0681 24.9844C20.6613 24.8033 20.2944 24.7851 19.8811 25.0215C19.486 25.2476 18.9536 25.6213 18.5191 26.0559C18.057 26.5181 17.8445 26.9107 17.819 27.1691C17.7689 27.6764 17.3221 28.0464 16.8211 27.9957C16.32 27.945 15.9545 27.4927 16.0046 26.9855C16.0953 26.0667 16.6933 25.2871 17.2375 24.7427C17.8093 24.1707 18.4791 23.7033 18.9839 23.4145C19.9897 22.8389 20.9741 22.926 21.802 23.2945C22.5829 23.6421 23.2415 24.2436 23.733 24.7411C24.089 25.1016 24.089 25.686 23.733 26.0464C23.3769 26.4069 22.7997 26.4069 22.4436 26.0464C21.9818 25.5789 21.5221 25.1865 21.0681 24.9844ZM36.3311 37.7019C36.835 37.557 37.1145 37.0678 36.9553 36.6092C36.7962 36.1506 36.2587 35.8962 35.7548 36.041C31.4011 37.2924 26.6495 37.4967 22.0639 37.0272C21.5387 36.9734 21.0652 37.3173 21.0061 37.7952C20.947 38.2731 21.3248 38.7042 21.8499 38.758C26.6296 39.2474 31.6612 39.0441 36.3311 37.7019Z" fill="black"/>
<path fill-rule="evenodd" clip-rule="evenodd" d="M6.7898 45.7065C6.95211 46.2344 6.65574 46.7939 6.12785 46.9562C5.22055 47.2352 4.31293 48.2028 3.55234 49.6328C2.81466 51.0197 2.33353 52.622 2.16137 53.7954C1.98089 55.0254 1.92615 56.4452 2.13131 57.7617C2.33787 59.0871 2.79231 60.2143 3.54664 60.9758C5.24707 62.6925 7.71897 63.4866 10.2104 64.0228C10.7503 64.139 11.0938 64.6709 10.9776 65.2108C10.8614 65.7507 10.3295 66.0942 9.78959 65.978C7.24604 65.4306 4.26545 64.5435 2.12572 62.3833C0.966142 61.2126 0.39766 59.6257 0.155168 58.0697C-0.0887089 56.5048 -0.0186049 54.876 0.182559 53.505C0.386711 52.1136 0.937089 50.2907 1.78659 48.6936C2.61317 47.1396 3.8484 45.5647 5.54008 45.0445C6.06797 44.8822 6.62749 45.1786 6.7898 45.7065Z" fill="black"/>
<path fill-rule="evenodd" clip-rule="evenodd" d="M13.0276 65.0555C12.4165 64.9446 11.7252 65.014 11.2984 65.1473C10.7712 65.3119 10.2104 65.018 10.0457 64.4908C9.8811 63.9636 10.175 63.4028 10.7022 63.2382C11.4244 63.0126 12.4427 62.9167 13.3848 63.0877C14.3056 63.2548 15.4406 63.7425 15.8819 64.9483C16.0015 65.2752 16.0383 65.6273 15.9561 65.9797C15.875 66.3273 15.6947 66.6045 15.4928 66.8151C15.1135 67.2109 14.5929 67.44 14.1698 67.5817C13.2964 67.8743 12.2862 67.9683 11.8971 67.9976C11.3464 68.0389 10.8664 67.6259 10.8251 67.0752C10.7837 66.5245 11.1967 66.0445 11.7474 66.0032C12.1145 65.9756 12.9127 65.8936 13.5346 65.6853C13.7254 65.6213 13.8556 65.5595 13.9387 65.5107C13.8124 65.3269 13.5432 65.1491 13.0276 65.0555Z" fill="black"/>
</svg>
