<svg width="73" height="68" viewBox="0 0 73 68" fill="none" xmlns="http://www.w3.org/2000/svg">
<path fill-rule="evenodd" clip-rule="evenodd" d="M40.3811 10.8964C40.7688 10.5518 41.3623 10.5867 41.7069 10.9744C42.1932 11.5215 42.4153 12.2195 42.538 12.8063C42.6375 13.2819 42.6891 13.7839 42.7299 14.1807L42.7299 14.1807C42.7395 14.2749 42.7486 14.3631 42.7576 14.4437C42.8148 14.9592 42.4434 15.4235 41.9279 15.4808C41.4125 15.538 40.9482 15.1666 40.8909 14.6511C40.8787 14.5415 40.8675 14.4331 40.8563 14.3257L40.8563 14.3257L40.8563 14.3256C40.816 13.9367 40.7771 13.5611 40.6997 13.191C40.6005 12.717 40.4644 12.4036 40.3031 12.2222C39.9586 11.8345 39.9935 11.241 40.3811 10.8964ZM29.9353 12.7243C30.3992 12.4924 30.9633 12.6804 31.1952 13.1443C31.4418 13.6373 31.602 14.145 31.7375 14.5742L31.7447 14.5969C31.8889 15.0537 32.0078 15.4249 32.1783 15.7658C32.4102 16.2297 32.2222 16.7937 31.7583 17.0257C31.2944 17.2576 30.7304 17.0696 30.4984 16.6057C30.2564 16.1217 30.098 15.6197 29.9636 15.194L29.9537 15.1624C29.8099 14.7072 29.6892 14.3319 29.5154 13.9843C29.2834 13.5204 29.4714 12.9563 29.9353 12.7243ZM45.227 23.424C45.5147 22.9924 45.3981 22.4094 44.9666 22.1217C44.535 21.834 43.952 21.9506 43.6643 22.3821C42.0582 24.7912 39.307 25.8114 36.6235 24.6614C36.1468 24.4571 35.5947 24.6779 35.3904 25.1546C35.1861 25.6313 35.407 26.1834 35.8837 26.3877C39.5087 27.9413 43.1878 26.4828 45.227 23.424Z" fill="black"/>
<path fill-rule="evenodd" clip-rule="evenodd" d="M14.1351 62.011C14.0712 61.9361 13.9816 61.8121 13.8686 61.6103C13.2914 60.5794 13.0781 59.0345 13.1447 57.712C13.1446 57.7127 13.1446 57.7129 13.1447 57.7126L13.145 57.71L13.1462 57.6991L13.1462 57.6991C13.1501 57.663 13.1617 57.5572 13.1841 57.4008C13.2058 57.2497 13.2338 57.0787 13.2664 56.9194C13.7057 56.6702 13.8704 56.1152 13.6333 55.6652C13.5869 55.5771 13.5143 55.4582 13.4032 55.3471C13.2908 55.2348 13.0944 55.0872 12.811 55.0468C12.7234 55.0343 12.6414 55.033 12.5651 55.0401C12.412 55.0202 12.2519 55.0379 12.0983 55.0989C11.3598 55.3923 10.3258 55.3574 9.486 54.975C8.67071 54.6038 8.19601 53.9941 8.20195 53.2046C8.20766 52.4462 8.73816 51.881 9.61257 51.6652C10.5134 51.4428 11.4469 51.691 11.9248 52.265C12.1543 52.5407 12.5082 52.6516 12.8365 52.5841C12.8823 52.583 12.9287 52.5785 12.9752 52.5705C13.163 52.5381 13.4429 52.4611 13.6777 52.2353C13.9446 51.9785 14.0125 51.6696 14.0226 51.4627C14.0298 51.3156 14.0072 51.1598 14.0018 51.1223L14.0007 51.1151L13.9978 51.0908C14.0437 50.6271 14.1046 50.1705 14.168 49.6959L14.168 49.6954C14.1884 49.5429 14.209 49.3885 14.2295 49.2314C14.3132 48.5877 14.3916 47.9145 14.4193 47.2232C14.4562 46.3029 14.457 45.3096 14.4577 44.3331L14.4577 44.333C14.4582 43.6083 14.4588 42.8929 14.4741 42.2235C14.5117 40.5763 14.6352 38.9973 15.0231 37.5108C15.154 37.009 14.8534 36.496 14.3516 36.365C13.8497 36.2341 13.3367 36.5347 13.2058 37.0365C12.7633 38.7323 12.6352 40.4812 12.5964 42.1806C12.5786 42.9611 12.5788 43.6963 12.5791 44.4155L12.5791 44.4156L12.5791 44.4156C12.5795 45.3318 12.5798 46.2222 12.5427 47.1479C12.5185 47.7521 12.4492 48.3572 12.367 48.9891C12.3484 49.132 12.329 49.2773 12.3094 49.4243L12.3093 49.4247C12.2774 49.6633 12.2449 49.9065 12.2143 50.1521C11.2596 49.672 10.129 49.6031 9.16241 49.8418C7.73306 50.1946 6.33795 51.3165 6.32385 53.1905C6.31078 54.9266 7.42719 56.1013 8.70773 56.6843C9.50607 57.0478 10.4299 57.2163 11.321 57.1622C11.2902 57.3807 11.2721 57.5539 11.2689 57.6176C11.1931 59.1219 11.412 61.0672 12.2298 62.5279C12.6577 63.2921 13.3092 64.0514 14.2663 63.9712C14.7135 63.9338 15.0648 63.713 15.3139 63.4885C15.5634 63.2637 15.766 62.9862 15.9298 62.7171C16.1111 62.4192 16.2757 62.0773 16.422 61.7287C16.6305 61.984 16.86 62.2261 17.106 62.4457C17.879 63.1357 18.9504 63.7173 20.1558 63.5819C20.8462 63.5043 21.4282 63.1699 21.7223 62.5481C21.9771 62.0097 21.9298 61.4239 21.8403 60.9906C21.8161 60.8735 21.7863 60.7561 21.7522 60.6396C22.109 60.7026 22.5009 60.7143 22.8843 60.6147C23.4672 60.4632 23.9652 60.0664 24.2129 59.4133C24.5212 58.6002 24.366 57.7426 24.0873 57.0713C23.8049 56.3913 23.3397 55.7599 22.8113 55.3382C22.4059 55.0148 21.815 55.0812 21.4915 55.4866C21.168 55.8919 21.2344 56.4828 21.6398 56.8063C21.8993 57.0134 22.1811 57.3784 22.3527 57.7916C22.5279 58.2134 22.5333 58.5454 22.4568 58.7473C22.4401 58.7912 22.4385 58.7915 22.4229 58.7945C22.4209 58.7949 22.4186 58.7953 22.416 58.7959C22.4147 58.7962 22.4133 58.7965 22.4118 58.7969C22.332 58.8176 22.1553 58.8227 21.8816 58.7438C21.6207 58.6686 21.3462 58.538 21.1152 58.387C20.8672 58.2248 20.7511 58.093 20.7284 58.057C20.4517 57.6183 19.8719 57.4869 19.4331 57.7635C18.9944 58.0401 18.863 58.62 19.1396 59.0587C19.1538 59.0811 19.1684 59.1033 19.1836 59.1253C19.137 59.3573 19.1775 59.607 19.3165 59.8212C19.53 60.1503 19.8873 60.8203 20.001 61.3707C20.0369 61.5445 20.0362 61.6488 20.0312 61.7018C20.0113 61.7063 19.9837 61.7112 19.9461 61.7155C19.4821 61.7676 18.9228 61.5499 18.3567 61.0445C17.8136 60.5597 17.389 59.9152 17.1857 59.3775C17.2146 58.9505 16.9469 58.5447 16.5197 58.4159C16.0232 58.2661 15.4992 58.5472 15.3494 59.0437C15.332 59.1015 15.3133 59.1643 15.2933 59.2311C15.0894 59.9154 14.7562 61.0329 14.3255 61.7406C14.2533 61.8592 14.1889 61.9476 14.1351 62.011ZM14.2501 62.1183C14.2501 62.118 14.2474 62.1162 14.2419 62.1139C14.2473 62.1174 14.2501 62.1185 14.2501 62.1183ZM14.0208 62.122L14.0188 62.1232C14.0188 62.1232 14.0195 62.1229 14.0208 62.122ZM20.0748 61.6874C20.0745 61.6872 20.0717 61.6883 20.0674 61.6911C20.0729 61.6889 20.0751 61.6875 20.0748 61.6874Z" fill="black"/>
<path fill-rule="evenodd" clip-rule="evenodd" d="M59.722 61.7971C59.7747 61.7139 59.8458 61.5785 59.9292 61.3628C60.3549 60.2606 60.3477 58.7011 60.0949 57.4013C60.0954 57.4039 60.0943 57.3997 60.0916 57.389L60.0915 57.3888L60.0915 57.3887C60.0825 57.3536 60.0562 57.2505 60.0119 57.0988C59.9691 56.9523 59.9172 56.787 59.8624 56.6339C59.3922 56.4492 59.1507 55.9231 59.3218 55.4441C59.3554 55.3503 59.4105 55.2224 59.5048 55.0967C59.6001 54.9696 59.7737 54.7958 60.0486 54.7157C60.1336 54.6909 60.2147 54.678 60.2914 54.6743C60.44 54.633 60.6009 54.6279 60.7615 54.6666C61.5341 54.8527 62.5527 54.672 63.3301 54.1748C64.0847 53.6921 64.4685 53.0214 64.351 52.2407C64.2382 51.4907 63.6331 51.0062 62.737 50.916C61.8138 50.8232 60.9247 51.2008 60.5327 51.8367C60.3444 52.1422 60.0094 52.302 59.6746 52.2813C59.6293 52.2867 59.583 52.2888 59.536 52.2874C59.3455 52.2819 59.0575 52.2452 58.7932 52.0548C58.4926 51.8383 58.3818 51.5422 58.3426 51.3388C58.3147 51.1941 58.315 51.0367 58.3151 50.9989L58.3151 50.9916L58.3145 50.9671C58.2036 50.5145 58.0787 50.0711 57.949 49.6103L57.9488 49.6097C57.9071 49.4616 57.8649 49.3117 57.8224 49.1591C57.6485 48.5337 57.4758 47.8783 57.3507 47.1979C57.1841 46.2921 57.0429 45.3089 56.9042 44.3422L56.9042 44.3422L56.9042 44.3421C56.8012 43.6248 56.6996 42.9167 56.5898 42.2561C56.3198 40.6308 55.9744 39.085 55.3803 37.6683C55.1797 37.19 55.4049 36.6397 55.8832 36.4391C56.3614 36.2386 56.9118 36.4637 57.1123 36.942C57.7901 38.5581 58.164 40.2715 58.4426 41.9482C58.5706 42.7185 58.6742 43.4463 58.7756 44.1584L58.7756 44.1584C58.9047 45.0654 59.0302 45.9469 59.1978 46.8582C59.3072 47.4528 59.4613 48.042 59.632 48.656C59.6706 48.795 59.7104 48.9361 59.7506 49.0791L59.7506 49.0791C59.8159 49.3108 59.8825 49.5471 59.9476 49.7859C60.8248 49.1756 61.9343 48.9477 62.9249 49.0473C64.3898 49.1946 65.9294 50.1081 66.2082 51.9612C66.4666 53.6781 65.5274 54.9988 64.3421 55.7569C63.6031 56.2296 62.7124 56.527 61.8226 56.5993C61.884 56.8113 61.9263 56.9801 61.9385 57.0427C62.2261 58.5213 62.2844 60.478 61.6812 62.0396C61.3656 62.8565 60.8279 63.7003 59.8691 63.7562C59.4211 63.7823 59.0421 63.6134 58.7638 63.4264C58.4851 63.2391 58.2453 62.993 58.0451 62.7497C57.8235 62.4805 57.6122 62.1652 57.4181 61.8408C57.2478 62.1229 57.0549 62.3951 56.8424 62.6472C56.1747 63.4395 55.1962 64.1667 53.9837 64.203C53.2893 64.2238 52.666 63.975 52.2869 63.401C51.9586 62.904 51.9226 62.3174 51.95 61.8758C51.9574 61.7565 51.9703 61.6361 51.9875 61.5161C51.6433 61.6288 51.2569 61.6958 50.8633 61.6513C50.2648 61.5837 49.7157 61.2613 49.3782 60.6498C48.9581 59.8885 48.9905 59.0175 49.1716 58.3136C49.355 57.6005 49.7264 56.9096 50.1898 56.4176C50.5454 56.04 51.1398 56.0223 51.5173 56.3779C51.8948 56.7335 51.9126 57.3278 51.557 57.7053C51.3294 57.947 51.102 58.3482 50.9905 58.7815C50.8767 59.2238 50.9183 59.5533 51.0226 59.7423C51.0453 59.7834 51.0469 59.7835 51.0628 59.7842C51.0659 59.7844 51.0696 59.7845 51.0741 59.785C51.156 59.7943 51.3317 59.7744 51.5915 59.6576C51.8391 59.5462 52.0924 59.3782 52.2997 59.196C52.5224 59.0004 52.6187 58.8535 52.6361 58.8147C52.8479 58.3413 53.4034 58.1292 53.8768 58.3411C54.3502 58.5529 54.5623 59.1084 54.3504 59.5818C54.3396 59.6059 54.3283 59.6299 54.3164 59.6538C54.3953 59.8769 54.3905 60.1298 54.2832 60.3615C54.1183 60.7174 53.8593 61.4312 53.8245 61.9921C53.8135 62.1692 53.829 62.2725 53.8415 62.3242C53.8617 62.3258 53.8898 62.3268 53.9276 62.3257C54.3943 62.3117 54.9172 62.0171 55.4062 61.4369C55.8753 60.8802 56.2046 60.1822 56.3298 59.6212C56.2409 59.2025 56.4485 58.763 56.8532 58.5751C57.3236 58.3566 57.882 58.5608 58.1005 59.0312C58.1259 59.086 58.1533 59.1455 58.1825 59.2089C58.4811 59.8574 58.9689 60.9166 59.4953 61.5563C59.5836 61.6635 59.6597 61.742 59.722 61.7971ZM59.6233 61.9195C59.6232 61.9193 59.6257 61.9171 59.6308 61.914C59.6259 61.9183 59.6233 61.9198 59.6233 61.9195ZM59.8508 61.8908L59.8529 61.8917C59.8529 61.8918 59.8522 61.8915 59.8508 61.8908ZM53.7962 62.316C53.7965 62.3158 53.7994 62.3166 53.804 62.3188C53.7983 62.3173 53.7959 62.3162 53.7962 62.316Z" fill="black"/>
<path fill-rule="evenodd" clip-rule="evenodd" d="M38.7362 0.0203432C45.1274 -0.21389 51.1254 1.54913 55.4457 6.63358C58.9738 10.7856 60.3678 16.5541 58.7947 21.8676C57.3039 26.9034 53.1676 31.4134 48.7149 33.8872C42.4559 37.3644 35.7452 37.2731 29.2084 35.2104C23.1159 33.2879 16.8191 28.5643 15.8894 21.6556C15.3545 21.5963 14.96 21.1221 15.0032 20.5819C15.988 8.27278 27.1327 0.445601 38.7362 0.0203432ZM17.2176 18.9942C17.5462 19.1581 17.772 19.4975 17.772 19.8897C17.772 26.4665 23.5562 31.3296 29.8102 33.3031C35.9807 35.2502 42.0925 35.2784 47.7436 32.1389C51.8288 29.8693 55.5618 25.7423 56.877 21.2999C58.2467 16.6735 57.0398 11.5983 53.9216 7.92862C50.1081 3.44057 44.7815 1.80013 38.8094 2.019C28.5086 2.39652 18.9624 8.94932 17.2176 18.9942Z" fill="black"/>
<path fill-rule="evenodd" clip-rule="evenodd" d="M40.6912 53.3194C40.4668 53.3424 40.2493 53.4435 40.0831 53.6212C39.153 54.6153 37.9869 55.7206 36.7258 56.4394C35.468 57.1565 34.2495 57.4178 33.1013 56.9806C30.1029 55.8389 27.6448 52.7125 27.615 49.4724C27.5907 46.8127 29.2656 44.596 31.7118 44.3509C32.3903 44.283 33.0483 44.6383 33.8037 45.3573C34.937 46.436 35.7149 46.8763 36.9184 47.5428C37.4806 47.8541 38.0375 48.0348 38.5927 48.0422C39.1632 48.0498 39.6535 47.8733 40.0662 47.599C40.7561 47.1404 41.2704 46.3603 41.6697 45.7546C41.7017 45.7061 41.733 45.6587 41.7636 45.6126C42.1789 44.9868 42.6423 44.6096 42.9841 44.5123C43.1239 44.4725 43.2327 44.4806 43.3428 44.5295C43.4672 44.5847 43.6711 44.7282 43.9143 45.096C44.1622 45.4708 44.3313 46.0663 44.3524 46.8315C44.3731 47.5833 44.2479 48.4202 43.9898 49.2074C43.4429 50.8759 42.4725 51.8973 41.494 51.9953C40.9617 52.0487 40.5735 52.5234 40.6268 53.0557C40.6361 53.1485 40.6582 53.2369 40.6912 53.3194ZM45.8306 49.8109C45.2167 51.6835 43.8577 53.7039 41.6898 53.9226C41.8249 54.2607 41.7629 54.6612 41.4977 54.9447C40.5293 55.9798 39.2037 57.2568 37.6852 58.1224C36.1634 58.9899 34.3143 59.5154 32.4119 58.791C28.7705 57.4045 25.7159 53.6317 25.6779 49.4902C25.6466 46.0746 27.8483 42.791 31.5187 42.4234C33.0741 42.2676 34.2807 43.1369 35.1392 43.954C36.0897 44.8587 36.6927 45.2034 37.8569 45.8481C38.23 46.0547 38.4724 46.1032 38.6185 46.1052C38.7495 46.1069 38.8627 46.0729 38.9938 45.9857C39.3364 45.758 39.6452 45.3013 40.1495 44.5414C40.6673 43.7611 41.4596 42.9321 42.4537 42.6491C42.9819 42.4987 43.5611 42.5068 44.1288 42.7589C44.6824 43.0046 45.1461 43.4467 45.5302 44.0274C46.0468 44.8086 46.262 45.8013 46.2889 46.7781C46.3162 47.7683 46.1531 48.8272 45.8306 49.8109Z" fill="black"/>
</svg>
