<svg width="56" height="56" viewBox="0 0 56 56" fill="none" xmlns="http://www.w3.org/2000/svg">
<path fill-rule="evenodd" clip-rule="evenodd" d="M25.3488 17.6557C25.4675 17.2203 25.2108 16.771 24.7754 16.6523C24.34 16.5335 23.8907 16.7902 23.772 17.2257C23.3829 18.6525 23.0263 20.0874 22.6723 21.5117L22.6193 21.7251C22.247 23.2227 21.8757 24.7086 21.4666 26.1814C21.4249 26.3315 21.3834 26.5027 21.3384 26.6879C21.2302 27.1336 21.1022 27.6607 20.9051 28.1711C20.7695 28.5221 20.6295 28.7811 20.4973 28.9374C20.4345 29.0116 20.3908 29.0418 20.3717 29.0522C20.3689 29.0538 20.3667 29.0548 20.3651 29.0555C19.7831 29.0337 19.0942 28.5669 18.3688 27.7148C17.6757 26.9006 17.1015 25.9165 16.721 25.2306C15.9102 23.7691 15.4668 22.0277 15.0199 20.2722L14.9735 20.0901C14.862 19.6528 14.4171 19.3886 13.9798 19.5001C13.5425 19.6116 13.2783 20.0565 13.3898 20.4938L13.454 20.7462C13.8854 22.4436 14.3754 24.3716 15.2919 26.0235C15.6798 26.7228 16.3191 27.8284 17.1242 28.7741C17.8955 29.6802 18.9881 30.6434 20.3123 30.689C20.9585 30.7113 21.435 30.3595 21.7451 29.9929C22.0497 29.6327 22.2683 29.1778 22.4297 28.76C22.6696 28.1387 22.8468 27.4092 22.9574 26.9536L22.9574 26.9535C22.9919 26.8115 23.0199 26.696 23.0414 26.6188C23.4573 25.1216 23.8335 23.6152 24.2054 22.1194L24.257 21.9114C24.6121 20.4826 24.9646 19.0642 25.3488 17.6557ZM16.4338 29.0272C16.282 28.6022 15.8144 28.3807 15.3894 28.5325C14.9644 28.6843 14.7429 29.1519 14.8947 29.5769C15.1003 30.1526 15.2427 30.752 15.3737 31.389C15.4147 31.5882 15.4554 31.7956 15.4969 32.0074L15.497 32.0076L15.497 32.0076L15.497 32.0076L15.497 32.0077C15.5842 32.4522 15.6752 32.9165 15.7812 33.367C15.8846 33.8063 16.3245 34.0786 16.7638 33.9753C17.2032 33.8719 17.4755 33.432 17.3721 32.9926C17.2729 32.571 17.1925 32.1603 17.109 31.7341L17.1089 31.7341L17.1089 31.7341C17.0659 31.5146 17.0221 31.291 16.9745 31.0596C16.8386 30.3987 16.6781 29.7112 16.4338 29.0272ZM25.1399 25.4352C25.5748 25.3145 26.0252 25.569 26.146 26.0039L27.2865 30.1098C27.4073 30.5446 27.1527 30.9951 26.7179 31.1158C26.283 31.2366 25.8326 30.982 25.7118 30.5472L24.5713 26.4413C24.4505 26.0065 24.7051 25.556 25.1399 25.4352ZM22.9757 36.8354C23.2573 36.7172 23.4584 36.7149 23.6069 36.7476C23.7631 36.7821 23.9294 36.8709 24.1081 37.0379C24.4859 37.3911 24.8033 37.9836 25.0561 38.6157C25.2238 39.0347 25.6993 39.2386 26.1184 39.0709C26.5374 38.9033 26.7412 38.4278 26.5736 38.0087C26.3003 37.3255 25.875 36.4523 25.2241 35.8439C24.8884 35.5301 24.4689 35.2642 23.9591 35.1517C23.4416 35.0375 22.8966 35.0961 22.3431 35.3284C21.4762 35.6923 20.8115 36.2274 20.3868 36.9532C19.9664 37.6717 19.8264 38.5 19.8662 39.3758C19.8867 39.8266 20.2688 40.1755 20.7196 40.155C21.1705 40.1345 21.5194 39.7524 21.4989 39.3016C21.4688 38.6404 21.5804 38.1496 21.7974 37.7786C22.0102 37.4149 22.3688 37.0901 22.9757 36.8354Z" fill="black"/>
<path fill-rule="evenodd" clip-rule="evenodd" d="M23.2164 11.6491C17.5333 12.5889 12.3194 15.6545 9.95129 21.4672C7.9944 26.2705 7.90592 31.5577 10.2594 36.2633C12.4546 40.6524 16.66 43.4195 21.117 44.7927C29.3466 47.3281 38.9444 44.7799 44.0156 37.4096C44.2705 37.0391 44.1765 36.5324 43.8056 36.2777C43.4347 36.0231 42.9274 36.117 42.6725 36.4875C38.0609 43.1898 29.2451 45.5933 21.5974 43.2371C17.423 41.951 13.6555 39.4108 11.7174 35.5358C9.6017 31.3057 9.65527 26.5128 11.4609 22.0808C13.5584 16.9322 18.1911 14.1302 23.4826 13.2552C28.7882 12.3778 34.646 13.4654 38.9655 15.9913C43.3651 18.564 45.6118 23.0104 46.2625 28.107C46.5206 30.1284 46.5417 32.0681 46.0049 33.9468C45.3034 36.4023 44.1816 37.9269 42.2848 39.6659C41.9533 39.9699 41.9312 40.4848 42.2355 40.8159C42.5398 41.1471 43.0553 41.1692 43.3869 40.8652C45.4422 38.9808 46.7674 37.2104 47.5722 34.3936C48.194 32.2172 48.1512 30.0309 47.8792 27.901C47.1847 22.4615 44.7461 17.4851 39.7889 14.5864C35.1304 11.8622 28.8854 10.7117 23.2164 11.6491Z" fill="black"/>
<path fill-rule="evenodd" clip-rule="evenodd" d="M5.25492 25.0246C5.34286 25.4403 5.74776 25.7052 6.1593 25.6164C6.57084 25.5276 6.83316 25.1186 6.74523 24.703C6.16526 21.9617 6.03904 19.2423 5.90654 16.3877L5.90654 16.3877C5.89202 16.0748 5.87742 15.7603 5.86214 15.444C5.84164 15.0195 5.48427 14.6921 5.06395 14.7128C4.91374 14.7202 4.77582 14.7711 4.66153 14.8527C4.6134 14.827 4.56711 14.8045 4.52651 14.7852C4.29992 14.6775 4.04743 14.6923 3.84234 14.803C3.61195 14.7555 3.38174 14.702 3.25353 14.6723L3.25346 14.6723L3.25332 14.6722L3.25325 14.6722L3.17897 14.655C2.79453 14.5677 2.38855 14.3811 2.07515 14.1234C1.76318 13.8669 1.58601 13.5787 1.54299 13.2842C1.4746 12.8161 1.59891 12.4679 1.84528 12.1733C2.11224 11.8542 2.54738 11.5737 3.11504 11.3547C4.25959 10.9132 5.68026 10.8208 6.48354 10.9457C6.72167 10.9827 6.95099 10.904 7.11554 10.7512C7.23846 10.837 7.38757 10.8873 7.54831 10.8873C7.96913 10.8873 8.31028 10.5427 8.31028 10.1177C8.31028 9.86911 8.30292 9.60337 8.29521 9.32557L8.2952 9.32523L8.2952 9.32516C8.27726 8.67806 8.2575 7.96551 8.32473 7.25137C8.42349 6.20231 8.68842 5.53579 9.10436 5.25573L9.10634 5.25437C9.11227 5.25025 9.11452 5.24869 9.13318 5.2496C9.16796 5.25131 9.23771 5.26536 9.35051 5.31846C9.54089 5.40807 9.71473 5.53446 9.91892 5.68289C9.9843 5.73042 10.0528 5.78021 10.1259 5.83178C10.7586 6.27789 11.1038 7.04992 11.1949 7.96996C11.2368 8.39287 11.6102 8.70143 12.0289 8.65913C12.4476 8.61684 12.7531 8.23972 12.7113 7.81681C12.5941 6.63326 12.1224 5.36235 10.9983 4.56974C10.9645 4.5459 10.9236 4.516 10.877 4.48187L10.877 4.48182L10.8769 4.48179C10.6641 4.32593 10.3309 4.08183 9.99431 3.9234C9.56798 3.72271 8.89952 3.54384 8.25903 3.97509C7.21143 4.68045 6.90967 6.02167 6.80762 7.10569C6.73251 7.90355 6.75421 8.76758 6.77247 9.43554C6.7537 9.43114 6.73462 9.42742 6.71527 9.42442C5.65658 9.25992 3.96829 9.37797 2.57129 9.91686C1.86818 10.1881 1.1744 10.5903 0.681096 11.1801C0.167203 11.7945 -0.1001 12.5816 0.0353557 13.5089C0.148934 14.2864 0.596295 14.8922 1.11307 15.3171C1.62842 15.7408 2.25541 16.0228 2.84445 16.1566L2.89869 16.1692C3.06964 16.209 3.53478 16.3174 3.89167 16.3788C3.99506 16.3965 4.10345 16.4129 4.20086 16.4221C4.24913 16.4267 4.30642 16.4306 4.36543 16.4304L4.38278 16.4302L4.3845 16.4675L4.3845 16.4676C4.51562 19.3046 4.64723 22.1523 5.25492 25.0246ZM54.1102 19.5222C53.6899 19.5446 53.3313 19.2186 53.3092 18.7942C53.1582 15.8964 52.7023 13.1423 51.9837 10.3197C51.8789 9.90807 52.1243 9.48857 52.5319 9.38272C52.7272 9.33199 52.9243 9.36251 53.0882 9.45338C53.567 8.27514 53.4375 7.2042 53.1552 5.70706C53.083 5.32437 52.9025 4.61244 52.6122 4.05064C52.4661 3.76783 52.3208 3.58 52.196 3.48004C52.0931 3.39762 52.0368 3.39525 51.9781 3.40761C51.7617 3.45314 51.5259 3.6537 51.2719 4.17008C51.1527 4.4123 51.0497 4.6832 50.95 4.96732C50.9208 5.05052 50.8905 5.13899 50.8598 5.22884L50.8598 5.22889C50.7932 5.42379 50.7244 5.62514 50.6593 5.79306C50.6593 5.79299 50.6593 5.793 50.6593 5.79309L50.6593 5.79313C50.6589 5.79416 50.6561 5.80192 50.6508 5.8188C50.6451 5.83674 50.6383 5.85983 50.6302 5.88856C50.614 5.94657 50.5958 6.01644 50.5755 6.09615L50.5531 6.18452C50.5196 6.31724 50.4814 6.46865 50.446 6.59074C50.425 6.66328 50.3968 6.75467 50.3627 6.83674C50.3475 6.87331 50.316 6.94579 50.2647 7.02119C50.2396 7.05825 50.1892 7.12693 50.1088 7.19346C50.0316 7.25744 49.8643 7.37018 49.6223 7.37229C49.3564 7.3746 49.1631 7.24359 49.0551 7.1292C48.9591 7.02739 48.9125 6.92335 48.8923 6.87268C48.8507 6.76872 48.8366 6.67239 48.8307 6.62745C48.8168 6.52166 48.8132 6.39654 48.8132 6.26926C48.8132 4.9832 48.7215 3.95998 48.1216 3.03332C47.929 2.73579 47.5708 2.21241 47.1773 1.85101C46.978 1.66793 46.8242 1.57817 46.728 1.54857C46.6799 1.53378 46.6762 1.5381 46.6708 1.54432L46.6708 1.54434L46.6686 1.54675L46.6666 1.54852C46.2817 1.8373 45.9867 2.37113 45.7508 3.10755C45.5863 3.62109 45.4768 4.13645 45.3692 4.64283L45.3692 4.64286C45.3214 4.86788 45.274 5.09113 45.2222 5.31167C44.9917 6.295 45.1022 7.2975 45.2269 8.42843L45.2381 8.52986C45.2846 8.95228 44.9832 9.33277 44.5649 9.37971C44.2569 9.41427 43.9715 9.25833 43.8238 9.00505C43.6074 9.22577 43.2703 9.30041 42.9726 9.16678C42.174 8.80827 41.0571 8.6719 40.1314 8.8911C39.2315 9.10422 38.6481 9.60172 38.5254 10.4422C38.5203 10.477 38.5351 10.6592 38.7819 10.9774C39.0082 11.269 39.3481 11.5648 39.7193 11.7888C40.1011 12.0192 40.4382 12.1271 40.6527 12.1352C40.7191 12.1377 40.7555 12.1299 40.771 12.1253C40.7725 12.1222 40.7744 12.1179 40.7766 12.1122C40.9329 11.7176 41.3764 11.5257 41.7671 11.6835C42.1578 11.8414 42.3479 12.2892 42.1916 12.6839C42.0556 13.0272 41.8231 13.3001 41.5114 13.4724C41.2118 13.638 40.8884 13.6842 40.5963 13.6733C40.0272 13.652 39.4352 13.4103 38.9377 13.1101C38.4297 12.8036 37.9402 12.3879 37.5823 11.9266C37.245 11.4918 36.921 10.8795 37.0177 10.2176C37.2603 8.55727 38.4904 7.69884 39.7835 7.39261C41.0509 7.09247 42.5067 7.27331 43.5916 7.76029C43.6031 7.76548 43.6145 7.77091 43.6256 7.77659C43.5443 6.89431 43.5118 5.92704 43.7393 4.95694C43.7771 4.79567 43.8169 4.60894 43.8601 4.40595L43.8601 4.40583C43.9737 3.87192 44.1113 3.22553 44.3008 2.63379C44.5642 1.81169 44.9822 0.894908 45.7578 0.312987C46.2155 -0.0304115 46.7264 -0.0608451 47.1719 0.0761769C47.5798 0.201637 47.9311 0.462846 48.2027 0.712358C48.7511 1.21615 49.1987 1.88447 49.3971 2.19103C49.6471 2.57716 49.8311 2.97115 49.9665 3.36816C50.279 2.77095 50.7923 2.08492 51.6672 1.90082C52.2531 1.77755 52.7595 1.96687 53.1432 2.2743C53.505 2.56418 53.7699 2.96436 53.9632 3.33857C54.3519 4.0908 54.5673 4.96893 54.6522 5.41907C54.9668 7.087 55.1964 8.66596 54.3022 10.4723C54.1805 10.718 53.9463 10.8693 53.6941 10.8942C54.3003 13.4742 54.6913 16.0314 54.831 18.7133C54.8532 19.1377 54.5304 19.4999 54.1102 19.5222Z" fill="black"/>
</svg>
