<svg width="50" height="70" viewBox="0 0 50 70" fill="none" xmlns="http://www.w3.org/2000/svg">
<path fill-rule="evenodd" clip-rule="evenodd" d="M24.0366 0.0217478C30.5283 -0.228955 36.6072 1.66122 40.9759 7.07891C44.538 11.4964 45.9361 17.618 44.3542 23.2487C42.8524 28.5942 38.6771 33.4018 34.1625 36.0448C27.815 39.7607 21.0039 39.6635 14.3732 37.4587C8.16121 35.3931 1.80674 30.3326 0.893984 22.9881C0.358566 22.9313 -0.0381199 22.4585 0.00291699 21.918C0.994683 8.85456 12.2396 0.477342 24.0366 0.0217478ZM2.21015 20.2654C2.54836 20.4257 2.78226 20.7703 2.78226 21.1695C2.78226 28.2673 8.69352 33.4624 15.0042 35.5608C21.2496 37.6375 27.4313 37.6679 33.1521 34.3188C37.2888 31.8971 41.0872 27.4826 42.4287 22.7078C43.8286 17.7251 42.5913 12.2684 39.419 8.33434C35.5458 3.53102 30.1496 1.78716 24.1138 2.02026C13.69 2.42282 3.95566 9.43257 2.21015 20.2654Z" fill="black"/>
<path fill-rule="evenodd" clip-rule="evenodd" d="M34.7841 17.3281C34.8585 16.7799 34.497 16.272 33.9767 16.1937C33.4565 16.1154 32.9745 16.4963 32.9002 17.0445C32.7978 17.7996 32.559 18.5083 32.2013 19.0028C31.8666 19.4655 31.438 19.7381 30.8356 19.7381C29.6803 19.7381 28.7983 18.7977 28.0883 17.3453C27.8476 16.853 27.2738 16.6595 26.8066 16.9131C26.3394 17.1667 26.1558 17.7714 26.3964 18.2637C27.1661 19.8379 28.5298 21.7435 30.8356 21.7435C32.1182 21.7435 33.076 21.1016 33.7148 20.2185C34.3307 19.3671 34.6526 18.2984 34.7841 17.3281ZM20.7892 17.5746C21.3148 17.5746 21.7408 18.0235 21.7408 18.5773C21.7408 19.8692 21.4263 20.9828 20.74 21.8827C20.0636 22.7696 19.1003 23.3512 17.9709 23.738C16.8696 24.1151 15.5896 24.355 14.2895 23.9944C13.5569 23.7913 12.939 23.5578 12.442 23.0691C11.9626 22.5976 11.6872 21.9724 11.409 21.2924C11.201 20.7838 11.4236 20.1939 11.9062 19.9747C12.3888 19.7555 12.9487 19.99 13.1567 20.4986C13.4488 21.2127 13.5913 21.4562 13.7405 21.6029C13.8721 21.7323 14.0935 21.8664 14.7738 22.0551C15.5708 22.2761 16.4435 22.1524 17.3826 21.8308C18.294 21.5186 18.887 21.1111 19.2566 20.6264C19.6163 20.1548 19.8377 19.5143 19.8377 18.5773C19.8377 18.0235 20.2637 17.5746 20.7892 17.5746ZM29.336 29.5816C29.7464 29.9275 29.813 30.5585 29.4847 30.9909C28.323 32.521 26.7097 33.1275 25.1084 33.275C23.524 33.421 21.8743 33.1279 20.493 32.7854C19.9814 32.6585 19.6643 32.1187 19.7847 31.5797C19.9051 31.0406 20.4173 30.7065 20.9289 30.8333C22.2453 31.1597 23.661 31.3953 24.9426 31.2772C26.2073 31.1607 27.2605 30.7103 27.9986 29.7382C28.3269 29.3057 28.9257 29.2356 29.336 29.5816Z" fill="black"/>
<path fill-rule="evenodd" clip-rule="evenodd" d="M43.3992 51.036C43.3205 50.9725 43.1906 50.8839 42.9799 50.7731C41.9034 50.2068 40.305 50.0205 38.9423 50.1143C38.9451 50.1141 38.9404 50.1147 38.929 50.1162C38.8919 50.1209 38.783 50.1346 38.6221 50.1605C38.4668 50.1855 38.291 50.2174 38.1275 50.2537C37.8803 50.7051 37.3115 50.8834 36.842 50.6514C36.75 50.6059 36.6258 50.5344 36.5086 50.4237C36.3902 50.3117 36.2336 50.115 36.1855 49.8278C36.1695 49.7322 36.1669 49.6431 36.1744 49.5603C36.1572 49.415 36.1737 49.2638 36.229 49.1174C36.515 48.361 36.4556 47.3108 36.0422 46.4648C35.6408 45.6435 35.0011 45.1731 34.1868 45.1947C33.4045 45.2155 32.8335 45.7659 32.6305 46.6588C32.4215 47.5788 32.6986 48.5226 33.3016 48.9971C33.5985 49.2306 33.7197 49.6007 33.6462 49.943C33.6459 49.9883 33.6424 50.0341 33.6354 50.0801C33.6062 50.2718 33.533 50.558 33.3052 50.8012C33.0462 51.0777 32.729 51.1527 32.5156 51.1671C32.3639 51.1773 32.2026 51.1574 32.1639 51.1527L32.1564 51.1518C32.1455 51.1506 32.1373 51.1498 32.1312 51.1493C31.6536 51.205 31.1838 51.276 30.6954 51.3498L30.6953 51.3499C30.5381 51.3736 30.3791 51.3976 30.2173 51.4215C29.5548 51.5194 28.8617 51.6124 28.1488 51.6543C27.1998 51.71 26.1746 51.7303 25.1668 51.7504L25.1667 51.7504C24.4187 51.7652 23.6803 51.7799 22.9897 51.8087C21.2904 51.8795 19.6634 52.0362 18.1379 52.46C17.6229 52.6031 17.0866 52.3075 16.9401 51.7998C16.7936 51.2921 17.0923 50.7645 17.6073 50.6214C19.3476 50.1379 21.1498 49.9732 22.9029 49.9002C23.7081 49.8666 24.4669 49.8524 25.2092 49.8384L25.2094 49.8384C26.155 49.8207 27.0741 49.8034 28.0287 49.7474C28.6517 49.7109 29.2747 49.6285 29.9251 49.5324C30.072 49.5107 30.2213 49.4881 30.3724 49.4653L30.3734 49.4651C30.6243 49.4272 30.8802 49.3885 31.1386 49.3518C30.6128 48.3872 30.5135 47.2309 30.7393 46.2373C31.071 44.7776 32.1969 43.3375 34.1298 43.2862C35.9206 43.2386 37.1576 44.3501 37.788 45.6401C38.1787 46.4396 38.3734 47.369 38.3406 48.2707C38.5622 48.2358 38.7375 48.2143 38.8025 48.2099C40.3526 48.1032 42.3642 48.2872 43.8894 49.0896C44.6873 49.5093 45.4853 50.1564 45.4242 51.1307C45.3957 51.5859 45.1759 51.9473 44.95 52.2049C44.7237 52.4628 44.442 52.6742 44.1681 52.846C43.8628 53.0375 43.511 53.2126 43.1521 53.369C43.418 53.5747 43.6709 53.8015 43.9013 54.0454C44.6304 54.8173 45.2545 55.8945 45.142 57.122C45.0776 57.825 44.7459 58.4229 44.1112 58.7341C43.5616 59.0036 42.9564 58.9672 42.5075 58.8847C42.3829 58.8618 42.2579 58.833 42.1338 58.7996C42.2083 59.1633 42.2304 59.5648 42.1354 59.9597C41.9923 60.5553 41.5942 61.0694 40.9259 61.3341C40.0939 61.6636 39.2054 61.5227 38.5065 61.2526C37.7985 60.979 37.1364 60.5185 36.6894 59.9897C36.3465 59.584 36.4016 58.982 36.8126 58.6452C37.2236 58.3083 37.8348 58.3642 38.1777 58.7699C38.3972 59.0296 38.7803 59.3089 39.2105 59.4751C39.6497 59.6448 39.9924 59.6438 40.199 59.562C40.2439 59.5442 40.2442 59.5426 40.2469 59.5267C40.2474 59.5235 40.2481 59.5198 40.2491 59.5153C40.2687 59.4338 40.27 59.254 40.1824 58.9774C40.0989 58.7137 39.9579 58.4372 39.7969 58.2054C39.6239 57.9564 39.4854 57.841 39.4477 57.8186C38.9887 57.5461 38.84 56.9592 39.1155 56.5077C39.3911 56.0563 39.9864 55.9113 40.4454 56.1838C40.4675 56.197 40.4895 56.2106 40.5113 56.2248C40.753 56.1689 41.0165 56.204 41.2444 56.3433C41.5886 56.5538 42.2877 56.9036 42.858 57.0083C43.038 57.0413 43.1456 57.0386 43.2001 57.0324C43.2044 57.0122 43.2088 56.984 43.2123 56.9457C43.2556 56.4732 43.0184 55.9092 42.4845 55.3439C41.9738 54.8034 41.3022 54.3856 40.7441 54.1889C40.3069 54.223 39.8863 53.9595 39.7446 53.5304C39.5788 53.0287 39.857 52.4907 40.3658 52.3287C40.4248 52.3099 40.4889 52.2897 40.5571 52.2682L40.5579 52.268C41.2591 52.0472 42.4043 51.6865 43.1246 51.2348C43.2453 51.1591 43.3351 51.092 43.3992 51.036ZM43.5125 51.1508C43.5122 51.1508 43.5103 51.1481 43.5077 51.1425C43.5115 51.148 43.5128 51.1508 43.5125 51.1508ZM43.1862 57.077C43.1861 57.0767 43.1871 57.0739 43.19 57.0695C43.1878 57.0751 43.1864 57.0773 43.1862 57.077Z" fill="black"/>
<path fill-rule="evenodd" clip-rule="evenodd" d="M7.42279 55.8733C7.49905 55.8069 7.62554 55.7135 7.83191 55.5948C8.88639 54.9885 10.4767 54.7424 11.842 54.7849C11.8392 54.7848 11.8438 54.7852 11.8553 54.7862C11.8926 54.7895 12.0019 54.7992 12.1636 54.8191C12.3198 54.8382 12.4966 54.8635 12.6614 54.8936C12.9254 55.3353 13.5004 55.4922 13.961 55.2427C14.0512 55.1938 14.1726 55.1177 14.2855 55.0027C14.3996 54.8864 14.5488 54.6839 14.5861 54.3951C14.5985 54.299 14.5977 54.2098 14.587 54.1274C14.5988 53.9816 14.5766 53.831 14.5159 53.6868C14.2017 52.9417 14.2216 51.89 14.603 51.0291C14.9732 50.1933 15.5948 49.6992 16.4094 49.6902C17.1919 49.6816 17.7832 50.2101 18.0195 51.0949C18.263 52.0063 18.0215 52.9599 17.4367 53.4566C17.1488 53.7012 17.0416 54.0755 17.1279 54.4148C17.1298 54.4601 17.1351 54.5057 17.1438 54.5515C17.1802 54.7419 17.264 55.0251 17.5008 55.2596C17.77 55.5262 18.0899 55.5893 18.3036 55.5956C18.4556 55.6002 18.616 55.5742 18.6546 55.568L18.662 55.5668C18.6728 55.5652 18.6811 55.5641 18.6871 55.5634C19.1664 55.6012 19.6386 55.6545 20.1294 55.7099L20.1307 55.71C20.2882 55.7278 20.4477 55.7458 20.6099 55.7636C21.2756 55.8365 21.9717 55.9034 22.6856 55.9185C23.6361 55.9385 24.6613 55.9204 25.6693 55.9025C26.4172 55.8893 27.1557 55.8762 27.847 55.8791C29.5476 55.886 31.1794 55.9815 32.7197 56.3478C33.2397 56.4714 33.7645 56.1559 33.8919 55.643C34.0192 55.1302 33.7009 54.6142 33.1809 54.4905C31.4238 54.0727 29.6165 53.9758 27.862 53.9686C27.056 53.9653 26.2972 53.9796 25.5548 53.9936L25.5548 53.9936C24.6092 54.0113 23.6901 54.0286 22.734 54.0085C22.1101 53.9953 21.4845 53.9364 20.8309 53.8648C20.6833 53.8487 20.5333 53.8317 20.3814 53.8145L20.3804 53.8144L20.3804 53.8144C20.1283 53.786 19.8711 53.7569 19.6115 53.7299C20.1007 52.7462 20.1565 51.587 19.8936 50.6026C19.5073 49.1564 18.3281 47.7596 16.3947 47.7809C14.6034 47.8006 13.409 48.9578 12.8274 50.2705C12.467 51.0841 12.3073 52.0201 12.374 52.92C12.1512 52.8934 11.9752 52.8786 11.9102 52.8765C10.3572 52.8282 8.35387 53.0876 6.85986 53.9466C6.07827 54.396 5.30518 55.0727 5.40274 56.0439C5.44833 56.4978 5.68153 56.8506 5.91701 57.0996C6.15284 57.3488 6.44222 57.5495 6.72238 57.7109C7.03468 57.8908 7.39279 58.0526 7.7573 58.1954C7.49934 58.4109 7.25511 58.6471 7.03407 58.8994C6.33442 59.6981 5.75126 60.798 5.90974 62.0204C6.00051 62.7205 6.35445 63.3056 7.00034 63.5927C7.55966 63.8413 8.1631 63.7822 8.60858 63.683C8.73223 63.6554 8.85606 63.6219 8.97879 63.5839C8.91805 63.9501 8.91104 64.3522 9.02073 64.7432C9.18615 65.333 9.6033 65.8318 10.2811 66.0712C11.1248 66.3693 12.0074 66.1951 12.6957 65.899C13.3929 65.599 14.0372 65.1139 14.464 64.5687C14.7915 64.1504 14.7138 63.551 14.2904 63.2298C13.8671 62.9086 13.2584 62.9873 12.931 63.4057C12.7214 63.6734 12.3491 63.9669 11.9254 64.1491C11.4929 64.3353 11.1504 64.3471 10.9409 64.2731C10.8953 64.257 10.895 64.2554 10.8917 64.2396C10.891 64.2365 10.8903 64.2328 10.889 64.2284C10.8664 64.1476 10.8584 63.968 10.9355 63.6883C11.0091 63.4216 11.1395 63.14 11.2918 62.9023C11.4553 62.6471 11.5894 62.5265 11.6262 62.5027C12.0746 62.2132 12.2011 61.6211 11.9089 61.1803C11.6166 60.7395 11.0162 60.617 10.5678 60.9065C10.5462 60.9205 10.5247 60.935 10.5034 60.95C10.2599 60.9032 9.99787 60.9481 9.77533 61.096C9.43927 61.3192 8.7538 61.695 8.18789 61.821C8.00922 61.8608 7.90156 61.8621 7.84689 61.858C7.8419 61.8379 7.83639 61.8099 7.83145 61.7718C7.77044 61.3013 7.98628 60.7287 8.49865 60.1438C8.98864 59.5845 9.6441 59.1418 10.1944 58.9242C10.6325 58.942 11.043 58.6628 11.1685 58.2287C11.3153 57.7212 11.0172 57.194 10.5026 57.0512C10.4427 57.0345 10.3777 57.0167 10.3084 56.9977C9.59939 56.8034 8.44142 56.486 7.70469 56.0617C7.58119 55.9905 7.48898 55.9268 7.42279 55.8733ZM7.31392 55.9922C7.31421 55.9923 7.31598 55.9895 7.31832 55.9838C7.3148 55.9894 7.31363 55.9922 7.31392 55.9922ZM7.30649 55.7593L7.30524 55.7573C7.30521 55.7573 7.30559 55.7579 7.30649 55.7593ZM7.86244 61.902C7.8626 61.9017 7.86141 61.8989 7.85842 61.8946C7.86078 61.9002 7.86228 61.9023 7.86244 61.902Z" fill="black"/>
</svg>
