<svg width="60" height="54" viewBox="0 0 60 54" fill="none" xmlns="http://www.w3.org/2000/svg">
<path fill-rule="evenodd" clip-rule="evenodd" d="M43.3351 5.08191C48.7654 8.46868 53.025 13.6825 53.8199 20.2147C54.5286 26.0377 51.6486 31.2043 47.5636 34.8949C42.6032 39.3763 35.8422 41.2248 29.3866 41.0175C24.3328 40.8552 18.7362 39.3566 14.5178 36.328C11.58 34.2189 9.43298 31.6073 8.31341 28.6083C7.62472 26.7635 7.33451 24.7974 7.4722 22.7486C6.7391 18.0978 6.49116 12.9271 9.53851 8.58302C13.0275 3.60941 19.8354 1.37681 25.2668 0.746368C31.1965 0.0581033 37.9085 1.69751 43.3351 5.08191ZM9.00997 18.1118C8.92412 15.1016 9.42102 12.2331 11.1758 9.73158C14.1666 5.46809 20.2499 3.34211 25.4974 2.73303C30.9344 2.10195 37.1965 3.61055 42.2767 6.77892C47.3531 9.94493 51.1327 14.6887 51.8346 20.4563C52.4398 25.4298 50.0007 29.9978 46.2228 33.4109C41.7312 37.4688 35.5156 39.2132 29.4508 39.0185C24.6942 38.8658 19.5084 37.4489 15.6842 34.7034C13.0048 32.7797 11.1427 30.4685 10.1871 27.9088C9.82544 26.94 9.58994 25.9261 9.49144 24.8716C9.68226 24.6511 9.77544 24.3495 9.71992 24.0401C9.63741 23.5804 9.55816 23.1206 9.48437 22.6615C9.57318 21.6068 9.79301 20.5183 10.1532 19.4001C10.3226 18.8744 10.0337 18.311 9.50803 18.1416C9.34121 18.0879 9.17059 18.0803 9.00997 18.1118Z" fill="black"/>
<path fill-rule="evenodd" clip-rule="evenodd" d="M32.5524 11.0766C33.0736 10.7924 33.6371 10.6087 34.1181 10.6007C34.562 10.5934 34.9014 10.7286 35.1627 11.0731C35.8567 11.988 36.1432 13.0864 36.4807 14.3803L36.4807 14.3805C36.5446 14.6252 36.6102 14.8769 36.6808 15.1357C36.8197 15.6448 37.3449 15.945 37.8541 15.8061C38.3632 15.6673 38.6633 15.142 38.5245 14.6329C38.4679 14.4255 38.4121 14.2078 38.3543 13.9826C38.0244 12.6964 37.6318 11.1659 36.6852 9.91813C35.9868 8.9975 35.0153 8.67459 34.0864 8.68997C33.1946 8.70474 32.3234 9.02472 31.6373 9.39895C30.6254 9.95093 29.9761 10.8287 29.5019 11.6794C29.2635 12.1069 29.0584 12.5482 28.8732 12.9602C28.8251 13.0673 28.7787 13.1714 28.7335 13.2729L28.733 13.274L28.733 13.2741L28.7325 13.2751C28.599 13.575 28.4754 13.8525 28.345 14.1198C28.1011 14.6199 27.7468 15.2616 27.3231 15.7804C26.8714 16.3334 26.4911 16.5624 26.2287 16.5887C25.0889 16.7027 24.4345 16.0284 23.3399 14.7551C22.7706 14.0929 22.0355 13.6349 21.1986 13.4991C20.3559 13.3623 19.4989 13.567 18.7241 14.0736C17.0034 15.1987 15.953 16.9161 16.2364 19.1518C16.3177 19.7928 16.6095 20.4643 17.0427 20.9947C17.4743 21.5231 18.1368 22.0146 18.9883 22.0594C19.5153 22.0872 19.965 21.6824 19.9928 21.1555C20.0205 20.6285 19.6158 20.1788 19.0888 20.151C18.9483 20.1437 18.7414 20.0536 18.5228 19.7858C18.3057 19.52 18.1664 19.1808 18.1323 18.9114C17.9576 17.5336 18.541 16.4766 19.7699 15.6731C20.1934 15.3962 20.5739 15.3337 20.8925 15.3854C21.2169 15.4381 21.5669 15.6242 21.8907 16.0009L21.9784 16.103C22.9406 17.225 24.2147 18.7106 26.4188 18.4902C27.4686 18.3852 28.2714 17.6404 28.8032 16.9892C29.3631 16.3037 29.7929 15.5106 30.0626 14.9576C30.209 14.6576 30.3518 14.3367 30.4889 14.0289L30.4889 14.0289C30.532 13.9322 30.5744 13.8368 30.6163 13.7437C30.7969 13.3419 30.9745 12.9624 31.1711 12.6099C31.5667 11.9003 31.9958 11.3802 32.5524 11.0766ZM21.8006 18.8626C21.4345 18.4824 20.8296 18.471 20.4495 18.8371C20.0694 19.2031 20.058 19.808 20.424 20.1881C20.7646 20.5418 21.0216 21.009 21.3059 21.6089C21.3528 21.7078 21.4011 21.8121 21.4512 21.9203C21.6825 22.4196 21.9515 23.0004 22.2922 23.5114C22.5849 23.9505 23.1781 24.0692 23.6172 23.7765C24.0563 23.4837 24.1749 22.8905 23.8822 22.4514C23.6312 22.0749 23.4386 21.6607 23.2107 21.1706L23.2107 21.1705L23.2106 21.1703L23.2106 21.1703C23.154 21.0486 23.0952 20.9222 23.0328 20.7905C22.74 20.1725 22.3734 19.4575 21.8006 18.8626ZM33.7431 14.5711C34.2432 14.4028 34.7851 14.6718 34.9534 15.172C35.1541 15.7682 35.2924 16.4023 35.4172 16.9747L35.4173 16.9753C35.4469 17.1107 35.4756 17.2426 35.5043 17.3698C35.6619 18.069 35.8244 18.6706 36.0874 19.1967C36.3234 19.6687 36.1321 20.2427 35.6601 20.4787C35.1881 20.7147 34.6141 20.5234 34.3781 20.0513C34.0044 19.3039 33.8019 18.508 33.64 17.79C33.6047 17.6334 33.5715 17.4816 33.5392 17.3339C33.4162 16.7718 33.3061 16.2683 33.1422 15.7815C32.9739 15.2814 33.2429 14.7395 33.7431 14.5711ZM33.5901 27.6655C33.3337 26.9564 32.7811 26.0586 32.0649 25.4075C31.3704 24.776 30.2398 24.1488 29.0052 24.7124C27.8057 25.26 27.4334 26.4501 27.3926 27.4167C27.3814 27.6827 27.393 27.9526 27.4239 28.2189C27.1893 28.4897 27.1174 28.882 27.2718 29.2315C27.6153 30.0087 28.1971 30.8058 28.9192 31.4136C29.6359 32.0169 30.58 32.5054 31.6384 32.4814C32.3314 32.4656 32.8883 32.1649 33.2666 31.687C33.6152 31.2467 33.7708 30.7115 33.8385 30.2435C33.9728 29.3157 33.8133 28.2825 33.5901 27.6655ZM29.6804 29.1971C29.7549 29.3312 29.7937 29.4754 29.8 29.6189C29.9102 29.7365 30.0273 29.8484 30.1499 29.9516C30.6522 30.3744 31.1583 30.5808 31.595 30.5708C31.7123 30.5682 31.7385 30.5384 31.7682 30.5009C31.8278 30.4257 31.9051 30.2603 31.9472 29.9697C32.0325 29.3804 31.9192 28.6642 31.7931 28.3155C31.6354 27.8796 31.2507 27.25 30.7793 26.8215C30.2864 26.3732 29.9793 26.3685 29.7989 26.4509C29.5413 26.5685 29.3286 26.8663 29.3019 27.4973C29.2756 28.1206 29.4596 28.7995 29.6804 29.1971Z" fill="black"/>
<path fill-rule="evenodd" clip-rule="evenodd" d="M53.9139 28.0954C53.5972 27.5772 53.156 27.2431 52.6392 27.0926C52.1463 26.9491 51.6504 26.9911 51.2244 27.0922C50.3891 27.2904 49.5861 27.7766 49.1053 28.0826C48.7159 28.3304 48.6011 28.847 48.8489 29.2364C49.0967 29.6258 49.6133 29.7406 50.0028 29.4928C50.4836 29.1868 51.0765 28.8453 51.6104 28.7186C51.8691 28.6572 52.0511 28.6623 52.1719 28.6975C52.2687 28.7257 52.3769 28.7858 52.4876 28.9671C53.0229 29.8429 52.8466 30.9637 52.161 31.4299C51.7793 31.6895 51.6803 32.2093 51.9399 32.591C52.1994 32.9727 52.7193 33.0717 53.101 32.8122C53.3206 32.6628 53.5114 32.4935 53.6751 32.3087C53.7378 32.317 53.8024 32.3182 53.8681 32.3116C55.2903 32.1694 56.4346 32.1367 57.528 32.6834C57.7869 32.8128 57.9599 32.9483 58.0407 33.0575C58.0749 33.1037 58.0795 33.1277 58.0803 33.1325L58.0803 33.1325C58.0806 33.1338 58.0855 33.1562 58.063 33.2141C58.0286 33.3025 57.9412 33.4118 57.7024 33.5301C57.4569 33.6517 57.1544 33.7328 56.813 33.8163C56.6491 33.8564 56.4938 33.8987 56.3418 33.9402L56.3417 33.9402C56.0422 34.022 55.7554 34.1003 55.4407 34.1504C55.2845 34.1753 55.1536 34.1866 55.0446 34.1882C54.9088 34.1227 54.7616 34.0971 54.6182 34.1082C54.2296 33.8609 53.714 33.9747 53.4656 34.3628C53.2167 34.7516 53.3302 35.2685 53.719 35.5173C53.9557 35.6688 54.2091 35.7593 54.4625 35.809C54.726 36.0048 55.0441 36.2732 55.2682 36.5537C55.4193 36.743 55.4768 36.8757 55.4906 36.9443C55.4915 36.9488 55.4923 36.9522 55.493 36.955C55.4942 36.96 55.4949 36.9626 55.4943 36.9651C55.4937 36.9679 55.4916 36.9703 55.4869 36.9757L55.479 36.9849C55.3264 37.168 54.9887 37.2881 54.262 37.0336C53.5852 36.7966 52.9081 36.3316 52.5693 36.0058C52.2365 35.6858 51.7074 35.6962 51.3875 36.0289C51.2159 36.2075 51.1393 36.4425 51.1566 36.6715C51.145 36.8179 51.1719 36.9693 51.2424 37.1102C51.4419 37.5092 51.3922 38.1471 51.0599 38.6639C50.7461 39.152 50.3288 39.3303 49.8872 39.1932C49.6639 39.1239 49.4707 38.9561 49.3112 38.5973C49.1446 38.2226 49.049 37.7054 49.0213 37.0952C48.9724 36.0165 49.1426 34.8384 49.2899 34.0992C49.3469 33.9007 49.4037 33.7025 49.4602 33.5045C49.587 33.0607 49.3301 32.5981 48.8862 32.4713C48.4424 32.3445 47.9798 32.6015 47.853 33.0453L47.7888 33.2697C47.755 33.334 47.729 33.4038 47.7125 33.4782C47.6972 33.547 47.6812 33.6219 47.6648 33.7021C46.8176 36.6495 45.9347 39.5661 44.7726 42.3552C44.3167 43.4493 43.8035 44.5826 43.1332 45.5452C42.4656 46.504 41.6791 47.239 40.6993 47.6064C38.4924 48.434 36.7884 47.9802 35.35 46.8909C33.8534 45.7575 32.6332 43.921 31.5691 41.9764C31.3476 41.5714 30.8397 41.4228 30.4348 41.6443C30.0298 41.8659 29.8812 42.3738 30.1027 42.7787C31.1854 44.7574 32.5451 46.8635 34.3409 48.2235C36.195 49.6276 38.496 50.2179 41.2862 49.1715C42.6921 48.6443 43.7227 47.6239 44.505 46.5005C45.2846 45.3809 45.8542 44.1054 46.3155 42.9981C46.8397 41.7402 47.3076 40.4603 47.7391 39.1716C47.7535 39.2068 47.7684 39.2418 47.7838 39.2764C48.0773 39.9366 48.5808 40.538 49.3918 40.7897C50.7563 41.2131 51.8754 40.4863 52.4659 39.568C52.7056 39.1951 52.884 38.7555 52.9718 38.2936C53.2097 38.4145 53.4579 38.5232 53.7096 38.6113C54.5857 38.9181 55.8974 39.0938 56.7631 38.055C57.1325 37.6117 57.2262 37.0969 57.1295 36.6153C57.0494 36.2166 56.8467 35.8686 56.6379 35.5924C56.7271 35.5688 56.8121 35.5457 56.8909 35.5243C57.0151 35.4906 57.1241 35.461 57.2099 35.44C57.5373 35.36 58.0112 35.2426 58.4444 35.028C58.8842 34.8101 59.3776 34.4456 59.6209 33.82C59.8845 33.142 59.726 32.5249 59.3845 32.0634C59.0764 31.6468 58.6333 31.3672 58.2755 31.1883C56.9772 30.5391 55.6661 30.4972 54.4377 30.5838C54.55 29.7139 54.347 28.804 53.9139 28.0954Z" fill="black"/>
<path fill-rule="evenodd" clip-rule="evenodd" d="M3.35769 39.7816C3.42783 39.7114 3.47416 39.6859 3.49288 39.6774C3.50229 39.6732 3.50723 39.6721 3.50835 39.6719C3.50944 39.6716 3.51019 39.6715 3.51175 39.6716C3.51889 39.6717 3.59063 39.6774 3.74329 39.7877C4.00398 39.9761 4.23422 40.2551 4.49364 40.5695L4.49364 40.5695L4.49367 40.5695C4.57602 40.6693 4.6613 40.7727 4.75142 40.8778C5.05182 41.2283 5.57945 41.2689 5.92991 40.9685C6.28038 40.6681 6.32096 40.1405 6.02057 39.79C5.97817 39.7405 5.92706 39.678 5.8685 39.6064C5.60129 39.2794 5.17906 38.7628 4.72221 38.4328C4.42467 38.2178 4.02015 38.007 3.53519 38.0002C3.01932 37.9929 2.55793 38.2174 2.17571 38.5996C1.29863 39.4767 0.983604 40.4609 1.06938 41.4692C1.11912 42.0538 1.30175 42.6224 1.54263 43.1585C1.13281 43.489 0.672259 43.9515 0.362777 44.5037C0.00249732 45.1466 -0.200219 46.0178 0.293391 46.8888C0.826566 47.8297 1.7613 48.1395 2.54325 48.2438C2.69319 48.2638 2.8483 48.2772 3.0043 48.2858C2.84711 48.5967 2.7231 48.9346 2.65263 49.3027C2.58065 49.6786 2.55741 50.153 2.63121 50.6159C2.70246 51.0629 2.88501 51.6236 3.3378 52.0212C3.82885 52.4523 4.40917 52.5158 4.91922 52.3874C5.38486 52.27 5.79869 51.9962 6.12172 51.7329C6.48761 51.4347 6.82183 51.0782 7.08342 50.7722C7.37297 51.2145 7.71597 51.567 8.12319 51.7942C8.64085 52.083 9.19462 52.1305 9.71968 51.9916C10.6925 51.7343 11.4964 50.8641 12.078 49.9501C12.5425 49.2203 12.8341 48.4593 12.9742 47.6838C13.7437 48.8948 14.617 50.1532 15.6207 51.2079C17.3 52.9723 19.4706 54.3015 22.2849 53.8829C24.7823 53.5113 26.3905 51.4818 27.4477 49.3792C28.4885 47.3094 29.1159 44.9292 29.544 43.3055L29.544 43.3054L29.5807 43.1665C29.6984 42.7201 29.4321 42.2629 28.9858 42.1451C28.5395 42.0273 28.0822 42.2936 27.9644 42.74L27.9403 42.8315L27.9403 42.8315L27.9403 42.8315L27.9403 42.8315C27.5051 44.481 26.9152 46.7172 25.9543 48.6282C24.9619 50.602 23.6978 51.9827 22.039 52.2295C19.974 52.5367 18.3121 51.6111 16.8316 50.0555C15.5442 48.7028 14.4896 46.9759 13.5082 45.3687L13.5082 45.3687C13.3433 45.0987 13.1805 44.8322 13.019 44.5713C12.9343 44.4343 12.8163 44.3304 12.682 44.2634C12.5029 43.9039 12.0849 43.7162 11.6884 43.8382C11.2472 43.974 10.9996 44.4416 11.1354 44.8828C11.5927 46.369 11.4795 47.7772 10.6678 49.0527C10.1464 49.872 9.63611 50.2847 9.29216 50.3757C9.15883 50.4109 9.05354 50.3991 8.93757 50.3344C8.80048 50.2579 8.59333 50.0738 8.36169 49.6568C8.20033 49.3664 7.8915 49.2097 7.58062 49.2282C7.53067 49.1525 7.46746 49.0837 7.39144 49.0254C7.0252 48.7444 6.50055 48.8136 6.21959 49.1798C5.99527 49.4722 5.54915 50.0431 5.06564 50.4372C4.82012 50.6374 4.63077 50.7362 4.51087 50.7664C4.44918 50.782 4.44615 50.7754 4.44327 50.769C4.44263 50.7676 4.44199 50.7662 4.4407 50.7651C4.40559 50.7343 4.32447 50.6197 4.28193 50.3528C4.24192 50.1019 4.25476 49.8238 4.29436 49.617C4.44216 48.8452 5.01066 48.2524 5.78989 47.4731C6.11628 47.1467 6.11628 46.6175 5.78989 46.2912C5.46349 45.9648 4.93431 45.9648 4.60791 46.2912L4.52482 46.3741L4.52478 46.3741C4.4483 46.4504 4.36885 46.5297 4.28769 46.6121C4.20168 46.614 4.11694 46.6164 4.03322 46.6187L4.03315 46.6187C3.59307 46.631 3.18133 46.6426 2.7643 46.5869C2.19855 46.5115 1.90248 46.3379 1.74769 46.0647C1.63927 45.8734 1.63518 45.6524 1.82095 45.3209C1.9837 45.0305 2.25301 44.7419 2.53662 44.5051C2.74766 44.5655 2.98203 44.5432 3.18678 44.4241C3.58583 44.1921 3.72124 43.6805 3.48924 43.2815C3.0571 42.5382 2.78326 41.8956 2.73492 41.3275C2.69154 40.8175 2.82373 40.3155 3.35769 39.7816Z" fill="black"/>
</svg>
