<svg width="62" height="59" viewBox="0 0 62 59" fill="none" xmlns="http://www.w3.org/2000/svg">
<path fill-rule="evenodd" clip-rule="evenodd" d="M22.3809 1.09696C28.2396 -0.749571 34.5038 -0.217902 39.9925 2.43053C44.37 4.54275 48.4519 8.37387 49.5378 13.4822C50.481 17.9197 49.1981 23.2113 46.1443 26.6469C38.4344 35.3205 25.0782 34.6091 16.1696 28.8185C12.4875 26.4252 9.81356 23.2165 9.17462 18.643C8.90946 16.7451 8.96397 14.8975 9.21913 13.0417C9.60215 10.2561 11.0557 8.07892 12.5086 6.05213C12.8304 5.60327 13.4551 5.50024 13.904 5.82202C13.9773 5.87457 14.0413 5.9352 14.0959 6.00183C14.4102 5.70342 14.7331 5.41524 15.0626 5.13584C17.2353 3.29313 19.6655 1.95278 22.3809 1.09696ZM11.0007 16.2457C11.007 16.9527 11.0564 17.6576 11.1554 18.3663C11.6919 22.2066 13.9096 24.9641 17.2595 27.1416C25.6482 32.5942 37.8148 33.0071 44.6495 25.3182C47.2606 22.3806 48.399 17.7444 47.5815 13.898C46.6674 9.59762 43.1618 6.1804 39.1234 4.2318C34.0781 1.79739 28.3392 1.31602 22.9821 3.00446C20.5203 3.78035 18.3256 4.99089 16.3562 6.66114C14.9826 7.82608 13.8003 9.09828 12.9231 10.5971C12.0169 12.1456 11.7127 13.6676 11.3298 15.5835C11.3218 15.6236 11.3137 15.664 11.3056 15.7045C11.2623 15.9211 11.1521 16.1072 11.0007 16.2457Z" fill="black"/>
<path fill-rule="evenodd" clip-rule="evenodd" d="M28.8768 10.2184C29.3736 9.9771 29.9719 10.1842 30.2132 10.681C30.4335 11.1346 30.5776 11.5893 30.6973 11.9861C30.7159 12.0478 30.7339 12.1077 30.7514 12.1662C30.8522 12.5029 30.9385 12.7913 31.053 13.0776C31.2581 13.5903 31.0087 14.1723 30.4959 14.3774C29.9831 14.5825 29.4011 14.3331 29.196 13.8203C29.0452 13.4433 28.9303 13.0584 28.8308 12.725C28.8144 12.6698 28.7983 12.616 28.7826 12.564C28.6659 12.1773 28.5597 11.8543 28.4142 11.5548C28.1729 11.058 28.38 10.4597 28.8768 10.2184Z" fill="black"/>
<path fill-rule="evenodd" clip-rule="evenodd" d="M39.3163 9.50917C39.813 9.26787 40.4114 9.47499 40.6527 9.97177C41.2141 11.1277 41.462 12.3869 41.5605 13.5688C41.6064 14.1192 41.1974 14.6026 40.647 14.6484C40.0966 14.6943 39.6133 14.2853 39.5674 13.7349C39.481 12.6985 39.2707 11.7042 38.8536 10.8456C38.6124 10.3488 38.8195 9.75046 39.3163 9.50917Z" fill="black"/>
<path fill-rule="evenodd" clip-rule="evenodd" d="M41.8456 20.4858C42.2769 20.8308 42.3468 21.4601 42.0018 21.8913C41.0832 23.0396 39.8118 23.4849 38.5849 23.5922C37.3757 23.6979 36.1296 23.4854 35.1071 23.2448C34.5695 23.1183 34.2363 22.5799 34.3627 22.0423C34.4892 21.5047 35.0276 21.1714 35.5652 21.2979C36.5195 21.5225 37.5197 21.6777 38.4107 21.5998C39.2839 21.5234 39.9666 21.2338 40.44 20.6419C40.7851 20.2107 41.4143 20.1408 41.8456 20.4858Z" fill="black"/>
<path fill-rule="evenodd" clip-rule="evenodd" d="M20.6536 8.30621C20.4634 7.81143 19.916 7.54828 19.4072 7.71614C18.8827 7.88917 18.5978 8.45461 18.7708 8.97909C19.1744 10.2026 19.1197 11.5164 18.5442 12.6355C18.3926 12.9302 18.181 13.2284 17.9192 13.5646C17.8443 13.6607 17.761 13.7652 17.6739 13.8744C17.4819 14.1151 17.2714 14.379 17.0913 14.6291C17.0445 14.6941 16.9913 14.7648 16.9339 14.8411C16.5077 15.4079 15.8506 16.2816 15.8506 17.4189C15.8506 17.9522 15.9773 18.528 16.199 19.045C16.4184 19.5569 16.7659 20.0915 17.2704 20.4652C18.4037 21.3046 19.7357 21.5316 20.904 21.0892C22.0744 20.646 22.916 19.593 23.1887 18.2134C23.5929 16.1686 22.851 14.0438 22.2348 12.4771C22.1608 12.2888 22.0883 12.109 22.0186 11.9358C21.6105 10.9228 21.2944 10.1383 21.2944 9.23977C21.2944 8.81408 21.0284 8.45051 20.6536 8.30621ZM20.4253 13.3414C20.3925 13.4114 20.3583 13.481 20.3228 13.5502C20.0836 14.0153 19.7786 14.432 19.4971 14.7934C19.3896 14.9315 19.2895 15.0568 19.1947 15.1755C19.022 15.3917 18.8665 15.5864 18.7144 15.7977C18.6511 15.8856 18.5914 15.9678 18.5353 16.0451C18.0706 16.6849 17.8506 16.9878 17.8506 17.4189C17.8506 17.6548 17.9113 17.9633 18.0371 18.2569C18.1652 18.5555 18.3253 18.7576 18.4609 18.8581C19.1254 19.3503 19.7498 19.3877 20.1958 19.2188C20.6396 19.0508 21.0702 18.6169 21.2267 17.8255C21.4967 16.4597 21.0286 14.8947 20.4253 13.3414Z" fill="black"/>
<path fill-rule="evenodd" clip-rule="evenodd" d="M52.8447 21.9983C54.1645 21.5589 55.7376 22.213 57.0386 23.303C58.515 24.5399 59.0397 25.9412 59.2814 27.953C59.3473 28.5013 59.8452 28.8924 60.3936 28.8265C60.9419 28.7607 61.333 28.2627 61.2671 27.7144C60.99 25.4076 60.3258 23.4478 58.323 21.7699C56.8615 20.5455 54.5479 19.3233 52.2129 20.1007C49.8176 20.8983 48.3534 22.5715 47.291 24.4039C46.7635 25.3135 46.3244 26.2808 45.9191 27.2131C45.8253 27.429 45.7337 27.642 45.6433 27.8523L45.6432 27.8524C45.336 28.5668 45.0424 29.2495 44.7225 29.9035C44.4798 30.3996 44.6852 30.9985 45.1813 31.2412C45.6774 31.4839 46.2763 31.2784 46.519 30.7823C46.8626 30.08 47.1821 29.3368 47.4927 28.6144C47.5802 28.411 47.667 28.2091 47.7534 28.0104C48.1538 27.0891 48.555 26.211 49.0212 25.407C49.9458 23.8123 51.0812 22.5855 52.8447 21.9983ZM9.73623 30.0523C8.21914 29.7359 6.6271 29.7565 5.08732 30.3507C4.12147 30.7235 3.08521 31.3794 2.26818 32.2274C1.45653 33.0697 0.778655 34.1913 0.732158 35.4918C0.630113 38.3458 1.72961 40.3691 3.11287 42.4416C3.41946 42.901 4.0404 43.0248 4.49977 42.7183C4.95914 42.4117 5.08299 41.7907 4.7764 41.3314C3.45941 39.3581 2.65183 37.7741 2.73088 35.5633C2.75364 34.9267 3.09751 34.2491 3.70839 33.6151C4.31388 32.9867 5.10091 32.4893 5.80741 32.2166C6.9135 31.7897 8.10163 31.7544 9.3279 32.0102C11.2409 32.4092 13.0928 33.3223 14.2982 34.7312C14.362 34.8058 14.4551 34.9073 14.5471 35.0076L14.6344 35.103C14.7625 35.2435 14.8987 35.3954 15.0251 35.5481C15.154 35.7038 15.257 35.8414 15.3259 35.9521C15.3551 35.9991 15.3708 36.0296 15.3784 36.0453C15.4701 36.5595 15.9466 36.9211 16.4732 36.8626C17.0221 36.8015 17.4176 36.307 17.3565 35.7581C17.3167 35.4002 17.1436 35.0878 17.0241 34.8956C16.8872 34.6757 16.7205 34.4597 16.5656 34.2726C16.4081 34.0824 16.2462 33.9023 16.112 33.7551C16.0682 33.7071 16.0293 33.6647 15.9948 33.627L15.9947 33.627C15.9143 33.5393 15.8577 33.4775 15.8179 33.431C14.248 31.5959 11.9498 30.514 9.73623 30.0523ZM20.4675 48.585C20.5515 48.1936 20.9372 47.9443 21.3291 48.0282C23.1876 48.426 25.4183 49.4436 26.2012 51.6449C26.8929 53.5898 26.3229 55.8048 24.5464 57.0226C22.8416 58.1913 20.5385 58.4577 18.6082 57.6142C17.9714 57.3359 17.3374 56.8179 16.8348 56.2384C16.5257 55.8819 16.2412 55.4732 16.0309 55.0432C15.6207 55.2894 15.1375 55.4719 14.6912 55.6072C14.1085 55.7839 13.5138 55.9021 13.0632 55.9702C12.682 56.0279 11.9676 56.0781 11.3551 55.9395C11.0561 55.8718 10.6683 55.7348 10.3891 55.4231C10.0616 55.0577 9.99498 54.5838 10.1369 54.1148C10.3749 53.3284 10.8557 52.5315 11.4632 51.8815C12.0684 51.234 12.8487 50.6805 13.7183 50.4583C14.1065 50.3591 14.5017 50.593 14.6011 50.9808C14.7004 51.3686 14.4662 51.7634 14.0779 51.8626C13.5541 51.9965 13.0028 52.3585 12.5239 52.8708C12.0612 53.3658 11.7123 53.9526 11.5409 54.4866C11.573 54.4986 11.6169 54.5124 11.6759 54.5257C12.0366 54.6074 12.5471 54.5822 12.8458 54.537C13.2459 54.4765 13.7696 54.3717 14.2696 54.2201C14.7671 54.0692 15.1764 53.8909 15.4272 53.7057C15.4328 53.6971 15.4414 53.6832 15.4528 53.6627C15.468 53.6353 15.4817 53.6086 15.5003 53.5723L15.5122 53.5492L15.5129 53.5478L15.5129 53.5478C15.5327 53.5093 15.5669 53.4427 15.6064 53.3809L15.6088 53.3772C15.6343 53.3368 15.7393 53.171 15.936 53.0679C16.0656 52.9999 16.2501 52.9514 16.4587 52.9981C16.6545 53.042 16.7852 53.1508 16.8581 53.2291C16.9854 53.3659 17.0435 53.5253 17.0681 53.596C17.101 53.6904 17.1288 53.7981 17.1541 53.9115C17.2441 54.3161 17.5237 54.8187 17.9317 55.2892C18.338 55.7577 18.8055 56.1182 19.1898 56.2861C20.6424 56.9209 22.4167 56.7244 23.7252 55.8274C24.9033 55.0198 25.3289 53.5224 24.8337 52.1302C24.3102 50.6584 22.7332 49.8112 21.025 49.4456C20.6332 49.3617 20.3836 48.9764 20.4675 48.585ZM53.3477 38.3184C53.4703 38.2571 53.618 38.1784 53.7838 38.0901L53.7838 38.0901C54.3474 37.7898 55.1203 37.378 55.8299 37.1607C56.2979 37.0174 56.5489 37.0241 56.6368 37.0532C56.6487 37.0839 56.6743 37.1772 56.66 37.3761C56.6193 37.9452 56.2587 38.4331 55.6981 38.9542C55.5804 38.9897 55.4726 39.0371 55.3773 39.0946C55.2989 39.1419 55.2137 39.2053 55.1382 39.2886C55.0937 39.3378 54.9263 39.5274 54.9253 39.82C54.9247 40.006 54.9958 40.223 55.1805 40.3837C55.3446 40.5266 55.5242 40.5598 55.6259 40.5669C55.8174 40.5802 55.972 40.5196 56.0412 40.4895C56.1411 40.4461 56.2408 40.3856 56.3392 40.3132C57.215 40.2435 58.0183 40.5812 58.5208 41.1302C59.0402 41.6975 59.2613 42.5096 58.8767 43.4387C58.5755 44.1664 58.1685 44.9383 57.6538 45.5703C57.1377 46.2039 56.55 46.6528 55.8924 46.8249C55.1495 47.0192 54.3431 46.7357 53.463 46.107C52.7298 45.5833 52.0621 44.9068 51.4571 44.2937C51.339 44.1741 51.2233 44.0568 51.1099 43.9436C50.8266 43.6606 50.3671 43.6606 50.0838 43.9436C49.8004 44.2267 49.8004 44.6856 50.0838 44.9686C50.1828 45.0676 50.2882 45.1746 50.3995 45.2875L50.3999 45.288C51.0018 45.899 51.7734 46.6823 52.6188 47.2862C53.6168 47.999 54.8856 48.5867 56.2601 48.2272C57.317 47.9507 58.1474 47.2612 58.7795 46.4851C59.4129 45.7074 59.8843 44.7983 60.2178 43.9925C60.8251 42.5254 60.4776 41.1196 59.5918 40.152C59.0698 39.5817 58.3693 39.1712 57.5875 38.9783C57.8615 38.5538 58.0662 38.0579 58.1076 37.4794C58.1347 37.1001 58.0949 36.7294 57.9356 36.4053C57.7667 36.0616 57.4919 35.8293 57.1684 35.7041C56.5931 35.4814 55.9184 35.6174 55.4046 35.7747C54.5385 36.0399 53.5616 36.5627 53.0118 36.8569L53.0116 36.857C52.8806 36.9271 52.7739 36.9842 52.6987 37.0218C52.3402 37.2008 52.1949 37.6362 52.3742 37.9942C52.5534 38.3523 52.9892 38.4974 53.3477 38.3184Z" fill="black"/>
</svg>
