<svg width="57" height="71" viewBox="0 0 57 71" fill="none" xmlns="http://www.w3.org/2000/svg">
<path fill-rule="evenodd" clip-rule="evenodd" d="M24.6804 53.1953C24.6794 53.1915 24.6785 53.1875 24.6775 53.1833C24.6335 52.9911 24.6444 52.6338 24.7737 52.1785C24.8986 51.7387 25.1042 51.3144 25.3321 51.0111C25.5413 50.7328 25.6807 50.6679 25.7073 50.6556C25.713 50.6529 25.7135 50.6527 25.7083 50.6533C26.537 50.5573 27.1693 50.9782 27.6278 51.8333C28.1027 52.7191 28.2718 53.9043 28.1277 54.8179C28.0417 55.3634 28.4142 55.8754 28.9597 55.9615C29.5053 56.0475 30.0173 55.675 30.1033 55.1295C30.3114 53.8098 30.083 52.1801 29.3905 50.8884C28.6815 49.566 27.3766 48.4467 25.4782 48.6665C24.6892 48.7579 24.1031 49.3174 23.7332 49.8096C23.3371 50.3368 23.0318 50.9912 22.8498 51.6321C22.6722 52.2575 22.58 52.9828 22.7278 53.6291C22.8039 53.9618 22.955 54.3211 23.2396 54.619C23.5368 54.93 23.9249 55.1158 24.3592 55.1676C24.9076 55.233 25.4052 54.8415 25.4706 54.2931C25.5326 53.7732 25.184 53.299 24.6804 53.1953Z" fill="black"/>
<path fill-rule="evenodd" clip-rule="evenodd" d="M29.3237 66.1949C29.4344 65.6539 29.9628 65.305 30.5039 65.4157C32.0096 65.7238 33.1124 65.2968 34.7377 64.5117C35.112 64.3308 35.7915 63.9477 36.2815 63.4977C36.5286 63.2708 36.6658 63.0824 36.7223 62.952C36.7597 62.8659 36.7477 62.8498 36.7421 62.8425C36.7415 62.8416 36.7409 62.8408 36.7405 62.84C36.6668 62.694 36.4558 62.5146 35.8543 62.3931C35.5762 62.337 35.2706 62.3045 34.9462 62.2789C34.8538 62.2717 34.7542 62.2646 34.6522 62.2574C34.4271 62.2415 34.1901 62.2247 33.9921 62.2026C33.9926 62.2027 33.9923 62.2026 33.9911 62.2026C33.9851 62.2022 33.9578 62.2005 33.8996 62.1996C33.8362 62.1987 33.7594 62.1991 33.6703 62.2C33.6396 62.2003 33.6069 62.2007 33.573 62.2011C33.4242 62.2029 33.2506 62.205 33.1092 62.2018C33.0259 62.1999 32.9144 62.1956 32.8091 62.1812C32.7626 62.1749 32.6647 62.16 32.5553 62.1214C32.5016 62.1024 32.3993 62.0621 32.2893 61.9832C32.1835 61.9074 31.9857 61.7339 31.901 61.4285C31.808 61.0928 31.9066 60.8044 32.0131 60.6298C32.1078 60.4746 32.2218 60.3814 32.2773 60.3395C32.3914 60.2536 32.5038 60.2052 32.5529 60.1848C32.6703 60.1361 32.8092 60.0948 32.9442 60.0587C34.2898 59.6981 35.2953 59.3231 36.0626 58.4655C36.3192 58.1787 36.7541 57.6653 37.0112 57.1669C37.1252 56.946 37.1689 56.7939 37.1799 56.7087C36.8059 56.4376 36.221 56.2887 35.4257 56.248C34.8487 56.2185 34.2905 56.2467 33.7328 56.2749C33.4812 56.2876 33.2297 56.3003 32.9766 56.3077C31.9086 56.339 30.9121 56.7285 29.7508 57.1824C29.7207 57.1942 29.6905 57.2061 29.6601 57.2179C29.1457 57.4189 28.5657 57.1648 28.3647 56.6504C28.1638 56.136 28.4179 55.556 28.9323 55.355C28.9945 55.3308 29.0574 55.3061 29.1211 55.2811C30.2007 54.8574 31.4932 54.3503 32.9181 54.3086C33.0921 54.3035 33.2952 54.2933 33.5177 54.2822C34.1119 54.2524 34.8442 54.2157 35.5278 54.2506C36.4745 54.299 37.5978 54.4865 38.4696 55.1772C39.0069 55.603 39.2003 56.189 39.1816 56.7431C39.1646 57.2457 38.9781 57.7165 38.7887 58.0838C38.4055 58.8266 37.819 59.5018 37.553 59.7991C37.2947 60.0879 37.0208 60.3371 36.736 60.5541C37.3951 60.7547 38.1231 61.1402 38.5262 61.9393C38.8479 62.5771 38.7864 63.2189 38.5574 63.7473C38.3431 64.2419 37.9799 64.6534 37.6342 64.9709C36.9385 65.6096 36.0623 66.0929 35.6076 66.3125C33.9441 67.1162 32.3092 67.8266 30.1029 67.3751C29.5619 67.2644 29.213 66.736 29.3237 66.1949Z" fill="black"/>
<path fill-rule="evenodd" clip-rule="evenodd" d="M20.4319 69.6057C20.2611 69.0805 20.5485 68.5163 21.0737 68.3455C24.059 67.3748 26.8087 66.1223 29.5575 64.5721C30.0385 64.3008 30.6484 64.4709 30.9197 64.952C31.191 65.433 31.021 66.0429 30.5399 66.3142C27.6917 67.9204 24.8204 69.2303 21.6921 70.2475C21.1669 70.4182 20.6027 70.1309 20.4319 69.6057Z" fill="black"/>
<path fill-rule="evenodd" clip-rule="evenodd" d="M53.8243 2.32799C52.4388 1.28434 50.5807 0.733871 48.9304 0.658664C48.4693 0.63765 48.0785 0.994419 48.0575 1.45553C48.0365 1.91664 48.3932 2.30748 48.8543 2.32849C50.2359 2.39145 51.7517 2.85951 52.8185 3.66314C53.0698 3.85239 53.4645 4.19056 53.727 4.53907C53.8593 4.71471 53.9201 4.84378 53.9393 4.91867L53.9403 4.92267C53.8516 5.0409 53.6973 5.17409 53.4452 5.31642C53.1718 5.4708 52.8333 5.60854 52.4424 5.74593C52.2074 5.82855 52.0088 5.89312 51.8038 5.95975L51.8038 5.95976C51.6275 6.01706 51.4465 6.07588 51.2337 6.14901C50.8366 6.28548 50.4144 6.44517 50.0547 6.65004C49.5106 6.95996 49.0972 7.34477 48.8411 7.81883C48.5825 8.29742 48.5231 8.79516 48.5673 9.26067C48.6423 10.0508 49.0393 10.8601 49.3458 11.4851L49.3458 11.4851L49.346 11.4854C49.3735 11.5414 49.4002 11.5959 49.4259 11.6488C49.6278 12.0639 50.1279 12.2368 50.543 12.035C50.9582 11.8331 51.131 11.333 50.9292 10.9179L50.8968 10.8513L50.8968 10.8513C50.5411 10.1201 50.2763 9.57563 50.2313 9.10264C50.2115 8.89403 50.242 8.74233 50.3117 8.61339C50.3838 8.47991 50.5369 8.29909 50.8821 8.10249C51.098 7.9795 51.3954 7.86097 51.777 7.72983C51.914 7.68274 52.0895 7.62523 52.2749 7.56449L52.275 7.56447C52.5205 7.48404 52.7833 7.39794 52.9968 7.3229C53.4178 7.17489 53.8654 6.99882 54.2671 6.77198C54.6663 6.54655 55.0718 6.24274 55.3565 5.81392C55.647 5.37623 55.6603 4.90083 55.5586 4.50375C55.4625 4.12868 55.2602 3.79629 55.0622 3.53337C54.664 3.00477 54.1288 2.55743 53.8243 2.32799ZM48.7276 14.7375C48.3713 14.444 47.8446 14.4949 47.5511 14.8512C47.2577 15.2075 47.3086 15.7342 47.6649 16.0277L48.1252 16.4069C48.4815 16.7004 49.0082 16.6495 49.3017 16.2932C49.5951 15.9369 49.5442 15.4102 49.188 15.1167L48.7276 14.7375Z" fill="black"/>
<path fill-rule="evenodd" clip-rule="evenodd" d="M26.1836 12.0236C33.254 11.7535 39.8655 13.7884 44.6188 19.6186C48.4963 24.3747 50.0196 30.9687 48.2968 37.0336C46.6612 42.7918 42.1123 47.9723 37.1963 50.8188C30.2894 54.818 22.8772 54.716 15.6497 52.339C8.86365 50.1072 1.93097 44.6338 0.968399 36.6956C0.953495 36.6951 0.938531 36.6943 0.923516 36.6931C0.372851 36.6508 -0.0392865 36.1702 0.00298132 35.6195C1.08383 21.5382 13.3358 12.5143 26.1836 12.0236ZM2.22126 33.8741C2.59237 34.0203 2.85502 34.3819 2.85502 34.805C2.85502 42.5216 9.35223 48.1625 16.2745 50.4391C23.1208 52.6908 29.91 52.7266 36.1941 49.088C40.7341 46.4592 44.9007 41.6699 46.3729 36.4871C47.9093 31.0782 46.552 25.1551 43.0686 20.8824C38.8134 15.663 32.8824 13.7691 26.2599 14.0221C14.8033 14.4597 4.10975 22.0917 2.22126 33.8741Z" fill="black"/>
<path fill-rule="evenodd" clip-rule="evenodd" d="M31.0151 26.0046C31.629 25.9494 32.1719 26.3966 32.2277 27.0034C32.2527 27.2752 32.2692 27.5247 32.2851 27.7662C32.3105 28.1514 32.3345 28.516 32.3897 28.9179C32.4748 29.5363 32.6109 29.9859 32.8124 30.2848C33.1544 30.7917 33.0158 31.4766 32.5029 31.8146C31.99 32.1526 31.297 32.0156 30.9551 31.5086C30.4703 30.7899 30.2775 29.9401 30.1778 29.215C30.1143 28.7528 30.0784 28.2266 30.048 27.7824C30.0331 27.5636 30.0195 27.3647 30.0047 27.2031C29.9488 26.5964 30.4013 26.0598 31.0151 26.0046Z" fill="black"/>
<path fill-rule="evenodd" clip-rule="evenodd" d="M40.2201 25C40.894 25 41.4403 25.4495 41.4403 26.0039C41.4403 27.0871 41.472 27.7766 41.901 28.6003C42.1665 29.11 41.8796 29.7002 41.2602 29.9186C40.6408 30.137 39.9235 29.9009 39.6581 29.3913C39.0155 28.1576 39 27.102 39 26.0039C39 25.4495 39.5463 25 40.2201 25Z" fill="black"/>
<path fill-rule="evenodd" clip-rule="evenodd" d="M36.9277 45.8955C37.5276 45.7399 37.8098 45.786 38.0335 45.8625C38.1807 45.9128 38.3461 45.9933 38.5761 46.1254C38.6904 46.191 38.8106 46.2634 38.9498 46.3474L38.9593 46.3532C39.0933 46.434 39.2422 46.5238 39.4028 46.6172C39.8749 46.8917 40.5127 46.7804 40.8274 46.3687C41.1421 45.957 41.0145 45.4007 40.5425 45.1262C40.3966 45.0414 40.2601 44.9591 40.1232 44.8765L40.1186 44.8737C39.9829 44.7919 39.8432 44.7076 39.706 44.6288C39.4328 44.4719 39.1281 44.3121 38.7835 44.1943C38.0286 43.9361 37.2482 43.9345 36.282 44.1938C35.8731 44.3036 35.5487 44.5486 35.3338 44.7408C35.0968 44.9527 34.8799 45.2041 34.6977 45.4537C34.5146 45.7045 34.3504 45.9756 34.2285 46.2368C34.1171 46.4756 34 46.7911 34 47.1041C34 47.5989 34.4599 48 35.0273 48C35.5939 48 36.0533 47.5999 36.0545 47.106C36.0545 47.1118 36.0545 47.1147 36.0548 47.1147C36.0564 47.1149 36.0668 47.0508 36.1314 46.9124C36.2008 46.7637 36.3051 46.5883 36.4307 46.4161C36.5573 46.2428 36.6893 46.095 36.8047 45.9919C36.8706 45.9329 36.9121 45.9055 36.9277 45.8955Z" fill="black"/>
</svg>
