<svg width="67" height="71" viewBox="0 0 67 71" fill="none" xmlns="http://www.w3.org/2000/svg">
<path fill-rule="evenodd" clip-rule="evenodd" d="M62.1214 3.93484C61.0296 4.09715 60.1076 4.67469 59.1413 5.56552C59.1199 5.58518 59.0939 5.60878 59.0642 5.63575C58.9007 5.78413 58.6249 6.03439 58.4004 6.28956C58.4265 6.47202 58.4093 6.66784 58.3417 6.85835C58.145 7.41209 57.5963 7.7112 57.1161 7.52643C56.8713 7.43221 56.5742 7.21952 56.4414 6.79882C56.3188 6.41043 56.4037 6.05077 56.4755 5.84622C56.6104 5.4617 56.8734 5.12935 57.0444 4.9286C57.3825 4.53166 57.8145 4.14239 57.9658 4.00605C57.9852 3.98854 58 3.9752 58.0094 3.96656C59.1393 2.92492 60.4075 2.07578 61.9982 1.83931C62.7146 1.73283 63.4614 1.89184 63.8604 2.63845C64.1983 3.27088 64.1059 4.03017 63.9891 4.53911C63.8606 5.09882 63.6309 5.66264 63.3986 6.12631C63.1719 6.57885 62.8981 7.02465 62.6397 7.31802C62.2625 7.74628 61.6679 7.77188 61.3115 7.37519C60.9552 6.97849 60.972 6.30973 61.3492 5.88147C61.4248 5.7957 61.5936 5.54808 61.7762 5.18369C61.9532 4.83044 62.0994 4.45383 62.1714 4.14039C62.1922 4.0496 62.2036 3.97855 62.2098 3.92435C62.1845 3.92647 62.1552 3.92982 62.1214 3.93484ZM62.3496 3.92929C62.3491 3.92977 62.344 3.92886 62.3357 3.9251C62.346 3.92693 62.3501 3.92881 62.3496 3.92929Z" fill="black"/>
<path fill-rule="evenodd" clip-rule="evenodd" d="M55.3907 4.68992C54.6555 4.41762 53.9975 4.79864 53.762 5.46263C53.6896 5.6666 53.6434 6.06798 53.6723 6.60373C53.6998 7.11367 53.7878 7.61302 53.8844 7.94399C53.9375 8.12601 54.0009 8.25726 54.089 8.41123C54.1084 8.44522 54.134 8.48817 54.1637 8.53786C54.2494 8.68164 54.3689 8.88189 54.4699 9.08516C54.7156 9.57975 54.5444 10.2321 54.0873 10.5422C53.6303 10.8522 53.0606 10.7027 52.8149 10.2081C52.7488 10.0751 52.6952 9.98559 52.6268 9.87149C52.5874 9.80577 52.5431 9.73189 52.4887 9.63682C52.3524 9.39835 52.2095 9.11432 52.0949 8.72191C51.9458 8.2107 51.8326 7.53788 51.7966 6.87119C51.762 6.2303 51.79 5.45057 52.0227 4.79448C52.7104 2.85522 54.5516 2.10997 56.0836 2.67736C57.3554 3.1484 57.8689 4.48112 58.1494 5.39001C58.3159 5.92922 58.0524 6.54765 57.5609 6.7713C57.0694 6.99495 56.5361 6.73914 56.3696 6.19992C56.0997 5.32533 55.8108 4.84552 55.3907 4.68992Z" fill="black"/>
<path fill-rule="evenodd" clip-rule="evenodd" d="M25.0585 30.8013C24.9178 31.0634 24.8377 31.5104 24.8759 31.9034C24.9465 32.6305 25.2908 33.3213 25.8321 33.9681C26.3726 34.6142 27.0695 35.1676 27.7507 35.6137C27.8249 35.6623 27.9092 35.7212 28.002 35.7859C28.2363 35.9495 28.5246 36.1508 28.8403 36.3193C28.9427 36.374 29.0268 36.4129 29.0926 36.4397C29.3824 36.284 29.7304 36.2738 30.0196 36.4445C30.4768 36.7145 30.6136 37.3345 30.3252 37.8294C29.8954 38.5667 29.1572 38.5597 28.8329 38.5082C28.4767 38.4516 28.1279 38.2907 27.8626 38.1491C27.435 37.9208 26.9699 37.5951 26.7487 37.4402C26.696 37.4032 26.6571 37.376 26.6359 37.3622C25.87 36.8606 25.0173 36.1955 24.3221 35.3646C23.6276 34.5346 23.0498 33.49 22.928 32.2357C22.8593 31.5281 22.9705 30.6261 23.3645 29.8921C23.5681 29.5128 23.8777 29.1246 24.3286 28.8747C24.7965 28.6155 25.3159 28.5615 25.8321 28.6883C26.5834 28.8729 27.2484 29.2811 27.8067 29.6967C28.2139 29.9999 28.6149 30.3479 28.964 30.6508C29.0866 30.7572 29.2028 30.858 29.3106 30.9494C29.7169 31.2937 29.7571 31.9347 29.4004 32.381C29.0438 32.8274 28.4253 32.9101 28.0191 32.5658C27.8787 32.4468 27.7425 32.3287 27.6082 32.2122C27.2751 31.9232 26.953 31.6436 26.6036 31.3835C26.1214 31.0245 25.6813 30.7781 25.2704 30.6771C25.2063 30.6614 25.1723 30.6629 25.1584 30.6654C25.1496 30.6718 25.1108 30.7038 25.0585 30.8013ZM25.1507 30.6679C25.1505 30.6676 25.1526 30.6665 25.1575 30.6656C25.1533 30.6677 25.1509 30.6682 25.1507 30.6679Z" fill="black"/>
<path fill-rule="evenodd" clip-rule="evenodd" d="M31.2263 28.0201C31.1517 28.0959 31.0799 28.1789 31.0133 28.2606C30.5923 28.7771 30.2251 29.542 30.0733 30.2297C30.0597 30.2911 30.0371 30.4066 30.0146 30.5415C30.4276 30.8744 30.4834 31.5109 30.1386 31.9653C30.0298 32.1088 29.8613 32.3099 29.6334 32.4511C29.5106 32.5271 29.3182 32.6185 29.0774 32.6288C28.8136 32.64 28.5757 32.5497 28.3951 32.3953C28.0972 32.1407 28.0336 31.7838 28.0152 31.6725C27.988 31.5083 27.9856 31.3437 27.989 31.2137C28.0022 30.7095 28.1267 30.0742 28.1667 29.893C28.39 28.8819 28.9053 27.7948 29.5557 26.9968C29.7319 26.7807 30.0308 26.4369 30.4041 26.1752C30.7698 25.9189 31.3974 25.6148 32.0854 25.876C32.6204 26.0791 32.9017 26.5704 33.0339 26.8334C33.1558 27.0758 33.2561 27.3538 33.3154 27.5177C33.328 27.5528 33.3388 27.5826 33.3475 27.6058C33.6599 28.4373 34.0317 29.5212 34.0959 30.6012C34.2654 33.4528 32.9946 35.8344 31.4149 37.7835C31.0552 38.2273 30.4365 38.3052 30.0329 37.9576C29.6293 37.6099 29.5938 36.9684 29.9534 36.5246C31.3567 34.7931 32.2664 32.9494 32.1419 30.8557C32.0978 30.1139 31.8291 29.28 31.5184 28.4529C31.496 28.3933 31.4757 28.3375 31.4565 28.2847C31.4089 28.154 31.3679 28.0413 31.3178 27.9324C31.2891 27.9581 31.2585 27.9874 31.2263 28.0201ZM28.6004 30.8025C28.6004 30.8024 28.6023 30.8003 28.6059 30.7966C28.6022 30.8008 28.6004 30.8027 28.6004 30.8025Z" fill="black"/>
<path fill-rule="evenodd" clip-rule="evenodd" d="M38.2607 21.1588C38.2523 21.1838 38.2429 21.2166 38.2334 21.259C38.0941 21.8753 38.2326 22.5917 38.605 23.3957C38.9735 24.1912 39.5107 24.9461 40.0034 25.6112C40.472 26.2438 40.962 26.7603 41.5531 27.2861C41.5915 27.3202 41.7755 27.4858 41.9128 27.6295C41.948 27.6663 41.9917 27.7137 42.0329 27.7647C42.0534 27.7899 42.0817 27.8265 42.1107 27.8707C42.1315 27.9025 42.1911 27.995 42.2333 28.1258L42.2338 28.1275C42.2509 28.1803 42.4284 28.7271 41.9841 29.205C41.7745 29.4304 41.5363 29.5042 41.3972 29.5283C41.2597 29.5522 41.1494 29.541 41.0916 29.5326C40.9127 29.5065 40.7662 29.4293 40.7254 29.4078C40.7236 29.4068 40.722 29.406 40.7206 29.4053C40.5232 29.3021 40.3795 29.1347 40.2988 28.9377C40.2672 28.9086 40.2416 28.8854 40.229 28.8742C39.5624 28.2812 38.9827 27.6737 38.4259 26.922C37.9333 26.257 37.2903 25.3662 36.8317 24.3761C36.377 23.3944 36.0415 22.1853 36.3292 20.9118C36.4715 20.282 36.7902 19.7088 37.3556 19.3769C37.8873 19.0648 38.4414 19.0839 38.8515 19.1707C39.6561 19.3411 40.4261 19.8791 40.8569 20.2577C41.7222 21.0181 42.3753 21.863 42.9704 22.7925C43.2616 23.2473 43.1284 23.886 42.6729 24.2191C42.2174 24.5523 41.6121 24.4536 41.3209 23.9988C40.7862 23.1635 40.2396 22.467 39.5409 21.8531C39.2061 21.5588 38.7121 21.2499 38.3466 21.1725C38.3114 21.1651 38.2831 21.161 38.2607 21.1588ZM38.2916 21.0892C38.2918 21.0894 38.2902 21.0922 38.2866 21.0966C38.2897 21.0911 38.2915 21.0889 38.2916 21.0892ZM41.6848 27.5684C41.683 27.5675 41.6813 27.5666 41.6795 27.5657C41.7011 27.5752 41.7047 27.5788 41.6848 27.5684Z" fill="black"/>
<path fill-rule="evenodd" clip-rule="evenodd" d="M43.6322 20.4002C43.6314 20.4012 43.6306 20.4023 43.6299 20.4033C43.4243 20.6833 43.134 21.1419 42.9571 21.5858C42.7754 22.0416 42.8226 22.1939 42.8186 22.1956C42.818 22.1958 42.8163 22.1929 42.8127 22.1872C43.1039 22.642 42.9706 23.2807 42.5152 23.6138C42.0597 23.9469 41.4544 23.8483 41.1632 23.3935C40.622 22.5482 40.9158 21.5088 41.1561 20.9061C41.4277 20.2249 41.8332 19.5966 42.1036 19.2284C42.2127 19.0798 42.4056 18.8438 42.6376 18.6353C42.7536 18.5309 42.907 18.4084 43.0872 18.3102C43.258 18.2171 43.5376 18.0995 43.8697 18.1261C44.9774 18.215 45.3944 19.2521 45.5264 19.7601C45.7309 20.5475 45.6701 21.4313 45.6264 22.0674C45.619 22.1752 45.6121 22.2759 45.607 22.3679C45.5523 23.3612 45.3735 24.372 45.1494 25.3018C44.6735 27.2757 43.5425 28.6473 42.2456 29.8259C41.8254 30.2077 41.2091 30.1809 40.8689 29.7662C40.5287 29.3514 40.5935 28.7057 41.0137 28.3239C42.1505 27.2908 42.9236 26.2875 43.2524 24.9238C43.4557 24.0806 43.6071 23.2056 43.6526 22.3801C43.6604 22.2388 43.6688 22.1047 43.6768 21.977C43.7174 21.3292 43.7477 20.8448 43.6344 20.4085C43.6337 20.4057 43.6329 20.4029 43.6322 20.4002Z" fill="black"/>
<path fill-rule="evenodd" clip-rule="evenodd" d="M44.6998 37.5435C45.2222 37.3645 45.7583 37.6527 45.8972 38.1872C46.1537 39.1744 46.3333 40.2548 46.1225 41.3004C45.8969 42.4191 45.2516 43.3758 44.1147 44.1047C42.8875 44.8915 41.6633 44.9395 40.587 44.5531C39.5522 44.1815 38.6788 43.4222 38.0019 42.6234C37.6554 42.2144 37.7109 41.5684 38.1259 41.1803C38.5408 40.7923 39.1581 40.8092 39.5046 41.2182C40.0709 41.8865 40.6998 42.3927 41.3274 42.6181C41.9135 42.8285 42.5118 42.8048 43.1679 42.384C43.8544 41.9439 44.1107 41.4838 44.2076 41.0032C44.3193 40.4494 44.2422 39.7478 44.0052 38.8356C43.8663 38.3011 44.1773 37.7226 44.6998 37.5435Z" fill="black"/>
<path fill-rule="evenodd" clip-rule="evenodd" d="M19.0795 15.5976C22.9534 13.2569 27.2377 11.4122 31.6994 10.8366C35.302 10.3719 38.6605 11.2335 41.8281 12.4983C47.6605 14.8272 52.6476 20.6092 53.7944 27.365C55.0213 34.5925 52.8741 41.2257 48.6567 46.9346C40.0349 58.6054 22.4524 63.0267 11.7127 53.1306C7.62783 49.3666 4.66702 43.4011 5.18057 37.1585C5.29492 35.7685 5.54039 34.441 5.8977 33.1722C5.72238 33.199 5.54097 33.1771 5.37274 33.0989C4.8912 32.8751 4.7 32.2742 4.94569 31.7568C6.52402 28.433 8.17417 25.6109 10.6124 22.7818C13.0174 19.9911 16.0055 17.455 19.0795 15.5976ZM15.2756 20.8193C15.3005 20.8429 15.3244 20.8682 15.3471 20.8952C15.6924 21.3053 15.635 21.9513 15.2191 22.3381C10.8849 26.3684 7.62681 31.1776 7.13102 37.2043C6.68025 42.6838 9.29784 48.0968 13.0603 51.5637C22.8182 60.5552 39.0908 56.6423 47.1342 45.7545C51.0583 40.4427 52.9798 34.405 51.866 27.8431C50.8408 21.8041 46.3205 16.5239 41.0289 14.411C37.9884 13.1969 34.967 12.4562 31.8175 12.8625C27.7107 13.3922 23.696 15.1018 19.9787 17.3479C18.3613 18.3252 16.7645 19.5069 15.2756 20.8193Z" fill="black"/>
<path fill-rule="evenodd" clip-rule="evenodd" d="M61.2204 8.17276C60.9746 7.67817 61.1459 7.02584 61.6029 6.71576C62.0418 6.41801 62.8702 6.0598 63.6523 6.02586C64.0496 6.00862 64.5503 6.06979 64.975 6.39856C65.4419 6.75993 65.6829 7.33876 65.7017 8.02481C65.7364 9.28753 65.1579 10.2161 64.4481 10.8205C63.7762 11.3925 62.9619 11.7064 62.3246 11.8789C61.8134 12.0172 61.3268 11.6696 61.2376 11.1024C61.1485 10.5353 61.4907 9.96343 62.0019 9.8251C62.5208 9.68469 63.0289 9.46399 63.379 9.16588C63.6912 8.90008 63.8343 8.62288 63.8235 8.2304C63.8226 8.19721 63.8204 8.17359 63.818 8.15737C63.7855 8.1472 63.718 8.13313 63.5996 8.13827C63.4154 8.14627 63.191 8.19807 62.9677 8.27937C62.7418 8.36161 62.57 8.45455 62.4929 8.50686C62.0358 8.81694 61.4661 8.66736 61.2204 8.17276ZM63.811 8.12689C63.8111 8.12667 63.812 8.12844 63.8132 8.13288C63.8115 8.12934 63.8109 8.12712 63.811 8.12689Z" fill="black"/>
<path fill-rule="evenodd" clip-rule="evenodd" d="M54.4747 8.26192C54.8256 8.66476 54.8001 9.33382 54.4179 9.75631C53.3693 10.9151 52.3484 12.0881 51.3192 13.2707C51.0392 13.5925 50.7585 13.915 50.4765 14.2381C50.4753 14.2553 50.4738 14.2716 50.472 14.2871C50.4622 14.3745 50.4445 14.4476 50.4286 14.5015C50.398 14.6053 50.36 14.685 50.3367 14.7303C50.3112 14.7798 50.2863 14.8206 50.2672 14.8502C50.2474 14.8809 50.2284 14.9081 50.2118 14.9308C50.1791 14.9756 50.1459 15.0169 50.1166 15.052C50.0579 15.1221 49.9916 15.1949 49.9263 15.2639C49.7943 15.4031 49.6349 15.5599 49.4782 15.7074C49.3214 15.8548 49.1564 16.0031 49.0119 16.1238C48.9404 16.1835 48.8652 16.2438 48.7936 16.2959C48.7578 16.322 48.7155 16.3515 48.6699 16.3798C48.6467 16.3942 48.6188 16.4106 48.5875 16.4272C48.5574 16.4432 48.5152 16.464 48.4647 16.4835C48.4388 16.4934 48.4068 16.5046 48.37 16.5146C48.3337 16.5246 48.2864 16.5352 48.2311 16.5414C48.1767 16.5476 48.1031 16.5508 48.018 16.539C47.9324 16.5271 47.8235 16.4983 47.7102 16.4314C47.5929 16.3621 47.4841 16.2593 47.4002 16.1216C47.3176 15.9861 47.2759 15.8442 47.2577 15.7198C47.2399 15.5986 47.2441 15.4925 47.2528 15.414C47.2615 15.3349 47.2766 15.2683 47.2902 15.2187C47.3165 15.1228 47.3492 15.0477 47.3703 15.003C47.3931 14.9545 47.4158 14.9135 47.434 14.8823C47.4699 14.8209 47.5078 14.7652 47.5402 14.7198C47.6057 14.628 47.6876 14.5243 47.7809 14.4117C47.8764 14.2964 47.9936 14.16 48.1344 14.0004C48.752 13.3008 49.3723 12.5881 49.9956 11.872C51.0378 10.6746 52.0882 9.46789 53.1472 8.2975C53.5295 7.87501 54.1239 7.85908 54.4747 8.26192ZM48.6238 14.5207C48.6386 14.5282 48.6536 14.5364 48.6687 14.5454C48.6735 14.5482 48.6783 14.5511 48.683 14.554L49.0158 15.129C48.9305 15.0717 48.8472 14.993 48.7767 14.8888C48.7043 14.7816 48.6581 14.6664 48.6314 14.5551C48.6287 14.5436 48.6261 14.5321 48.6238 14.5207Z" fill="black"/>
<path fill-rule="evenodd" clip-rule="evenodd" d="M63.0563 9.58242C63.0572 9.58374 63.058 9.58497 63.0587 9.58612C63.242 9.86761 63.2721 10.2291 63.168 10.5503C63.1682 10.5512 63.1683 10.5521 63.1685 10.5531L63.1686 10.5537C63.2097 10.7732 63.2658 10.9635 63.3371 11.205C63.3695 11.3148 63.405 11.4352 63.4437 11.5737C63.5543 11.9702 63.6738 12.4718 63.6627 13.0481C63.6376 14.3539 62.9438 15.3087 62.0762 15.7721C61.2526 16.2119 60.2559 16.227 59.4553 15.7673C59.0061 15.5094 58.8525 14.8758 59.1123 14.3521C59.3721 13.8284 59.9468 13.613 60.396 13.8709C60.6837 14.0361 61.0697 14.0307 61.3648 13.8731C61.6158 13.739 61.7768 13.5196 61.784 13.1431C61.7885 12.9127 61.7421 12.6671 61.6472 12.3269C61.6276 12.2568 61.604 12.1767 61.5782 12.0894C61.496 11.8109 61.3919 11.4583 61.3285 11.119C61.3282 11.1173 61.3277 11.1148 61.3271 11.1116C61.3167 11.0568 61.265 10.7846 61.2452 10.5521C61.2397 10.4874 61.2341 10.3982 61.2366 10.3022C61.2366 10.3007 61.2367 10.299 61.2367 10.297C61.2379 10.2426 61.2434 9.99873 61.3624 9.74399C61.4369 9.58455 61.6122 9.30492 61.9477 9.17376C62.2791 9.04417 62.549 9.14513 62.6796 9.21682C62.896 9.33556 63.021 9.52803 63.0563 9.58242Z" fill="black"/>
<path fill-rule="evenodd" clip-rule="evenodd" d="M57.1635 54.5304C57.4974 55.4882 57.7868 56.4648 57.9755 57.4285C58.0831 57.9783 58.5996 58.322 59.1291 58.1962C59.6587 58.0704 60.0007 57.5228 59.8931 56.9731C59.6626 55.7961 59.3067 54.6363 58.9199 53.5516C58.8165 53.2616 58.6817 52.9648 58.4878 52.7211C58.2813 52.4615 57.9698 52.2191 57.5418 52.1731C57.1396 52.1299 56.8 52.2797 56.569 52.4215C56.3359 52.5646 56.1228 52.7554 55.9369 52.9407C55.4632 53.4127 55.0943 54.1707 54.82 54.8449C54.528 55.5624 54.2761 56.3595 54.0859 57.0461C53.8974 57.7268 53.7583 58.3401 53.7018 58.6939C53.6885 58.7771 53.6731 58.8858 53.6689 58.9891C53.6689 58.9899 53.6689 58.9909 53.6688 58.9919C53.6674 59.0264 53.6618 59.1597 53.697 59.3115L53.6973 59.3126C53.7104 59.3689 53.7691 59.6221 53.9952 59.8302C54.1311 59.9553 54.3214 60.0569 54.5533 60.0763C54.7743 60.0948 54.9553 60.0322 55.0732 59.9717C55.2801 59.8653 55.3966 59.7128 55.4272 59.6725C55.4745 59.6104 55.5067 59.5543 55.5244 59.522C55.5606 59.4556 55.5876 59.3922 55.6048 59.3499C55.6413 59.2596 55.6785 59.1512 55.7156 59.035C55.7774 58.8416 55.7814 58.6439 55.7376 58.4622C55.7947 58.2129 55.8711 57.9069 55.9648 57.5688C56.1415 56.9306 56.3682 56.2189 56.6183 55.604C56.8287 55.087 57.0199 54.7306 57.1635 54.5304Z" fill="black"/>
<path fill-rule="evenodd" clip-rule="evenodd" d="M41.2241 58.6009C41.1702 58.0413 41.5624 57.531 42.1001 57.4611C43.496 57.2797 45.0258 57.4612 46.3704 57.6207C46.5667 57.644 46.7591 57.6669 46.9465 57.688C49.0994 57.9311 51.2335 58.0693 53.3929 58.2091C53.7258 58.2307 54.0592 58.2523 54.3934 58.2743C54.9317 58.3098 55.3299 58.7948 55.2828 59.3576C55.2357 59.9205 54.7611 60.348 54.2228 60.3125C53.8922 60.2907 53.5609 60.2693 53.229 60.2478C51.0726 60.1082 48.8899 59.967 46.6894 59.7185C46.486 59.6956 46.2846 59.672 46.0854 59.6486C44.7131 59.4879 43.4405 59.3388 42.2951 59.4876C41.7575 59.5575 41.2779 59.1605 41.2241 58.6009Z" fill="black"/>
<path fill-rule="evenodd" clip-rule="evenodd" d="M59.9622 58.0586C60.1844 57.9455 60.542 57.8253 60.9533 57.7581C61.3882 57.6871 61.7932 57.6902 62.0854 57.7635C62.3768 57.8366 62.4167 57.9363 62.4215 57.9482L62.4216 57.9484C62.5332 58.2264 62.4847 58.3361 62.4637 58.3799C62.4208 58.4693 62.2993 58.6173 62.0143 58.7826C61.4356 59.1185 60.5845 59.2942 60.0468 59.3298C59.5068 59.3655 59.0862 59.8507 59.1072 60.4135C59.1283 60.9763 59.5831 61.4037 60.123 61.368C60.82 61.3219 61.9966 61.1053 62.9331 60.5619C63.4058 60.2876 63.9138 59.8742 64.2092 59.2583C64.5265 58.5969 64.525 57.8575 64.2292 57.1205C63.9031 56.308 63.2043 55.9322 62.5863 55.7771C61.9673 55.6219 61.2875 55.6441 60.697 55.7406C60.1055 55.8371 59.5139 56.023 59.0592 56.2692C58.8414 56.3872 58.5809 56.5583 58.3793 56.8015C58.1732 57.0502 57.8967 57.5629 58.1354 58.1575C58.3423 58.6731 58.9147 58.9057 59.4139 58.6771C59.6811 58.5547 59.8732 58.3248 59.9622 58.0586Z" fill="black"/>
<path fill-rule="evenodd" clip-rule="evenodd" d="M59.1391 59.6254C59.2197 59.552 59.2986 59.5015 59.3415 59.4751C59.5973 59.318 59.8904 59.293 60.1473 59.3806C60.2956 59.3639 60.4873 59.3437 60.6729 59.3369C60.8445 59.3306 61.1698 59.3256 61.4645 59.4394C61.4989 59.4527 61.5347 59.4664 61.5717 59.4805C61.9849 59.6384 62.5466 59.853 62.9721 60.2204C63.5373 60.7084 63.8229 61.4026 63.7698 62.3081C63.6818 63.8095 62.7036 64.8045 61.6287 65.2648C60.5789 65.7144 59.2929 65.731 58.2632 65.1955C57.7844 64.9465 57.5991 64.3344 57.8495 63.8284C58.0998 63.3224 58.691 63.1141 59.1698 63.3631C59.6483 63.612 60.3418 63.6274 60.924 63.3781C61.481 63.1396 61.7871 62.738 61.8167 62.2329C61.8278 62.044 61.8022 61.9536 61.7879 61.9172C61.7757 61.8857 61.7562 61.8526 61.7031 61.8068C61.641 61.7532 61.5402 61.6888 61.3698 61.6097C61.2131 61.5369 61.0397 61.47 60.8203 61.3854C60.8137 61.3829 60.8071 61.3803 60.8004 61.3778C60.782 61.3769 60.7477 61.3759 60.6938 61.3779C60.5677 61.3825 60.4205 61.3984 60.2577 61.4171C60.2465 61.4183 60.2339 61.4198 60.2202 61.4214C60.1011 61.4354 59.8967 61.4595 59.7491 61.4536C59.7091 61.452 59.5813 61.4466 59.4367 61.3958C59.3604 61.369 58.7532 61.1339 58.7771 60.4027C58.7863 60.123 58.8996 59.9233 58.962 59.8302C59.0291 59.7301 59.0989 59.6619 59.1391 59.6254Z" fill="black"/>
<path fill-rule="evenodd" clip-rule="evenodd" d="M54.2993 66.4326C54.7698 66.1435 55.3666 66.3016 55.6323 66.7858C55.901 67.2756 56.251 67.5564 56.5358 67.6447C56.7576 67.7136 57.0219 67.6998 57.3528 67.3653C57.3528 67.365 57.3735 67.3399 57.4068 67.2738C57.4448 67.1985 57.4849 67.0981 57.5225 66.9774C57.5964 66.7408 57.6402 66.4932 57.6542 66.3276C57.6536 66.3186 57.6522 66.2953 57.6483 66.2517C57.6474 66.2417 57.6462 66.23 57.645 66.217C57.6382 66.1457 57.6276 66.0331 57.6234 65.9256C57.6185 65.7998 57.6177 65.6026 57.6655 65.3907C57.7148 65.1725 57.8357 64.8539 58.1366 64.6115C58.5695 64.263 59.1826 64.3399 59.5061 64.7833C59.7413 65.1057 59.7586 65.533 59.5841 65.8762C59.5859 65.8968 59.588 65.9199 59.5906 65.9471C59.5923 65.9657 59.5942 65.9863 59.5963 66.0094C59.6006 66.0557 59.6057 66.1151 59.6087 66.1766C59.6116 66.2362 59.6137 66.319 59.6071 66.4106C59.583 66.7448 59.5067 67.1664 59.3818 67.5667C59.2665 67.9363 59.0631 68.4433 58.7026 68.8092C57.8755 69.649 56.8711 69.8935 55.9364 69.6035C55.064 69.3328 54.3693 68.6368 53.9283 67.8329C53.6626 67.3487 53.8287 66.7218 54.2993 66.4326Z" fill="black"/>
</svg>
