<svg width="59" height="60" viewBox="0 0 59 60" fill="none" xmlns="http://www.w3.org/2000/svg">
<path fill-rule="evenodd" clip-rule="evenodd" d="M27.5093 0.019688C33.6953 -0.207023 39.5054 1.4995 43.6906 6.42503C47.1083 10.4472 48.4592 16.0357 46.935 21.1842C45.4907 26.0626 41.4851 30.4293 37.1741 32.8243C31.1128 36.1916 24.615 36.1023 18.2891 34.1062C12.4011 32.2481 6.30587 27.6833 5.39286 20.9995C4.87115 20.9281 4.49002 20.4606 4.53253 19.9291C5.48627 8.00736 16.2793 0.431262 27.5093 0.019688ZM6.74336 18.3784C7.05999 18.5463 7.27568 18.8792 7.27568 19.2625C7.27568 25.5994 12.8504 30.2927 18.891 32.1989C24.8505 34.0794 30.7494 34.1056 36.2028 31.0759C40.1463 28.8851 43.7486 24.9015 45.0172 20.6164C46.338 16.155 45.1743 11.2599 42.1665 7.72007C38.488 3.39094 33.3494 1.807 27.5826 2.01835C17.6434 2.38261 8.4382 8.69965 6.74336 18.3784Z" fill="black"/>
<path fill-rule="evenodd" clip-rule="evenodd" d="M36.673 12.2527C36.9767 12.6517 36.8994 13.2213 36.5005 13.525C36.4342 13.5755 36.2773 13.6824 36.08 13.8168C35.9252 13.9223 35.7455 14.0447 35.5653 14.17C35.1182 14.4809 34.5779 14.8697 34.079 15.2725C33.5778 15.6773 33.1662 16.0587 32.9256 16.364C32.9913 16.389 33.066 16.4131 33.1492 16.4357C33.4542 16.5188 33.7966 16.5618 34.0695 16.5836C35.5176 16.6995 36.927 16.7574 38.3819 16.7574C38.8833 16.7574 39.2898 17.1639 39.2898 17.6653C39.2898 18.1667 38.8833 18.5732 38.3819 18.5732C36.8774 18.5732 35.4197 18.5133 33.9247 18.3937C33.601 18.3678 33.1325 18.3131 32.6722 18.1878C32.2466 18.0719 31.6597 17.8528 31.2675 17.3893C30.9239 16.9832 30.9129 16.5038 31.012 16.1377C31.1024 15.8036 31.293 15.5066 31.4757 15.2704C31.8486 14.7885 32.4027 14.2923 32.9382 13.8598C33.4858 13.4176 34.0663 13.0007 34.5285 12.6793C34.752 12.5239 34.9502 12.3891 35.1041 12.2844L35.1212 12.2728C35.2001 12.2191 35.2646 12.1753 35.3154 12.1402C35.3407 12.1228 35.3608 12.1087 35.3764 12.0976L35.3945 12.0847L35.4006 12.0802C35.7996 11.7765 36.3693 11.8537 36.673 12.2527ZM17.5158 13.4298C17.6857 12.9581 18.2058 12.7133 18.6776 12.8831C19.6259 13.2245 20.5536 13.4822 21.5445 13.7573L21.5448 13.7574L21.5454 13.7576C21.7164 13.8051 21.8893 13.8531 22.0645 13.9021L22.0963 13.911C22.4071 13.998 22.9495 14.1496 23.4583 14.3682C23.7225 14.4816 24.008 14.6255 24.2617 14.8074C24.5063 14.9827 24.7915 15.2428 24.956 15.613C25.1541 16.0587 25.0755 16.4945 24.9113 16.8237C24.7599 17.1273 24.5243 17.3735 24.3044 17.5635C23.86 17.9478 23.2482 18.2975 22.6656 18.5898C22.0691 18.889 21.4408 19.1582 20.9269 19.3694C20.6794 19.4711 20.4712 19.5545 20.3028 19.6219L20.3028 19.6219L20.3028 19.6219C20.0991 19.7034 19.9538 19.7616 19.8679 19.8006C19.4114 20.0081 18.8732 19.8063 18.6657 19.3498C18.4582 18.8933 18.6601 18.3551 19.1165 18.1476C19.2334 18.0945 19.4482 18.0082 19.7025 17.9061C19.8691 17.8392 20.0526 17.7655 20.2366 17.6899C20.735 17.4851 21.3148 17.2359 21.8514 16.9667C22.3854 16.6989 22.8216 16.4381 23.0922 16.2109C22.9972 16.1546 22.8798 16.0959 22.7418 16.0366C22.3456 15.8665 21.901 15.742 21.5799 15.6521L21.5749 15.6507C21.4068 15.6036 21.2383 15.5569 21.0696 15.51L21.0695 15.51C20.0806 15.2356 19.08 14.9579 18.0625 14.5916C17.5908 14.4218 17.346 13.9016 17.5158 13.4298ZM33.6575 23.099C33.7662 22.6096 33.4576 22.1246 32.9681 22.0158C32.4787 21.907 31.9937 22.2157 31.8849 22.7051C31.7112 23.487 31.457 24.4593 31.0397 25.243C30.6152 26.0404 30.1423 26.4293 29.6066 26.4759C28.6891 26.5556 28.0386 26.2871 27.4242 25.8163C26.9484 25.4516 26.5451 25.0145 26.0713 24.501L26.0712 24.501C25.8594 24.2714 25.6334 24.0265 25.3805 23.766C25.0313 23.4062 24.4565 23.3976 24.0967 23.7468C23.7369 24.096 23.7283 24.6708 24.0775 25.0306C24.2529 25.2114 24.4353 25.4089 24.6243 25.6136L24.6243 25.6136C25.1438 26.1763 25.7125 26.7922 26.3197 27.2575C27.222 27.949 28.3116 28.4111 29.7639 28.2848C31.2142 28.1587 32.1085 27.0994 32.6425 26.0964C33.1839 25.0797 33.4796 23.8993 33.6575 23.099Z" fill="black"/>
<path fill-rule="evenodd" clip-rule="evenodd" d="M2.64554 34.7032C3.15189 34.9237 3.38362 35.5129 3.16311 36.0193C0.981462 41.029 1.74308 47.5355 6.35612 50.5481C11.2945 53.7731 16.9386 52.7049 22.5914 50.9199C23.118 50.7535 23.6798 51.0457 23.8461 51.5723C24.0124 52.099 23.7203 52.6607 23.1937 52.827C17.5238 54.6175 11.0425 55.9973 5.26255 52.2226C-0.459428 48.4858 -1.08367 40.762 1.32944 35.2207C1.54995 34.7144 2.13918 34.4827 2.64554 34.7032Z" fill="black"/>
<path fill-rule="evenodd" clip-rule="evenodd" d="M23.5 46.3664C23.1979 46.2645 22.8358 46.2607 22.3431 46.5515C22.0707 46.7123 21.8439 47.0272 21.705 47.5212C21.5668 48.0129 21.5472 48.5828 21.611 49.0673C21.7422 50.065 22.1448 50.8454 22.8568 51.5573C23.2473 51.9479 23.2473 52.581 22.8568 52.9715C22.4663 53.3621 21.8331 53.3621 21.4426 52.9715C20.4372 51.9661 19.82 50.7869 19.6281 49.3282C19.5356 48.626 19.5554 47.7775 19.7797 46.9799C20.0033 46.1845 20.4623 45.3391 21.3266 44.8291C22.2792 44.2669 23.2432 44.169 24.1393 44.4713C24.9867 44.7572 25.6668 45.3646 26.1944 46.0093C27.2457 47.2942 27.9514 49.0518 28.3124 50.1347C28.487 50.6586 28.2038 51.2249 27.6799 51.3996C27.156 51.5742 26.5896 51.2911 26.415 50.7671C26.0752 49.7478 25.4618 48.2722 24.6465 47.2758C24.2408 46.78 23.8507 46.4847 23.5 46.3664Z" fill="black"/>
<path fill-rule="evenodd" clip-rule="evenodd" d="M32.6085 50.2005C31.8941 50.0219 31.1073 49.9686 30.4117 49.9773C30.04 49.982 29.5997 50.0215 29.2028 50.1185C28.7858 50.2205 28.5308 50.3584 28.4112 50.478C28.0207 50.8685 27.3875 50.8685 26.997 50.478C26.6065 50.0874 26.6065 49.4543 26.997 49.0637C27.4934 48.5674 28.1629 48.3139 28.7279 48.1757C29.3131 48.0327 29.9124 47.9834 30.3867 47.9775C31.1842 47.9675 32.1559 48.0258 33.0936 48.2602C34.0221 48.4923 35.0092 48.9203 35.7273 49.7196C36.4218 50.4925 36.7821 51.3655 36.6371 52.3132C36.5016 53.1992 35.9511 53.9437 35.3191 54.5647C34.0512 55.8103 32.3464 55.8715 31.1045 55.8715C30.5522 55.8715 30.1045 55.4238 30.1045 54.8715C30.1045 54.3192 30.5522 53.8715 31.1045 53.8715C32.3798 53.8715 33.2895 53.7549 33.9175 53.138C34.4322 52.6323 34.6213 52.2649 34.6601 52.0108C34.6896 51.8184 34.659 51.523 34.2397 51.0563C33.8907 50.6679 33.3322 50.3814 32.6085 50.2005Z" fill="black"/>
<path fill-rule="evenodd" clip-rule="evenodd" d="M29.879 54.9327C29.908 54.3812 30.3786 53.9576 30.9302 53.9866C31.3505 54.0088 31.7976 54.1973 32.1429 54.3806C32.5214 54.5816 32.9237 54.8554 33.2746 55.1733C33.6141 55.4809 33.971 55.8887 34.1695 56.3727C34.3838 56.8955 34.4263 57.5691 33.9867 58.1777C33.5685 58.7568 32.8855 59.0335 32.3892 59.174C31.8522 59.3262 31.2905 59.3857 30.8713 59.3857C29.8383 59.3857 28.7041 59.1964 27.7159 58.5376C27.2564 58.2313 27.1322 57.6104 27.4386 57.1509C27.7449 56.6914 28.3658 56.5672 28.8253 56.8735C29.3661 57.234 30.0608 57.3857 30.8713 57.3857C31.1294 57.3857 31.5054 57.3457 31.8441 57.2498C32.0111 57.2025 32.1454 57.1481 32.2428 57.0938C32.2596 57.0844 32.2742 57.0756 32.287 57.0675C32.2299 56.9678 32.1177 56.8239 31.9318 56.6555C31.7125 56.4568 31.4484 56.2763 31.205 56.1471C30.9952 56.0357 30.8694 55.9986 30.8327 55.9877C30.8211 55.9843 30.8184 55.9835 30.825 55.9839C30.2735 55.9548 29.85 55.4842 29.879 54.9327Z" fill="black"/>
<path fill-rule="evenodd" clip-rule="evenodd" d="M51.438 22.4452C51.7127 21.966 52.3238 21.8003 52.8029 22.075C54.8501 23.2487 55.9468 24.5155 56.9468 26.6063C58.326 29.4901 59.3431 33.4202 58.8852 36.7777C58.4924 39.6585 56.8503 42.2097 54.6981 44.1229C52.5458 46.0362 49.8152 47.3746 47.1161 47.7898C46.5702 47.8738 46.0596 47.4994 45.9756 46.9535C45.8917 46.4076 46.2661 45.8971 46.812 45.8131C49.0975 45.4615 51.4792 44.3084 53.3694 42.6281C55.2598 40.9476 56.5906 38.8028 56.9036 36.5075C57.291 33.6661 56.42 30.1404 55.1425 27.4692C54.3014 25.7106 53.472 24.764 51.8082 23.8101C51.329 23.5354 51.1633 22.9243 51.438 22.4452Z" fill="black"/>
<path fill-rule="evenodd" clip-rule="evenodd" d="M46.6251 42.8534C47.4125 44.1879 47.9203 45.9198 47.9944 46.8092C48.0402 47.3596 47.6313 47.8429 47.0809 47.8888C46.5305 47.9347 46.0472 47.5257 46.0013 46.9753C45.9546 46.4145 45.552 44.9704 44.9026 43.8697C44.5755 43.3153 44.2597 42.9776 44.0113 42.8365C43.9031 42.775 43.8333 42.7653 43.7891 42.7666C43.7471 42.7679 43.6582 42.781 43.5122 42.8801C43.2619 43.0501 42.9977 43.5664 42.9894 44.4421C42.9815 45.2875 43.2234 46.0419 43.4757 46.3663C43.8148 46.8023 43.7363 47.4305 43.3003 47.7696C42.8644 48.1087 42.2361 48.0301 41.897 47.5942C41.2714 46.7899 40.9791 45.5331 40.9895 44.4233C40.9997 43.3438 41.3063 41.9607 42.3885 41.2257C42.7992 40.9467 43.2506 40.782 43.7283 40.7675C44.2038 40.7531 44.633 40.8895 44.9992 41.0975C45.6996 41.4953 46.2338 42.1901 46.6251 42.8534Z" fill="black"/>
<path fill-rule="evenodd" clip-rule="evenodd" d="M42.8563 46.3628C43.1975 46.7971 43.122 47.4257 42.6878 47.767C42.3303 48.0478 41.9149 48.3258 41.5222 48.5886C41.4774 48.6185 41.4329 48.6483 41.3888 48.6779C40.9419 48.9775 40.5161 49.2687 40.1339 49.581C39.3521 50.2196 38.9231 50.8115 38.8617 51.464C38.8425 51.6674 38.8699 51.7582 38.8788 51.7809C38.8796 51.7832 38.8802 51.7847 38.8805 51.7856C38.9232 51.8144 39.1097 51.8874 39.5509 51.8548C40.4017 51.792 41.4714 51.3992 42.0339 51.1623C42.5429 50.948 43.1292 51.1869 43.3435 51.6959C43.5579 52.2049 43.319 52.7913 42.81 53.0056C42.224 53.2523 40.8973 53.7608 39.6981 53.8494C39.1156 53.8924 38.3635 53.8541 37.7529 53.4374C37.0437 52.9535 36.7876 52.1567 36.8705 51.2766C37.0084 49.8107 37.9593 48.775 38.8686 48.0321C39.3319 47.6535 39.8294 47.3155 40.275 47.0167C40.3181 46.9878 40.3606 46.9593 40.4026 46.9313C40.8094 46.6588 41.1585 46.425 41.4521 46.1943C41.8864 45.8531 42.5151 45.9285 42.8563 46.3628Z" fill="black"/>
<path fill-rule="evenodd" clip-rule="evenodd" d="M42.8773 52.6593C43.3249 52.37 43.4687 51.7764 43.1959 51.3127C42.9159 50.8367 42.303 50.6778 41.8269 50.9578C40.7337 51.6009 40.8008 52.8389 40.9684 53.5237C41.149 54.261 41.582 55.0548 42.1031 55.4906C43.243 56.4435 44.6118 56.2213 45.6083 55.7514C46.6069 55.2804 47.4942 54.461 48.0054 53.6943C48.3117 53.2347 48.1876 52.6139 47.728 52.3075C47.2685 52.0012 46.6476 52.1253 46.3413 52.5849C46.0201 53.0666 45.4063 53.6354 44.7553 53.9424C44.1022 54.2504 43.6727 54.1959 43.386 53.9562C43.3501 53.9262 43.2551 53.8225 43.1469 53.632C43.0442 53.4514 42.959 53.2439 42.9111 53.0481C42.8631 52.852 42.8654 52.7222 42.8773 52.6593Z" fill="black"/>
</svg>
