<svg width="61" height="66" viewBox="0 0 61 66" fill="none" xmlns="http://www.w3.org/2000/svg">
<path fill-rule="evenodd" clip-rule="evenodd" d="M24.5762 0.0205104C31.1865 -0.215486 37.39 1.55925 41.8626 6.68677C45.5179 10.8774 46.9672 16.7074 45.3341 22.081C43.7875 27.1699 39.4997 31.7204 34.8927 34.2136C28.4191 37.717 21.4795 37.6261 14.7132 35.5462C8.41349 33.6097 1.88095 28.8447 0.920998 21.8558C0.920067 21.8557 0.919137 21.8556 0.918206 21.8556C0.367774 21.8104 -0.0417942 21.3275 0.00340944 20.7771C1.02533 8.33346 12.5807 0.448766 24.5762 0.0205104ZM2.22602 19.174C2.56549 19.3339 2.80045 19.6791 2.80045 20.0792C2.80045 26.7126 8.795 31.6346 15.3009 33.6345C21.7101 35.6046 28.0655 35.6343 33.9408 32.4547C38.1863 30.157 42.0577 25.9839 43.4205 21.4995C44.8386 16.8334 43.5911 11.711 40.3554 8.00145C36.3944 3.46045 30.8561 1.79758 24.6475 2.01924C13.9349 2.40169 4.03613 9.03761 2.22602 19.174Z" fill="black"/>
<path fill-rule="evenodd" clip-rule="evenodd" d="M49.9763 31.1225C49.8798 30.6711 49.4357 30.3834 48.9843 30.4798C48.5329 30.5763 48.2452 31.0204 48.3416 31.4718C48.9778 34.449 49.1162 37.4023 49.2615 40.5025V40.5025C49.2775 40.8423 49.2935 41.1839 49.3102 41.5274C49.3327 41.9884 49.7247 42.3439 50.1857 42.3215C50.3505 42.3134 50.5018 42.2582 50.6271 42.1695C50.6799 42.1975 50.7307 42.2219 50.7752 42.2429C51.0238 42.3598 51.3007 42.3437 51.5257 42.2235C51.7786 42.2752 52.0313 42.3333 52.1718 42.3656L52.2533 42.3842C52.675 42.4791 53.1203 42.6818 53.464 42.9616C53.8062 43.2402 54.0006 43.5531 54.0477 43.873C54.1228 44.3814 53.9864 44.7595 53.7162 45.0794C53.4233 45.4261 52.9461 45.7307 52.3234 45.9685C51.068 46.448 49.5097 46.5483 48.6286 46.4128C48.3674 46.3726 48.1159 46.458 47.9354 46.6239C47.8006 46.5307 47.6371 46.4762 47.4608 46.4762C46.9992 46.4762 46.625 46.8504 46.625 47.3119C46.625 47.582 46.6331 47.8707 46.6415 48.1725V48.1727C46.6612 48.8755 46.6829 49.6493 46.6091 50.4249C46.5008 51.5642 46.2102 52.2881 45.754 52.5922L45.7518 52.5937C45.7453 52.5982 45.7429 52.5999 45.7224 52.5989C45.6842 52.597 45.6077 52.5818 45.484 52.5241C45.2752 52.4268 45.0845 52.2895 44.8606 52.1283C44.7888 52.0767 44.7137 52.0226 44.6335 51.9666C43.9395 51.4821 43.5609 50.6437 43.461 49.6445C43.4151 49.1852 43.0055 48.8501 42.5462 48.896C42.0869 48.942 41.7518 49.3515 41.7977 49.8108C41.9263 51.0962 42.4436 52.4764 43.6766 53.3372C43.7134 53.3629 43.7578 53.3951 43.8085 53.4318L43.8093 53.4325L43.8097 53.4327L43.8097 53.4327C44.0431 53.602 44.4087 53.8671 44.7778 54.0392C45.2455 54.2572 45.9787 54.4514 46.6812 53.9831C47.8303 53.217 48.1613 51.7604 48.2732 50.5831C48.3556 49.7166 48.3318 48.7782 48.3118 48.0528C48.3323 48.0576 48.3532 48.0616 48.3745 48.0649C49.5357 48.2435 51.3875 48.1153 52.9198 47.5301C53.691 47.2355 54.452 46.7987 54.9931 46.1581C55.5568 45.4908 55.85 44.636 55.7014 43.629C55.5768 42.7846 55.0861 42.1267 54.5193 41.6652C53.954 41.2051 53.2663 40.8988 52.6202 40.7534L52.5607 40.7398C52.3732 40.6965 51.863 40.5788 51.4716 40.5122C51.3582 40.4929 51.2393 40.4751 51.1324 40.4651C51.0795 40.4602 51.0166 40.4559 50.9519 40.4561L50.9329 40.4563L50.931 40.4158C50.7872 37.3347 50.6428 34.242 49.9763 31.1225ZM1.90101 43.8348C2.36196 43.8106 2.7553 44.1646 2.77956 44.6255C2.9452 47.7727 3.44527 50.7637 4.23351 53.8291C4.34847 54.2762 4.07925 54.7318 3.63221 54.8467C3.41797 54.9018 3.20176 54.8687 3.02203 54.77C2.4968 56.0496 2.63884 57.2127 2.94855 58.8387C3.02771 59.2543 3.22573 60.0275 3.54413 60.6376C3.7044 60.9448 3.86378 61.1488 4.00062 61.2573C4.11344 61.3468 4.17525 61.3494 4.23967 61.336C4.47701 61.2865 4.73567 61.0687 5.01428 60.5079C5.14497 60.2448 5.258 59.9506 5.36734 59.6421C5.39936 59.5517 5.43254 59.4556 5.46623 59.358C5.53931 59.1463 5.6148 58.9277 5.68616 58.7453C5.68612 58.7454 5.68613 58.7453 5.68618 58.7452C5.68659 58.7441 5.68971 58.7357 5.69553 58.7173C5.70172 58.6979 5.70921 58.6728 5.71804 58.6416C5.73589 58.5786 5.75583 58.5027 5.77808 58.4161L5.80261 58.3202C5.83937 58.176 5.88131 58.0116 5.92011 57.879C5.94317 57.8002 5.97409 57.7009 6.0115 57.6118C6.02817 57.5721 6.06278 57.4934 6.11895 57.4115C6.14656 57.3713 6.20185 57.2967 6.28997 57.2244C6.37471 57.1549 6.55814 57.0325 6.82357 57.0302C7.11528 57.0277 7.32733 57.17 7.4457 57.2942C7.55105 57.4048 7.60214 57.5178 7.62436 57.5728C7.66996 57.6857 7.68545 57.7903 7.69192 57.8391C7.70717 57.954 7.71112 58.0899 7.71112 58.2281C7.71112 59.6248 7.81162 60.7361 8.46964 61.7425C8.68092 62.0656 9.07386 62.634 9.50541 63.0265C9.72403 63.2253 9.8927 63.3228 9.99829 63.355C10.051 63.371 10.0551 63.3663 10.0609 63.3596C10.0619 63.3585 10.0628 63.3574 10.064 63.3563L10.0656 63.355C10.4878 63.0414 10.8114 62.4616 11.0701 61.6618C11.2505 61.1041 11.3707 60.5444 11.4887 59.9944C11.5411 59.7501 11.5931 59.5076 11.6499 59.2681C11.9028 58.2002 11.7815 57.1114 11.6447 55.8832L11.6325 55.773C11.5815 55.3143 11.9121 54.901 12.3708 54.8501C12.7087 54.8125 13.0218 54.9819 13.1838 55.257C13.4211 55.0173 13.7908 54.9362 14.1174 55.0813C14.9934 55.4707 16.2185 55.6188 17.2338 55.3807C18.2209 55.1493 18.8607 54.609 18.9954 53.6962C19.001 53.6584 18.9847 53.4605 18.714 53.115C18.4658 52.7982 18.093 52.477 17.6858 52.2337C17.2671 51.9835 16.8973 51.8663 16.662 51.8576C16.5891 51.8549 16.5492 51.8632 16.5323 51.8683L16.5293 51.8748L16.5261 51.8825C16.3547 52.311 15.8683 52.5195 15.4397 52.3481C15.0111 52.1766 14.8027 51.6902 14.9741 51.2617C15.1232 50.8888 15.3782 50.5924 15.7201 50.4053C16.0487 50.2254 16.4035 50.1753 16.7238 50.1872C17.3481 50.2103 17.9975 50.4727 18.5431 50.7987C19.1003 51.1316 19.6373 51.5831 20.0298 52.0841C20.3998 52.5563 20.7551 53.2213 20.6491 53.9401C20.383 55.7433 19.0338 56.6756 17.6154 57.0082C16.2252 57.3341 14.6285 57.1377 13.4385 56.6088C13.4258 56.6032 13.4134 56.5973 13.4011 56.5911C13.4904 57.5493 13.526 58.5998 13.2764 59.6533C13.2349 59.8285 13.1914 60.0313 13.144 60.2518L13.1439 60.2519L13.1439 60.2519L13.1439 60.252L13.1439 60.252C13.0193 60.8318 12.8684 61.5338 12.6605 62.1764C12.3717 63.0692 11.9132 64.0649 11.0624 64.6968C10.5604 65.0698 10.0001 65.1028 9.51136 64.954C9.0639 64.8178 8.67868 64.5341 8.38073 64.2631C7.77915 63.716 7.28829 62.9902 7.0706 62.6572C6.79641 62.2379 6.59454 61.81 6.44612 61.3788C6.10329 62.0274 5.54032 62.7725 4.58059 62.9724C3.93799 63.1063 3.3825 62.9007 2.96168 62.5668C2.56488 62.252 2.27429 61.8174 2.06221 61.411C1.63589 60.594 1.39963 59.6403 1.30651 59.1515C0.961476 57.34 0.709549 55.6252 1.69042 53.6635C1.82386 53.3966 2.08082 53.2323 2.35737 53.2053C1.69243 50.4033 1.26361 47.6261 1.11031 44.7134C1.08605 44.2524 1.44006 43.8591 1.90101 43.8348Z" fill="black"/>
<path fill-rule="evenodd" clip-rule="evenodd" d="M15.3048 14.2975C15.6111 13.8379 16.232 13.7138 16.6915 14.0201C17.1718 14.3403 17.4194 14.8006 17.5631 15.1512C17.6537 15.3721 17.7439 15.6703 17.8041 15.8695C17.8262 15.9425 17.8442 16.0022 17.8568 16.0399L18.7052 18.5851C18.8798 19.109 18.5967 19.6754 18.0727 19.85C17.5488 20.0247 16.9825 19.7415 16.8078 19.2176L15.9594 16.6724C15.9243 16.5672 15.8885 16.4479 15.8579 16.3459C15.8465 16.308 15.8359 16.2725 15.8262 16.241C15.7857 16.1084 15.7504 16.002 15.7127 15.91C15.6752 15.8187 15.643 15.7609 15.6176 15.7248C15.6056 15.7078 15.5965 15.6976 15.591 15.6919C15.5856 15.6866 15.5828 15.6846 15.5821 15.6842C15.1226 15.3779 14.9984 14.757 15.3048 14.2975Z" fill="black"/>
<path fill-rule="evenodd" clip-rule="evenodd" d="M32.8953 12.0099C33.4427 11.9369 33.9457 12.3215 34.0187 12.8689L34.4814 16.3396C34.5544 16.8871 34.1698 17.39 33.6224 17.463C33.0749 17.536 32.572 17.1514 32.499 16.604L32.0362 13.1333C31.9632 12.5858 32.3479 12.0829 32.8953 12.0099Z" fill="black"/>
<path fill-rule="evenodd" clip-rule="evenodd" d="M31.9415 25.5283C31.9873 26.0787 31.5784 26.5621 31.028 26.6079C29.9371 26.6988 28.8591 26.9681 27.7146 27.2539C27.2825 27.3619 26.841 27.4721 26.3856 27.5761C25.9334 27.6793 25.4632 27.7952 24.9829 27.9135C24.0401 28.1459 23.0588 28.3877 22.1 28.562C21.5566 28.6608 21.036 28.3004 20.9372 27.757C20.8384 27.2136 21.1988 26.693 21.7422 26.5943C22.6456 26.43 23.5141 26.2156 24.4147 25.9932C24.9099 25.871 25.4148 25.7463 25.9405 25.6263C26.3057 25.5429 26.6911 25.4465 27.0901 25.3468C28.2817 25.0489 29.5956 24.7204 30.8619 24.6148C31.4123 24.569 31.8956 24.978 31.9415 25.5283Z" fill="black"/>
<path fill-rule="evenodd" clip-rule="evenodd" d="M35.6714 10.8042C34.131 9.15579 32.1731 8.47324 30.18 9.50812C29.2633 9.98414 28.5743 10.8228 28.0836 11.8858C27.5922 12.9503 27.3274 14.1834 27.2341 15.3339C27.1696 16.1294 27.1782 16.8648 27.2507 17.662C27.2627 17.7945 27.2727 17.9391 27.2692 18.0655C27.2678 18.117 27.2632 18.2396 27.2254 18.376C27.2078 18.4395 27.1613 18.5898 27.0414 18.7431C26.9012 18.9225 26.6285 19.1356 26.2366 19.1331C25.9051 19.131 25.6828 18.9714 25.5983 18.9027C25.5012 18.8237 25.4381 18.7431 25.4067 18.7003C25.3418 18.6118 25.2971 18.5243 25.2723 18.4735C25.2178 18.3616 25.164 18.2252 25.113 18.0866C24.1664 15.5173 23.1201 13.3742 21.0148 11.9267C19.263 10.7224 16.761 11.0527 14.7684 12.2748C12.3852 13.7365 10.6391 15.9227 10.8535 18.5189C10.972 19.9543 11.7914 21.3716 12.9479 21.8673C13.4556 22.0848 13.6907 22.6727 13.4731 23.1804C13.2556 23.688 12.6677 23.9231 12.1601 23.7056C10.1155 22.8293 9.01858 20.601 8.86025 18.6835C8.55515 14.9884 11.0595 12.2034 13.7227 10.57C16.0799 9.12421 19.4909 8.45203 22.1478 10.2787C23.5966 11.2747 24.6186 12.522 25.4061 13.8786C25.5728 12.9314 25.8484 11.9558 26.2677 11.0475C26.8827 9.71545 27.8346 8.4724 29.2584 7.73313C32.3068 6.15032 35.205 7.37587 37.1327 9.43869C39.0326 11.4718 40.2073 14.5091 39.9148 17.1422C39.8538 17.6911 39.3594 18.0866 38.8105 18.0256C38.2615 17.9646 37.866 17.4702 37.927 16.9213C38.145 14.9594 37.2396 12.4824 35.6714 10.8042ZM27.0703 17.5976C27.0701 17.5972 27.0699 17.5967 27.0697 17.5962C27.0723 17.6014 27.0726 17.6022 27.0703 17.5976Z" fill="black"/>
<path fill-rule="evenodd" clip-rule="evenodd" d="M53.8897 3.04312C54.3276 3.18908 54.5643 3.6624 54.4183 4.10031L54.4155 4.10941C54.3996 4.16174 54.3291 4.39376 54.1782 4.57776C53.9493 4.85664 53.6471 4.94538 53.413 4.97139C52.9543 5.02236 52.541 4.69178 52.4901 4.23302C52.4523 3.89314 52.6239 3.57826 52.902 3.41716C53.0964 3.08058 53.5066 2.91541 53.8897 3.04312ZM47.1075 3.57862C47.3338 3.17631 47.8434 3.03362 48.2457 3.25992C48.3773 3.33394 48.5102 3.4232 48.6328 3.55632C48.7193 3.65025 48.7919 3.76176 48.8247 3.81211L48.8361 3.82947C49.0921 4.21354 48.9883 4.73245 48.6042 4.98849C48.2202 5.24454 47.7013 5.14075 47.4452 4.75669L47.4256 4.72715L47.4143 4.71C47.0211 4.48042 46.8834 3.97694 47.1075 3.57862ZM59.7442 4.75657C60.1685 4.57474 60.365 4.0834 60.1832 3.65913C60.0014 3.23486 59.51 3.03833 59.0858 3.22016C58.8288 3.33027 58.6083 3.42419 58.3798 3.50327C57.9436 3.65426 57.7124 4.13027 57.8634 4.56647C58.0144 5.00266 58.4904 5.23387 58.9266 5.08288C59.219 4.98166 59.4919 4.86472 59.7406 4.7581L59.7442 4.75657Z" fill="black"/>
</svg>
