<svg width="89" height="57" viewBox="0 0 89 57" fill="none" xmlns="http://www.w3.org/2000/svg">
<path fill-rule="evenodd" clip-rule="evenodd" d="M57.3351 5.08191C62.7654 8.46868 67.025 13.6825 67.8199 20.2147C68.5286 26.0377 65.6486 31.2043 61.5636 34.8949C56.6032 39.3763 49.8422 41.2248 43.3866 41.0175C38.3328 40.8552 32.7362 39.3566 28.5178 36.328C25.58 34.2189 23.433 31.6073 22.3134 28.6083C21.6247 26.7635 21.3345 24.7974 21.4722 22.7486C20.7391 18.0978 20.4912 12.9271 23.5385 8.58302C27.0275 3.60941 33.8354 1.37681 39.2668 0.746368C45.1965 0.0581033 51.9085 1.69751 57.3351 5.08191ZM23.01 18.1118C22.9241 15.1016 23.421 12.2331 25.1758 9.73158C28.1666 5.46809 34.2499 3.34211 39.4974 2.73303C44.9344 2.10195 51.1965 3.61055 56.2767 6.77892C61.3531 9.94493 65.1327 14.6887 65.8346 20.4563C66.4398 25.4298 64.0007 29.9978 60.2228 33.4109C55.7312 37.4688 49.5156 39.2132 43.4508 39.0185C38.6942 38.8658 33.5084 37.4489 29.6842 34.7034C27.0048 32.7797 25.1427 30.4685 24.1871 27.9088C23.8254 26.94 23.5899 25.9261 23.4914 24.8716C23.6823 24.6511 23.7754 24.3495 23.7199 24.0401C23.6374 23.5804 23.5582 23.1206 23.4844 22.6615C23.5732 21.6068 23.793 20.5183 24.1532 19.4001C24.3226 18.8744 24.0337 18.311 23.508 18.1416C23.3412 18.0879 23.1706 18.0803 23.01 18.1118Z" fill="black"/>
<path fill-rule="evenodd" clip-rule="evenodd" d="M46.5524 11.0766C47.0736 10.7924 47.6371 10.6087 48.1181 10.6007C48.562 10.5934 48.9014 10.7286 49.1627 11.0731C49.8567 11.988 50.1432 13.0864 50.4807 14.3803L50.4807 14.3805C50.5446 14.6252 50.6102 14.8769 50.6808 15.1357C50.8197 15.6448 51.3449 15.945 51.8541 15.8061C52.3632 15.6673 52.6633 15.142 52.5245 14.6329C52.4679 14.4255 52.4121 14.2078 52.3543 13.9826C52.0244 12.6964 51.6318 11.1659 50.6852 9.91813C49.9868 8.9975 49.0153 8.67459 48.0864 8.68997C47.1946 8.70474 46.3234 9.02472 45.6373 9.39895C44.6254 9.95093 43.9761 10.8287 43.5019 11.6794C43.2635 12.1069 43.0584 12.5482 42.8732 12.9602C42.8251 13.0673 42.7787 13.1714 42.7335 13.2729L42.733 13.274L42.733 13.2741L42.7325 13.2751C42.599 13.575 42.4754 13.8525 42.345 14.1198C42.1011 14.6199 41.7468 15.2616 41.3231 15.7804C40.8714 16.3334 40.4911 16.5624 40.2287 16.5887C39.0889 16.7027 38.4345 16.0284 37.3399 14.7551C36.7706 14.0929 36.0355 13.6349 35.1986 13.4991C34.3559 13.3623 33.4989 13.567 32.7241 14.0736C31.0034 15.1987 29.953 16.9161 30.2364 19.1518C30.3177 19.7928 30.6095 20.4643 31.0427 20.9947C31.4743 21.5231 32.1368 22.0146 32.9883 22.0594C33.5153 22.0872 33.965 21.6824 33.9928 21.1555C34.0205 20.6285 33.6158 20.1788 33.0888 20.151C32.9483 20.1437 32.7414 20.0536 32.5228 19.7858C32.3057 19.52 32.1664 19.1808 32.1323 18.9114C31.9576 17.5336 32.541 16.4766 33.7699 15.6731C34.1934 15.3962 34.5739 15.3337 34.8925 15.3854C35.2169 15.4381 35.5669 15.6242 35.8907 16.0009L35.9784 16.103C36.9406 17.225 38.2147 18.7106 40.4188 18.4902C41.4686 18.3852 42.2714 17.6404 42.8032 16.9892C43.3631 16.3037 43.7929 15.5106 44.0626 14.9576C44.209 14.6576 44.3518 14.3367 44.4889 14.0289L44.4889 14.0289C44.532 13.9322 44.5744 13.8368 44.6163 13.7437C44.7969 13.3419 44.9745 12.9624 45.1711 12.6099C45.5667 11.9003 45.9958 11.3802 46.5524 11.0766ZM35.8006 18.8626C35.4345 18.4824 34.8296 18.471 34.4495 18.8371C34.0694 19.2031 34.058 19.808 34.424 20.1881C34.7646 20.5418 35.0216 21.009 35.3059 21.6089C35.3528 21.7078 35.4011 21.8121 35.4512 21.9203C35.6825 22.4196 35.9515 23.0004 36.2922 23.5114C36.5849 23.9505 37.1781 24.0692 37.6172 23.7765C38.0563 23.4837 38.1749 22.8905 37.8822 22.4514C37.6312 22.0749 37.4386 21.6607 37.2107 21.1706L37.2107 21.1705L37.2106 21.1703L37.2106 21.1703C37.154 21.0486 37.0952 20.9222 37.0328 20.7905C36.74 20.1725 36.3734 19.4575 35.8006 18.8626ZM47.7431 14.5711C48.2432 14.4028 48.7851 14.6718 48.9534 15.172C49.1541 15.7682 49.2924 16.4023 49.4172 16.9747L49.4173 16.9753C49.4469 17.1107 49.4756 17.2426 49.5043 17.3698C49.6619 18.069 49.8244 18.6706 50.0874 19.1967C50.3234 19.6687 50.1321 20.2427 49.6601 20.4787C49.1881 20.7147 48.6141 20.5234 48.3781 20.0513C48.0044 19.3039 47.8019 18.508 47.64 17.79C47.6047 17.6334 47.5715 17.4816 47.5392 17.3339C47.4162 16.7718 47.3061 16.2683 47.1422 15.7815C46.9739 15.2814 47.2429 14.7395 47.7431 14.5711ZM47.5901 27.6655C47.3337 26.9564 46.7811 26.0586 46.0649 25.4075C45.3704 24.776 44.2398 24.1488 43.0052 24.7124C41.8057 25.26 41.4334 26.4501 41.3926 27.4167C41.3814 27.6827 41.393 27.9526 41.4239 28.2189C41.1893 28.4897 41.1174 28.882 41.2718 29.2315C41.6153 30.0087 42.1971 30.8058 42.9192 31.4136C43.6359 32.0169 44.58 32.5054 45.6384 32.4814C46.3314 32.4656 46.8883 32.1649 47.2666 31.687C47.6152 31.2467 47.7708 30.7115 47.8385 30.2435C47.9728 29.3157 47.8133 28.2825 47.5901 27.6655ZM43.6804 29.1971C43.7549 29.3312 43.7937 29.4754 43.8 29.6189C43.9102 29.7365 44.0273 29.8484 44.1499 29.9516C44.6522 30.3744 45.1583 30.5808 45.595 30.5708C45.7123 30.5682 45.7385 30.5384 45.7682 30.5009C45.8278 30.4257 45.9051 30.2603 45.9472 29.9697C46.0325 29.3804 45.9192 28.6642 45.7931 28.3155C45.6354 27.8796 45.2507 27.25 44.7793 26.8215C44.2864 26.3732 43.9793 26.3685 43.7989 26.4509C43.5413 26.5685 43.3286 26.8663 43.3019 27.4973C43.2756 28.1206 43.4596 28.7995 43.6804 29.1971Z" fill="black"/>
<path fill-rule="evenodd" clip-rule="evenodd" d="M67.9139 28.0957C67.5972 27.5774 67.156 27.2433 66.6392 27.0928C66.1463 26.9493 65.6504 26.9913 65.2244 27.0924C64.3891 27.2907 63.5861 27.7769 63.1053 28.0828C62.7159 28.3306 62.6011 28.8472 62.8489 29.2366C63.0967 29.6261 63.6133 29.7408 64.0028 29.493C64.4836 29.187 65.0765 28.8455 65.6104 28.7188C65.8691 28.6574 66.0511 28.6626 66.1719 28.6978C66.2687 28.726 66.3769 28.7861 66.4876 28.9673C67.0229 29.8432 66.8466 30.964 66.161 31.4301C65.7793 31.6897 65.6803 32.2095 65.9399 32.5912C66.1994 32.9729 66.7193 33.072 67.101 32.8124C67.3206 32.6631 67.5114 32.4937 67.6751 32.309C67.7378 32.3172 67.8024 32.3184 67.8681 32.3119C69.2903 32.1696 70.4346 32.137 71.528 32.6836C71.7869 32.8131 71.9599 32.9485 72.0407 33.0577C72.0749 33.1039 72.0795 33.128 72.0803 33.1327L72.0803 33.1328C72.0806 33.1341 72.0855 33.1565 72.063 33.2144C72.0286 33.3028 71.9412 33.4121 71.7024 33.5304C71.4569 33.652 71.1544 33.7331 70.813 33.8165C70.6491 33.8566 70.4938 33.899 70.3418 33.9405L70.3417 33.9405C70.0422 34.0222 69.7554 34.1005 69.4407 34.1507C69.2845 34.1756 69.1536 34.1869 69.0446 34.1885C68.9088 34.123 68.7616 34.0973 68.6182 34.1084C68.2296 33.8612 67.714 33.9749 67.4656 34.3631C67.2167 34.7519 67.3302 35.2687 67.719 35.5176C67.9557 35.669 68.2091 35.7596 68.4625 35.8092C68.726 36.0051 69.0441 36.2734 69.2682 36.5539C69.4193 36.7432 69.4768 36.8759 69.4906 36.9446C69.4915 36.9491 69.4923 36.9525 69.493 36.9552C69.4942 36.9602 69.4949 36.9629 69.4943 36.9653C69.4937 36.9681 69.4916 36.9706 69.4869 36.9759L69.479 36.9851C69.3264 37.1682 68.9887 37.2883 68.262 37.0339C67.5852 36.7969 66.9081 36.3319 66.5693 36.006C66.2365 35.6861 65.7074 35.6965 65.3875 36.0292C65.2159 36.2077 65.1393 36.4428 65.1566 36.6717C65.145 36.8181 65.1719 36.9695 65.2424 37.1105C65.4419 37.5094 65.3922 38.1474 65.0599 38.6642C64.7461 39.1522 64.3288 39.3305 63.8872 39.1935C63.6639 39.1242 63.4707 38.9563 63.3112 38.5976C63.1446 38.2228 63.049 37.7056 63.0213 37.0955C62.9724 36.0167 63.1426 34.8386 63.2899 34.0994C63.3469 33.901 63.4037 33.7027 63.4602 33.5047C63.587 33.0609 63.3301 32.5983 62.8862 32.4715C62.4424 32.3447 61.9798 32.6017 61.853 33.0455L61.7888 33.27C61.755 33.3343 61.729 33.4041 61.7125 33.4784C61.6972 33.5473 61.6812 33.6221 61.6648 33.7024C60.8176 36.6498 59.9347 39.5664 58.7726 42.3555C58.3167 43.4495 57.8035 44.5829 57.1332 45.5455C56.4656 46.5042 55.6791 47.2392 54.6993 47.6067C52.4924 48.4342 50.7884 47.9804 49.35 46.8912C47.8534 45.7577 46.6332 43.9213 45.5691 41.9766C45.3476 41.5717 44.8397 41.423 44.4348 41.6446C44.0298 41.8661 43.8812 42.374 44.1027 42.779C45.1854 44.7576 46.5451 46.8638 48.3409 48.2237C50.195 49.6279 52.496 50.2181 55.2862 49.1718C56.6921 48.6446 57.7227 47.6241 58.505 46.5007C59.2846 45.3812 59.8542 44.1057 60.3155 42.9984C60.8397 41.7404 61.3076 40.4605 61.7391 39.1719C61.7535 39.2071 61.7684 39.242 61.7838 39.2767C62.0773 39.9369 62.5808 40.5382 63.3918 40.7899C64.7563 41.2134 65.8754 40.4866 66.4659 39.5682C66.7056 39.1954 66.884 38.7557 66.9718 38.2938C67.2097 38.4148 67.4579 38.5234 67.7096 38.6115C68.5857 38.9183 69.8974 39.0941 70.7631 38.0552C71.1325 37.6119 71.2262 37.0971 71.1295 36.6155C71.0494 36.2168 70.8467 35.8689 70.6379 35.5927C70.7271 35.5691 70.8121 35.546 70.8909 35.5246C71.0151 35.4908 71.1241 35.4613 71.2099 35.4403C71.5373 35.3603 72.0112 35.2428 72.4444 35.0282C72.8842 34.8103 73.3776 34.4458 73.6209 33.8202C73.8845 33.1423 73.726 32.5252 73.3845 32.0636C73.0764 31.6471 72.6333 31.3674 72.2755 31.1885C70.9772 30.5394 69.6661 30.4974 68.4377 30.5841C68.55 29.7141 68.347 28.8043 67.9139 28.0957Z" fill="black"/>
<path fill-rule="evenodd" clip-rule="evenodd" d="M17.3577 39.7818C17.4278 39.7117 17.4742 39.6861 17.4929 39.6777C17.5023 39.6734 17.5072 39.6723 17.5083 39.6721C17.5094 39.6719 17.5102 39.6718 17.5118 39.6718C17.5189 39.6719 17.5906 39.6777 17.7433 39.788C18.004 39.9763 18.2342 40.2553 18.4936 40.5697L18.4936 40.5697L18.4937 40.5698C18.576 40.6696 18.6613 40.7729 18.7514 40.8781C19.0518 41.2285 19.5794 41.2691 19.9299 40.9687C20.2804 40.6683 20.321 40.1407 20.0206 39.7902C19.9782 39.7408 19.9271 39.6782 19.8685 39.6066C19.6013 39.2797 19.1791 38.7631 18.7222 38.433C18.4247 38.2181 18.0202 38.0072 17.5352 38.0004C17.0193 37.9932 16.5579 38.2176 16.1757 38.5998C15.2986 39.4769 14.9836 40.4612 15.0694 41.4694C15.1191 42.0541 15.3018 42.6226 15.5426 43.1587C15.1328 43.4893 14.6723 43.9517 14.3628 44.504C14.0025 45.1468 13.7998 46.018 14.2934 46.8891C14.8266 47.83 15.7613 48.1397 16.5432 48.2441C16.6932 48.2641 16.8483 48.2775 17.0043 48.2861C16.8471 48.597 16.7231 48.9349 16.6526 49.3029C16.5806 49.6788 16.5574 50.1532 16.6312 50.6162C16.7025 51.0632 16.885 51.6239 17.3378 52.0214C17.8289 52.4526 18.4092 52.5161 18.9192 52.3876C19.3849 52.2703 19.7987 51.9965 20.1217 51.7332C20.4876 51.4349 20.8218 51.0784 21.0834 50.7725C21.373 51.2147 21.716 51.5672 22.1232 51.7944C22.6409 52.0832 23.1946 52.1308 23.7197 51.9919C24.6925 51.7345 25.4964 50.8644 26.078 49.9504C26.5425 49.2205 26.8341 48.4596 26.9742 47.6841C27.7437 48.8951 28.617 50.1535 29.6207 51.2081C31.3 52.9726 33.4706 54.3018 36.2849 53.8831C38.7823 53.5116 40.3905 51.482 41.4477 49.3794C42.4885 47.3096 43.1159 44.9294 43.544 43.3057L43.544 43.3057L43.5807 43.1667C43.6984 42.7204 43.4321 42.2631 42.9858 42.1453C42.5395 42.0276 42.0822 42.2939 41.9644 42.7402L41.9403 42.8317L41.9403 42.8317L41.9403 42.8318L41.9403 42.8318C41.5051 44.4812 40.9152 46.7174 39.9543 48.6285C38.9619 50.6022 37.6978 51.983 36.039 52.2297C33.974 52.5369 32.3121 51.6114 30.8316 50.0557C29.5442 48.7031 28.4896 46.9761 27.5082 45.3689L27.5082 45.3689C27.3433 45.099 27.1805 44.8324 27.019 44.5715C26.9343 44.4346 26.8163 44.3306 26.682 44.2637C26.5029 43.9041 26.0849 43.7164 25.6884 43.8384C25.2472 43.9742 24.9996 44.4419 25.1354 44.8831C25.5927 46.3692 25.4795 47.7775 24.6678 49.053C24.1464 49.8723 23.6361 50.2849 23.2922 50.3759C23.1588 50.4112 23.0535 50.3994 22.9376 50.3347C22.8005 50.2582 22.5933 50.074 22.3617 49.6571C22.2003 49.3666 21.8915 49.2099 21.5806 49.2285C21.5307 49.1528 21.4675 49.084 21.3914 49.0256C21.0252 48.7447 20.5005 48.8138 20.2196 49.1801C19.9953 49.4725 19.5492 50.0434 19.0656 50.4375C18.8201 50.6376 18.6308 50.7365 18.5109 50.7667C18.4492 50.7822 18.4462 50.7756 18.4433 50.7693C18.4426 50.7679 18.442 50.7665 18.4407 50.7653C18.4056 50.7345 18.3245 50.6199 18.2819 50.353C18.2419 50.1021 18.2548 49.8241 18.2944 49.6173C18.4422 48.8454 19.0107 48.2526 19.7899 47.4734C20.1163 47.147 20.1163 46.6178 19.7899 46.2914C19.4635 45.965 18.9343 45.965 18.6079 46.2914L18.5248 46.3743L18.5248 46.3744C18.4483 46.4507 18.3689 46.5299 18.2877 46.6123C18.2017 46.6142 18.1169 46.6166 18.0332 46.619L18.0331 46.619C17.5931 46.6313 17.1813 46.6428 16.7643 46.5872C16.1986 46.5117 15.9025 46.3381 15.7477 46.065C15.6393 45.8737 15.6352 45.6526 15.8209 45.3212C15.9837 45.0308 16.253 44.7421 16.5366 44.5053C16.7477 44.5657 16.982 44.5434 17.1868 44.4244C17.5858 44.1924 17.7212 43.6808 17.4892 43.2817C17.0571 42.5385 16.7833 41.8958 16.7349 41.3277C16.6915 40.8178 16.8237 40.3158 17.3577 39.7818Z" fill="black"/>
</svg>
