<svg width="60" height="70" viewBox="0 0 60 70" fill="none" xmlns="http://www.w3.org/2000/svg">
<path fill-rule="evenodd" clip-rule="evenodd" d="M52.8798 42.7679C52.7688 42.2437 52.2577 41.9096 51.7382 42.0216C51.2186 42.1336 50.8875 42.6493 50.9985 43.1734C51.7306 46.6304 51.89 50.0596 52.0572 53.6594C52.0756 54.054 52.094 54.4505 52.1133 54.8494C52.1392 55.3848 52.5903 55.7976 53.1209 55.7715C53.3105 55.7621 53.4846 55.698 53.6288 55.5951C53.6896 55.6275 53.7481 55.6559 53.7994 55.6803C54.0854 55.8161 54.4041 55.7974 54.663 55.6578C54.9541 55.7178 55.2449 55.7852 55.4067 55.8228L55.5004 55.8444C55.9858 55.9546 56.4982 56.1899 56.8939 56.5148C57.2877 56.8382 57.5114 57.2017 57.5657 57.5731C57.652 58.1634 57.4951 58.6025 57.1841 58.9739C56.8471 59.3764 56.2978 59.7301 55.5811 60.0063C54.1363 60.563 52.3429 60.6795 51.3288 60.5221C51.0282 60.4754 50.7388 60.5746 50.5311 60.7673C50.3759 60.659 50.1876 60.5956 49.9847 60.5956C49.4534 60.5956 49.0228 61.0301 49.0228 61.5661C49.0228 61.8797 49.0321 62.215 49.0418 62.5655V62.5655C49.0645 63.3815 49.0894 64.2801 49.0045 65.1806C48.8799 66.5036 48.5454 67.3441 48.0204 67.6972L48.0179 67.6989C48.0104 67.7041 48.0075 67.7061 47.984 67.705C47.9401 67.7028 47.852 67.6851 47.7096 67.6181C47.4693 67.5051 47.2498 67.3458 46.9921 67.1586C46.9095 67.0986 46.8231 67.0359 46.7308 66.9708C45.932 66.4083 45.4963 65.4347 45.3813 64.2745C45.3285 63.7412 44.8571 63.3521 44.3285 63.4054C43.7999 63.4587 43.4142 63.9343 43.4671 64.4676C43.615 65.9601 44.2104 67.5628 45.6295 68.5623C45.6722 68.5923 45.7236 68.63 45.7824 68.673L45.7826 68.6731L45.7826 68.6732C46.0513 68.8697 46.472 69.1776 46.8969 69.3774C47.4351 69.6304 48.2789 69.856 49.0875 69.3122C50.41 68.4227 50.7909 66.7314 50.9197 65.3644C51.0145 64.3583 50.9871 63.2687 50.9641 62.4264C50.9878 62.432 51.0119 62.4366 51.0363 62.4404C52.3728 62.6479 54.504 62.499 56.2676 61.8194C57.1552 61.4774 58.031 60.9702 58.6537 60.2264C59.3024 59.4516 59.6399 58.4591 59.4689 57.2898C59.3255 56.3093 58.7608 55.5453 58.1084 55.0096C57.4578 54.4753 56.6663 54.1196 55.9227 53.9508L55.8542 53.935L55.8542 53.935C55.6383 53.8847 55.0512 53.7481 54.6007 53.6707C54.4702 53.6483 54.3334 53.6277 54.2104 53.6161C54.1495 53.6103 54.0772 53.6053 54.0027 53.6056L53.9808 53.6058L53.9786 53.5588C53.8131 49.9811 53.647 46.39 52.8798 42.7679ZM7.74979 47.4018C8.15595 47.5859 8.33437 48.0671 8.14831 48.4767C6.87794 51.2731 5.9644 54.0833 5.26462 57.0859C5.16256 57.5238 4.72724 57.7982 4.2923 57.6988C4.08387 57.6512 3.91334 57.5263 3.8035 57.361C2.7788 58.2345 2.37861 59.3039 1.91447 60.8484C1.79582 61.2432 1.61863 62.0002 1.61784 62.6697C1.61744 63.0067 1.66256 63.2541 1.73118 63.4089C1.78775 63.5365 1.8396 63.5662 1.90087 63.5833C2.12659 63.6461 2.44614 63.5727 2.93674 63.2114C3.16687 63.042 3.39584 62.8377 3.62807 62.6194C3.69597 62.5556 3.76741 62.4873 3.83997 62.418L3.84004 62.418L3.84027 62.4177L3.84037 62.4176C3.99802 62.267 4.1609 62.1114 4.30393 61.9854C4.30388 61.9854 4.30388 61.9854 4.30394 61.9854L4.304 61.9853L4.30401 61.9853L4.30403 61.9853C4.30502 61.9844 4.31148 61.9785 4.32451 61.9654C4.33857 61.9513 4.35625 61.9329 4.37782 61.9098C4.4214 61.8633 4.47255 61.8065 4.53049 61.7415L4.5946 61.6694C4.6908 61.561 4.80057 61.4374 4.89335 61.34C4.94847 61.2821 5.01953 61.21 5.09161 61.1495C5.12373 61.1225 5.18874 61.0698 5.27366 61.024C5.31539 61.0014 5.39628 60.9615 5.50427 60.9382C5.60812 60.9158 5.82037 60.8914 6.04901 61.0075C6.30028 61.1351 6.41827 61.3525 6.46402 61.5127C6.50474 61.6552 6.49783 61.7757 6.49219 61.8332C6.48062 61.9511 6.44695 62.0485 6.4306 62.0936C6.39212 62.1998 6.33451 62.3191 6.27248 62.4387C5.64565 63.6471 5.23312 64.6532 5.34572 65.8166C5.38188 66.1901 5.46373 66.8567 5.65765 67.3882C5.75589 67.6575 5.85679 67.8168 5.9329 67.8916C5.97091 67.929 5.9765 67.9267 5.98456 67.9235C5.98633 67.9228 5.98823 67.922 5.99062 67.9216C6.4934 67.8381 7.03105 67.4804 7.61186 66.9036C8.01688 66.5014 8.37105 66.0706 8.71907 65.6473L8.71909 65.6473L8.7191 65.6472C8.87374 65.4591 9.02717 65.2725 9.1833 65.0905C9.87947 64.2791 10.2641 63.2833 10.698 62.1598L10.7369 62.0591C10.8991 61.6395 11.3681 61.429 11.7843 61.589C12.0909 61.7068 12.2834 61.9926 12.2988 62.3027C12.6099 62.2009 12.9633 62.2952 13.1782 62.5661C13.7547 63.2926 14.7387 63.9657 15.7162 64.2113C16.6665 64.4502 17.4578 64.2674 17.9829 63.5376C18.0046 63.5074 18.0795 63.3289 18.0024 62.9096C17.9317 62.5251 17.7562 62.0814 17.5162 61.6898C17.2694 61.2871 17.0049 61.0211 16.8071 60.9089C16.7458 60.8742 16.7078 60.8637 16.691 60.8605C16.6881 60.8627 16.6842 60.8658 16.6794 60.87C16.34 61.1645 15.8294 61.1285 15.5388 60.7896C15.2482 60.4506 15.2878 59.9371 15.6271 59.6425C15.9224 59.3863 16.274 59.2433 16.6512 59.2335C17.0137 59.2241 17.3404 59.3385 17.6098 59.4913C18.1347 59.789 18.5738 60.3049 18.8954 60.8297C19.2238 61.3655 19.4816 61.9949 19.5934 62.603C19.6987 63.1761 19.705 63.9095 19.2915 64.4842C18.2541 65.9259 16.6787 66.1323 15.3131 65.7891C13.9747 65.4527 12.6936 64.5725 11.9105 63.5856C11.9022 63.5751 11.8942 63.5644 11.8864 63.5536C11.5329 64.4223 11.092 65.3469 10.4052 66.1474C10.291 66.2805 10.1626 66.4366 10.023 66.6063L10.023 66.6063C9.65588 67.0525 9.21144 67.5927 8.74475 68.0562C8.09637 68.7002 7.25635 69.3576 6.24318 69.5259C5.6453 69.6252 5.14999 69.4046 4.7977 69.0585C4.47515 68.7415 4.27212 68.3247 4.13824 67.9578C3.86792 67.2168 3.77273 66.3705 3.73548 65.9856C3.68856 65.5009 3.70749 65.0409 3.77372 64.6018C3.18865 65.0105 2.37152 65.4046 1.4588 65.1507C0.847673 64.9807 0.463605 64.5557 0.252587 64.0796C0.0536132 63.6307 -0.000524063 63.1255 3.813e-06 62.6795C0.00106428 61.7831 0.226468 60.8529 0.366017 60.3886C0.883094 58.6679 1.43665 57.0723 3.15817 55.8114C3.39238 55.6399 3.68647 55.6121 3.93576 55.7117C4.62305 52.9918 5.50173 50.3983 6.67746 47.8102C6.86353 47.4006 7.34363 47.2178 7.74979 47.4018Z" fill="black"/>
<path fill-rule="evenodd" clip-rule="evenodd" d="M25.0266 27.4753C25.081 28.0249 24.6796 28.5145 24.13 28.5689C22.8663 28.694 21.6316 28.7554 20.3613 28.7554C19.809 28.7554 19.3613 28.3077 19.3613 27.7554C19.3613 27.2032 19.809 26.7554 20.3613 26.7554C21.5653 26.7554 22.7343 26.6973 23.933 26.5787C24.4826 26.5243 24.9722 26.9257 25.0266 27.4753Z" fill="black"/>
<path fill-rule="evenodd" clip-rule="evenodd" d="M36.1836 25.9739C36.2647 26.5202 35.8876 27.0288 35.3413 27.1099C34.9328 27.1705 34.5078 27.3212 33.9685 27.5124C33.9238 27.5283 33.8783 27.5444 33.832 27.5608C33.2807 27.7557 32.5881 27.994 31.8776 28.0278C31.3259 28.054 30.8574 27.628 30.8312 27.0764C30.805 26.5247 31.231 26.0562 31.7826 26.03C32.1578 26.0122 32.5864 25.8798 33.1654 25.6751C33.2168 25.6569 33.2697 25.6381 33.3239 25.6187C33.8232 25.4407 34.4346 25.2226 35.0476 25.1316C35.5939 25.0505 36.1025 25.4276 36.1836 25.9739Z" fill="black"/>
<path fill-rule="evenodd" clip-rule="evenodd" d="M28.0643 37.1424C27.537 37.2156 26.938 37.5376 26.4441 38.0655C26.0668 38.4688 25.434 38.4899 25.0307 38.1126C24.6274 37.7353 24.6063 37.1025 24.9836 36.6992C25.7228 35.909 26.7187 35.31 27.7893 35.1614C28.9045 35.0066 30.0546 35.3547 30.9136 36.375C31.2693 36.7975 31.2152 37.4283 30.7927 37.784C30.3702 38.1397 29.7394 38.0856 29.3837 37.6631C28.9977 37.2047 28.547 37.0754 28.0643 37.1424Z" fill="black"/>
<path fill-rule="evenodd" clip-rule="evenodd" d="M28.1784 11.2261C33.6448 10.438 39.7806 11.4577 44.4363 15.4668C47.9832 18.521 50.9219 23.558 50.8083 29.0243C50.6677 35.7862 45.9008 40.5355 41.4796 43.2345C38.8223 44.8567 35.8548 45.8696 32.9426 46.3944C30.0702 46.912 27.0683 47.2839 24.0205 46.7104C19.6572 45.8894 15.0628 43.6348 12.773 38.6052C10.6546 33.9522 10.4508 27.9118 12.5053 23.1477C13.0831 21.8077 13.8137 20.6245 14.6684 19.5982C14.703 19.5043 14.7523 19.414 14.8168 19.3307C16.4871 17.1743 18.1996 15.1542 20.6269 13.7768C23.017 12.4204 25.5703 11.6021 28.1784 11.2261ZM21.2863 15.7098C21.4362 15.8201 21.5571 15.9734 21.6279 16.1603C21.8237 16.6768 21.5638 17.2541 21.0473 17.4499C18.1487 18.5486 15.7421 20.6923 14.3418 23.9396C12.5243 28.1541 12.6942 33.6053 14.5932 37.7766C16.5161 42.0001 20.3948 43.9931 24.3903 44.7449C27.0622 45.2477 29.7635 44.9351 32.5879 44.4261C35.2991 43.9375 38.0251 43.0002 40.4374 41.5275C44.6119 38.979 48.6889 34.7454 48.8087 28.9827C48.9074 24.238 46.3299 19.7368 43.1313 16.9823C39.0244 13.4458 33.5203 12.4766 28.4638 13.2056C26.081 13.5492 23.7691 14.2933 21.614 15.5162C21.5032 15.5791 21.394 15.6436 21.2863 15.7098Z" fill="black"/>
<path fill-rule="evenodd" clip-rule="evenodd" d="M16.255 0.525786C16.3296 0.895949 16.1438 1.26968 15.8402 1.36053C12.4161 2.38511 8.98705 3.49918 5.5855 4.67518C5.40639 4.73711 5.22821 4.79743 5.05116 4.85737C4.35449 5.09323 3.67559 5.32308 3.02841 5.62047C5.33913 5.48779 7.65137 4.99334 9.99955 4.46126C10.1957 4.41681 10.3921 4.3721 10.5888 4.32732C13.329 3.70349 16.122 3.06765 18.9375 2.98919C19.2017 2.98183 19.4165 2.9841 19.5792 2.9983C19.6593 3.0053 19.742 3.01639 19.8182 3.03616L19.8202 3.03667C19.8677 3.04895 20.0257 3.08984 20.1585 3.23553C20.2441 3.32943 20.349 3.50184 20.3559 3.7486C20.3622 3.97911 20.2785 4.14422 20.2257 4.22581C20.132 4.37041 20.0105 4.44669 19.9666 4.47399C19.8467 4.54843 19.6876 4.61439 19.527 4.67326C18.8667 4.91528 17.57 5.25088 16.0547 5.61549C14.8017 5.91698 13.3868 6.24123 12.0132 6.55601C10.0227 7.0122 8.11898 7.44847 6.92102 7.76664C6.78749 7.80211 6.65307 7.83615 6.51793 7.87037C6.17923 7.95614 5.83598 8.04306 5.49088 8.15645C5.51696 8.15533 5.5432 8.15418 5.56962 8.15303L5.60064 8.15167C5.77487 8.14408 5.95766 8.13647 6.1385 8.13647H9.93535C10.8179 8.13647 11.6989 8.06898 12.5959 7.99294C12.6965 7.98441 12.7973 7.97577 12.8984 7.96711C13.6931 7.89902 14.5022 7.82969 15.3145 7.80459C15.4689 7.79982 15.7737 7.8494 15.9922 7.89908C16.1045 7.92464 16.2391 7.96002 16.3462 8.00613C16.3751 8.01858 16.4119 8.03593 16.4505 8.05933C16.4822 8.07854 16.5502 8.12236 16.6166 8.20056C16.6752 8.26942 16.8327 8.48782 16.7903 8.82179C16.7506 9.13454 16.5659 9.2846 16.5099 9.32568C15.6819 9.93304 14.8308 10.3138 13.9855 10.617C14.0974 10.6196 14.2095 10.6231 14.3217 10.6275C14.4351 10.632 14.5821 10.6668 14.7042 10.7037C14.8345 10.7431 14.9958 10.8029 15.1386 10.8841C15.2084 10.9238 15.2973 10.9817 15.3795 11.0636C15.449 11.1328 15.5968 11.3006 15.6354 11.58C15.6823 11.9195 15.5414 12.1743 15.4182 12.3093C15.3079 12.4302 15.1776 12.5012 15.0748 12.5469C14.6016 12.7571 14.1207 12.8989 13.6738 13.03L13.6578 13.0347C13.2073 13.1668 12.7912 13.2889 12.3894 13.4623C12.1261 13.5759 11.6485 13.6969 11.2968 13.786C11.2545 13.7967 11.214 13.807 11.176 13.8167C11.1216 13.8306 11.0727 13.8432 11.0293 13.8547C10.9334 13.9457 10.8127 14 10.6817 14C10.6427 14 10.5959 13.9989 10.5503 13.9932C10.5287 13.9905 10.4907 13.9849 10.447 13.9712C10.4465 13.9711 10.4457 13.9709 10.4449 13.9706C10.4222 13.9638 10.2891 13.9237 10.1743 13.7818C10.098 13.6875 10.0143 13.5271 10.0102 13.3099C10.0064 13.1057 10.0753 12.9571 10.1224 12.8797C10.2009 12.7504 10.2973 12.688 10.3176 12.6749C10.3183 12.6744 10.3188 12.6741 10.3193 12.6738C10.3795 12.6345 10.4388 12.6119 10.4622 12.603C10.5733 12.5611 10.7649 12.5115 10.9437 12.4658C10.9796 12.4566 11.0158 12.4474 11.0521 12.4381C11.4318 12.3414 11.827 12.2408 12.0116 12.1611C12.1325 12.109 12.254 12.061 12.3753 12.0164C11.715 12.0462 11.0535 12.1007 10.3865 12.1709C10.1201 12.199 9.62362 12.2907 9.15984 12.3764C9.06581 12.3937 8.97312 12.4109 8.88397 12.4272C8.6353 12.4726 8.40062 12.5141 8.27059 12.5276C8.24217 12.5306 8.18933 12.5356 8.13604 12.5326C8.13594 12.5326 8.13572 12.5326 8.13538 12.5326C8.12586 12.5323 8.02404 12.5292 7.91564 12.4693C7.86757 12.4427 7.66097 12.32 7.59725 12.0021C7.53007 11.667 7.68243 11.4348 7.72589 11.3755C7.81313 11.2564 7.91708 11.2027 7.92138 11.2005C7.95089 11.1838 7.97846 11.1713 7.99694 11.1633C8.03565 11.1467 8.08051 11.1302 8.12634 11.1144C9.60679 10.6043 11.0924 10.1221 12.5777 9.65295C12.9594 9.53239 13.3291 9.41379 13.6888 9.28425C13.4528 9.30331 13.2159 9.3236 12.9777 9.344C12.8768 9.35263 12.7758 9.36129 12.6745 9.36988C11.7768 9.44597 10.8611 9.51673 9.93535 9.51673H6.1385C5.98063 9.51673 5.81692 9.5234 5.64109 9.53106C5.62967 9.53156 5.61819 9.53206 5.60666 9.53256C5.44393 9.53968 5.27104 9.54725 5.09773 9.54917C4.7278 9.55326 4.32186 9.53276 3.92149 9.41421C3.8361 9.38893 3.73838 9.35012 3.64331 9.29357C3.55682 9.24213 3.42608 9.14896 3.32285 8.98875C3.20191 8.80105 3.11897 8.51139 3.2086 8.19193C3.28244 7.92875 3.44367 7.76251 3.56315 7.66419C4.04661 7.26636 4.61775 7.0168 5.15547 6.83724C5.23427 6.81093 5.31366 6.78574 5.39313 6.76155C4.01471 6.95899 2.62627 7.06989 1.23012 7.02579C1.1261 7.02251 0.965592 7.00742 0.815523 6.91492C0.731946 6.86341 0.623317 6.77035 0.546266 6.60914C0.464784 6.43866 0.4503 6.2583 0.46945 6.10821C0.501213 5.85925 0.624092 5.69043 0.670888 5.62862C0.735361 5.54345 0.808577 5.46965 0.871461 5.41148C1.11541 5.18583 1.45597 4.96836 1.51495 4.93081C2.56001 4.2655 3.71036 3.87726 4.76616 3.52093C4.93914 3.46255 5.10958 3.40503 5.2766 3.34728C8.68963 2.16731 12.1318 1.04896 15.5703 0.0200547C15.874 -0.0708006 16.1805 0.155623 16.255 0.525786ZM19.4527 3.24411C19.4517 3.24473 19.4506 3.2454 19.4493 3.24611C19.4596 3.23864 19.4621 3.23824 19.4527 3.24411ZM10.7976 13.9214C10.7978 13.9213 10.7979 13.9213 10.798 13.9212C10.7921 13.9238 10.7912 13.9238 10.7976 13.9214ZM8.37436 12.4646C8.37328 12.4651 8.3731 12.4652 8.374 12.4648C8.37411 12.4648 8.37423 12.4647 8.37436 12.4646ZM4.13978 8.05309C4.13478 8.05011 4.13553 8.04995 4.14039 8.05344C4.14018 8.05332 4.13998 8.0532 4.13978 8.05309ZM4.19203 8.81207C4.18877 8.81554 4.18684 8.81721 4.1867 8.81718C4.18656 8.81715 4.18818 8.81542 4.19203 8.81207ZM1.23071 5.64358C1.23081 5.64349 1.23297 5.64373 1.23691 5.64456C1.23259 5.64408 1.23062 5.64367 1.23071 5.64358Z" fill="black"/>
<path fill-rule="evenodd" clip-rule="evenodd" d="M37.0199 31.0106C36.9332 30.4836 36.4448 30.1149 35.9101 30.1813C35.362 30.2494 34.9729 30.7488 35.0409 31.2969C35.2439 32.9314 35.2311 34.348 35.1973 36.0435C35.1745 37.19 35.8403 38.2458 36.6825 38.8561C37.5474 39.4829 38.8333 39.788 39.9862 38.9921C40.5595 38.5964 40.9423 38.0759 41.104 37.4697C41.2616 36.879 41.1854 36.2983 41.0107 35.801C40.6718 34.8362 39.8994 33.9928 39.1203 33.5341L39.1196 33.5337C38.3596 33.0863 38.035 32.8951 37.8015 32.6505C37.6151 32.4552 37.4416 32.1705 37.246 31.4277C37.2037 31.267 37.1245 31.1257 37.0199 31.0106ZM37.2163 34.7213C37.2141 35.1691 37.2061 35.6204 37.1969 36.0833C37.1897 36.4469 37.4316 36.929 37.8561 37.2366C38.2578 37.5278 38.5975 37.5205 38.8501 37.3461C39.0788 37.1883 39.1464 37.0487 39.1716 36.9541C39.201 36.844 39.2008 36.6831 39.1237 36.4638C38.9592 35.9955 38.5271 35.5058 38.1055 35.2576C38.0512 35.2256 37.9971 35.1938 37.9432 35.1623C37.6931 35.0157 37.4483 34.8723 37.2163 34.7213Z" fill="black"/>
</svg>
