<svg width="61" height="63" viewBox="0 0 61 63" fill="none" xmlns="http://www.w3.org/2000/svg">
<path fill-rule="evenodd" clip-rule="evenodd" d="M51.2949 2.2204C51.4883 2.02697 51.6578 1.86344 51.8262 1.75557C51.9364 1.68495 51.9909 1.67389 52.0064 1.6725C52.2323 1.73248 52.5096 1.99791 52.7659 2.66084C53.0025 3.27287 53.1269 3.97853 53.2221 4.5181L53.2221 4.51812L53.2221 4.51815L53.2221 4.51817L53.2278 4.55061C53.2651 4.76184 53.3787 4.94044 53.5352 5.06308C53.7798 5.37656 54.2211 5.47929 54.5847 5.28678C55.3045 4.9057 55.8977 4.65798 56.4741 4.57218C57.0254 4.49011 57.6071 4.55 58.3115 4.87203C58.9028 5.14232 59.1354 5.60319 59.1467 6.20675C59.1591 6.85929 58.8952 7.62436 58.495 8.22466C58.239 8.60873 58.3427 9.12764 58.7268 9.38368C59.1109 9.63972 59.6298 9.53594 59.8858 9.15188C60.4293 8.33662 60.8381 7.24248 60.818 6.17522C60.797 5.05898 60.292 3.93944 59.0065 3.35179C58.0232 2.90229 57.1156 2.78671 56.228 2.91884C55.698 2.99773 55.1933 3.16258 54.705 3.37215C54.6153 2.95882 54.4942 2.49587 54.325 2.05807C54.0316 1.29936 53.4806 0.318007 52.4056 0.0492535C51.7943 -0.103582 51.2675 0.128316 50.9245 0.348077C50.5869 0.564355 50.3004 0.850871 50.123 1.02829L50.1129 1.03843C49.5572 1.5941 49.2299 2.28423 48.9888 2.86206C48.3385 4.42024 47.8244 6.04133 47.3252 7.61574L47.3251 7.61605L47.2562 7.83323C46.5619 7.51048 45.6758 7.19832 44.8431 7.11051C44.2425 7.04717 43.5224 7.08435 42.9322 7.47864C42.2826 7.91269 41.9893 8.63809 42.0003 9.50786C42.0202 11.0818 42.8851 12.1898 43.9455 12.9173C44.9845 13.6301 46.2631 14.0221 47.3269 14.2204C47.3773 15.7975 47.3166 17.3436 47.2536 18.95V18.95C47.2354 19.4131 47.217 19.8812 47.2011 20.3565C47.0649 24.4109 47.0479 28.4637 47.0479 32.5062C47.0479 32.9678 47.4221 33.342 47.8836 33.342C48.3452 33.342 48.7194 32.9678 48.7194 32.5062C48.7194 28.4657 48.7365 24.4369 48.8717 20.4126C48.8869 19.959 48.9048 19.5053 48.9227 19.051L48.9227 19.0508C48.9951 17.2111 49.0679 15.3619 48.9682 13.4676C48.9439 13.0066 48.5506 12.6526 48.0896 12.6769C48.038 12.6796 47.9878 12.6869 47.9392 12.6985C47.8499 12.6404 47.7479 12.5985 47.6366 12.5778C46.6927 12.4022 45.6649 12.0697 44.8911 11.5389C44.1376 11.022 43.6829 10.3658 43.6717 9.48671C43.6657 9.01122 43.8084 8.90358 43.8609 8.86852C43.9728 8.79371 44.2209 8.72572 44.6678 8.77285C45.5497 8.86584 46.6352 9.3451 47.1885 9.68562C47.3469 9.78312 47.5251 9.82141 47.6973 9.80665C48.0769 9.83982 48.4427 9.60848 48.5647 9.23046C48.6877 8.8493 48.808 8.47 48.9277 8.09276L48.9278 8.09241L48.9281 8.09162L48.9282 8.09127C49.4259 6.52239 49.9124 4.98912 50.5314 3.50583C50.7573 2.96448 50.9829 2.5324 51.2949 2.2204ZM52.0107 1.67251L52.0112 1.67244L52.011 1.67239L52.01 1.67233L52.0081 1.67237L52.0107 1.67251Z" fill="black"/>
<path fill-rule="evenodd" clip-rule="evenodd" d="M8.56431 3.06113C8.33502 2.91194 8.13537 2.78704 7.9483 2.71637C7.82583 2.6701 7.77022 2.67057 7.75477 2.67242C7.54619 2.77788 7.32989 3.09496 7.21641 3.7966C7.11163 4.44437 7.13597 5.16054 7.15459 5.70813V5.70815L7.15571 5.74107C7.16298 5.95545 7.08884 6.1537 6.9611 6.30609C6.78673 6.66339 6.37624 6.85525 5.98066 6.74221C5.19754 6.51842 4.56596 6.39888 3.9843 6.43428C3.42789 6.46814 2.87126 6.64716 2.24875 7.10807C1.72627 7.49493 1.59416 7.99396 1.70799 8.5868C1.83106 9.22775 2.2476 9.92162 2.76342 10.426C3.09344 10.7488 3.09935 11.2779 2.77662 11.6079C2.45389 11.938 1.92474 11.9439 1.59472 11.6211C0.894194 10.9361 0.267696 9.9503 0.0664136 8.902C-0.144107 7.80558 0.118126 6.60574 1.25408 5.76467C2.12299 5.12132 2.98699 4.82032 3.88276 4.7658C4.41757 4.73325 4.94545 4.79003 5.46656 4.89396C5.46876 4.47102 5.49135 3.99304 5.56629 3.52969C5.69618 2.72669 6.03204 1.65251 7.02811 1.167C7.59456 0.8909 8.15795 1.0087 8.53905 1.15268C8.9141 1.29437 9.25366 1.51537 9.46393 1.65222L9.47594 1.66004C10.1346 2.08862 10.5978 2.69602 10.9533 3.2114C11.9121 4.60118 12.7507 6.08072 13.5651 7.51764L13.5655 7.51835L13.6776 7.71608C14.29 7.25657 15.0923 6.76767 15.8888 6.50935C16.4633 6.32302 17.1755 6.21029 17.8345 6.47385C18.5599 6.76399 18.997 7.41294 19.1664 8.26615C19.4728 9.8101 18.856 11.0732 17.9692 12.0045C17.1004 12.9169 15.9306 13.5652 14.9309 13.9795C15.2082 15.5328 15.5877 17.0328 15.982 18.5914L15.982 18.5914C16.0956 19.0407 16.2105 19.4949 16.3245 19.9566C17.2972 23.8949 18.153 27.8563 18.99 31.8113C19.0856 32.2629 18.797 32.7064 18.3454 32.802C17.8938 32.8976 17.4503 32.609 17.3547 32.1574C16.5181 28.2045 15.6672 24.2665 14.7017 20.3574C14.5929 19.9167 14.4815 19.4765 14.3699 19.0357L14.3699 19.0356C13.9181 17.2508 13.464 15.4567 13.1693 13.5828C13.0976 13.1268 13.4092 12.699 13.8651 12.6273C13.9162 12.6193 13.9669 12.616 14.0167 12.6173C14.0921 12.542 14.1832 12.4799 14.2878 12.4366C15.1749 12.0693 16.1116 11.5313 16.7587 10.8518C17.3889 10.19 17.6979 9.45383 17.5268 8.59152C17.4342 8.12509 17.2724 8.04932 17.2138 8.02589C17.0887 7.97588 16.8319 7.96073 16.4045 8.09938C15.561 8.37294 14.5982 9.06656 14.1274 9.51427C13.9927 9.64234 13.8265 9.71669 13.6552 9.73796C13.2905 9.84931 12.8845 9.69875 12.6868 9.35401C12.4875 9.0066 12.2913 8.66046 12.0961 8.31619L12.0959 8.31586L12.0956 8.31534L12.0953 8.31477C11.2835 6.88294 10.4901 5.48361 9.57742 4.16063C9.2443 3.67777 8.93415 3.30177 8.56431 3.06113ZM7.7501 2.67335C7.75014 2.67342 7.75117 2.67326 7.75306 2.67265C7.751 2.67297 7.75006 2.67328 7.7501 2.67335Z" fill="black"/>
<path fill-rule="evenodd" clip-rule="evenodd" d="M36.5752 25.0212C43.1948 24.7782 49.4017 26.6078 53.8717 31.8787C57.5218 36.1829 58.9632 42.1617 57.3363 47.6677C55.7941 52.8874 51.5134 57.5656 46.9031 60.1318C40.4244 63.7383 33.4768 63.6446 26.7056 61.5036C20.3846 59.5051 13.8647 54.5949 12.9178 47.423C12.3686 47.3778 11.9593 46.8965 12.0032 46.3469C13.0221 33.5853 24.5557 25.4626 36.5752 25.0212ZM14.221 44.7169C14.5632 44.8758 14.8005 45.2224 14.8005 45.6245C14.8005 52.4833 20.8189 57.5448 27.3085 59.5967C33.7128 61.6216 40.0602 61.652 45.9304 58.3843C50.1726 56.0229 54.0511 51.7281 55.4183 47.101C56.8426 42.2805 55.5873 36.994 52.3463 33.1723C48.3827 28.4984 42.8477 26.7922 36.6486 27.0199C25.9471 27.4129 16.0202 34.2412 14.221 44.7169Z" fill="black"/>
<path fill-rule="evenodd" clip-rule="evenodd" d="M29.7882 29.9386C30.3194 29.7874 30.8725 30.0956 31.0236 30.6268C31.0451 30.7023 31.0668 30.7783 31.0885 30.8547C31.5195 32.367 31.999 34.0495 32.1838 35.7126C32.2448 36.2615 31.8492 36.756 31.3003 36.817C30.7514 36.8779 30.257 36.4824 30.196 35.9335C30.0302 34.4416 29.5928 32.9052 29.1494 31.3479C29.1329 31.2899 29.1164 31.232 29.0999 31.174C28.9488 30.6428 29.2569 30.0897 29.7882 29.9386Z" fill="black"/>
<path fill-rule="evenodd" clip-rule="evenodd" d="M38.9218 29.0004C39.4739 29.0167 39.9082 29.4774 39.892 30.0294C39.8497 31.4676 39.898 32.4985 40.213 33.9159C40.3328 34.455 39.9929 34.9892 39.4537 35.109C38.9146 35.2288 38.3804 34.8889 38.2606 34.3497C37.8992 32.7232 37.8474 31.5174 37.8928 29.9706C37.9091 29.4186 38.3698 28.9842 38.9218 29.0004Z" fill="black"/>
<path fill-rule="evenodd" clip-rule="evenodd" d="M30.1456 40.3943C30.2578 40.3913 30.4107 40.3901 30.6029 40.3901C30.7928 40.3901 30.9702 40.443 31.1214 40.5349C31.6363 40.5857 32.3211 40.654 33.0623 40.7401C34.2182 40.8745 35.5718 41.0585 36.8128 41.3079C38.0193 41.5504 39.2417 41.877 40.0557 42.3421C40.3426 42.506 40.5586 42.7635 40.6639 43.0834C40.7602 43.3758 40.7427 43.6537 40.7036 43.8617C40.6283 44.2615 40.4226 44.6585 40.2191 44.9915C39.7961 45.6835 39.1264 46.5014 38.4619 47.2716C38.1249 47.6622 37.7772 48.0541 37.4484 48.4247L37.4457 48.4277C37.1139 48.8017 36.8029 49.1522 36.531 49.4691C36.2569 49.7885 36.0377 50.0562 35.8849 50.2652C35.8084 50.3699 35.7597 50.4449 35.7318 50.4936C35.7293 50.498 35.7271 50.502 35.7251 50.5055C35.5841 51.0022 35.0824 51.3148 34.5673 51.2118C34.0258 51.1035 33.6745 50.5766 33.7828 50.0351C33.8272 49.8134 33.9259 49.6227 33.9954 49.5011C34.0744 49.363 34.1703 49.2217 34.2702 49.085C34.4703 48.8113 34.7308 48.4958 35.0133 48.1666C35.2971 47.8358 35.6186 47.4734 35.9466 47.1039L35.9497 47.1003C36.2809 46.727 36.6203 46.3445 36.9477 45.965C37.6139 45.1929 38.1844 44.4855 38.5125 43.9486C38.5335 43.9142 38.5529 43.8815 38.5709 43.8503C38.0383 43.6427 37.298 43.4454 36.4187 43.2687C35.2563 43.0351 33.9649 42.8585 32.8314 42.7267C32.0542 42.6364 31.3788 42.57 30.8617 42.5191C30.6163 42.4949 30.4066 42.4743 30.2385 42.4563C30.1171 42.4433 30.0015 42.4299 29.9157 42.4164C29.9148 42.4162 29.9137 42.4161 29.9126 42.4159C29.8844 42.4115 29.7936 42.3972 29.7007 42.367C29.6727 42.3578 29.6132 42.3374 29.5435 42.3013C29.5427 42.3009 29.5417 42.3004 29.5406 42.2998C29.5004 42.2791 29.2952 42.1736 29.1482 41.9342C29.0556 41.7833 28.9752 41.5594 29.0071 41.2916C29.038 41.0316 29.1611 40.8456 29.2605 40.7362C29.4253 40.5548 29.6121 40.4854 29.6523 40.4705C29.6532 40.4701 29.6541 40.4698 29.6548 40.4695C29.7645 40.4286 29.8608 40.4153 29.8834 40.4122C29.8842 40.4121 29.8849 40.412 29.8855 40.4119C29.9239 40.4066 29.9588 40.4036 29.9836 40.4017C30.0345 40.398 30.0907 40.3958 30.1456 40.3943ZM35.714 50.5273C35.7139 50.5274 35.7147 50.5257 35.7164 50.5221C35.7149 50.5255 35.7141 50.5273 35.714 50.5273ZM30.2168 40.439C30.217 40.4389 30.2205 40.4395 30.2268 40.4407C30.2197 40.4396 30.2166 40.439 30.2168 40.439Z" fill="black"/>
</svg>
