<svg width="60" height="54" viewBox="0 0 60 54" fill="none" xmlns="http://www.w3.org/2000/svg">
<path fill-rule="evenodd" clip-rule="evenodd" d="M44.4998 12.7611C49.254 15.7637 52.8181 20.5119 52.9933 26.5825C53.1475 31.9243 50.2244 36.6831 46.182 39.7395C41.4653 43.3059 36.6321 45 30.6716 45C25.8389 45 20.3693 43.0015 16.8455 39.6433C15.4936 38.355 14.2506 36.7454 13.3379 35.1284C13.0435 34.6069 12.7954 34.0807 12.5867 33.5512C10.6704 29.5854 10.4048 24.7091 12.2514 20.5827C15.306 13.757 21.0768 10.2965 28.3802 9.22241C33.7321 8.43531 39.7572 9.7659 44.4998 12.7611ZM13.2775 23.8777C13.4557 23.027 13.7209 22.1953 14.077 21.3997C16.7898 15.3375 21.8778 12.2002 28.6712 11.2011C33.5287 10.4868 39.0744 11.7001 43.4318 14.4521C47.7777 17.1968 50.8429 21.3991 50.9942 26.6402C51.1255 31.1921 48.6279 35.3829 44.9758 38.1442C40.5935 41.4578 36.1808 43 30.6716 43C26.3045 43 21.3436 41.1673 18.2252 38.1955C17.0201 37.047 15.8978 35.5949 15.0796 34.1453C15.0569 34.1051 15.0345 34.0648 15.0124 34.0245C15.0004 33.8805 14.9568 33.7368 14.879 33.6038C14.7147 33.3229 14.5607 33.0355 14.4172 32.7424C13.4589 30.2608 13.485 27.6081 13.5846 24.6328C13.5945 24.3373 13.4752 24.0675 13.2775 23.8777Z" fill="black"/>
<path fill-rule="evenodd" clip-rule="evenodd" d="M25.6796 20.1692C25.2336 19.947 24.8498 19.9247 24.3952 20.2158C23.9477 20.5023 23.3398 20.9789 22.8402 21.5381C22.3208 22.1195 22.0328 22.6624 21.9952 23.0879C21.9467 23.638 21.4613 24.0446 20.9112 23.9961C20.361 23.9475 19.9544 23.4622 20.003 22.912C20.0972 21.8445 20.7276 20.9009 21.3487 20.2056C21.9897 19.4882 22.7442 18.8981 23.3167 18.5315C24.4703 17.7928 25.6178 17.904 26.5713 18.379C27.4562 18.8197 28.1975 19.5785 28.7488 20.2031C29.1143 20.6171 29.0749 21.2491 28.6608 21.6146C28.2468 21.98 27.6148 21.9407 27.2494 21.5266C26.7203 20.9272 26.1941 20.4255 25.6796 20.1692Z" fill="black"/>
<path fill-rule="evenodd" clip-rule="evenodd" d="M40.1045 20.9163C39.7647 20.2354 39.142 19.9275 38.5717 20.0151C38.2845 20.0592 38.0607 20.2217 37.5431 20.6313C37.5357 20.6405 37.5192 20.6614 37.4933 20.6988C37.4481 20.7643 37.4043 20.8349 37.3461 20.9288C37.3303 20.9545 37.3133 20.9818 37.2949 21.0113C37.2216 21.129 37.119 21.2917 37.0025 21.4366C36.9071 21.5554 36.6901 21.8102 36.3472 21.9375C35.8294 22.1296 35.2539 21.8656 35.0618 21.3479C34.894 20.8959 35.0739 20.3999 35.4667 20.1533C35.4971 20.1115 35.538 20.0491 35.5972 19.9541C35.6083 19.9363 35.6204 19.9168 35.6332 19.896C35.6935 19.7985 35.771 19.6732 35.8477 19.5621C35.9351 19.4356 36.0797 19.2391 36.2778 19.0822C36.3083 19.058 36.3401 19.0326 36.373 19.0062C36.7958 18.6677 37.4192 18.1686 38.2682 18.0382C39.8177 17.8003 41.2234 18.6793 41.8941 20.0233C42.1407 20.5175 41.94 21.118 41.4458 21.3646C40.9516 21.6112 40.3511 21.4105 40.1045 20.9163Z" fill="black"/>
<path fill-rule="evenodd" clip-rule="evenodd" d="M40.9737 31.776C41.0974 32.3142 40.7613 32.8508 40.2231 32.9746C35.6135 34.0341 30.6445 34.1954 25.9175 33.8083C25.367 33.7632 24.9573 33.2804 25.0024 32.73C25.0475 32.1796 25.5303 31.7699 26.0807 31.815C30.6618 32.1901 35.4162 32.0273 39.7751 31.0254C40.3133 30.9017 40.8499 31.2377 40.9737 31.776Z" fill="black"/>
<path fill-rule="evenodd" clip-rule="evenodd" d="M5.66931 36.103C7.59376 35.7866 9.54911 36.2275 11.2059 37.0257C11.6068 37.2188 11.9944 37.4232 12.3665 37.6212C12.4157 37.6474 12.4647 37.6735 12.5133 37.6994C12.837 37.8719 13.1485 38.0379 13.4657 38.1973C13.9592 38.4452 14.1582 39.0463 13.9103 39.5398C13.6623 40.0333 13.0613 40.2323 12.5678 39.9844C12.2274 39.8134 11.8928 39.6351 11.5708 39.4634C11.5225 39.4377 11.4745 39.4121 11.4268 39.3867C11.0561 39.1894 10.6994 39.0017 10.3378 38.8275C8.95304 38.1603 7.41663 37.8426 5.99381 38.0765C5.69331 38.1259 5.37966 38.2217 5.12994 38.3588C4.90201 38.4839 4.78609 38.6094 4.73267 38.7112C4.73996 38.7369 4.75855 38.7851 4.80385 38.8618C4.92195 39.0617 5.11884 39.2741 5.33371 39.4853C5.35549 39.5067 5.37808 39.5289 5.40137 39.5515C5.75524 39.6356 6.27025 39.811 6.66517 40.17L6.66693 40.1716C6.69243 40.1947 6.83129 40.3207 6.93769 40.4822C6.96933 40.5302 7.01945 40.6128 7.05961 40.7214C7.09511 40.8173 7.16065 41.033 7.10512 41.3015C7.03761 41.6281 6.82482 41.8761 6.5676 42.0089C6.35642 42.1179 6.1602 42.1282 6.0649 42.1282C5.73759 42.1282 5.453 42.0247 5.24871 41.9267C5.03632 41.8249 4.84322 41.6961 4.68243 41.5754C4.61634 41.5258 4.55191 41.4747 4.48995 41.4234C3.95077 41.367 3.3654 41.4148 2.89526 41.5865C2.33432 41.7913 2.05521 42.1096 2.0067 42.5808C1.94261 43.2033 2.33946 43.8593 3.30089 44.5046C4.08724 45.0324 5.0622 45.4137 5.83821 45.6219C6.33044 45.5327 6.94167 45.4905 7.50091 45.6778C7.6183 45.7171 7.73761 45.7738 7.84812 45.8491C7.93005 45.9049 8.12702 46.0501 8.24898 46.3117C8.31767 46.4591 8.38881 46.7042 8.31883 46.9951C8.24548 47.3 8.05425 47.5025 7.88276 47.6164C7.60342 47.8019 7.3107 47.8039 7.21951 47.8039C6.77172 47.8039 6.31391 47.7769 5.82508 47.6747C5.53251 47.7546 5.25103 47.8596 5.0327 47.9549C4.98947 47.9737 4.9458 47.9927 4.90181 48.0118C4.47838 48.1956 4.02459 48.3927 3.64139 48.6466C3.19045 48.9453 3.10158 49.1521 3.09273 49.2366C3.06142 49.5355 3.19344 49.8758 3.59811 50.2677C4.00076 50.6577 4.56151 50.9808 5.0553 51.1928C8.73831 52.7737 13.3343 51.9693 16.3392 49.3273C16.754 48.9627 17.3859 49.0033 17.7505 49.418C18.1152 49.8328 18.0746 50.4647 17.6598 50.8293C14.0964 53.9624 8.68382 54.9268 4.26641 53.0306C3.63995 52.7617 2.84333 52.321 2.2067 51.7044C1.57207 51.0897 0.982876 50.1808 1.10362 49.0282C1.20983 48.0143 1.96219 47.36 2.53673 46.9793C2.70307 46.8691 2.87691 46.7675 3.04968 46.6744C2.75386 46.5207 2.46313 46.351 2.18628 46.1652C1.0354 45.3927 -0.163567 44.132 0.0172114 42.376C0.166192 40.9289 1.15683 40.0921 2.20927 39.7078C2.43306 39.6261 2.66453 39.5621 2.89942 39.5142C2.72639 39.0934 2.63008 38.547 2.87426 37.967C3.15193 37.3075 3.67351 36.8767 4.16764 36.6055C4.6645 36.3328 5.20738 36.179 5.66931 36.103ZM6.14813 40.1379C6.14814 40.1379 6.14713 40.1377 6.14508 40.1369C6.14709 40.1375 6.14812 40.1379 6.14813 40.1379ZM4.72852 38.6875C4.72888 38.6876 4.72948 38.6909 4.72923 38.6968C4.72804 38.6903 4.72817 38.6873 4.72852 38.6875Z" fill="black"/>
<path fill-rule="evenodd" clip-rule="evenodd" d="M51.0639 38.0401C50.3513 37.9595 49.6128 37.9995 48.9327 38.1683C48.6332 38.2426 48.3347 38.3201 48.043 38.4017C48.0403 38.4027 48.0312 38.4062 48.0134 38.4142C47.9859 38.4265 47.9729 38.4327 47.9545 38.4417C47.9366 38.4503 47.9135 38.4615 47.8671 38.483C47.7418 38.5412 47.4894 38.6551 47.1694 38.6727C46.6179 38.7032 46.1463 38.2808 46.1159 37.7293C46.0866 37.1984 46.477 36.7415 46.9982 36.681C47.0052 36.6779 47.0142 36.674 47.0251 36.6689C47.0408 36.6616 47.0557 36.6545 47.0758 36.6449C47.0817 36.6421 47.0881 36.639 47.0952 36.6357C47.1227 36.6225 47.1581 36.6058 47.1963 36.5887C47.2723 36.5547 47.3768 36.5113 47.5001 36.4768C47.8171 36.388 48.1368 36.3051 48.451 36.2271C49.3795 35.9967 50.3583 35.9475 51.2886 36.0527C51.3176 36.056 51.3499 36.0595 51.385 36.0632C51.615 36.0878 51.9663 36.1254 52.2973 36.2108C52.6772 36.3089 53.2065 36.51 53.5815 36.9925C54.0637 37.613 53.9316 38.3165 53.7752 38.7234C53.6437 39.0651 53.4387 39.3687 53.2386 39.5977C54.3822 39.564 55.5444 39.6606 56.6755 39.9413C56.9883 40.0189 57.5702 40.1811 58.0858 40.4674C58.529 40.7135 59.3579 41.3005 59.28 42.3441C59.2154 43.2094 58.5444 43.7491 58.1499 44.0142C57.9083 44.1766 57.6487 44.3146 57.4221 44.4246C58.2632 44.8065 59.0756 45.3945 59.5977 46.2957C60.3262 47.5533 59.9568 48.7894 59.3526 49.6748C58.764 50.5374 57.876 51.2136 57.1533 51.6157C52.5394 54.1827 46.2235 52.9504 42.3686 49.8199C41.9399 49.4717 41.8746 48.8419 42.2228 48.4132C42.571 47.9845 43.2008 47.9192 43.6295 48.2673C46.9921 50.9982 52.4291 51.9553 56.1809 49.868C56.7265 49.5644 57.3395 49.0767 57.7006 48.5475C58.0462 48.0411 58.0753 47.6576 57.8671 47.2982C57.4828 46.6349 56.6812 46.1838 55.6835 45.9323C54.9757 45.7538 54.2508 45.6804 53.4924 45.6712C53.3097 45.6881 53.135 45.6987 52.9727 45.7077C52.9734 45.7076 52.9628 45.7082 52.9473 45.709L52.8838 45.7123C52.8318 45.7148 52.7609 45.7179 52.685 45.7203C52.6104 45.7227 52.5242 45.7247 52.4438 45.7243C52.4036 45.7241 52.3589 45.7233 52.3143 45.7212C52.2765 45.7194 52.2099 45.7154 52.1371 45.7033C52.1149 45.6997 52.0567 45.6896 51.9866 45.6673C51.9529 45.6565 51.8839 45.6328 51.8037 45.5884C51.747 45.5569 51.5493 45.4438 51.4128 45.1981C51.3348 45.0576 51.2789 44.8761 51.2878 44.669C51.2966 44.4654 51.3652 44.2997 51.439 44.1815C51.5694 43.973 51.7395 43.8724 51.7904 43.8432C51.9085 43.7754 52.0152 43.7477 52.038 43.7417L52.04 43.7412C52.137 43.7157 52.2353 43.7069 52.2529 43.7053C52.2539 43.7052 52.2546 43.7052 52.2551 43.7051C52.3296 43.698 52.4157 43.6932 52.4562 43.6913C52.7692 43.6769 53.0845 43.6688 53.4019 43.6703C53.5934 43.6501 53.7688 43.6223 53.935 43.5805C54.6697 43.3958 55.4325 43.1276 56.1302 42.8163C56.1449 42.8098 56.1598 42.8031 56.1748 42.7965C56.4569 42.6708 56.7726 42.5301 57.0344 42.3542C57.0904 42.3166 57.1367 42.2819 57.1746 42.2508C57.1566 42.2397 57.1368 42.2281 57.1149 42.2159C56.8374 42.0619 56.4651 41.9497 56.1938 41.8824C54.6514 41.4997 52.9754 41.5206 51.3403 41.7924C51.1381 41.826 50.9367 41.8659 50.7176 41.9092C50.6885 41.915 50.659 41.9208 50.6292 41.9267C50.3877 41.9743 50.1262 42.0249 49.8579 42.0649C49.853 42.0661 49.8454 42.0681 49.8344 42.071C49.831 42.0719 49.8267 42.073 49.8218 42.0744C49.7883 42.0834 49.7229 42.1009 49.6587 42.1148C49.5826 42.1312 49.4637 42.1527 49.3251 42.1536C49.1849 42.1545 48.9877 42.1346 48.7792 42.0372C48.6787 41.9903 48.514 41.8935 48.3799 41.7057C48.2302 41.496 48.1725 41.2476 48.197 41.0128C48.235 40.6486 48.4553 40.4306 48.4951 40.3912C48.4962 40.3902 48.4971 40.3892 48.4979 40.3884C48.614 40.2726 48.743 40.1999 48.7779 40.1802C48.7791 40.1796 48.7801 40.1789 48.7811 40.1784C48.8374 40.1465 48.8916 40.1198 48.9217 40.1051C48.9282 40.1019 48.9338 40.0991 48.9384 40.0968C49.1259 39.9882 49.3134 39.9034 49.4573 39.8389C49.4688 39.8337 49.4801 39.8286 49.4911 39.8237C49.6413 39.7564 49.7453 39.7097 49.8421 39.6567C50.5523 39.2674 51.1582 38.8551 51.6911 38.3261C51.7259 38.2916 51.7721 38.2381 51.8162 38.1736C51.8204 38.1676 51.8244 38.1616 51.8283 38.1557C51.8185 38.1529 51.8082 38.1501 51.7974 38.1474C51.6191 38.1013 51.4296 38.0805 51.1908 38.0542C51.15 38.0497 51.1078 38.045 51.0639 38.0401ZM52.4331 45.6975C52.4328 45.6974 52.4368 45.6969 52.4462 45.696C52.4382 45.697 52.4335 45.6975 52.4331 45.6975Z" fill="black"/>
<path fill-rule="evenodd" clip-rule="evenodd" d="M31.9893 1.22047C34.6589 1.13782 37.5111 1.10465 40.2409 1.8979C40.6836 2.02653 41.3371 2.33623 41.7588 2.7986C41.9741 3.03468 42.2137 3.40578 42.1958 3.88225C42.177 4.38509 41.8829 4.77373 41.5178 5.04809C40.6883 5.67147 39.6877 5.98542 38.7442 6.18034C38.1332 6.30656 37.4749 6.39401 36.882 6.47275C36.585 6.51219 36.3045 6.54945 36.0546 6.58831C32.994 7.06421 29.8092 7.22676 26.7507 7.29685C25.6533 7.322 24.5391 7.22905 23.4798 7.14068C23.1552 7.11361 22.8358 7.08696 22.5236 7.06428C22.4739 7.06066 22.423 7.05709 22.3713 7.05346C21.7424 7.00929 20.9713 6.95514 20.2455 6.68665C19.8006 6.52209 19.2933 6.19784 19.0213 5.70581C18.8756 5.44229 18.7882 5.10868 18.8596 4.74332C18.9305 4.38064 19.1389 4.08284 19.4063 3.8516C20.0452 3.29926 20.8762 2.90646 21.7141 2.61921C21.8261 2.48017 21.9853 2.37783 22.1738 2.33929C25.4245 1.67483 28.6809 1.32288 31.9893 1.22047ZM25.6026 3.35726C25.535 3.38819 25.4619 3.41009 25.3846 3.42121C24.5826 3.53654 23.6129 3.70508 22.6959 3.97471C21.7887 4.24148 21.0068 4.58659 20.4871 5.01896C20.4985 5.02887 20.5115 5.03941 20.5261 5.05046C20.6001 5.10627 20.6948 5.15819 20.7969 5.19597C21.3012 5.38252 21.8558 5.42254 22.5385 5.4718C22.5716 5.47419 22.6051 5.4766 22.6388 5.47905C22.9891 5.50451 23.333 5.53313 23.6722 5.56136C24.7126 5.64794 25.7094 5.7309 26.7143 5.70787C29.7493 5.63831 32.8526 5.47769 35.8104 5.01778C36.1337 4.9675 36.4499 4.92584 36.7634 4.88452C37.3162 4.81166 37.8608 4.73987 38.4226 4.62381C39.2553 4.45179 39.9723 4.20647 40.5212 3.80827C40.4511 3.74678 40.3537 3.67824 40.2336 3.61127C40.0754 3.52304 39.9151 3.45837 39.7974 3.42417C37.3376 2.70938 34.7191 2.72612 32.0385 2.80911C29.8705 2.87622 27.7301 3.05301 25.6026 3.35726ZM40.6238 3.92052C40.6237 3.92052 40.6229 3.91919 40.6217 3.91654C40.6233 3.91921 40.6239 3.92053 40.6238 3.92052ZM40.6359 3.71303C40.6371 3.71114 40.6379 3.71021 40.6379 3.71021C40.638 3.71021 40.6374 3.71116 40.6359 3.71303ZM20.4017 5.09906C20.4017 5.09905 20.4019 5.09862 20.4025 5.09777C20.402 5.09863 20.4017 5.09906 20.4017 5.09906Z" fill="black"/>
</svg>
