<svg width="68" height="70" viewBox="0 0 68 70" fill="none" xmlns="http://www.w3.org/2000/svg">
<path fill-rule="evenodd" clip-rule="evenodd" d="M36.0357 0.0217478C42.5273 -0.228955 48.6063 1.66122 52.9749 7.07891C56.537 11.4964 57.9352 17.618 56.3532 23.2487C54.8514 28.5942 50.6762 33.4018 46.1615 36.0448C39.814 39.7607 33.0029 39.6635 26.3722 37.4587C20.1602 35.3931 13.8058 30.3326 12.893 22.9881C12.3576 22.9313 11.9609 22.4585 12.0019 21.918C12.9937 8.85456 24.2386 0.477342 36.0357 0.0217478ZM14.2092 20.2654C14.5474 20.4257 14.7813 20.7703 14.7813 21.1695C14.7813 28.2673 20.6925 33.4624 27.0033 35.5608C33.2486 37.6375 39.4303 37.6679 45.1511 34.3188C49.2878 31.8971 53.0863 27.4826 54.4278 22.7078C55.8276 17.7251 54.5903 12.2684 51.418 8.33434C47.5448 3.53102 42.1487 1.78716 36.1128 2.02026C25.6891 2.42282 15.9547 9.43257 14.2092 20.2654Z" fill="black"/>
<path fill-rule="evenodd" clip-rule="evenodd" d="M46.7832 17.3281C46.8575 16.7799 46.496 16.272 45.9757 16.1937C45.4555 16.1154 44.9735 16.4963 44.8992 17.0445C44.7968 17.7996 44.558 18.5083 44.2003 19.0028C43.8656 19.4655 43.437 19.7381 42.8346 19.7381C41.6793 19.7381 40.7974 18.7977 40.0873 17.3453C39.8466 16.853 39.2728 16.6595 38.8056 16.9131C38.3384 17.1667 38.1548 17.7714 38.3955 18.2637C39.1651 19.8379 40.5289 21.7435 42.8346 21.7435C44.1173 21.7435 45.075 21.1016 45.7139 20.2185C46.3297 19.3671 46.6516 18.2984 46.7832 17.3281ZM32.7883 17.5746C33.3138 17.5746 33.7398 18.0235 33.7398 18.5773C33.7398 19.8692 33.4253 20.9828 32.739 21.8827C32.0626 22.7696 31.0993 23.3512 29.9699 23.738C28.8686 24.1151 27.5886 24.355 26.2885 23.9944C25.5559 23.7913 24.9381 23.5578 24.4411 23.0691C23.9617 22.5976 23.6862 21.9724 23.408 21.2924C23.2 20.7838 23.4226 20.1939 23.9052 19.9747C24.3878 19.7555 24.9477 19.99 25.1557 20.4986C25.4478 21.2127 25.5903 21.4562 25.7395 21.6029C25.8711 21.7323 26.0925 21.8664 26.7729 22.0551C27.5698 22.2761 28.4426 22.1524 29.3817 21.8308C30.293 21.5186 30.886 21.1111 31.2556 20.6264C31.6153 20.1548 31.8367 19.5143 31.8367 18.5773C31.8367 18.0235 32.2627 17.5746 32.7883 17.5746ZM41.3351 29.5816C41.7454 29.9275 41.812 30.5585 41.4837 30.9909C40.322 32.521 38.7087 33.1275 37.1074 33.275C35.523 33.421 33.8733 33.1279 32.492 32.7854C31.9805 32.6585 31.6633 32.1187 31.7837 31.5797C31.9041 31.0406 32.4164 30.7065 32.9279 30.8333C34.2443 31.1597 35.66 31.3953 36.9417 31.2772C38.2064 31.1607 39.2595 30.7103 39.9976 29.7382C40.3259 29.3057 40.9247 29.2356 41.3351 29.5816Z" fill="black"/>
<path fill-rule="evenodd" clip-rule="evenodd" d="M55.3982 51.036C55.3195 50.9725 55.1896 50.8839 54.9789 50.7731C53.9024 50.2068 52.304 50.0205 50.9413 50.1143C50.9441 50.1141 50.9395 50.1147 50.928 50.1162C50.8909 50.1209 50.782 50.1346 50.6211 50.1605C50.4658 50.1855 50.2901 50.2174 50.1265 50.2537C49.8793 50.7051 49.3106 50.8834 48.841 50.6514C48.749 50.6059 48.6248 50.5344 48.5077 50.4237C48.3893 50.3117 48.2326 50.115 48.1845 49.8278C48.1685 49.7322 48.166 49.6431 48.1735 49.5603C48.1562 49.415 48.1727 49.2638 48.2281 49.1174C48.514 48.361 48.4546 47.3108 48.0412 46.4648C47.6398 45.6435 47.0002 45.1731 46.1858 45.1947C45.4035 45.2155 44.8325 45.7659 44.6296 46.6588C44.4205 47.5788 44.6976 48.5226 45.3006 48.9971C45.5976 49.2306 45.7187 49.6007 45.6452 49.943C45.6449 49.9883 45.6414 50.0341 45.6344 50.0801C45.6052 50.2718 45.5321 50.558 45.3043 50.8012C45.0453 51.0777 44.728 51.1527 44.5147 51.1671C44.3629 51.1773 44.2017 51.1574 44.1629 51.1527L44.1554 51.1518C44.1445 51.1506 44.1363 51.1498 44.1302 51.1493C43.6527 51.205 43.1828 51.276 42.6944 51.3498L42.6943 51.3499C42.5372 51.3736 42.3781 51.3976 42.2163 51.4215C41.5538 51.5194 40.8607 51.6124 40.1478 51.6543C39.1989 51.71 38.1737 51.7303 37.1658 51.7504L37.1657 51.7504C36.4178 51.7652 35.6793 51.7799 34.9887 51.8087C33.2895 51.8795 31.6624 52.0362 30.1369 52.46C29.6219 52.6031 29.0857 52.3075 28.9392 51.7998C28.7926 51.2921 29.0914 50.7645 29.6064 50.6214C31.3466 50.1379 33.1489 49.9732 34.9019 49.9002C35.7072 49.8666 36.4659 49.8524 37.2083 49.8384L37.2084 49.8384C38.154 49.8207 39.0731 49.8034 40.0278 49.7474C40.6507 49.7109 41.2737 49.6285 41.9241 49.5324C42.071 49.5107 42.2203 49.4881 42.3714 49.4653L42.3724 49.4651C42.6233 49.4272 42.8792 49.3885 43.1376 49.3518C42.6118 48.3872 42.5125 47.2309 42.7383 46.2373C43.0701 44.7776 44.1959 43.3375 46.1288 43.2862C47.9196 43.2386 49.1566 44.3501 49.787 45.6401C50.1777 46.4396 50.3725 47.369 50.3396 48.2707C50.5612 48.2358 50.7366 48.2143 50.8015 48.2099C52.3516 48.1032 54.3632 48.2872 55.8884 49.0896C56.6863 49.5093 57.4843 50.1564 57.4233 51.1307C57.3947 51.5859 57.175 51.9473 56.949 52.2049C56.7227 52.4628 56.441 52.6742 56.1671 52.846C55.8618 53.0375 55.51 53.2126 55.1511 53.369C55.417 53.5747 55.6699 53.8015 55.9003 54.0454C56.6294 54.8173 57.2535 55.8945 57.141 57.122C57.0766 57.825 56.7449 58.4229 56.1102 58.7341C55.5606 59.0036 54.9554 58.9672 54.5065 58.8847C54.3819 58.8618 54.2569 58.833 54.1328 58.7996C54.2073 59.1633 54.2294 59.5648 54.1345 59.9597C53.9913 60.5553 53.5932 61.0694 52.9249 61.3341C52.0929 61.6636 51.2044 61.5227 50.5055 61.2526C49.7975 60.979 49.1354 60.5185 48.6884 59.9897C48.3455 59.584 48.4007 58.982 48.8116 58.6452C49.2226 58.3083 49.8338 58.3642 50.1768 58.7699C50.3963 59.0296 50.7793 59.3089 51.2095 59.4751C51.6488 59.6448 51.9914 59.6438 52.198 59.562C52.243 59.5442 52.2432 59.5426 52.2459 59.5267C52.2465 59.5235 52.2471 59.5198 52.2482 59.5153C52.2678 59.4338 52.269 59.254 52.1814 58.9774C52.0979 58.7137 51.957 58.4372 51.7959 58.2054C51.6229 57.9564 51.4844 57.841 51.4467 57.8186C50.9877 57.5461 50.8391 56.9592 51.1146 56.5077C51.3901 56.0563 51.9855 55.9113 52.4444 56.1838C52.4666 56.197 52.4886 56.2106 52.5104 56.2248C52.752 56.1689 53.0155 56.204 53.2434 56.3433C53.5877 56.5538 54.2868 56.9036 54.857 57.0083C55.037 57.0413 55.1447 57.0386 55.1991 57.0324C55.2034 57.0122 55.2078 56.984 55.2113 56.9457C55.2546 56.4732 55.0175 55.9092 54.4835 55.3439C53.9728 54.8034 53.3012 54.3856 52.7431 54.1889C52.306 54.223 51.8854 53.9595 51.7436 53.5304C51.5779 53.0287 51.856 52.4907 52.3648 52.3287C52.4238 52.3099 52.4879 52.2897 52.5562 52.2682L52.5569 52.268C53.2581 52.0472 54.4033 51.6865 55.1236 51.2348C55.2443 51.1591 55.3341 51.092 55.3982 51.036ZM55.5115 51.1508C55.5112 51.1508 55.5093 51.1481 55.5068 51.1425C55.5105 51.148 55.5118 51.1508 55.5115 51.1508ZM55.1853 57.077C55.1851 57.0767 55.1862 57.0739 55.189 57.0695C55.1868 57.0751 55.1854 57.0773 55.1853 57.077Z" fill="black"/>
<path fill-rule="evenodd" clip-rule="evenodd" d="M19.4218 55.8733C19.4981 55.8069 19.6246 55.7135 19.8309 55.5948C20.8854 54.9885 22.4757 54.7424 23.841 54.7849C23.8382 54.7848 23.8428 54.7852 23.8543 54.7862C23.8916 54.7895 24.0009 54.7992 24.1627 54.8191C24.3188 54.8382 24.4956 54.8635 24.6605 54.8936C24.9244 55.3353 25.4995 55.4922 25.96 55.2427C26.0502 55.1938 26.1717 55.1177 26.2845 55.0027C26.3986 54.8864 26.5478 54.6839 26.5851 54.3951C26.5975 54.299 26.5967 54.2098 26.5861 54.1274C26.5978 53.9816 26.5757 53.831 26.5149 53.6868C26.2007 52.9417 26.2206 51.89 26.602 51.0291C26.9722 50.1933 27.5938 49.6992 28.4084 49.6902C29.1909 49.6816 29.7822 50.2101 30.0185 51.0949C30.262 52.0063 30.0205 52.9599 29.4357 53.4566C29.1478 53.7012 29.0406 54.0755 29.1269 54.4148C29.1289 54.4601 29.1341 54.5057 29.1429 54.5515C29.1792 54.7419 29.2631 55.0251 29.4998 55.2596C29.769 55.5262 30.0889 55.5893 30.3026 55.5956C30.4546 55.6002 30.615 55.5742 30.6536 55.568L30.6611 55.5668C30.6719 55.5652 30.6801 55.5641 30.6861 55.5634C31.1654 55.6012 31.6376 55.6545 32.1285 55.7099L32.1297 55.71C32.2872 55.7278 32.4467 55.7458 32.6089 55.7636C33.2746 55.8365 33.9707 55.9034 34.6847 55.9185C35.6351 55.9385 36.6603 55.9204 37.6683 55.9025C38.4163 55.8893 39.1547 55.8762 39.846 55.8791C41.5467 55.886 43.1785 55.9815 44.7188 56.3478C45.2388 56.4714 45.7636 56.1559 45.8909 55.643C46.0183 55.1302 45.6999 54.6142 45.1799 54.4905C43.4228 54.0727 41.6156 53.9758 39.861 53.9686C39.055 53.9653 38.2963 53.9796 37.5539 53.9936L37.5538 53.9936C36.6082 54.0113 35.6892 54.0286 34.7331 54.0085C34.1091 53.9953 33.4835 53.9364 32.8299 53.8648C32.6824 53.8487 32.5323 53.8317 32.3804 53.8145L32.3794 53.8144L32.3794 53.8144C32.1273 53.786 31.8701 53.7569 31.6105 53.7299C32.0998 52.7462 32.1556 51.587 31.8926 50.6026C31.5063 49.1564 30.3272 47.7596 28.3937 47.7809C26.6024 47.8006 25.408 48.9578 24.8265 50.2705C24.466 51.0841 24.3063 52.0201 24.373 52.92C24.1503 52.8934 23.9742 52.8786 23.9092 52.8765C22.3562 52.8282 20.3529 53.0876 18.8589 53.9466C18.0773 54.396 17.3042 55.0727 17.4018 56.0439C17.4474 56.4978 17.6806 56.8506 17.916 57.0996C18.1519 57.3488 18.4412 57.5495 18.7214 57.7109C19.0337 57.8908 19.3918 58.0526 19.7563 58.1954C19.4984 58.4109 19.2541 58.6471 19.0331 58.8994C18.3334 59.6981 17.7503 60.798 17.9088 62.0204C17.9995 62.7205 18.3535 63.3056 18.9994 63.5927C19.5587 63.8413 20.1621 63.7822 20.6076 63.683C20.7313 63.6554 20.8551 63.6219 20.9778 63.5839C20.9171 63.9501 20.9101 64.3522 21.0198 64.7432C21.1852 65.333 21.6023 65.8318 22.2801 66.0712C23.1238 66.3693 24.0064 66.1951 24.6947 65.899C25.3919 65.599 26.0363 65.1139 26.4631 64.5687C26.7905 64.1504 26.7128 63.551 26.2895 63.2298C25.8661 62.9086 25.2575 62.9873 24.93 63.4057C24.7204 63.6734 24.3481 63.9669 23.9245 64.1491C23.4919 64.3353 23.1494 64.3471 22.9399 64.2731C22.8943 64.257 22.894 64.2554 22.8907 64.2396C22.8901 64.2365 22.8893 64.2328 22.888 64.2284C22.8654 64.1476 22.8574 63.968 22.9345 63.6883C23.0081 63.4216 23.1386 63.14 23.2908 62.9023C23.4543 62.6471 23.5884 62.5265 23.6253 62.5027C24.0736 62.2132 24.2002 61.6211 23.9079 61.1803C23.6156 60.7395 23.0152 60.617 22.5669 60.9065C22.5452 60.9205 22.5237 60.935 22.5025 60.95C22.2589 60.9032 21.9969 60.9481 21.7744 61.096C21.4383 61.3192 20.7528 61.695 20.1869 61.821C20.0082 61.8608 19.9006 61.8621 19.8459 61.858C19.8409 61.8379 19.8354 61.8099 19.8305 61.7718C19.7695 61.3013 19.9853 60.7287 20.4977 60.1438C20.9877 59.5845 21.6431 59.1418 22.1934 58.9242C22.6316 58.942 23.042 58.6628 23.1675 58.2287C23.3143 57.7212 23.0162 57.194 22.5017 57.0512C22.4417 57.0345 22.3767 57.0167 22.3074 56.9977C21.5984 56.8034 20.4404 56.486 19.7037 56.0617C19.5802 55.9905 19.488 55.9268 19.4218 55.8733ZM19.3129 55.9922C19.3132 55.9923 19.315 55.9895 19.3173 55.9838C19.3138 55.9894 19.3127 55.9922 19.3129 55.9922ZM19.3055 55.7593L19.3043 55.7573C19.3042 55.7573 19.3046 55.7579 19.3055 55.7593ZM19.8615 61.902C19.8616 61.9017 19.8604 61.8989 19.8574 61.8946C19.8598 61.9002 19.8613 61.9023 19.8615 61.902Z" fill="black"/>
</svg>
