<svg width="46" height="54" viewBox="0 0 46 54" fill="none" xmlns="http://www.w3.org/2000/svg">
<path fill-rule="evenodd" clip-rule="evenodd" d="M35.6782 12.1891C41.125 15.287 45.2869 20.5406 45.8063 27.2954C46.7575 39.6664 37.0754 51.4195 24.5288 52.3233C19.049 52.718 14.0498 51.6142 9.58766 48.1452C4.85948 44.4694 3.50559 39.8686 2.71545 34.2995C2.63787 33.7527 3.01825 33.2465 3.56506 33.1689C4.11187 33.0913 4.61804 33.4717 4.69562 34.0185C5.46114 39.4142 6.70544 43.3712 10.8152 46.5662C14.8111 49.6728 19.2924 50.6952 24.3851 50.3284C35.7841 49.5074 44.6817 38.7573 43.8122 27.4488C43.354 21.4905 39.6861 16.7695 34.6894 13.9275C29.6818 11.0794 23.4342 10.1793 18.0042 11.8064C12.3313 13.5062 6.9295 17.5835 4.02146 22.7192C1.29526 27.5338 1.5536 33.2393 3.44726 38.406C3.63732 38.9246 3.37102 39.499 2.85247 39.6891C2.33392 39.8791 1.75947 39.6128 1.56942 39.0943C-0.453138 33.5759 -0.824705 27.2187 2.2811 21.7338C5.46438 16.112 11.3055 11.7257 17.4301 9.89055C23.4325 8.09199 30.2422 9.09723 35.6782 12.1891Z" fill="black"/>
<path fill-rule="evenodd" clip-rule="evenodd" d="M23.3473 29.0887C23.3234 29.1114 23.2864 29.1528 23.2414 29.2243C22.7658 29.9805 22.6366 30.9341 22.7958 31.9638C22.9551 32.9943 23.3944 34.0253 23.9476 34.8389C24.2582 35.2956 24.1397 35.9176 23.683 36.2281C23.2263 36.5387 22.6043 36.4202 22.2938 35.9635C21.5917 34.931 21.0287 33.6238 20.8193 32.2693C20.6098 30.9141 20.7455 29.4361 21.5485 28.1594C21.7924 27.7718 22.1131 27.4504 22.5245 27.2547C22.9403 27.0569 23.3703 27.0251 23.7648 27.0893C24.5023 27.2092 25.1656 27.6705 25.671 28.1105C26.7135 29.0182 27.6231 30.321 27.9676 30.8723C28.2604 31.3406 28.118 31.9576 27.6496 32.2503C27.1813 32.543 26.5644 32.4006 26.2717 31.9323C25.9693 31.4486 25.1827 30.3372 24.3577 29.6189C23.9293 29.2459 23.616 29.0913 23.4438 29.0633C23.4107 29.058 23.3933 29.0592 23.388 29.0599C23.3844 29.0603 23.384 29.0606 23.3837 29.0608C23.3836 29.0608 23.3836 29.0608 23.3835 29.0608L23.3835 29.0609C23.3825 29.0613 23.3701 29.0672 23.3473 29.0887Z" fill="black"/>
<path fill-rule="evenodd" clip-rule="evenodd" d="M30.5382 27.0028C30.3734 26.9116 30.2897 26.9208 30.2166 26.9494C30.0457 27.0163 29.8064 27.2263 29.5304 27.6701C29.2694 28.0899 29.0623 28.5733 28.873 29.0148L28.8682 29.0262C28.5358 29.8017 28.2529 30.6423 28.2529 31.2686C28.2529 31.8209 27.8052 32.2686 27.2529 32.2686C26.7006 32.2686 26.2529 31.8209 26.2529 31.2686C26.2529 30.1961 26.6935 29.0233 27.0299 28.2383C27.0372 28.2212 27.0447 28.2037 27.0524 28.1858C27.2307 27.7693 27.4892 27.1653 27.8319 26.6141C28.1766 26.0597 28.7042 25.3935 29.4878 25.0869C30.2527 24.7876 30.9656 24.9537 31.5061 25.2526C32.0228 25.5383 32.4272 25.9641 32.7059 26.3201C33.1577 26.8974 33.4255 27.4571 33.5688 28.0636C33.7057 28.6429 33.7181 29.227 33.7181 29.8023C33.7181 30.3546 33.2704 30.8023 32.7181 30.8023C32.1659 30.8023 31.7181 30.3546 31.7181 29.8023C31.7181 29.2303 31.7005 28.8541 31.6224 28.5235C31.5508 28.2202 31.4188 27.9206 31.1308 27.5527C30.9365 27.3044 30.7269 27.1071 30.5382 27.0028Z" fill="black"/>
<path fill-rule="evenodd" clip-rule="evenodd" d="M35.0429 30.889C34.7571 30.9451 34.4605 31.0033 34.1816 31.0486C34.1265 31.0575 34.0167 31.0789 33.8893 31.1057C33.7414 31.2284 33.5565 31.3099 33.3509 31.3305C33.2135 31.3442 33.089 31.354 32.9875 31.3558C32.9445 31.3565 32.8592 31.3571 32.7646 31.3436C32.7252 31.3379 32.6138 31.321 32.4857 31.2644C32.4105 31.2311 31.9661 31.0258 31.893 30.476C31.8244 29.9598 32.1589 29.6497 32.2075 29.6046L32.2081 29.6041C32.3028 29.5162 32.3935 29.4662 32.4274 29.448C32.5068 29.4053 32.5807 29.3784 32.615 29.3662C32.6965 29.3373 32.7882 29.3114 32.8658 29.2909C33.1785 29.208 33.6649 29.1062 33.8614 29.0744C34.1045 29.035 34.3591 28.985 34.6412 28.9297C34.7152 28.9151 34.7912 28.9002 34.8693 28.8851C35.2341 28.8142 35.6334 28.74 36.0401 28.6878C36.8377 28.5854 37.7707 28.5509 38.6478 28.8587C39.5315 29.1688 40.1981 29.769 40.5076 30.5775C40.8126 31.3741 40.7226 32.245 40.353 33.0232C39.5279 34.7602 38.0552 35.411 36.5919 35.8291C36.0609 35.9808 35.5074 35.6734 35.3557 35.1423C35.2039 34.6113 35.5114 34.0578 36.0425 33.9061C37.3295 33.5383 38.0969 33.1114 38.5464 32.1651C38.7255 31.7881 38.7154 31.4899 38.6399 31.2927C38.5689 31.1075 38.3946 30.8894 37.9856 30.7459C37.5503 30.5932 36.9898 30.5823 36.2949 30.6715C35.9554 30.7151 35.6087 30.7788 35.2506 30.8484C35.1823 30.8616 35.113 30.8753 35.0429 30.889ZM32.9534 29.3561C32.9484 29.3562 32.9494 29.356 32.9554 29.356C32.9547 29.356 32.954 29.3561 32.9534 29.3561Z" fill="black"/>
<path fill-rule="evenodd" clip-rule="evenodd" d="M23.0657 33.8692C23.6171 33.8386 24.0889 34.2608 24.1196 34.8122C24.1214 34.8445 24.1298 34.8895 24.1868 34.9799C24.2536 35.0858 24.3412 35.1875 24.4962 35.3676C24.5074 35.3805 24.5189 35.3939 24.5308 35.4077C25.7584 36.8344 26.9385 38.3016 28.107 39.7544C28.3884 40.1042 28.6691 40.4533 28.9496 40.8007C29.8168 41.8745 30.6511 42.9589 31.4788 44.0348C33.5756 46.7605 35.6304 49.4313 38.0706 51.736C38.4721 52.1152 38.4902 52.7481 38.111 53.1496C37.7318 53.5512 37.0989 53.5692 36.6974 53.19C34.1337 50.7688 31.9295 47.9038 29.7972 45.1322C28.9909 44.0841 28.1949 43.0495 27.3936 42.0572C27.1075 41.7029 26.8231 41.3493 26.5394 40.9966C25.3727 39.5461 24.2186 38.1113 23.0148 36.7122C22.9954 36.6897 22.9739 36.6652 22.9506 36.6387C22.678 36.3288 22.1686 35.7493 22.1227 34.9232C22.092 34.3717 22.5142 33.8999 23.0657 33.8692Z" fill="black"/>
<path fill-rule="evenodd" clip-rule="evenodd" d="M29.3815 42.2755C29.45 42.8235 29.0612 43.3233 28.5132 43.3918C25.6582 43.7487 22.5382 44.1357 19.5906 44.2012C19.0384 44.2134 18.5809 43.7758 18.5686 43.2236C18.5563 42.6715 18.994 42.2139 19.5461 42.2017C22.3742 42.1388 25.3922 41.7664 28.2651 41.4072C28.8132 41.3387 29.313 41.7275 29.3815 42.2755Z" fill="black"/>
<path fill-rule="evenodd" clip-rule="evenodd" d="M14.154 33.3607C13.4238 33.4595 12.6372 33.5659 11.8384 33.5944C11.2865 33.6142 10.8231 33.1827 10.8034 32.6308C10.7837 32.0788 11.2151 31.6154 11.7671 31.5957C12.4623 31.5709 13.1536 31.4776 13.9027 31.3765C13.9613 31.3686 14.0201 31.3606 14.0794 31.3526C14.8777 31.2453 15.7395 31.1357 16.6258 31.1357C17.1781 31.1357 17.6258 31.5835 17.6258 32.1357C17.6258 32.688 17.1781 33.1357 16.6258 33.1357C15.889 33.1357 15.1486 33.2269 14.3459 33.3348C14.2824 33.3434 14.2184 33.352 14.154 33.3607Z" fill="black"/>
<path fill-rule="evenodd" clip-rule="evenodd" d="M7.88973 0.0431162C8.32763 0.189083 8.56429 0.662403 8.41833 1.1003L8.41551 1.10941C8.39961 1.16174 8.32915 1.39375 8.17816 1.57776C7.94933 1.85664 7.64708 1.94538 7.41302 1.97139C6.95425 2.02236 6.54103 1.69178 6.49005 1.23302C6.45229 0.89314 6.62394 0.57826 6.90199 0.417155C7.09639 0.0805798 7.50662 -0.0845886 7.88973 0.0431162ZM1.10748 0.578616C1.33378 0.176307 1.84337 0.0336222 2.24568 0.259921C2.37727 0.333941 2.51024 0.4232 2.63283 0.556322C2.71932 0.650251 2.7919 0.761755 2.82468 0.812113L2.83605 0.829472C3.0921 1.21354 2.98831 1.73245 2.60425 1.98849C2.22018 2.24453 1.70127 2.14075 1.44523 1.75669L1.42563 1.72715L1.41429 1.71C1.02108 1.48042 0.883427 0.976937 1.10748 0.578616ZM13.7442 1.75656C14.1685 1.57474 14.365 1.0834 14.1832 0.65913C14.0014 0.234863 13.51 0.0383281 13.0858 0.220157C12.8288 0.330267 12.6083 0.424186 12.3798 0.503272C11.9436 0.654262 11.7124 1.13027 11.8634 1.56647C12.0144 2.00266 12.4904 2.23386 12.9266 2.08287C13.219 1.98166 13.4919 1.86472 13.7406 1.7581L13.7442 1.75656Z" fill="black"/>
</svg>
