<svg width="63" height="52" viewBox="0 0 63 52" fill="none" xmlns="http://www.w3.org/2000/svg">
<path fill-rule="evenodd" clip-rule="evenodd" d="M30.7428 0.879724C37.1359 0.645424 43.1356 2.40895 47.4571 7.4948C50.9861 11.648 52.3805 17.4181 50.807 22.733C49.3157 27.7702 45.1783 32.2815 40.7244 34.7559C34.4636 38.2341 27.751 38.1428 21.2123 36.0795C15.1181 34.1564 8.81948 29.4315 7.88963 22.5207C7.35461 22.4616 6.96002 21.9873 7.00324 21.4471C7.98824 9.1345 19.1361 1.3051 30.7428 0.879724ZM9.2176 19.8591C9.54637 20.0229 9.77224 20.3624 9.77224 20.7547C9.77224 27.3335 15.5583 32.1981 21.8142 34.1722C27.9866 36.1199 34.1002 36.1481 39.7531 33.0076C43.8395 30.7374 47.5737 26.6091 48.8893 22.1653C50.2594 17.5374 49.0521 12.4606 45.933 8.78984C42.1182 4.30038 36.79 2.65944 30.8161 2.87838C20.5121 3.25601 10.9629 9.8109 9.2176 19.8591Z" fill="black"/>
<path fill-rule="evenodd" clip-rule="evenodd" d="M29.6531 18.355C29.6989 18.9054 29.29 19.3887 28.7396 19.4346C27.1579 19.5664 25.613 19.6311 24.0234 19.6311C23.4712 19.6311 23.0234 19.1834 23.0234 18.6311C23.0234 18.0788 23.4712 17.6311 24.0234 17.6311C25.5572 17.6311 27.0467 17.5687 28.5735 17.4415C29.1239 17.3956 29.6072 17.8046 29.6531 18.355Z" fill="black"/>
<path fill-rule="evenodd" clip-rule="evenodd" d="M43.7413 16.7696C43.8098 17.3176 43.421 17.8174 42.873 17.8859C42.3166 17.9555 41.7442 18.1265 41.0761 18.3261C41.016 18.344 40.9552 18.3622 40.8936 18.3806C40.1904 18.5899 39.3694 18.825 38.5419 18.8581C37.9901 18.8802 37.5248 18.4507 37.5028 17.8989C37.4807 17.347 37.9102 16.8818 38.462 16.8597C39.0051 16.838 39.5995 16.679 40.3231 16.4636C40.3884 16.4442 40.4548 16.4243 40.5224 16.404C41.1585 16.2132 41.893 15.9929 42.6249 15.9014C43.173 15.8329 43.6728 16.2216 43.7413 16.7696Z" fill="black"/>
<path fill-rule="evenodd" clip-rule="evenodd" d="M33.6889 28.5478C32.9093 28.6389 32.0909 29.0272 31.4483 29.6056C31.0378 29.9751 30.4055 29.9418 30.036 29.5313C29.6666 29.1208 29.6998 28.4885 30.1103 28.119C31.0243 27.2965 32.2192 26.7059 33.4568 26.5613C34.7146 26.4143 36.0467 26.7311 37.0847 27.7691C37.4753 28.1596 37.4753 28.7928 37.0847 29.1833C36.6942 29.5739 36.0611 29.5739 35.6705 29.1833C35.1369 28.6497 34.4482 28.4591 33.6889 28.5478Z" fill="black"/>
<path fill-rule="evenodd" clip-rule="evenodd" d="M6.83183 27.5754C7.58188 27.7462 8.32012 28.0782 8.88768 28.507C9.38516 28.8829 9.70925 29.3122 9.86024 29.8587C9.97288 30.2663 9.97051 30.7091 9.96868 31.0497C9.96846 31.0909 9.96824 31.1307 9.96824 31.1687C9.96824 31.7209 9.52053 32.1687 8.96824 32.1687C8.41596 32.1687 7.96824 31.7209 7.96824 31.1687C7.96824 31.1232 7.96832 31.0808 7.96839 31.0409C7.96868 30.879 7.96889 30.7583 7.96369 30.6445C7.95757 30.5108 7.94521 30.4374 7.93249 30.3914C7.93221 30.3903 7.93192 30.3893 7.93163 30.3882C7.92061 30.3479 7.89828 30.2661 7.68201 30.1027C7.36322 29.8619 6.89108 29.6401 6.38775 29.5255C5.87518 29.4088 5.44347 29.4279 5.16174 29.5352C5.04437 29.5799 4.93534 29.6824 4.86963 29.8559C4.80115 30.0367 4.80518 30.2349 4.86444 30.3831C5.18019 31.1725 5.86253 31.5731 6.99251 32.138C7.48649 32.385 7.68671 32.9857 7.43972 33.4797C7.19273 33.9737 6.59206 34.1739 6.09808 33.9269C6.08437 33.92 6.07059 33.9132 6.05676 33.9062C5.01986 33.388 3.63562 32.6962 3.00749 31.1259C2.52019 29.9076 2.99218 28.2215 4.44975 27.6663C5.22634 27.3704 6.09101 27.4067 6.83183 27.5754Z" fill="black"/>
<path fill-rule="evenodd" clip-rule="evenodd" d="M7.33589 33.7534C7.4525 34.2933 7.1094 34.8254 6.56957 34.942C6.35746 34.9878 6.14561 35.0307 5.93458 35.0733C5.26867 35.208 4.61105 35.3409 3.98025 35.5606C3.16377 35.8448 2.59431 36.2131 2.28299 36.7226C2.27656 36.7331 2.27023 36.7434 2.264 36.7536C2.20692 36.8469 2.15771 36.9274 2.11369 37.0068C2.93819 37.2976 4.06823 37.2732 5.38439 37.0357C6.46562 36.8407 7.52278 36.5346 8.47918 36.2578C8.8165 36.1601 9.14128 36.0661 9.45017 35.9819C9.98299 35.8366 10.5327 36.1507 10.678 36.6835C10.8234 37.2164 10.5092 37.7661 9.9764 37.9114C9.72029 37.9813 9.43133 38.065 9.11796 38.1557C8.14355 38.438 6.93303 38.7886 5.7395 39.004C4.18276 39.2848 2.3753 39.3969 0.920364 38.6694C0.567956 38.4932 0.264971 38.2126 0.10771 37.8128C-0.041424 37.4338 -0.0106363 37.0704 0.050915 36.8064C0.15447 36.3624 0.416333 35.9388 0.546415 35.7284C0.557419 35.7106 0.56748 35.6943 0.576422 35.6797C1.23968 34.5943 2.3238 34.0195 3.32265 33.6718C4.09578 33.4026 4.93996 33.2326 5.62526 33.0946C5.81274 33.0568 5.98832 33.0214 6.1473 32.9871C6.68714 32.8705 7.21929 33.2136 7.33589 33.7534ZM1.99764 37.2656C1.99762 37.2656 1.99772 37.265 1.99798 37.2637L1.99764 37.2656Z" fill="black"/>
<path fill-rule="evenodd" clip-rule="evenodd" d="M8.30813 36.4772C8.80944 36.1363 9.52239 35.8962 10.2804 36.2083C10.7911 36.4186 11.0346 37.003 10.8243 37.5137C10.6178 38.0152 10.0504 38.2591 9.54641 38.0685C9.52604 38.0755 9.48954 38.0925 9.43277 38.1311C9.25958 38.2489 9.03967 38.4863 8.83058 38.8305C8.62665 39.1662 8.47234 39.539 8.39347 39.8621C8.3246 40.1442 8.33657 40.2888 8.33963 40.3258C8.34054 40.3368 8.34066 40.3382 8.33765 40.331C8.50572 40.7344 8.7657 40.9338 9.12699 41.0371C9.53752 41.1544 10.1031 41.1473 10.7872 41.0045C12.1535 40.7193 13.6204 39.9739 14.3772 39.4694C14.8368 39.163 15.4576 39.2872 15.764 39.7467C16.0703 40.2063 15.9462 40.8271 15.4866 41.1335C14.5818 41.7367 12.8786 42.611 11.1959 42.9623C10.3556 43.1377 9.42692 43.203 8.57722 42.96C7.67828 42.703 6.91201 42.1095 6.49149 41.1002C6.25535 40.5335 6.32986 39.8821 6.45052 39.3878C6.58166 38.8506 6.81951 38.2888 7.12128 37.7921C7.41788 37.3039 7.8172 36.8111 8.30813 36.4772ZM9.56691 38.0645C9.56664 38.0652 9.56204 38.0665 9.55387 38.0662C9.56308 38.0636 9.56717 38.0638 9.56691 38.0645Z" fill="black"/>
<path fill-rule="evenodd" clip-rule="evenodd" d="M22.01 38.9102C22.4695 39.2166 22.5937 39.8375 22.2874 40.297C21.4416 41.5656 20.1783 42.9717 18.2679 43.2961C17.2258 43.473 16.4228 43.1657 15.7963 42.6344C15.3496 42.2557 14.9723 41.7332 14.6752 41.3218C14.614 41.2372 14.5563 41.1572 14.502 41.0841C14.1727 40.6408 14.2651 40.0144 14.7084 39.6851C15.1518 39.3557 15.7782 39.4481 16.1075 39.8915C16.1991 40.0147 16.2818 40.1284 16.3584 40.2334C16.6463 40.6285 16.8455 40.9019 17.0897 41.109C17.311 41.2966 17.5289 41.393 17.933 41.3243C19.0071 41.1419 19.8649 40.3251 20.6233 39.1876C20.9296 38.7281 21.5505 38.6039 22.01 38.9102Z" fill="black"/>
<path fill-rule="evenodd" clip-rule="evenodd" d="M54.1109 30.78C54.1101 30.7794 54.1093 30.7789 54.1087 30.7783C54.1132 30.7822 54.1165 30.785 54.1186 30.7868C54.1157 30.7835 54.113 30.7815 54.1109 30.78ZM54.1209 30.7895C54.131 30.8028 54.143 30.833 54.1427 30.9113C54.1422 31.0597 54.0895 31.2918 53.9511 31.5931C53.6705 32.2038 53.1851 32.7872 52.9067 33.0165C52.4803 33.3675 52.4192 33.9977 52.7702 34.4241C53.1212 34.8505 53.7514 34.9116 54.1778 34.5605C54.7001 34.1305 55.3675 33.3006 55.7684 32.4281C55.9707 31.9877 56.1409 31.4606 56.1427 30.9178C56.1445 30.3444 55.9532 29.7302 55.4184 29.2668C54.9962 28.901 54.435 28.7763 54.007 28.7253C53.5406 28.6698 53.0289 28.6804 52.5458 28.7239C51.6046 28.8087 50.5779 29.0378 49.9859 29.3115C49.4845 29.5432 49.266 30.1374 49.4977 30.6387C49.7294 31.1401 50.3236 31.3586 50.825 31.1269C51.1266 30.9875 51.9002 30.7902 52.7253 30.7158C53.1254 30.6798 53.4882 30.6777 53.7704 30.7113C54.0247 30.7416 54.1158 30.7897 54.1209 30.7895Z" fill="black"/>
<path fill-rule="evenodd" clip-rule="evenodd" d="M53.9247 36.2771C53.338 35.8361 52.7366 35.3185 52.2526 34.6606C51.9253 34.2157 52.0207 33.5897 52.4656 33.2625C52.9104 32.9352 53.5364 33.0305 53.8636 33.4754C54.1806 33.9063 54.6062 34.2874 55.1263 34.6783C55.3855 34.8731 55.6574 35.0626 55.9454 35.2618C55.9711 35.2796 55.997 35.2975 56.0229 35.3155C56.2832 35.4954 56.5567 35.6845 56.8237 35.8803C57.9985 36.7415 59.2566 37.875 59.5983 39.8093C59.6917 40.3383 59.6372 40.8555 59.3925 41.3118C59.1513 41.7616 58.7773 42.0555 58.402 42.2395C57.6866 42.5904 56.826 42.617 56.1801 42.5391C54.4588 42.3318 53.0826 41.6175 52.008 40.1978C51.6747 39.7575 51.7614 39.1303 52.2018 38.797C52.6421 38.4636 53.2693 38.5504 53.6026 38.9907C54.3194 39.9375 55.1845 40.4047 56.4193 40.5535C56.872 40.608 57.2925 40.5561 57.5214 40.4438C57.5699 40.42 57.5981 40.3991 57.6128 40.3859C57.626 40.374 57.6294 40.3678 57.6299 40.3668L57.6299 40.3667C57.63 40.3666 57.6353 40.3577 57.6387 40.3312C57.6424 40.3029 57.6447 40.2474 57.6287 40.1572C57.4262 39.0103 56.7076 38.275 55.6413 37.4933C55.3977 37.3148 55.1469 37.1413 54.8827 36.9586C54.8577 36.9413 54.8326 36.924 54.8074 36.9065C54.5203 36.7079 54.2189 36.4982 53.9247 36.2771Z" fill="black"/>
<path fill-rule="evenodd" clip-rule="evenodd" d="M51.83 40.5036C51.6011 40.4306 51.3976 40.2754 51.268 40.0509C51.1985 39.9306 51.1345 39.812 51.0869 39.705C51.0646 39.6546 51.0318 39.5757 51.0074 39.4836C50.9953 39.4378 50.9776 39.3608 50.9719 39.2655C50.967 39.1854 50.9633 38.9927 51.0618 38.7763C51.1849 38.5062 51.4327 38.282 51.7616 38.2086C52.0254 38.1498 52.2365 38.2123 52.3221 38.2422C52.4953 38.3027 52.6166 38.3982 52.6516 38.4258L52.6525 38.4264C52.7518 38.5046 52.843 38.5991 52.9091 38.6708C53.1896 38.9751 53.6268 39.5423 54.0764 40.1975C54.5313 40.8606 55.0295 41.658 55.4218 42.4344C55.7927 43.1687 56.1479 44.0329 56.1675 44.7795C56.1833 45.3787 55.9972 45.9462 55.5393 46.3479C55.116 46.7192 54.5976 46.8258 54.1894 46.8423C53.3895 46.8748 52.5298 46.5846 52.0116 46.2872C50.1899 45.2414 49.1748 43.6374 48.487 41.9237C48.2813 41.4111 48.53 40.8289 49.0425 40.6231C49.555 40.4174 50.1373 40.6661 50.343 41.1787C50.9384 42.6618 51.7199 43.8135 53.0073 44.5527C53.1225 44.6187 53.3105 44.7004 53.5307 44.7616C53.7525 44.8233 53.9562 44.8501 54.1083 44.844C54.1315 44.843 54.1514 44.8414 54.1684 44.8395C54.1683 44.8371 54.1683 44.8346 54.1682 44.832C54.1613 44.5676 53.9975 44.0506 53.6367 43.3363C53.2971 42.6642 52.8505 41.9459 52.4272 41.329C52.208 41.0095 52.0029 40.7286 51.83 40.5036ZM52.9148 38.8932C52.9137 38.8908 52.914 38.8913 52.9154 38.8945L52.9148 38.8932Z" fill="black"/>
<path fill-rule="evenodd" clip-rule="evenodd" d="M47.2043 42.1857C47.0737 42.0842 46.9666 41.9488 46.8977 41.7855C46.6831 41.2767 46.9215 40.6901 47.4304 40.4755C47.6259 40.393 47.8767 40.3458 48.1503 40.4062C48.4217 40.4661 48.6238 40.6116 48.7597 40.7567C49.0018 41.0151 49.0935 41.3312 49.1351 41.5201C49.2277 41.9398 49.22 42.4507 49.1599 42.9199C49.0982 43.4013 48.9691 43.9356 48.7537 44.4089C48.5531 44.8497 48.1978 45.4124 47.583 45.6818C46.59 46.1169 45.6403 45.9593 44.8559 45.4879C44.1179 45.0443 43.5319 44.3331 43.0842 43.6189C42.1922 42.1958 41.6268 40.3959 41.5213 39.3988C41.4632 38.8495 41.8613 38.3572 42.4106 38.2991C42.9598 38.241 43.4521 38.6392 43.5102 39.1884C43.5816 39.8637 44.0378 41.3745 44.7788 42.5567C45.1477 43.1452 45.5312 43.5603 45.8862 43.7737C46.1887 43.9555 46.4512 43.9881 46.761 43.8582C46.767 43.8508 46.8386 43.7887 46.9334 43.5804C47.0464 43.3322 47.1331 43.0015 47.1761 42.6659C47.2004 42.4758 47.2071 42.3126 47.2043 42.1857ZM47.1753 41.9263C47.1755 41.926 47.1771 41.9304 47.1796 41.9405C47.1764 41.9316 47.1751 41.9266 47.1753 41.9263Z" fill="black"/>
</svg>
