<svg width="60" height="67" viewBox="0 0 60 67" fill="none" xmlns="http://www.w3.org/2000/svg">
<path fill-rule="evenodd" clip-rule="evenodd" d="M26.0919 0.0223521C32.5201 -0.235569 38.5316 1.71166 42.8443 7.26827C46.3571 11.7943 47.7305 18.0566 46.1741 23.8121C44.6952 29.2808 40.5789 34.2119 36.1149 36.927C29.8355 40.7462 23.0934 40.646 16.5353 38.3804C10.3747 36.2521 4.11296 31.0493 3.22299 23.5336C2.6958 23.4704 2.30638 23.003 2.34548 22.468C3.32179 9.10735 14.4041 0.491302 26.0919 0.0223521ZM4.54562 20.7922C4.88254 20.953 5.11533 21.2969 5.11533 21.6951C5.11533 29.0172 10.9778 34.3445 17.1883 36.49C23.3467 38.6175 29.4363 38.6482 35.0756 35.2182C39.1556 32.7367 42.9142 28.2053 44.2434 23.29C45.6319 18.1555 44.4024 12.5378 41.2643 8.49454C37.4373 3.56378 32.116 1.78226 26.172 2.02074C15.9016 2.43283 6.2592 9.62163 4.54562 20.7922Z" fill="black"/>
<path fill-rule="evenodd" clip-rule="evenodd" d="M29.7502 13.4002C30.0263 13.3329 30.399 13.3035 30.7675 13.4606C30.8528 13.4458 30.9415 13.4437 31.0315 13.456C31.9306 13.5791 32.588 14.1194 32.9238 14.8935C33.2367 15.6146 33.2284 16.4336 33.0549 17.1311C32.8802 17.8338 32.5096 18.5327 31.952 19.0187C31.3722 19.524 30.5955 19.7864 29.7347 19.5508C28.9655 19.3403 28.2653 18.8664 27.8164 18.1531C27.3549 17.4197 27.2027 16.4976 27.4569 15.5389C27.5612 15.1458 27.7948 14.8092 27.9979 14.5698C28.2181 14.3101 28.4881 14.0649 28.7737 13.8653C29.0542 13.6692 29.392 13.4875 29.7502 13.4002ZM30.7983 15.4978C30.7722 15.4942 30.7464 15.4895 30.7211 15.4837C30.5294 15.5278 30.3254 15.5068 30.1391 15.4139C30.0592 15.4373 29.9349 15.4949 29.7852 15.5995C29.6278 15.7096 29.4821 15.8439 29.3752 15.9699C29.3013 16.0571 29.2697 16.1119 29.2595 16.1295C29.2577 16.1326 29.2566 16.1346 29.256 16.1354C29.1652 16.4988 29.2305 16.7733 29.3642 16.9857C29.5132 17.2225 29.7914 17.4454 30.1906 17.5546C30.4218 17.6179 30.6069 17.5609 30.7814 17.4088C30.9781 17.2374 31.1543 16.941 31.2414 16.5906C31.3298 16.235 31.2986 15.9433 31.2261 15.7763C31.1767 15.6624 31.0865 15.5372 30.7983 15.4978ZM30.193 15.4025C30.1929 15.4026 30.1909 15.4029 30.187 15.403C30.1912 15.4024 30.1931 15.4024 30.193 15.4025ZM19.1973 13.6601C18.8672 13.6601 18.5768 13.8465 18.4092 14.1283C17.9879 14.2212 17.616 14.451 17.3297 14.7238C16.9558 15.0799 16.6395 15.5923 16.5403 16.1894C16.4246 16.8863 16.5569 17.5262 16.8753 18.052C17.1801 18.5553 17.6205 18.8992 18.0588 19.1233C18.9096 19.5582 19.9938 19.6633 20.8284 19.3833C21.4909 19.161 22.1021 18.6504 22.4015 17.9308C22.7292 17.1429 22.6275 16.2235 22.0155 15.4791C21.7551 15.1623 21.3556 14.739 20.9052 14.3855C20.494 14.0628 19.8702 13.6601 19.1973 13.6601ZM18.8099 16.1419C19.0731 16.1419 19.311 16.0234 19.4816 15.8326C19.5809 15.8893 19.6916 15.9648 19.8102 16.0579C20.1262 16.3059 20.4263 16.6218 20.6185 16.8556C20.6952 16.9489 20.7033 17.0024 20.7044 17.01C20.7057 17.0188 20.7075 17.0383 20.691 17.0779C20.65 17.1764 20.5133 17.3369 20.2777 17.4159C19.929 17.5329 19.324 17.4991 18.854 17.2588C18.6319 17.1453 18.5039 17.0175 18.4418 16.9149C18.3933 16.8349 18.3601 16.7349 18.3895 16.5575C18.3981 16.5058 18.446 16.388 18.5634 16.2761C18.6806 16.1645 18.7789 16.1419 18.8099 16.1419Z" fill="black"/>
<path fill-rule="evenodd" clip-rule="evenodd" d="M16.9342 26.0856C16.4831 26.8356 16.0661 27.7585 15.9865 27.9544C15.7144 28.6247 15.2853 29.4488 14.564 29.806C14.1576 30.0072 13.7112 30.0338 13.2703 29.8773C12.8563 29.7304 12.4902 29.4387 12.1644 29.082C11.8086 28.6925 11.4703 28.2308 11.1833 27.7387C11.0669 28.0527 10.9631 28.3628 10.8539 28.6891C10.7601 28.9695 10.6623 29.2618 10.5489 29.5788C10.3782 30.0565 10.0842 30.4697 9.63621 30.6921C9.2074 30.905 8.77751 30.8726 8.45081 30.7865C7.83107 30.6232 7.25519 30.1782 6.9248 29.9016C6.49757 29.544 6.0963 29.0539 5.76587 28.6503C5.69394 28.5625 5.62538 28.4787 5.56063 28.4014C5.38294 28.189 5.2231 28.0092 5.07404 27.861C4.97548 28.0827 4.86966 28.3472 4.76335 28.6363C4.59136 29.104 4.43215 29.5975 4.31557 30.0044C4.2572 30.2082 4.21176 30.3824 4.18119 30.5158C4.15361 30.6361 4.14714 30.6854 4.14639 30.6853C4.14616 30.6852 4.1465 30.6802 4.14692 30.671C4.121 31.2385 3.67977 31.6755 3.1614 31.6471C2.64304 31.6188 2.24383 31.1357 2.26975 30.5682C2.27816 30.3839 2.32185 30.1735 2.35818 30.015C2.40027 29.8314 2.45678 29.617 2.5222 29.3886C2.6532 28.9314 2.82895 28.3869 3.01981 27.8679C3.20728 27.358 3.42394 26.8324 3.64073 26.4343C3.74391 26.2448 3.88144 26.0192 4.05236 25.8403C4.1533 25.7347 4.65307 25.2407 5.29834 25.5618C5.99209 25.9071 6.53473 26.5192 6.94659 27.0115C7.04421 27.1282 7.13501 27.2385 7.22078 27.3428C7.54213 27.7333 7.79281 28.038 8.06651 28.2671C8.21036 28.3876 8.36652 28.5078 8.52144 28.6061C8.64261 28.6829 8.74358 28.7338 8.82192 28.7635C8.89654 28.5523 8.9746 28.3201 9.05588 28.0784C9.22089 27.5876 9.39915 27.0574 9.58869 26.5831L9.58856 26.5835C9.58855 26.5835 9.59046 26.5785 9.59425 26.5672C9.59849 26.5546 9.60392 26.5375 9.61068 26.5149C9.62457 26.4685 9.64027 26.4118 9.65962 26.3401C9.66572 26.3175 9.6722 26.2933 9.67902 26.2678C9.71253 26.1427 9.75428 25.9867 9.79997 25.8362C9.85448 25.6566 9.92808 25.4379 10.0269 25.2343C10.1131 25.0567 10.2845 24.7476 10.5939 24.5483C11.0205 24.2736 11.4322 24.4321 11.6308 24.5665C11.8043 24.6839 11.9138 24.8347 11.9637 24.9076C12.0757 25.0714 12.1626 25.262 12.218 25.3915C12.2796 25.536 12.3335 25.6807 12.3717 25.787C12.4263 25.9389 12.4258 25.9419 12.4239 25.9373C12.6643 26.5318 13.063 27.1558 13.4935 27.627C13.6567 27.8058 13.7661 27.8787 13.8201 27.9066C13.8465 27.8825 13.8888 27.8372 13.9446 27.7565C14.044 27.6126 14.1538 27.4026 14.269 27.1187C14.3808 26.8434 14.8452 25.8173 15.3645 24.9539C15.6139 24.5393 15.9315 24.0668 16.2737 23.7566C16.4344 23.611 16.7173 23.3912 17.0897 23.3476C17.2966 23.3234 17.5242 23.3553 17.7426 23.4742C17.9558 23.5903 18.1079 23.7607 18.2125 23.9274C18.4287 24.2717 18.6498 24.5891 18.8874 24.9304C19.0458 25.1578 19.2115 25.3958 19.3881 25.6593C19.7998 26.2739 20.223 26.9633 20.5203 27.7228C20.7247 28.245 20.5037 28.8498 20.0267 29.0737C19.5496 29.2975 18.9972 29.0556 18.7927 28.5333C18.5813 27.9934 18.2603 27.4552 17.8725 26.8763C17.7412 26.6803 17.5934 26.4674 17.4405 26.2474C17.3356 26.0963 17.2284 25.9419 17.1226 25.7873C17.0639 25.8753 17.0009 25.9748 16.9342 26.0856ZM17.4973 25.3212C17.4973 25.3216 17.4937 25.3246 17.4865 25.3292C17.4938 25.3232 17.4974 25.3209 17.4973 25.3212ZM8.94013 28.7952C8.94015 28.7952 8.93937 28.7952 8.93771 28.7951C8.93929 28.7951 8.94011 28.7951 8.94013 28.7952ZM11.6946 26.1842C11.6992 26.1754 11.7017 26.1717 11.7018 26.172C11.7019 26.1724 11.6996 26.1767 11.6946 26.1842Z" fill="black"/>
<path fill-rule="evenodd" clip-rule="evenodd" d="M49.6911 23.4404C49.24 24.1903 48.8229 25.1132 48.7434 25.3092C48.4713 25.9794 48.0422 26.8035 47.3208 27.1607C46.9144 27.362 46.468 27.3885 46.0271 27.232C45.6131 27.0851 45.2471 26.7935 44.9213 26.4368C44.5654 26.0472 44.2271 25.5855 43.9402 25.0935C43.8237 25.4074 43.7199 25.7175 43.6107 26.0439C43.5169 26.3242 43.4191 26.6165 43.3058 26.9336C43.1351 27.4112 42.841 27.8245 42.393 28.0469C41.9642 28.2598 41.5343 28.2273 41.2076 28.1413C40.5879 27.9779 40.012 27.533 39.6816 27.2564C39.2544 26.8987 38.8531 26.4086 38.5227 26.0051C38.4508 25.9172 38.3822 25.8335 38.3175 25.7561C38.1398 25.5437 37.9799 25.3639 37.8309 25.2157C37.7323 25.4374 37.6265 25.7019 37.5202 25.991C37.3482 26.4588 37.189 26.9522 37.0724 27.3592C37.014 27.5629 36.9686 27.7371 36.938 27.8705C36.9104 27.9909 36.904 28.0401 36.9032 28.04C36.903 28.04 36.9033 28.035 36.9038 28.0257C36.8778 28.5932 36.4366 29.0303 35.9182 29.0019C35.3999 28.9735 35.0007 28.4904 35.0266 27.9229C35.035 27.7387 35.0787 27.5283 35.115 27.3698C35.1571 27.1861 35.2136 26.9717 35.279 26.7433C35.41 26.2861 35.5858 25.7416 35.7766 25.2226C35.9641 24.7128 36.1808 24.1871 36.3976 23.789C36.5007 23.5995 36.6383 23.3739 36.8092 23.1951C36.9101 23.0894 37.4099 22.5955 38.0552 22.9166C38.7489 23.2618 39.2916 23.874 39.7034 24.3662C39.801 24.4829 39.8918 24.5933 39.9776 24.6975C40.299 25.088 40.5496 25.3927 40.8233 25.6219C40.9672 25.7423 41.1234 25.8626 41.2783 25.9608C41.3994 26.0377 41.5004 26.0885 41.5788 26.1183C41.6534 25.907 41.7314 25.6749 41.8127 25.4331C41.9777 24.9423 42.156 24.4122 42.3455 23.9379L42.3454 23.9382C42.3454 23.9382 42.3473 23.9333 42.3511 23.922C42.3553 23.9093 42.3608 23.8922 42.3675 23.8696C42.3814 23.8232 42.3971 23.7665 42.4165 23.6948C42.4226 23.6722 42.429 23.648 42.4359 23.6225C42.4694 23.4974 42.5111 23.3415 42.5568 23.1909C42.6113 23.0113 42.6849 22.7927 42.7837 22.5891C42.8699 22.4114 43.0414 22.1023 43.3507 21.9031C43.7773 21.6283 44.189 21.7868 44.3877 21.9213C44.5611 22.0387 44.6707 22.1894 44.7206 22.2624C44.8325 22.4261 44.9195 22.6167 44.9748 22.7463C45.0365 22.8908 45.0903 23.0354 45.1285 23.1417C45.1831 23.2936 45.1826 23.2966 45.1808 23.2921C45.4211 23.8865 45.8198 24.5105 46.2503 24.9818C46.4135 25.1605 46.5229 25.2334 46.577 25.2613C46.6033 25.2372 46.6457 25.1919 46.7014 25.1112C46.8008 24.9674 46.9106 24.7573 47.0259 24.4735C47.1376 24.1982 47.602 23.172 48.1214 22.3086C48.3708 21.894 48.6883 21.4216 49.0306 21.1113C49.1912 20.9657 49.4741 20.7459 49.8465 20.7024C50.0534 20.6782 50.281 20.71 50.4995 20.829C50.7126 20.9451 50.8647 21.1155 50.9693 21.2821C51.1855 21.6264 51.4066 21.9439 51.6443 22.2851C51.8026 22.5125 51.9684 22.7505 52.1449 23.0141C52.5566 23.6286 52.9798 24.3181 53.2771 25.0775C53.4815 25.5998 53.2605 26.2046 52.7835 26.4284C52.3065 26.6522 51.754 26.4103 51.5495 25.888C51.3382 25.3481 51.0172 24.8099 50.6293 24.231C50.498 24.035 50.3502 23.8221 50.1974 23.6021C50.0925 23.4511 49.9852 23.2967 49.8794 23.142C49.8208 23.23 49.7578 23.3295 49.6911 23.4404ZM50.2542 22.6759C50.2541 22.6763 50.2505 22.6793 50.2434 22.6839C50.2506 22.6779 50.2542 22.6756 50.2542 22.6759ZM41.697 26.1499C41.697 26.1499 41.6962 26.1499 41.6946 26.1498C41.6961 26.1498 41.697 26.1499 41.697 26.1499ZM44.4514 23.5389C44.4561 23.5301 44.4586 23.5264 44.4587 23.5268C44.4587 23.5271 44.4564 23.5315 44.4514 23.5389Z" fill="black"/>
<path fill-rule="evenodd" clip-rule="evenodd" d="M2.66325 38.5409C3.17642 38.7451 3.42695 39.3266 3.22282 39.8397C2.09892 42.6652 1.70726 45.9899 2.22599 49.043C2.74409 52.0923 4.15426 54.7995 6.56332 56.5219C11.6676 60.1713 17.488 58.9657 23.3376 56.9434C23.8595 56.7629 24.429 57.0398 24.6094 57.5617C24.7899 58.0837 24.513 58.6531 23.9911 58.8336C18.1208 60.8631 11.3903 62.4316 5.40012 58.1489C2.46035 56.047 0.837487 52.8107 0.254252 49.378C-0.328346 45.949 0.110362 42.2532 1.36445 39.1005C1.56858 38.5873 2.15007 38.3368 2.66325 38.5409Z" fill="black"/>
<path fill-rule="evenodd" clip-rule="evenodd" d="M25.2774 51.5124C24.9814 51.403 24.6226 51.392 24.1121 51.7218C23.8162 51.913 23.5614 52.2985 23.4072 52.8988C23.2559 53.4879 23.2354 54.1641 23.3043 54.7372C23.4464 55.9197 23.8839 56.8365 24.6337 57.6573C25.0062 58.0651 24.9775 58.6976 24.5698 59.0701C24.162 59.4425 23.5295 59.4139 23.157 59.0061C22.1291 57.8808 21.511 56.5771 21.3186 54.9759C21.2259 54.2042 21.2461 53.2731 21.47 52.4012C21.6911 51.5405 22.146 50.611 23.0268 50.042C24.0123 49.4052 25.0261 49.2875 25.9704 49.6362C26.85 49.9612 27.5464 50.6459 28.0819 51.3624C29.1551 52.7983 29.878 54.7671 30.2489 55.9853C30.4098 56.5137 30.1119 57.0724 29.5835 57.2332C29.0552 57.3941 28.4965 57.0962 28.3356 56.5679C27.9813 55.404 27.3387 53.7088 26.4799 52.5597C26.0493 51.9836 25.6379 51.6455 25.2774 51.5124Z" fill="black"/>
<path fill-rule="evenodd" clip-rule="evenodd" d="M34.7081 55.8578C33.9738 55.6568 33.1645 55.5968 32.4479 55.6066C32.0665 55.6118 31.615 55.6562 31.2086 55.765C30.7861 55.8781 30.5179 56.0324 30.3829 56.1802C30.0104 56.588 29.3779 56.6166 28.9701 56.2442C28.5623 55.8717 28.5337 55.2392 28.9062 54.8314C29.4087 54.2812 30.0975 53.992 30.6915 53.833C31.3016 53.6697 31.9262 53.6136 32.4206 53.6068C33.2494 53.5954 34.2603 53.6617 35.2361 53.9288C36.2077 54.1947 37.2229 54.6819 37.9523 55.5707C38.6598 56.4327 38.9962 57.3665 38.8582 58.3539C38.727 59.293 38.1883 60.1067 37.5337 60.8107C36.232 62.2108 34.4622 62.2858 33.1643 62.2858C32.612 62.2858 32.1643 61.8381 32.1643 61.2858C32.1643 60.7336 32.612 60.2858 33.1643 60.2858C34.4718 60.2858 35.4083 60.1595 36.069 59.4489C36.6014 58.8763 36.8282 58.4299 36.8774 58.0771C36.92 57.7725 36.8519 57.3823 36.4064 56.8396C36.0312 56.3825 35.4466 56.0599 34.7081 55.8578Z" fill="black"/>
<path fill-rule="evenodd" clip-rule="evenodd" d="M31.9316 61.3568C31.9634 60.8054 32.4361 60.3842 32.9875 60.416C33.4346 60.4418 33.9027 60.6597 34.2568 60.8655C34.6483 61.093 35.0617 61.4015 35.4203 61.7572C35.7703 62.1044 36.1233 62.551 36.3161 63.0658C36.5192 63.6081 36.5591 64.2896 36.1438 64.9192C35.7296 65.5471 35.036 65.8624 34.5087 66.0259C33.9488 66.1995 33.3625 66.2677 32.9235 66.2677C31.8431 66.2677 30.6627 66.0497 29.642 65.3048C29.1959 64.9792 29.0982 64.3536 29.4238 63.9075C29.7494 63.4614 30.3749 63.3637 30.8211 63.6893C31.3829 64.0994 32.0955 64.2677 32.9235 64.2677C33.1855 64.2677 33.5697 64.2231 33.9163 64.1157C34.2597 64.0092 34.414 63.889 34.4625 63.8332C34.46 63.8194 34.4546 63.7977 34.4432 63.7673C34.3899 63.625 34.2521 63.4155 34.0119 63.1772C33.7803 62.9475 33.504 62.7412 33.2517 62.5946C33.0451 62.4745 32.9198 62.432 32.8795 62.4183C32.8633 62.4128 32.8609 62.412 32.8724 62.4127C32.3211 62.3809 31.8999 61.9082 31.9316 61.3568Z" fill="black"/>
<path fill-rule="evenodd" clip-rule="evenodd" d="M53.5412 28.6903C53.86 28.2393 54.484 28.1322 54.935 28.451C56.6417 29.6575 57.5342 30.9471 58.3403 33.0253C59.4616 35.9162 60.2787 39.8327 59.9109 43.1586C59.2881 48.79 54.6962 53.3945 50.1866 54.25C49.644 54.3529 49.1206 53.9965 49.0177 53.4539C48.9148 52.9113 49.2712 52.388 49.8138 52.2851C53.4369 51.5977 57.3942 47.7206 57.923 42.9387C58.2448 40.0291 57.5217 36.4455 56.4756 33.7486C55.7799 31.9547 55.1011 31.0177 53.7804 30.0841C53.3295 29.7653 53.2223 29.1412 53.5412 28.6903Z" fill="black"/>
<path fill-rule="evenodd" clip-rule="evenodd" d="M49.218 47.7691C50.023 49.2628 50.5382 51.1973 50.6121 52.1687C50.654 52.7194 50.2416 53.1998 49.6909 53.2417C49.1402 53.2836 48.6598 52.8712 48.6179 52.3205C48.5667 51.6485 48.1396 49.9839 47.4574 48.7179C47.111 48.0751 46.773 47.6779 46.5068 47.5124C46.3923 47.4412 46.3269 47.4351 46.2954 47.4361C46.2662 47.4371 46.1787 47.4467 46.0222 47.563C45.891 47.6606 45.7396 47.8579 45.6194 48.2094C45.5009 48.5559 45.4349 48.991 45.4309 49.466C45.4224 50.4579 45.6802 51.3608 45.9675 51.7651C46.2873 52.2154 46.1817 52.8396 45.7314 53.1595C45.2812 53.4794 44.6569 53.3737 44.337 52.9234C43.7156 52.0486 43.4204 50.6726 43.4309 49.4488C43.4364 48.816 43.5229 48.159 43.7269 47.5623C43.9293 46.9706 44.2703 46.3734 44.8288 45.9581C45.2486 45.646 45.7202 45.4542 46.2289 45.4373C46.7353 45.4204 47.1865 45.5799 47.5631 45.8141C48.279 46.2593 48.8209 47.0322 49.218 47.7691Z" fill="black"/>
<path fill-rule="evenodd" clip-rule="evenodd" d="M45.2729 51.6921C45.633 52.1108 45.5856 52.7422 45.1669 53.1024C44.7984 53.4193 44.3698 53.7333 43.963 54.0314C43.9167 54.0653 43.8707 54.099 43.825 54.1325C43.3628 54.4718 42.9203 54.803 42.5226 55.1587C41.7199 55.8767 41.2305 56.5803 41.1597 57.4043C41.1377 57.66 41.1673 57.7981 41.1892 57.8599C41.2062 57.9078 41.2204 57.9182 41.2272 57.9232C41.2275 57.9235 41.2278 57.9237 41.2281 57.9239C41.2721 57.9568 41.4549 58.0373 41.9029 58.001C42.7744 57.9306 43.8765 57.4884 44.4605 57.2192C44.962 56.988 45.556 57.2072 45.7872 57.7087C46.0184 58.2103 45.7993 58.8043 45.2977 59.0355C44.6929 59.3143 43.3145 59.8935 42.0641 59.9945C41.4511 60.0441 40.6625 59.9978 40.0311 59.5262C39.3252 58.9988 39.0874 58.1592 39.167 57.233C39.3026 55.6563 40.2416 54.5156 41.1893 53.668C41.6668 53.2409 42.18 52.859 42.6415 52.5202C42.6863 52.4874 42.7304 52.455 42.7739 52.4232C43.1945 52.1148 43.5572 51.8488 43.8627 51.5861C44.2813 51.226 44.9127 51.2734 45.2729 51.6921Z" fill="black"/>
<path fill-rule="evenodd" clip-rule="evenodd" d="M45.3389 58.6625C45.7952 58.3611 45.9252 57.7478 45.6283 57.2868C45.3293 56.8225 44.7104 56.6885 44.2461 56.9875C43.1688 57.6813 43.2401 58.977 43.4036 59.708C43.5825 60.5077 44.0146 61.3778 44.5374 61.8563C45.7152 62.9344 47.1546 62.6838 48.1941 62.1472C49.2279 61.6134 50.1351 60.691 50.6508 59.844C50.9381 59.3723 50.7885 58.757 50.3168 58.4698C49.8451 58.1825 49.2299 58.3321 48.9426 58.8038C48.5969 59.3715 47.9503 60.0222 47.2766 60.3701C46.6085 60.715 46.1865 60.6545 45.8877 60.381C45.8414 60.3385 45.7348 60.2088 45.6166 59.9811C45.5043 59.7649 45.4096 59.5138 45.3554 59.2715C45.2995 59.0214 45.2989 58.8356 45.3209 58.7251C45.3276 58.6914 45.3344 58.6723 45.3389 58.6625ZM45.3403 58.6597C45.3425 58.6552 45.344 58.6536 45.3441 58.654C45.3443 58.6543 45.3431 58.6566 45.3403 58.6597Z" fill="black"/>
</svg>
