<svg width="20" height="22" viewBox="0 0 20 22" fill="none" xmlns="http://www.w3.org/2000/svg">
<path d="M2.22222 22C1.61111 22 1.08796 21.7846 0.652778 21.3538C0.217593 20.9229 0 20.405 0 19.8V4.4C0 3.795 0.217593 3.27708 0.652778 2.84625C1.08796 2.41542 1.61111 2.2 2.22222 2.2H3.33333V1.1C3.33333 0.788333 3.43981 0.527083 3.65278 0.31625C3.86574 0.105417 4.12963 0 4.44444 0C4.75926 0 5.02315 0.105417 5.23611 0.31625C5.44907 0.527083 5.55556 0.788333 5.55556 1.1V2.2H14.4444V1.1C14.4444 0.788333 14.5509 0.527083 14.7639 0.31625C14.9769 0.105417 15.2407 0 15.5556 0C15.8704 0 16.1343 0.105417 16.3472 0.31625C16.5602 0.527083 16.6667 0.788333 16.6667 1.1V2.2H17.7778C18.3889 2.2 18.912 2.41542 19.3472 2.84625C19.7824 3.27708 20 3.795 20 4.4V19.8C20 20.405 19.7824 20.9229 19.3472 21.3538C18.912 21.7846 18.3889 22 17.7778 22H2.22222ZM2.22222 19.8H17.7778V8.8H2.22222V19.8ZM10 13.2C9.68519 13.2 9.4213 13.0946 9.20833 12.8837C8.99537 12.6729 8.88889 12.4117 8.88889 12.1C8.88889 11.7883 8.99537 11.5271 9.20833 11.3162C9.4213 11.1054 9.68519 11 10 11C10.3148 11 10.5787 11.1054 10.7917 11.3162C11.0046 11.5271 11.1111 11.7883 11.1111 12.1C11.1111 12.4117 11.0046 12.6729 10.7917 12.8837C10.5787 13.0946 10.3148 13.2 10 13.2ZM5.55556 13.2C5.24074 13.2 4.97685 13.0946 4.76389 12.8837C4.55093 12.6729 4.44444 12.4117 4.44444 12.1C4.44444 11.7883 4.55093 11.5271 4.76389 11.3162C4.97685 11.1054 5.24074 11 5.55556 11C5.87037 11 6.13426 11.1054 6.34722 11.3162C6.56019 11.5271 6.66667 11.7883 6.66667 12.1C6.66667 12.4117 6.56019 12.6729 6.34722 12.8837C6.13426 13.0946 5.87037 13.2 5.55556 13.2ZM14.4444 13.2C14.1296 13.2 13.8657 13.0946 13.6528 12.8837C13.4398 12.6729 13.3333 12.4117 13.3333 12.1C13.3333 11.7883 13.4398 11.5271 13.6528 11.3162C13.8657 11.1054 14.1296 11 14.4444 11C14.7593 11 15.0231 11.1054 15.2361 11.3162C15.4491 11.5271 15.5556 11.7883 15.5556 12.1C15.5556 12.4117 15.4491 12.6729 15.2361 12.8837C15.0231 13.0946 14.7593 13.2 14.4444 13.2ZM10 17.6C9.68519 17.6 9.4213 17.4946 9.20833 17.2838C8.99537 17.0729 8.88889 16.8117 8.88889 16.5C8.88889 16.1883 8.99537 15.9271 9.20833 15.7162C9.4213 15.5054 9.68519 15.4 10 15.4C10.3148 15.4 10.5787 15.5054 10.7917 15.7162C11.0046 15.9271 11.1111 16.1883 11.1111 16.5C11.1111 16.8117 11.0046 17.0729 10.7917 17.2838C10.5787 17.4946 10.3148 17.6 10 17.6ZM5.55556 17.6C5.24074 17.6 4.97685 17.4946 4.76389 17.2838C4.55093 17.0729 4.44444 16.8117 4.44444 16.5C4.44444 16.1883 4.55093 15.9271 4.76389 15.7162C4.97685 15.5054 5.24074 15.4 5.55556 15.4C5.87037 15.4 6.13426 15.5054 6.34722 15.7162C6.56019 15.9271 6.66667 16.1883 6.66667 16.5C6.66667 16.8117 6.56019 17.0729 6.34722 17.2838C6.13426 17.4946 5.87037 17.6 5.55556 17.6ZM14.4444 17.6C14.1296 17.6 13.8657 17.4946 13.6528 17.2838C13.4398 17.0729 13.3333 16.8117 13.3333 16.5C13.3333 16.1883 13.4398 15.9271 13.6528 15.7162C13.8657 15.5054 14.1296 15.4 14.4444 15.4C14.7593 15.4 15.0231 15.5054 15.2361 15.7162C15.4491 15.9271 15.5556 16.1883 15.5556 16.5C15.5556 16.8117 15.4491 17.0729 15.2361 17.2838C15.0231 17.4946 14.7593 17.6 14.4444 17.6Z" fill="#989898"/>
</svg>
