<svg width="26" height="26" viewBox="0 0 26 26" fill="none" xmlns="http://www.w3.org/2000/svg">
<path d="M4.62889 10.7568C5.14784 8.82006 6.32229 7.12315 7.95211 5.95524C9.58193 4.78733 11.5663 4.22066 13.5671 4.3518C15.5679 4.48294 17.4613 5.30377 18.9247 6.67442C20.3882 8.04508 21.3311 9.88076 21.5928 11.8687" stroke="#B3B3B3" stroke-width="2" stroke-linejoin="round"/>
<path d="M3.21192 6.64746L4.33347 10.8331L8.51914 9.71159" stroke="#B3B3B3" stroke-width="2" stroke-linejoin="round"/>
<path d="M21.3711 15.2427C20.8522 17.1795 19.6777 18.8764 18.0479 20.0443C16.4181 21.2122 14.4337 21.7789 12.4329 21.6477C10.4321 21.5166 8.53872 20.6957 7.07528 19.3251C5.61185 17.9544 4.66894 16.1188 4.40723 14.1308" stroke="#B3B3B3" stroke-width="2" stroke-linejoin="round"/>
<path d="M22.7881 19.352L21.6665 15.1664L17.4809 16.2879" stroke="#B3B3B3" stroke-width="2" stroke-linejoin="round"/>
</svg>
